<svg xmlns="http://www.w3.org/2000/svg" xmlns:xlink="http://www.w3.org/1999/xlink" width="1920" zoomAndPan="magnify" viewBox="0 0 1440 809.999993" height="1080" preserveAspectRatio="xMidYMid meet" version="1.0"><defs><filter x="0%" y="0%" width="100%" height="100%" id="93166938a0"><feColorMatrix values="0 0 0 0 1 0 0 0 0 1 0 0 0 0 1 0 0 0 1 0" color-interpolation-filters="sRGB"/></filter><mask id="9d66b5dfe9"><g filter="url(#93166938a0)"><rect x="-144" width="1728" fill="#000000" y="-80.999999" height="971.999992" fill-opacity="0.3"/></g></mask><clipPath id="56c00b6eaf"><path d="M 944 30.386719 L 1437 30.386719 L 1437 615 L 944 615 Z M 944 30.386719 " clip-rule="nonzero"/></clipPath><clipPath id="6eb76a9063"><path d="M 1436.144531 311.070312 C 1437.414062 586.65625 1184.105469 706.984375 1019.773438 534.902344 C 935.640625 446.835938 919.238281 262.40625 985.878906 149.039062 C 1041.078125 55.101562 1145.308594 -0.222656 1281.980469 49.289062 C 1270.902344 176.277344 1181.867188 253.992188 1043.136719 280.140625 C 1046.707031 250.664062 1055.484375 222.941406 1068.496094 199.640625 C 1119.402344 185.054688 1169.578125 155.515625 1193.367188 105.820312 C 1129.148438 106.304688 1089.015625 132.394531 1057.117188 177.609375 C 971.957031 298.421875 1031.9375 539.382812 1191.128906 539.199219 C 1373.4375 539.019531 1418.105469 234.6875 1283.3125 134.269531 C 1293.175781 110.96875 1299.53125 85.726562 1302.316406 58.914062 C 1392.320312 108.789062 1435.597656 196.25 1436.144531 311.070312 " clip-rule="nonzero"/></clipPath><clipPath id="24181d0bf4"><path d="M 0 0.386719 L 493 0.386719 L 493 585 L 0 585 Z M 0 0.386719 " clip-rule="nonzero"/></clipPath><clipPath id="8efc0fadbc"><path d="M 492.144531 281.070312 C 493.414062 556.65625 240.105469 676.984375 75.773438 504.902344 C -8.359375 416.835938 -24.761719 232.40625 41.878906 119.039062 C 97.078125 25.101562 201.308594 -30.222656 337.980469 19.289062 C 326.902344 146.277344 237.867188 223.992188 99.136719 250.140625 C 102.707031 220.664062 111.484375 192.941406 124.496094 169.640625 C 175.402344 155.054688 225.578125 125.515625 249.367188 75.820312 C 185.148438 76.304688 145.015625 102.394531 113.117188 147.609375 C 27.957031 268.421875 87.9375 509.382812 247.128906 509.199219 C 429.4375 509.019531 474.105469 204.6875 339.3125 104.269531 C 349.175781 80.96875 355.53125 55.726562 358.316406 28.914062 C 448.320312 78.789062 491.597656 166.25 492.144531 281.070312 " clip-rule="nonzero"/></clipPath><clipPath id="0f42b71eb0"><rect x="0" width="493" y="0" height="585"/></clipPath><clipPath id="1d4f9e0509"><path d="M 5 32 L 457.707031 32 L 457.707031 447 L 5 447 Z M 5 32 " clip-rule="nonzero"/></clipPath><clipPath id="198b656a33"><path d="M 451.054688 278.507812 C 432.714844 342.96875 378.179688 390.0625 300.519531 409.246094 C 276.550781 400.714844 251.554688 396.296875 226.3125 396.296875 C 189.875 396.296875 153.984375 405.191406 119.542969 422.746094 C 106.226562 429.464844 93.636719 437.394531 81.773438 446.289062 C 79.171875 448.226562 75.902344 444.71875 78.140625 442.296875 C 117.0625 400.230469 177.953125 359.976562 273.101562 340.972656 C 330.964844 329.410156 369.339844 300.175781 381.203125 258.59375 C 392.582031 218.585938 377.753906 170.648438 344.34375 139.355469 C 322.191406 118.59375 273.34375 87.964844 195.261719 115.871094 C 110.464844 146.195312 74.875 245.640625 74.570312 246.609375 L 5.871094 223.003906 C 7.6875 217.617188 52.597656 89.722656 170.808594 47.472656 C 254.398438 17.632812 335.75 31.796875 393.976562 86.332031 C 447.605469 136.507812 470 211.988281 451.054688 278.507812 " clip-rule="nonzero"/></clipPath><clipPath id="67468c5c0d"><path d="M 0.761719 0 L 452.707031 0 L 452.707031 415 L 0.761719 415 Z M 0.761719 0 " clip-rule="nonzero"/></clipPath><clipPath id="0fdf8a5307"><path d="M 446.054688 246.507812 C 427.714844 310.96875 373.179688 358.0625 295.519531 377.246094 C 271.550781 368.714844 246.554688 364.296875 221.3125 364.296875 C 184.875 364.296875 148.984375 373.191406 114.542969 390.746094 C 101.226562 397.464844 88.636719 405.394531 76.773438 414.289062 C 74.171875 416.226562 70.902344 412.71875 73.140625 410.296875 C 112.0625 368.230469 172.953125 327.976562 268.101562 308.972656 C 325.964844 297.410156 364.339844 268.175781 376.203125 226.59375 C 387.582031 186.585938 372.753906 138.648438 339.34375 107.355469 C 317.191406 86.59375 268.34375 55.964844 190.261719 83.871094 C 105.464844 114.195312 69.875 213.640625 69.570312 214.609375 L 0.871094 191.003906 C 2.6875 185.617188 47.597656 57.722656 165.808594 15.472656 C 249.398438 -14.367188 330.75 -0.203125 388.976562 54.332031 C 442.605469 104.507812 465 179.988281 446.054688 246.507812 " clip-rule="nonzero"/></clipPath><clipPath id="bdda1c1682"><rect x="0" width="453" y="0" height="415"/></clipPath><clipPath id="8182fb242d"><path d="M 3.492188 135 L 926 135 L 926 735.613281 L 3.492188 735.613281 Z M 3.492188 135 " clip-rule="nonzero"/></clipPath><clipPath id="bba87cc782"><path d="M 872.023438 412.578125 C 923.171875 460.394531 939.269531 534.359375 913.003906 600.9375 C 879.773438 685.074219 791.28125 735.25 676.21875 735.25 C 574.894531 735.25 480.105469 657.53125 388.46875 582.359375 C 360.019531 558.992188 333.085938 536.902344 306.632812 517.652344 C 246.894531 474.195312 190.421875 491.929688 162.09375 506.335938 C 112.523438 531.574219 76.507812 582.117188 76.507812 626.542969 L 3.875 626.542969 C 3.875 555.179688 55.382812 479.15625 129.167969 441.628906 C 202.585938 404.222656 282.847656 410.519531 349.367188 458.878906 C 377.511719 479.398438 406.503906 503.1875 434.53125 526.1875 C 516.304688 593.253906 600.859375 662.617188 676.21875 662.617188 C 760.351562 662.617188 823.601562 629.628906 845.453125 574.246094 C 860.707031 535.628906 851.625 492.957031 822.390625 465.597656 C 772.820312 419.296875 677.910156 422.625 568.476562 474.558594 L 516.605469 499.191406 L 516.484375 135.90625 C 532.28125 163.140625 556.734375 188.625 589.179688 211.441406 L 589.179688 387.035156 C 753.390625 326.566406 840.488281 383.101562 872.023438 412.578125 " clip-rule="nonzero"/></clipPath><clipPath id="4b371b8110"><path d="M 0.839844 0.679688 L 923 0.679688 L 923 600.441406 L 0.839844 600.441406 Z M 0.839844 0.679688 " clip-rule="nonzero"/></clipPath><clipPath id="c61014b78a"><path d="M 869.023438 277.578125 C 920.171875 325.394531 936.269531 399.359375 910.003906 465.9375 C 876.773438 550.074219 788.28125 600.25 673.21875 600.25 C 571.894531 600.25 477.105469 522.53125 385.46875 447.359375 C 357.019531 423.992188 330.085938 401.902344 303.632812 382.652344 C 243.894531 339.195312 187.421875 356.929688 159.09375 371.335938 C 109.523438 396.574219 73.507812 447.117188 73.507812 491.542969 L 0.875 491.542969 C 0.875 420.179688 52.382812 344.15625 126.167969 306.628906 C 199.585938 269.222656 279.847656 275.519531 346.367188 323.878906 C 374.511719 344.398438 403.503906 368.1875 431.53125 391.1875 C 513.304688 458.253906 597.859375 527.617188 673.21875 527.617188 C 757.351562 527.617188 820.601562 494.628906 842.453125 439.246094 C 857.707031 400.628906 848.625 357.957031 819.390625 330.597656 C 769.820312 284.296875 674.910156 287.625 565.476562 339.558594 L 513.605469 364.191406 L 513.484375 0.90625 C 529.28125 28.140625 553.734375 53.625 586.179688 76.441406 L 586.179688 252.035156 C 750.390625 191.566406 837.488281 248.101562 869.023438 277.578125 " clip-rule="nonzero"/></clipPath><clipPath id="a60a72340b"><rect x="0" width="923" y="0" height="601"/></clipPath><clipPath id="156f4d7f96"><path d="M 516 60.269531 L 935.828125 60.269531 L 935.828125 289 L 516 289 Z M 516 60.269531 " clip-rule="nonzero"/></clipPath><clipPath id="bd41e78df2"><path d="M 935.640625 216.164062 C 929.707031 238.984375 926.015625 263.195312 924.683594 288.554688 C 777.660156 286.074219 520.722656 217.675781 516.484375 60.367188 L 589.117188 60.304688 C 589.117188 135.058594 765.980469 214.105469 935.640625 216.164062 " clip-rule="nonzero"/></clipPath><clipPath id="55429cb68f"><path d="M 0.480469 0.269531 L 419.761719 0.269531 L 419.761719 228.558594 L 0.480469 228.558594 Z M 0.480469 0.269531 " clip-rule="nonzero"/></clipPath><clipPath id="a6478cde74"><path d="M 419.640625 156.164062 C 413.707031 178.984375 410.015625 203.195312 408.683594 228.554688 C 261.660156 226.074219 4.722656 157.675781 0.484375 0.367188 L 73.117188 0.304688 C 73.117188 75.058594 249.980469 154.105469 419.640625 156.164062 " clip-rule="nonzero"/></clipPath><clipPath id="1431d13ea9"><rect x="0" width="420" y="0" height="229"/></clipPath><clipPath id="b4740fe54e"><rect x="0" width="1440" y="0" height="766"/></clipPath><mask id="08db8d2939"><g filter="url(#93166938a0)"><rect x="-144" width="1728" fill="#000000" y="-80.999999" height="971.999992" fill-opacity="0.15"/></g></mask><clipPath id="9469fc04a7"><path d="M 936 29 L 1411 29 L 1411 593 L 936 593 Z M 936 29 " clip-rule="nonzero"/></clipPath><clipPath id="23f18928d1"><path d="M 1410.824219 299.613281 C 1412.050781 565.453125 1167.695312 681.527344 1009.175781 515.53125 C 928.015625 430.578125 912.191406 252.671875 976.476562 143.3125 C 1029.726562 52.691406 1130.269531 -0.671875 1262.109375 47.085938 C 1251.425781 169.585938 1165.535156 244.554688 1031.710938 269.777344 C 1035.15625 241.34375 1043.621094 214.601562 1056.175781 192.121094 C 1105.28125 178.050781 1153.683594 149.558594 1176.628906 101.621094 C 1114.679688 102.089844 1075.96875 127.253906 1045.199219 170.871094 C 963.046875 287.410156 1020.910156 519.855469 1174.46875 519.679688 C 1350.332031 519.503906 1393.425781 225.929688 1263.394531 129.0625 C 1272.910156 106.585938 1279.042969 82.238281 1281.726562 56.371094 C 1368.550781 104.484375 1410.296875 188.851562 1410.824219 299.613281 " clip-rule="nonzero"/></clipPath><clipPath id="fc58ad54e6"><path d="M 0 0 L 475 0 L 475 564 L 0 564 Z M 0 0 " clip-rule="nonzero"/></clipPath><clipPath id="25dc42813e"><path d="M 474.824219 270.613281 C 476.050781 536.453125 231.695312 652.527344 73.175781 486.53125 C -7.984375 401.578125 -23.808594 223.671875 40.476562 114.3125 C 93.726562 23.691406 194.269531 -29.671875 326.109375 18.085938 C 315.425781 140.585938 229.535156 215.554688 95.710938 240.777344 C 99.15625 212.34375 107.621094 185.601562 120.175781 163.121094 C 169.28125 149.050781 217.683594 120.558594 240.628906 72.621094 C 178.679688 73.089844 139.96875 98.253906 109.199219 141.871094 C 27.046875 258.410156 84.910156 490.855469 238.46875 490.679688 C 414.332031 490.503906 457.425781 196.929688 327.394531 100.0625 C 336.910156 77.585938 343.042969 53.238281 345.726562 27.371094 C 432.550781 75.484375 474.296875 159.851562 474.824219 270.613281 " clip-rule="nonzero"/></clipPath><clipPath id="8dd4e5e57d"><rect x="0" width="475" y="0" height="564"/></clipPath><clipPath id="92023b6ce2"><path d="M 31 30 L 466.980469 30 L 466.980469 431 L 31 431 Z M 31 30 " clip-rule="nonzero"/></clipPath><clipPath id="4b6e349d40"><path d="M 460.5625 268.203125 C 442.871094 330.386719 390.265625 375.8125 315.351562 394.320312 C 292.230469 386.085938 268.117188 381.824219 243.769531 381.824219 C 208.621094 381.824219 173.996094 390.40625 140.773438 407.339844 C 127.925781 413.820312 115.78125 421.46875 104.339844 430.054688 C 101.828125 431.921875 98.675781 428.535156 100.835938 426.199219 C 138.378906 385.621094 197.117188 346.792969 288.902344 328.457031 C 344.722656 317.304688 381.738281 289.105469 393.183594 248.992188 C 404.160156 210.398438 389.855469 164.15625 357.625 133.96875 C 336.253906 113.941406 289.136719 84.398438 213.816406 111.3125 C 132.015625 140.566406 97.683594 236.496094 97.390625 237.433594 L 31.121094 214.660156 C 32.871094 209.464844 76.195312 86.089844 190.226562 45.335938 C 270.859375 16.550781 349.335938 30.214844 405.503906 82.820312 C 457.234375 131.222656 478.839844 204.035156 460.5625 268.203125 " clip-rule="nonzero"/></clipPath><clipPath id="cbe6b6cb7a"><path d="M 0 0 L 435.980469 0 L 435.980469 401 L 0 401 Z M 0 0 " clip-rule="nonzero"/></clipPath><clipPath id="15d8cc506c"><path d="M 429.5625 238.203125 C 411.871094 300.386719 359.265625 345.8125 284.351562 364.320312 C 261.230469 356.085938 237.117188 351.824219 212.769531 351.824219 C 177.621094 351.824219 142.996094 360.40625 109.773438 377.339844 C 96.925781 383.820312 84.78125 391.46875 73.339844 400.054688 C 70.828125 401.921875 67.675781 398.535156 69.835938 396.199219 C 107.378906 355.621094 166.117188 316.792969 257.902344 298.457031 C 313.722656 287.304688 350.738281 259.105469 362.183594 218.992188 C 373.160156 180.398438 358.855469 134.15625 326.625 103.96875 C 305.253906 83.941406 258.136719 54.398438 182.816406 81.3125 C 101.015625 110.566406 66.683594 206.496094 66.390625 207.433594 L 0.121094 184.660156 C 1.871094 179.464844 45.195312 56.089844 159.226562 15.335938 C 239.859375 -13.449219 318.335938 0.214844 374.503906 52.820312 C 426.234375 101.222656 447.839844 174.035156 429.5625 238.203125 " clip-rule="nonzero"/></clipPath><clipPath id="9352824397"><rect x="0" width="436" y="0" height="401"/></clipPath><clipPath id="3259966a0b"><path d="M 29 130 L 919 130 L 919 709 L 29 709 Z M 29 130 " clip-rule="nonzero"/></clipPath><clipPath id="7e85368480"><path d="M 866.648438 397.53125 C 915.988281 443.65625 931.519531 515.007812 906.179688 579.234375 C 874.125 660.394531 788.761719 708.796875 677.765625 708.796875 C 580.023438 708.796875 488.589844 633.828125 400.191406 561.308594 C 372.746094 538.769531 346.765625 517.460938 321.25 498.890625 C 263.621094 456.96875 209.144531 474.078125 181.820312 487.972656 C 134 512.320312 99.257812 561.074219 99.257812 603.933594 L 29.195312 603.933594 C 29.195312 535.09375 78.882812 461.757812 150.054688 425.558594 C 220.882812 389.472656 298.304688 395.546875 362.472656 442.199219 C 389.621094 461.992188 417.589844 484.9375 444.621094 507.125 C 523.503906 571.820312 605.074219 638.730469 677.765625 638.730469 C 758.925781 638.730469 819.941406 606.910156 841.015625 553.484375 C 855.730469 516.234375 846.972656 475.070312 818.773438 448.679688 C 770.953125 404.011719 679.398438 407.222656 573.835938 457.320312 L 523.796875 481.085938 L 523.679688 130.640625 C 538.917969 156.914062 562.507812 181.496094 593.804688 203.507812 L 593.804688 372.890625 C 752.210938 314.5625 836.230469 369.097656 866.648438 397.53125 " clip-rule="nonzero"/></clipPath><clipPath id="8fb4badc32"><path d="M 0.0390625 0.558594 L 890 0.558594 L 890 578.960938 L 0.0390625 578.960938 Z M 0.0390625 0.558594 " clip-rule="nonzero"/></clipPath><clipPath id="2ef4a36109"><path d="M 837.648438 267.53125 C 886.988281 313.65625 902.519531 385.007812 877.179688 449.234375 C 845.125 530.394531 759.761719 578.796875 648.765625 578.796875 C 551.023438 578.796875 459.589844 503.828125 371.191406 431.308594 C 343.746094 408.769531 317.765625 387.460938 292.25 368.890625 C 234.621094 326.96875 180.144531 344.078125 152.820312 357.972656 C 105 382.320312 70.257812 431.074219 70.257812 473.933594 L 0.195312 473.933594 C 0.195312 405.09375 49.882812 331.757812 121.054688 295.558594 C 191.882812 259.472656 269.304688 265.546875 333.472656 312.199219 C 360.621094 331.992188 388.589844 354.9375 415.621094 377.125 C 494.503906 441.820312 576.074219 508.730469 648.765625 508.730469 C 729.925781 508.730469 790.941406 476.910156 812.015625 423.484375 C 826.730469 386.234375 817.972656 345.070312 789.773438 318.679688 C 741.953125 274.011719 650.398438 277.222656 544.835938 327.320312 L 494.796875 351.085938 L 494.679688 0.640625 C 509.917969 26.914062 533.507812 51.496094 564.804688 73.507812 L 564.804688 242.890625 C 723.210938 184.5625 807.230469 239.097656 837.648438 267.53125 " clip-rule="nonzero"/></clipPath><clipPath id="e087c92e5a"><rect x="0" width="890" y="0" height="579"/></clipPath><clipPath id="2284594762"><path d="M 523 57.679688 L 928.195312 57.679688 L 928.195312 278 L 523 278 Z M 523 57.679688 " clip-rule="nonzero"/></clipPath><clipPath id="5f2fb47bfb"><path d="M 928.015625 208.0625 C 922.292969 230.074219 918.730469 253.429688 917.445312 277.894531 C 775.625 275.5 527.765625 209.523438 523.679688 57.773438 L 593.746094 57.714844 C 593.746094 129.824219 764.355469 206.078125 928.015625 208.0625 " clip-rule="nonzero"/></clipPath><clipPath id="34965b426f"><path d="M 0.441406 0.679688 L 405.078125 0.679688 L 405.078125 220.921875 L 0.441406 220.921875 Z M 0.441406 0.679688 " clip-rule="nonzero"/></clipPath><clipPath id="cad50b8438"><path d="M 405.015625 151.0625 C 399.292969 173.074219 395.730469 196.429688 394.445312 220.894531 C 252.625 218.5 4.765625 152.523438 0.679688 0.773438 L 70.746094 0.714844 C 70.746094 72.824219 241.355469 149.078125 405.015625 151.0625 " clip-rule="nonzero"/></clipPath><clipPath id="608d78dc12"><rect x="0" width="406" y="0" height="221"/></clipPath><clipPath id="bd3c53d8a4"><rect x="0" width="1440" y="0" height="738"/></clipPath></defs><g mask="url(#9d66b5dfe9)"><g transform="matrix(1, 0, 0, 1, 0, 22)"><g clip-path="url(#b4740fe54e)"><g clip-path="url(#56c00b6eaf)"><g clip-path="url(#6eb76a9063)"><g transform="matrix(1, 0, 0, 1, 944, 30)"><g clip-path="url(#0f42b71eb0)"><g clip-path="url(#24181d0bf4)"><g clip-path="url(#8efc0fadbc)"><rect x="-1468.16" width="2488.32" fill="#ffffff" y="-346.839997" height="1399.679988" fill-opacity="1"/></g></g></g></g></g></g><g clip-path="url(#1d4f9e0509)"><g clip-path="url(#198b656a33)"><g transform="matrix(1, 0, 0, 1, 5, 32)"><g clip-path="url(#bdda1c1682)"><g clip-path="url(#67468c5c0d)"><g clip-path="url(#0fdf8a5307)"><rect x="-529.16" width="2488.32" fill="#ffffff" y="-348.839997" height="1399.679988" fill-opacity="1"/></g></g></g></g></g></g><g clip-path="url(#8182fb242d)"><g clip-path="url(#bba87cc782)"><g transform="matrix(1, 0, 0, 1, 3, 135)"><g clip-path="url(#a60a72340b)"><g clip-path="url(#4b371b8110)"><g clip-path="url(#c61014b78a)"><rect x="-527.16" width="2488.32" fill="#ffffff" y="-451.839997" height="1399.679988" fill-opacity="1"/></g></g></g></g></g></g><g clip-path="url(#156f4d7f96)"><g clip-path="url(#bd41e78df2)"><g transform="matrix(1, 0, 0, 1, 516, 60)"><g clip-path="url(#1431d13ea9)"><g clip-path="url(#55429cb68f)"><g clip-path="url(#a6478cde74)"><rect x="-1040.16" width="2488.32" fill="#ffffff" y="-376.839997" height="1399.679988" fill-opacity="1"/></g></g></g></g></g></g></g></g></g><g mask="url(#08db8d2939)"><g transform="matrix(1, 0, 0, 1, 0, 36)"><g clip-path="url(#bd3c53d8a4)"><g clip-path="url(#9469fc04a7)"><g clip-path="url(#23f18928d1)"><g transform="matrix(1, 0, 0, 1, 936, 29)"><g clip-path="url(#8dd4e5e57d)"><g clip-path="url(#fc58ad54e6)"><g clip-path="url(#25dc42813e)"><rect x="-1460.16" width="2488.32" fill="#10069f" y="-359.839997" height="1399.679988" fill-opacity="1"/></g></g></g></g></g></g><g clip-path="url(#92023b6ce2)"><g clip-path="url(#4b6e349d40)"><g transform="matrix(1, 0, 0, 1, 31, 30)"><g clip-path="url(#9352824397)"><g clip-path="url(#cbe6b6cb7a)"><g clip-path="url(#15d8cc506c)"><rect x="-555.16" width="2488.32" fill="#10069f" y="-360.839997" height="1399.679988" fill-opacity="1"/></g></g></g></g></g></g><g clip-path="url(#3259966a0b)"><g clip-path="url(#7e85368480)"><g transform="matrix(1, 0, 0, 1, 29, 130)"><g clip-path="url(#e087c92e5a)"><g clip-path="url(#8fb4badc32)"><g clip-path="url(#2ef4a36109)"><rect x="-553.16" width="2488.32" fill="#10069f" y="-460.839997" height="1399.679988" fill-opacity="1"/></g></g></g></g></g></g><g clip-path="url(#2284594762)"><g clip-path="url(#5f2fb47bfb)"><g transform="matrix(1, 0, 0, 1, 523, 57)"><g clip-path="url(#608d78dc12)"><g clip-path="url(#34965b426f)"><g clip-path="url(#cad50b8438)"><rect x="-1047.16" width="2488.32" fill="#10069f" y="-387.839997" height="1399.679988" fill-opacity="1"/></g></g></g></g></g></g></g></g></g></svg>