<svg xmlns="http://www.w3.org/2000/svg" xmlns:xlink="http://www.w3.org/1999/xlink" width="500" zoomAndPan="magnify" viewBox="0 0 375 225" height="300" preserveAspectRatio="xMidYMid meet" version="1.0"><defs><filter x="0%" y="0%" width="100%" height="100%" id="939efddcf7"><feColorMatrix values="0 0 0 0 1 0 0 0 0 1 0 0 0 0 1 0 0 0 1 0" color-interpolation-filters="sRGB"/></filter><mask id="8c625a1a1c"><g filter="url(#939efddcf7)"><rect x="-37.5" width="450" fill="#000000" y="-22.5" height="270" fill-opacity="0.15"/></g></mask><clipPath id="8c01987e58"><path d="M 243.21875 8 L 367.832031 8 L 367.832031 155 L 243.21875 155 Z M 243.21875 8 " clip-rule="nonzero"/></clipPath><clipPath id="055c5fc7e4"><path d="M 367.402344 78.429688 C 367.722656 147.660156 304.085938 177.886719 262.804688 134.660156 C 241.671875 112.535156 237.550781 66.207031 254.289062 37.726562 C 268.15625 14.128906 294.339844 0.230469 328.675781 12.667969 C 325.890625 44.570312 303.523438 64.09375 268.675781 70.660156 C 269.570312 63.257812 271.777344 56.292969 275.046875 50.4375 C 287.832031 46.773438 300.4375 39.355469 306.414062 26.871094 C 290.28125 26.992188 280.199219 33.546875 272.1875 44.902344 C 250.792969 75.253906 265.863281 135.785156 305.851562 135.738281 C 351.648438 135.695312 362.871094 59.242188 329.007812 34.015625 C 331.488281 28.164062 333.082031 21.820312 333.785156 15.085938 C 356.394531 27.617188 367.265625 49.585938 367.402344 78.429688 " clip-rule="nonzero"/></clipPath><clipPath id="38ad8d4002"><path d="M 0.21875 0 L 124.832031 0 L 124.832031 147 L 0.21875 147 Z M 0.21875 0 " clip-rule="nonzero"/></clipPath><clipPath id="d4e05e9198"><path d="M 124.402344 70.429688 C 124.722656 139.660156 61.085938 169.886719 19.804688 126.660156 C -1.328125 104.535156 -5.449219 58.207031 11.289062 29.726562 C 25.15625 6.128906 51.339844 -7.769531 85.675781 4.667969 C 82.890625 36.570312 60.523438 56.09375 25.675781 62.660156 C 26.570312 55.257812 28.777344 48.292969 32.046875 42.4375 C 44.832031 38.773438 57.4375 31.355469 63.414062 18.871094 C 47.28125 18.992188 37.199219 25.546875 29.1875 36.902344 C 7.792969 67.253906 22.863281 127.785156 62.851562 127.738281 C 108.648438 127.695312 119.871094 51.242188 86.007812 26.015625 C 88.488281 20.164062 90.082031 13.820312 90.785156 7.085938 C 113.394531 19.617188 124.265625 41.585938 124.402344 70.429688 " clip-rule="nonzero"/></clipPath><clipPath id="88c91d1353"><rect x="0" width="125" y="0" height="147"/></clipPath><clipPath id="e6bac76824"><path d="M 8 8 L 121.609375 8 L 121.609375 113 L 8 113 Z M 8 8 " clip-rule="nonzero"/></clipPath><clipPath id="0af27b24a3"><path d="M 119.9375 70.25 C 115.332031 86.445312 101.632812 98.273438 82.121094 103.09375 C 76.101562 100.949219 69.820312 99.839844 63.480469 99.839844 C 54.328125 99.839844 45.3125 102.074219 36.660156 106.484375 C 33.316406 108.171875 30.152344 110.164062 27.171875 112.398438 C 26.519531 112.886719 25.695312 112.003906 26.257812 111.394531 C 36.035156 100.828125 51.332031 90.714844 75.234375 85.941406 C 89.769531 83.039062 99.410156 75.695312 102.390625 65.25 C 105.25 55.199219 101.523438 43.15625 93.132812 35.292969 C 87.566406 30.078125 75.296875 22.386719 55.679688 29.394531 C 34.378906 37.011719 25.4375 61.996094 25.363281 62.238281 L 8.105469 56.308594 C 8.558594 54.953125 19.84375 22.824219 49.539062 12.210938 C 70.535156 4.714844 90.972656 8.273438 105.601562 21.972656 C 119.070312 34.578125 124.699219 53.539062 119.9375 70.25 " clip-rule="nonzero"/></clipPath><clipPath id="bb75023bbe"><path d="M 0 0 L 113.609375 0 L 113.609375 105 L 0 105 Z M 0 0 " clip-rule="nonzero"/></clipPath><clipPath id="db70bd67ac"><path d="M 111.9375 62.25 C 107.332031 78.445312 93.632812 90.273438 74.121094 95.09375 C 68.101562 92.949219 61.820312 91.839844 55.480469 91.839844 C 46.328125 91.839844 37.3125 94.074219 28.660156 98.484375 C 25.316406 100.171875 22.152344 102.164062 19.171875 104.398438 C 18.519531 104.886719 17.695312 104.003906 18.257812 103.394531 C 28.035156 92.828125 43.332031 82.714844 67.234375 77.941406 C 81.769531 75.039062 91.410156 67.695312 94.390625 57.25 C 97.25 47.199219 93.523438 35.15625 85.132812 27.292969 C 79.566406 22.078125 67.296875 14.386719 47.679688 21.394531 C 26.378906 29.011719 17.4375 53.996094 17.363281 54.238281 L 0.105469 48.308594 C 0.558594 46.953125 11.84375 14.824219 41.539062 4.210938 C 62.535156 -3.285156 82.972656 0.273438 97.601562 13.972656 C 111.070312 26.578125 116.699219 45.539062 111.9375 62.25 " clip-rule="nonzero"/></clipPath><clipPath id="de002a223a"><rect x="0" width="114" y="0" height="105"/></clipPath><clipPath id="7e83dfbe36"><path d="M 7.507812 34.195312 L 239.464844 34.195312 L 239.464844 185 L 7.507812 185 Z M 7.507812 34.195312 " clip-rule="nonzero"/></clipPath><clipPath id="efc448578c"><path d="M 225.691406 103.929688 C 238.539062 115.941406 242.582031 134.523438 235.984375 151.25 C 227.636719 172.382812 205.40625 184.988281 176.5 184.988281 C 151.046875 184.988281 127.238281 165.464844 104.214844 146.582031 C 97.070312 140.710938 90.304688 135.160156 83.660156 130.324219 C 68.652344 119.410156 54.464844 123.863281 47.347656 127.484375 C 34.894531 133.824219 25.847656 146.519531 25.847656 157.679688 L 7.601562 157.679688 C 7.601562 139.753906 20.542969 120.65625 39.078125 111.226562 C 57.519531 101.832031 77.683594 103.414062 94.394531 115.5625 C 101.464844 120.714844 108.746094 126.691406 115.789062 132.46875 C 136.328125 149.316406 157.570312 166.742188 176.5 166.742188 C 197.636719 166.742188 213.527344 158.457031 219.015625 144.542969 C 222.847656 134.84375 220.566406 124.121094 213.222656 117.25 C 200.769531 105.617188 176.925781 106.453125 149.4375 119.5 L 136.40625 125.6875 L 136.375 34.425781 C 140.34375 41.269531 146.488281 47.671875 154.636719 53.402344 L 154.636719 97.511719 C 195.886719 82.324219 217.769531 96.523438 225.691406 103.929688 " clip-rule="nonzero"/></clipPath><clipPath id="4a0a70826c"><path d="M 0.507812 0.398438 L 232.464844 0.398438 L 232.464844 151 L 0.507812 151 Z M 0.507812 0.398438 " clip-rule="nonzero"/></clipPath><clipPath id="c9ada41f88"><path d="M 218.691406 69.929688 C 231.539062 81.941406 235.582031 100.523438 228.984375 117.25 C 220.636719 138.382812 198.40625 150.988281 169.5 150.988281 C 144.046875 150.988281 120.238281 131.464844 97.214844 112.582031 C 90.070312 106.710938 83.304688 101.160156 76.660156 96.324219 C 61.652344 85.410156 47.464844 89.863281 40.347656 93.484375 C 27.894531 99.824219 18.847656 112.519531 18.847656 123.679688 L 0.601562 123.679688 C 0.601562 105.753906 13.542969 86.65625 32.078125 77.226562 C 50.519531 67.832031 70.683594 69.414062 87.394531 81.5625 C 94.464844 86.714844 101.746094 92.691406 108.789062 98.46875 C 129.328125 115.316406 150.570312 132.742188 169.5 132.742188 C 190.636719 132.742188 206.527344 124.457031 212.015625 110.542969 C 215.847656 100.84375 213.566406 90.121094 206.222656 83.25 C 193.769531 71.617188 169.925781 72.453125 142.4375 85.5 L 129.40625 91.6875 L 129.375 0.425781 C 133.34375 7.269531 139.488281 13.671875 147.636719 19.402344 L 147.636719 63.511719 C 188.886719 48.324219 210.769531 62.523438 218.691406 69.929688 " clip-rule="nonzero"/></clipPath><clipPath id="1269810db4"><rect x="0" width="233" y="0" height="151"/></clipPath><clipPath id="4ddf5090ed"><path d="M 136 15.425781 L 241.71875 15.425781 L 241.71875 73 L 136 73 Z M 136 15.425781 " clip-rule="nonzero"/></clipPath><clipPath id="0a1288cac0"><path d="M 241.671875 54.589844 C 240.179688 60.320312 239.253906 66.402344 238.917969 72.773438 C 201.984375 72.152344 137.4375 54.96875 136.375 15.453125 L 154.621094 15.4375 C 154.621094 34.214844 199.050781 54.074219 241.671875 54.589844 " clip-rule="nonzero"/></clipPath><clipPath id="73125abe87"><path d="M 0.320312 0.425781 L 105.679688 0.425781 L 105.679688 57.800781 L 0.320312 57.800781 Z M 0.320312 0.425781 " clip-rule="nonzero"/></clipPath><clipPath id="0337f46a88"><path d="M 105.671875 39.589844 C 104.179688 45.320312 103.253906 51.402344 102.917969 57.773438 C 65.984375 57.152344 1.4375 39.96875 0.375 0.453125 L 18.621094 0.4375 C 18.621094 19.214844 63.050781 39.074219 105.671875 39.589844 " clip-rule="nonzero"/></clipPath><clipPath id="c3b153cf59"><rect x="0" width="106" y="0" height="58"/></clipPath><clipPath id="b2926aa609"><rect x="0" width="375" y="0" height="193"/></clipPath></defs><g mask="url(#8c625a1a1c)"><g transform="matrix(1, 0, 0, 1, 0, 16)"><g clip-path="url(#b2926aa609)"><g clip-path="url(#8c01987e58)"><g clip-path="url(#055c5fc7e4)"><g transform="matrix(1, 0, 0, 1, 243, 8)"><g clip-path="url(#88c91d1353)"><g clip-path="url(#38ad8d4002)"><g clip-path="url(#d4e05e9198)"><rect x="-379.5" width="648" fill="#10069f" y="-105.9" height="388.8" fill-opacity="1"/></g></g></g></g></g></g><g clip-path="url(#e6bac76824)"><g clip-path="url(#0af27b24a3)"><g transform="matrix(1, 0, 0, 1, 8, 8)"><g clip-path="url(#de002a223a)"><g clip-path="url(#bb75023bbe)"><g clip-path="url(#db70bd67ac)"><rect x="-144.5" width="648" fill="#10069f" y="-105.9" height="388.8" fill-opacity="1"/></g></g></g></g></g></g><g clip-path="url(#7e83dfbe36)"><g clip-path="url(#efc448578c)"><g transform="matrix(1, 0, 0, 1, 7, 34)"><g clip-path="url(#1269810db4)"><g clip-path="url(#4a0a70826c)"><g clip-path="url(#c9ada41f88)"><rect x="-143.5" width="648" fill="#10069f" y="-131.9" height="388.8" fill-opacity="1"/></g></g></g></g></g></g><g clip-path="url(#4ddf5090ed)"><g clip-path="url(#0a1288cac0)"><g transform="matrix(1, 0, 0, 1, 136, 15)"><g clip-path="url(#c3b153cf59)"><g clip-path="url(#73125abe87)"><g clip-path="url(#0337f46a88)"><rect x="-272.5" width="648" fill="#10069f" y="-112.9" height="388.8" fill-opacity="1"/></g></g></g></g></g></g></g></g></g></svg>