<svg xmlns="http://www.w3.org/2000/svg" xmlns:xlink="http://www.w3.org/1999/xlink" width="1920" zoomAndPan="magnify" viewBox="0 0 1440 809.999993" height="1080" preserveAspectRatio="xMidYMid meet" version="1.0"><defs><filter x="0%" y="0%" width="100%" height="100%" id="e05f300fa1"><feColorMatrix values="0 0 0 0 1 0 0 0 0 1 0 0 0 0 1 0 0 0 1 0" color-interpolation-filters="sRGB"/></filter><mask id="41e6674769"><g filter="url(#e05f300fa1)"><rect x="-144" width="1728" fill="#000000" y="-80.999999" height="971.999992" fill-opacity="0.3"/></g></mask><clipPath id="86832688fe"><path d="M 944 30.386719 L 1437 30.386719 L 1437 615 L 944 615 Z M 944 30.386719 " clip-rule="nonzero"/></clipPath><clipPath id="dcd6f1096b"><path d="M 1436.144531 311.070312 C 1437.414062 586.65625 1184.105469 706.984375 1019.773438 534.902344 C 935.640625 446.835938 919.238281 262.40625 985.878906 149.039062 C 1041.078125 55.101562 1145.308594 -0.222656 1281.980469 49.289062 C 1270.902344 176.277344 1181.867188 253.992188 1043.136719 280.140625 C 1046.707031 250.664062 1055.484375 222.941406 1068.496094 199.640625 C 1119.402344 185.054688 1169.578125 155.515625 1193.367188 105.820312 C 1129.148438 106.304688 1089.015625 132.394531 1057.117188 177.609375 C 971.957031 298.421875 1031.9375 539.382812 1191.128906 539.199219 C 1373.4375 539.019531 1418.105469 234.6875 1283.3125 134.269531 C 1293.175781 110.96875 1299.53125 85.726562 1302.316406 58.914062 C 1392.320312 108.789062 1435.597656 196.25 1436.144531 311.070312 " clip-rule="nonzero"/></clipPath><clipPath id="6c03799a95"><path d="M 0 0.386719 L 493 0.386719 L 493 585 L 0 585 Z M 0 0.386719 " clip-rule="nonzero"/></clipPath><clipPath id="7469b73ea9"><path d="M 492.144531 281.070312 C 493.414062 556.65625 240.105469 676.984375 75.773438 504.902344 C -8.359375 416.835938 -24.761719 232.40625 41.878906 119.039062 C 97.078125 25.101562 201.308594 -30.222656 337.980469 19.289062 C 326.902344 146.277344 237.867188 223.992188 99.136719 250.140625 C 102.707031 220.664062 111.484375 192.941406 124.496094 169.640625 C 175.402344 155.054688 225.578125 125.515625 249.367188 75.820312 C 185.148438 76.304688 145.015625 102.394531 113.117188 147.609375 C 27.957031 268.421875 87.9375 509.382812 247.128906 509.199219 C 429.4375 509.019531 474.105469 204.6875 339.3125 104.269531 C 349.175781 80.96875 355.53125 55.726562 358.316406 28.914062 C 448.320312 78.789062 491.597656 166.25 492.144531 281.070312 " clip-rule="nonzero"/></clipPath><clipPath id="1cf4782b3e"><rect x="0" width="493" y="0" height="585"/></clipPath><clipPath id="9384ea5f99"><path d="M 5 32 L 457.707031 32 L 457.707031 447 L 5 447 Z M 5 32 " clip-rule="nonzero"/></clipPath><clipPath id="395b65e96e"><path d="M 451.054688 278.507812 C 432.714844 342.96875 378.179688 390.0625 300.519531 409.246094 C 276.550781 400.714844 251.554688 396.296875 226.3125 396.296875 C 189.875 396.296875 153.984375 405.191406 119.542969 422.746094 C 106.226562 429.464844 93.636719 437.394531 81.773438 446.289062 C 79.171875 448.226562 75.902344 444.71875 78.140625 442.296875 C 117.0625 400.230469 177.953125 359.976562 273.101562 340.972656 C 330.964844 329.410156 369.339844 300.175781 381.203125 258.59375 C 392.582031 218.585938 377.753906 170.648438 344.34375 139.355469 C 322.191406 118.59375 273.34375 87.964844 195.261719 115.871094 C 110.464844 146.195312 74.875 245.640625 74.570312 246.609375 L 5.871094 223.003906 C 7.6875 217.617188 52.597656 89.722656 170.808594 47.472656 C 254.398438 17.632812 335.75 31.796875 393.976562 86.332031 C 447.605469 136.507812 470 211.988281 451.054688 278.507812 " clip-rule="nonzero"/></clipPath><clipPath id="faf8b42e38"><path d="M 0.761719 0 L 452.707031 0 L 452.707031 415 L 0.761719 415 Z M 0.761719 0 " clip-rule="nonzero"/></clipPath><clipPath id="dc68ef8930"><path d="M 446.054688 246.507812 C 427.714844 310.96875 373.179688 358.0625 295.519531 377.246094 C 271.550781 368.714844 246.554688 364.296875 221.3125 364.296875 C 184.875 364.296875 148.984375 373.191406 114.542969 390.746094 C 101.226562 397.464844 88.636719 405.394531 76.773438 414.289062 C 74.171875 416.226562 70.902344 412.71875 73.140625 410.296875 C 112.0625 368.230469 172.953125 327.976562 268.101562 308.972656 C 325.964844 297.410156 364.339844 268.175781 376.203125 226.59375 C 387.582031 186.585938 372.753906 138.648438 339.34375 107.355469 C 317.191406 86.59375 268.34375 55.964844 190.261719 83.871094 C 105.464844 114.195312 69.875 213.640625 69.570312 214.609375 L 0.871094 191.003906 C 2.6875 185.617188 47.597656 57.722656 165.808594 15.472656 C 249.398438 -14.367188 330.75 -0.203125 388.976562 54.332031 C 442.605469 104.507812 465 179.988281 446.054688 246.507812 " clip-rule="nonzero"/></clipPath><clipPath id="5602782937"><rect x="0" width="453" y="0" height="415"/></clipPath><clipPath id="77c1f22941"><path d="M 3.492188 135 L 926 135 L 926 735.613281 L 3.492188 735.613281 Z M 3.492188 135 " clip-rule="nonzero"/></clipPath><clipPath id="89d82dfbd8"><path d="M 872.023438 412.578125 C 923.171875 460.394531 939.269531 534.359375 913.003906 600.9375 C 879.773438 685.074219 791.28125 735.25 676.21875 735.25 C 574.894531 735.25 480.105469 657.53125 388.46875 582.359375 C 360.019531 558.992188 333.085938 536.902344 306.632812 517.652344 C 246.894531 474.195312 190.421875 491.929688 162.09375 506.335938 C 112.523438 531.574219 76.507812 582.117188 76.507812 626.542969 L 3.875 626.542969 C 3.875 555.179688 55.382812 479.15625 129.167969 441.628906 C 202.585938 404.222656 282.847656 410.519531 349.367188 458.878906 C 377.511719 479.398438 406.503906 503.1875 434.53125 526.1875 C 516.304688 593.253906 600.859375 662.617188 676.21875 662.617188 C 760.351562 662.617188 823.601562 629.628906 845.453125 574.246094 C 860.707031 535.628906 851.625 492.957031 822.390625 465.597656 C 772.820312 419.296875 677.910156 422.625 568.476562 474.558594 L 516.605469 499.191406 L 516.484375 135.90625 C 532.28125 163.140625 556.734375 188.625 589.179688 211.441406 L 589.179688 387.035156 C 753.390625 326.566406 840.488281 383.101562 872.023438 412.578125 " clip-rule="nonzero"/></clipPath><clipPath id="c6c6b63175"><path d="M 0.839844 0.679688 L 923 0.679688 L 923 600.441406 L 0.839844 600.441406 Z M 0.839844 0.679688 " clip-rule="nonzero"/></clipPath><clipPath id="57eeee1ace"><path d="M 869.023438 277.578125 C 920.171875 325.394531 936.269531 399.359375 910.003906 465.9375 C 876.773438 550.074219 788.28125 600.25 673.21875 600.25 C 571.894531 600.25 477.105469 522.53125 385.46875 447.359375 C 357.019531 423.992188 330.085938 401.902344 303.632812 382.652344 C 243.894531 339.195312 187.421875 356.929688 159.09375 371.335938 C 109.523438 396.574219 73.507812 447.117188 73.507812 491.542969 L 0.875 491.542969 C 0.875 420.179688 52.382812 344.15625 126.167969 306.628906 C 199.585938 269.222656 279.847656 275.519531 346.367188 323.878906 C 374.511719 344.398438 403.503906 368.1875 431.53125 391.1875 C 513.304688 458.253906 597.859375 527.617188 673.21875 527.617188 C 757.351562 527.617188 820.601562 494.628906 842.453125 439.246094 C 857.707031 400.628906 848.625 357.957031 819.390625 330.597656 C 769.820312 284.296875 674.910156 287.625 565.476562 339.558594 L 513.605469 364.191406 L 513.484375 0.90625 C 529.28125 28.140625 553.734375 53.625 586.179688 76.441406 L 586.179688 252.035156 C 750.390625 191.566406 837.488281 248.101562 869.023438 277.578125 " clip-rule="nonzero"/></clipPath><clipPath id="4e11b408c0"><rect x="0" width="923" y="0" height="601"/></clipPath><clipPath id="503e69fe35"><path d="M 516 60.269531 L 935.828125 60.269531 L 935.828125 289 L 516 289 Z M 516 60.269531 " clip-rule="nonzero"/></clipPath><clipPath id="c9e44cbb9b"><path d="M 935.640625 216.164062 C 929.707031 238.984375 926.015625 263.195312 924.683594 288.554688 C 777.660156 286.074219 520.722656 217.675781 516.484375 60.367188 L 589.117188 60.304688 C 589.117188 135.058594 765.980469 214.105469 935.640625 216.164062 " clip-rule="nonzero"/></clipPath><clipPath id="ce072eebba"><path d="M 0.480469 0.269531 L 419.761719 0.269531 L 419.761719 228.558594 L 0.480469 228.558594 Z M 0.480469 0.269531 " clip-rule="nonzero"/></clipPath><clipPath id="6a54f10792"><path d="M 419.640625 156.164062 C 413.707031 178.984375 410.015625 203.195312 408.683594 228.554688 C 261.660156 226.074219 4.722656 157.675781 0.484375 0.367188 L 73.117188 0.304688 C 73.117188 75.058594 249.980469 154.105469 419.640625 156.164062 " clip-rule="nonzero"/></clipPath><clipPath id="335aafd303"><rect x="0" width="420" y="0" height="229"/></clipPath><clipPath id="cf2a12dcaf"><rect x="0" width="1440" y="0" height="766"/></clipPath></defs><g mask="url(#41e6674769)"><g transform="matrix(1, 0, 0, 1, 0, 22)"><g clip-path="url(#cf2a12dcaf)"><g clip-path="url(#86832688fe)"><g clip-path="url(#dcd6f1096b)"><g transform="matrix(1, 0, 0, 1, 944, 30)"><g clip-path="url(#1cf4782b3e)"><g clip-path="url(#6c03799a95)"><g clip-path="url(#7469b73ea9)"><rect x="-1468.16" width="2488.32" fill="#ffffff" y="-346.839997" height="1399.679988" fill-opacity="1"/></g></g></g></g></g></g><g clip-path="url(#9384ea5f99)"><g clip-path="url(#395b65e96e)"><g transform="matrix(1, 0, 0, 1, 5, 32)"><g clip-path="url(#5602782937)"><g clip-path="url(#faf8b42e38)"><g clip-path="url(#dc68ef8930)"><rect x="-529.16" width="2488.32" fill="#ffffff" y="-348.839997" height="1399.679988" fill-opacity="1"/></g></g></g></g></g></g><g clip-path="url(#77c1f22941)"><g clip-path="url(#89d82dfbd8)"><g transform="matrix(1, 0, 0, 1, 3, 135)"><g clip-path="url(#4e11b408c0)"><g clip-path="url(#c6c6b63175)"><g clip-path="url(#57eeee1ace)"><rect x="-527.16" width="2488.32" fill="#ffffff" y="-451.839997" height="1399.679988" fill-opacity="1"/></g></g></g></g></g></g><g clip-path="url(#503e69fe35)"><g clip-path="url(#c9e44cbb9b)"><g transform="matrix(1, 0, 0, 1, 516, 60)"><g clip-path="url(#335aafd303)"><g clip-path="url(#ce072eebba)"><g clip-path="url(#6a54f10792)"><rect x="-1040.16" width="2488.32" fill="#ffffff" y="-376.839997" height="1399.679988" fill-opacity="1"/></g></g></g></g></g></g></g></g></g></svg>