<svg xmlns="http://www.w3.org/2000/svg" xmlns:xlink="http://www.w3.org/1999/xlink" width="1080" zoomAndPan="magnify" viewBox="0 0 810 809.999993" height="1080" preserveAspectRatio="xMidYMid meet" version="1.0"><defs><clipPath id="6899ebc3a8"><path d="M 86.375 75.246094 L 723.875 75.246094 L 723.875 734.496094 L 86.375 734.496094 Z M 86.375 75.246094 " clip-rule="nonzero"/></clipPath></defs><g clip-path="url(#6899ebc3a8)"><path fill="#97d700" d="M 239.609375 667.242188 C 239.609375 661.558594 244.214844 656.953125 249.894531 656.953125 L 318.042969 656.953125 C 323.722656 656.953125 328.328125 661.558594 328.328125 667.242188 C 328.328125 672.921875 323.722656 677.527344 318.042969 677.527344 L 249.894531 677.527344 C 244.214844 677.53125 239.609375 672.921875 239.609375 667.242188 Z M 350.363281 275.875 L 350.363281 206.160156 C 350.363281 200.476562 354.96875 195.871094 360.652344 195.871094 L 430.328125 195.871094 C 436.011719 195.871094 440.617188 200.476562 440.617188 206.160156 L 440.617188 275.875 C 440.617188 281.554688 436.011719 286.160156 430.328125 286.160156 L 360.652344 286.160156 C 354.96875 286.160156 350.363281 281.554688 350.363281 275.875 Z M 370.9375 265.589844 L 420.042969 265.589844 L 420.042969 216.449219 L 370.9375 216.449219 Z M 196.011719 118.351562 L 195.832031 118.351562 C 190.148438 118.351562 185.546875 122.957031 185.546875 128.636719 C 185.546875 134.320312 190.148438 138.925781 195.832031 138.925781 L 196.011719 138.925781 C 201.695312 138.925781 206.300781 134.320312 206.300781 128.636719 C 206.300781 122.957031 201.695312 118.351562 196.011719 118.351562 Z M 372.105469 118.351562 L 248.582031 118.351562 C 242.902344 118.351562 238.296875 122.957031 238.296875 128.636719 C 238.296875 134.320312 242.902344 138.925781 248.582031 138.925781 L 372.105469 138.925781 C 377.789062 138.925781 382.394531 134.320312 382.394531 128.636719 C 382.394531 122.957031 377.789062 118.351562 372.105469 118.351562 Z M 329.097656 526.390625 L 329.097656 596.066406 C 329.097656 601.75 324.492188 606.355469 318.808594 606.355469 L 249.132812 606.355469 C 243.449219 606.355469 238.84375 601.75 238.84375 596.066406 L 238.84375 526.390625 C 238.84375 520.707031 243.449219 516.101562 249.132812 516.101562 L 318.808594 516.101562 C 324.488281 516.101562 329.097656 520.707031 329.097656 526.390625 Z M 308.519531 536.675781 L 259.417969 536.675781 L 259.417969 585.78125 L 308.519531 585.78125 Z M 329.097656 312.902344 L 329.097656 382.621094 C 329.097656 388.300781 324.492188 392.90625 318.808594 392.90625 L 249.132812 392.90625 C 243.449219 392.90625 238.84375 388.300781 238.84375 382.621094 L 238.84375 312.902344 C 238.84375 307.222656 243.449219 302.617188 249.132812 302.617188 L 318.808594 302.617188 C 324.488281 302.617188 329.097656 307.222656 329.097656 312.902344 Z M 308.519531 323.191406 L 259.417969 323.191406 L 259.417969 372.332031 L 308.519531 372.332031 Z M 329.097656 206.160156 L 329.097656 275.875 C 329.097656 281.554688 324.492188 286.160156 318.808594 286.160156 L 249.132812 286.160156 C 243.449219 286.160156 238.84375 281.554688 238.84375 275.875 L 238.84375 206.160156 C 238.84375 200.476562 243.449219 195.871094 249.132812 195.871094 L 318.808594 195.871094 C 324.488281 195.871094 329.097656 200.476562 329.097656 206.160156 Z M 308.519531 216.449219 L 259.417969 216.449219 L 259.417969 265.589844 L 308.519531 265.589844 Z M 329.097656 419.644531 L 329.097656 489.324219 C 329.097656 495.003906 324.492188 499.613281 318.808594 499.613281 L 249.132812 499.613281 C 243.449219 499.613281 238.84375 495.007812 238.84375 489.324219 L 238.84375 419.644531 C 238.84375 413.964844 243.449219 409.355469 249.132812 409.355469 L 318.808594 409.355469 C 324.488281 409.359375 329.097656 413.964844 329.097656 419.644531 Z M 308.519531 429.933594 L 259.417969 429.933594 L 259.417969 479.035156 L 308.519531 479.035156 Z M 217.574219 206.160156 L 217.574219 275.875 C 217.574219 281.554688 212.96875 286.160156 207.285156 286.160156 L 137.609375 286.160156 C 131.925781 286.160156 127.320312 281.554688 127.320312 275.875 L 127.320312 206.160156 C 127.320312 200.476562 131.925781 195.871094 137.609375 195.871094 L 207.285156 195.871094 C 212.96875 195.871094 217.574219 200.476562 217.574219 206.160156 Z M 197 216.449219 L 147.894531 216.449219 L 147.894531 265.589844 L 197 265.589844 Z M 217.574219 419.644531 L 217.574219 489.324219 C 217.574219 495.003906 212.96875 499.613281 207.285156 499.613281 L 137.609375 499.613281 C 131.925781 499.613281 127.320312 495.007812 127.320312 489.324219 L 127.320312 419.644531 C 127.320312 413.964844 131.925781 409.355469 137.609375 409.355469 L 207.285156 409.355469 C 212.96875 409.359375 217.574219 413.964844 217.574219 419.644531 Z M 197 429.933594 L 147.894531 429.933594 L 147.894531 479.035156 L 197 479.035156 Z M 217.574219 312.902344 L 217.574219 382.621094 C 217.574219 388.300781 212.96875 392.90625 207.285156 392.90625 L 137.609375 392.90625 C 131.925781 392.90625 127.320312 388.300781 127.320312 382.621094 L 127.320312 312.902344 C 127.320312 307.222656 131.925781 302.617188 137.609375 302.617188 L 207.285156 302.617188 C 212.96875 302.617188 217.574219 307.222656 217.574219 312.902344 Z M 197 323.191406 L 147.894531 323.191406 L 147.894531 372.332031 L 197 372.332031 Z M 217.574219 526.390625 L 217.574219 596.066406 C 217.574219 601.75 212.96875 606.355469 207.285156 606.355469 L 137.609375 606.355469 C 131.925781 606.355469 127.320312 601.75 127.320312 596.066406 L 127.320312 526.390625 C 127.320312 520.707031 131.925781 516.101562 137.609375 516.101562 L 207.285156 516.101562 C 212.96875 516.101562 217.574219 520.707031 217.574219 526.390625 Z M 197 536.675781 L 147.894531 536.675781 L 147.894531 585.78125 L 197 585.78125 Z M 718.457031 636.640625 L 551.449219 733.0625 C 549.871094 733.972656 548.09375 734.4375 546.304688 734.4375 C 545.414062 734.4375 544.515625 734.324219 543.640625 734.085938 C 541.007812 733.382812 538.757812 731.65625 537.394531 729.292969 L 512.441406 686.0625 C 509.601562 681.144531 511.289062 674.851562 516.207031 672.011719 L 526.917969 665.828125 L 510.753906 637.8125 L 481.550781 620.953125 L 481.550781 651.257812 C 481.550781 685.816406 453.4375 713.933594 418.878906 713.933594 L 149.0625 713.933594 C 114.503906 713.933594 86.386719 685.816406 86.386719 651.257812 L 86.386719 138.234375 C 86.386719 103.675781 114.503906 75.558594 149.0625 75.558594 L 418.875 75.558594 C 453.433594 75.558594 481.550781 103.675781 481.550781 138.234375 L 481.550781 390.019531 C 487.097656 391.914062 491.917969 395.265625 495.554688 399.757812 C 497.886719 396.929688 500.730469 394.515625 503.996094 392.636719 C 511.132812 388.5 519.503906 387.398438 527.535156 389.550781 C 531.1875 390.53125 534.558594 392.125 537.542969 394.246094 C 540.074219 390.578125 543.429688 387.402344 547.53125 385.027344 C 554.71875 380.886719 563.082031 379.804688 571.105469 381.964844 C 579.132812 384.121094 585.824219 389.257812 589.949219 396.417969 L 655.097656 509.242188 C 661.070312 519.582031 663.390625 530.363281 662.1875 542.203125 L 661.460938 549.675781 C 660.695312 557.210938 662.105469 563.753906 665.894531 570.3125 L 672.507812 581.777344 L 683.214844 575.59375 C 685.578125 574.230469 688.386719 573.859375 691.023438 574.566406 C 693.660156 575.273438 695.90625 576.996094 697.269531 579.359375 L 722.222656 622.589844 C 725.0625 627.511719 723.375 633.804688 718.457031 636.640625 Z M 106.964844 161.140625 L 460.972656 161.140625 L 460.972656 138.234375 C 460.972656 115.019531 442.089844 96.132812 418.875 96.132812 L 149.0625 96.132812 C 125.847656 96.132812 106.964844 115.019531 106.964844 138.234375 Z M 460.976562 641.085938 L 106.964844 641.085938 L 106.964844 651.265625 C 106.964844 674.476562 125.847656 693.363281 149.0625 693.363281 L 418.875 693.363281 C 442.089844 693.363281 460.972656 674.476562 460.972656 651.265625 L 460.972656 641.085938 Z M 460.976562 609.078125 L 440.542969 597.28125 C 439.941406 602.390625 435.601562 606.355469 430.332031 606.355469 L 360.652344 606.355469 C 354.972656 606.355469 350.367188 601.75 350.367188 596.066406 L 350.367188 526.386719 C 350.367188 520.707031 354.972656 516.101562 360.652344 516.101562 L 394.621094 516.101562 C 398.589844 512.714844 403.300781 510.226562 408.503906 508.839844 C 417.667969 506.394531 427.222656 507.648438 435.40625 512.375 L 444.375 517.542969 L 433.6875 499.042969 C 432.632812 499.40625 431.507812 499.613281 430.332031 499.613281 L 360.652344 499.613281 C 354.972656 499.613281 350.367188 495.007812 350.367188 489.324219 L 350.367188 419.644531 C 350.367188 413.964844 354.972656 409.355469 360.652344 409.355469 L 381.886719 409.355469 L 379.652344 405.492188 C 377.359375 401.503906 376.058594 397.214844 375.660156 392.902344 L 360.652344 392.902344 C 354.972656 392.902344 350.367188 388.296875 350.367188 382.617188 L 350.367188 312.902344 C 350.367188 307.21875 354.972656 302.613281 360.652344 302.613281 L 430.332031 302.613281 C 436.015625 302.613281 440.621094 307.21875 440.621094 312.902344 L 440.621094 382.617188 C 440.621094 383.773438 440.421875 384.878906 440.070312 385.914062 L 447.785156 399.269531 C 450.027344 396.621094 452.753906 394.304688 455.925781 392.464844 C 457.554688 391.527344 459.246094 390.757812 460.976562 390.132812 L 460.976562 181.71875 L 106.964844 181.71875 L 106.964844 620.511719 L 460.972656 620.511719 L 460.972656 609.078125 Z M 393.769531 429.933594 L 370.9375 429.933594 L 370.9375 479.035156 L 420.042969 479.035156 L 420.042969 475.421875 Z M 420.042969 362.03125 L 420.042969 323.191406 L 370.9375 323.191406 L 370.9375 372.332031 L 381.011719 372.332031 C 383.546875 368.644531 386.910156 365.449219 391.027344 363.0625 C 400.253906 357.753906 411.101562 357.730469 420.042969 362.03125 Z M 382.78125 536.675781 L 370.9375 536.675781 L 370.9375 585.78125 L 420.042969 585.78125 L 420.042969 585.445312 L 399.90625 573.820312 C 386.59375 566.136719 380.164062 551.03125 382.78125 536.675781 Z M 527.195312 625.144531 L 544.734375 655.542969 L 654.691406 592.0625 L 648.074219 580.597656 C 642.105469 570.257812 639.785156 559.476562 640.988281 547.640625 L 641.710938 540.167969 C 642.488281 532.53125 641.117188 526.179688 637.28125 519.53125 L 572.125 406.695312 C 569.238281 401.683594 562.824219 399.957031 557.816406 402.84375 C 552.832031 405.730469 551.097656 412.160156 553.972656 417.167969 L 582.753906 466.957031 C 585.59375 471.875 583.914062 478.167969 578.992188 481.011719 C 577.371094 481.949219 575.601562 482.394531 573.855469 482.394531 C 570.300781 482.394531 566.847656 480.550781 564.9375 477.253906 L 536.15625 427.460938 C 536.15625 427.457031 536.152344 427.453125 536.152344 427.449219 C 536.148438 427.449219 536.148438 427.445312 536.148438 427.445312 L 528.5625 414.277344 C 527.179688 411.875 524.925781 410.15625 522.210938 409.425781 C 519.496094 408.699219 516.683594 409.066406 514.285156 410.453125 C 511.863281 411.847656 510.144531 414.101562 509.417969 416.816406 C 508.691406 419.523438 509.054688 422.332031 510.433594 424.726562 L 510.445312 424.746094 C 510.449219 424.746094 510.449219 424.75 510.449219 424.75 C 510.449219 424.75 510.453125 424.753906 510.453125 424.753906 L 539.199219 474.589844 C 542.039062 479.507812 540.351562 485.800781 535.429688 488.640625 C 533.808594 489.574219 532.042969 490.015625 530.296875 490.015625 C 526.742188 490.015625 523.28125 488.171875 521.378906 484.867188 L 492.644531 435.054688 C 492.640625 435.054688 492.640625 435.054688 492.640625 435.050781 C 492.628906 435.03125 492.621094 435.015625 492.609375 435 L 480.523438 414.105469 C 479.140625 411.699219 476.886719 409.980469 474.175781 409.257812 C 471.457031 408.53125 468.628906 408.894531 466.21875 410.28125 C 463.828125 411.664062 462.101562 413.929688 461.371094 416.644531 C 460.648438 419.351562 461.011719 422.160156 462.398438 424.554688 L 462.402344 424.5625 C 462.40625 424.566406 462.40625 424.570312 462.40625 424.570312 L 491.15625 474.402344 C 493.996094 479.324219 492.304688 485.617188 487.382812 488.453125 C 485.765625 489.386719 483.996094 489.832031 482.253906 489.832031 C 478.695312 489.832031 475.234375 487.984375 473.332031 484.683594 L 444.585938 434.851562 C 444.585938 434.851562 444.582031 434.851562 444.582031 434.847656 C 444.574219 434.832031 444.5625 434.8125 444.550781 434.792969 L 415.621094 384.734375 C 412.730469 379.738281 406.308594 378.003906 401.316406 380.878906 C 399.246094 382.078125 397.746094 383.890625 396.894531 385.957031 C 396.8125 386.191406 396.730469 386.425781 396.636719 386.65625 C 395.71875 389.402344 395.921875 392.511719 397.476562 395.214844 L 408.472656 414.253906 C 408.601562 414.464844 408.726562 414.671875 408.839844 414.890625 L 481.371094 540.464844 C 483.703125 544.496094 483.03125 549.589844 479.742188 552.882812 C 476.453125 556.175781 471.359375 556.851562 467.328125 554.523438 L 425.117188 530.191406 C 418.894531 526.597656 411.140625 528 406.542969 533.152344 C 406.535156 533.164062 406.519531 533.175781 406.511719 533.191406 C 405.859375 533.925781 405.269531 534.734375 404.761719 535.617188 C 400.65625 542.75 403.089844 551.898438 410.191406 556 L 435.226562 570.453125 C 435.234375 570.457031 435.238281 570.460938 435.246094 570.464844 L 523.425781 621.371094 C 524.996094 622.28125 526.292969 623.578125 527.195312 625.144531 Z M 699.261719 623.964844 L 684.59375 598.554688 L 535.402344 684.6875 L 550.070312 710.097656 Z M 699.261719 623.964844 " fill-opacity="1" fill-rule="nonzero"/></g></svg>