<svg xmlns="http://www.w3.org/2000/svg" xmlns:xlink="http://www.w3.org/1999/xlink" width="1080" zoomAndPan="magnify" viewBox="0 0 810 809.999993" height="1080" preserveAspectRatio="xMidYMid meet" version="1.0"><defs><clipPath id="9fa3a1e4f4"><path d="M 69.488281 69.488281 L 740.738281 69.488281 L 740.738281 740.738281 L 69.488281 740.738281 Z M 69.488281 69.488281 " clip-rule="nonzero"/></clipPath></defs><g clip-path="url(#9fa3a1e4f4)"><path fill="#10069f" d="M 404.996094 90.375 C 231.515625 90.375 90.375 231.515625 90.375 404.996094 C 90.375 578.480469 231.515625 719.621094 404.996094 719.621094 C 578.480469 719.621094 719.621094 578.480469 719.621094 404.996094 C 719.621094 231.515625 578.480469 90.375 404.996094 90.375 Z M 404.996094 740.503906 C 315.378906 740.503906 231.125 705.609375 167.757812 642.238281 C 104.386719 578.871094 69.488281 494.617188 69.488281 404.996094 C 69.488281 315.378906 104.386719 231.125 167.757812 167.757812 C 231.125 104.386719 315.378906 69.488281 404.996094 69.488281 C 494.617188 69.488281 578.871094 104.386719 642.238281 167.757812 C 705.609375 231.125 740.503906 315.378906 740.503906 404.996094 C 740.503906 494.617188 705.609375 578.871094 642.238281 642.238281 C 578.871094 705.609375 494.617188 740.503906 404.996094 740.503906 " fill-opacity="1" fill-rule="nonzero"/></g><path fill="#10069f" d="M 564.257812 527.714844 C 562.179688 527.714844 560.074219 527.097656 558.246094 525.808594 L 398.980469 413.53125 C 396.207031 411.578125 394.554688 408.394531 394.554688 404.996094 L 394.554688 240.511719 C 394.554688 234.738281 399.230469 230.0625 404.996094 230.0625 C 410.765625 230.0625 415.441406 234.738281 415.441406 240.511719 L 415.441406 399.582031 L 570.28125 508.734375 C 575 512.054688 576.128906 518.574219 572.804688 523.285156 C 570.769531 526.167969 567.535156 527.714844 564.257812 527.714844 " fill-opacity="1" fill-rule="nonzero"/><path fill="#10069f" d="M 404.996094 162.5625 C 399.230469 162.5625 394.554688 157.886719 394.554688 152.121094 L 394.554688 113.414062 C 394.554688 107.648438 399.230469 102.972656 404.996094 102.972656 C 410.765625 102.972656 415.441406 107.648438 415.441406 113.414062 L 415.441406 152.121094 C 415.441406 157.886719 410.765625 162.5625 404.996094 162.5625 " fill-opacity="1" fill-rule="nonzero"/><path fill="#10069f" d="M 278.570312 196.441406 C 274.957031 196.441406 271.449219 194.570312 269.515625 191.222656 L 250.160156 157.703125 C 247.277344 152.707031 248.992188 146.320312 253.984375 143.4375 C 258.984375 140.550781 265.367188 142.265625 268.253906 147.261719 L 287.601562 180.777344 C 290.488281 185.769531 288.777344 192.160156 283.78125 195.042969 C 282.132812 195.992188 280.339844 196.441406 278.570312 196.441406 " fill-opacity="1" fill-rule="nonzero"/><path fill="#10069f" d="M 185.988281 289.007812 C 184.21875 289.007812 182.421875 288.550781 180.777344 287.601562 L 147.261719 268.253906 C 142.265625 265.367188 140.554688 258.980469 143.433594 253.988281 C 146.320312 248.992188 152.707031 247.277344 157.703125 250.160156 L 191.222656 269.515625 C 196.21875 272.398438 197.925781 278.785156 195.042969 283.78125 C 193.109375 287.128906 189.597656 289.007812 185.988281 289.007812 " fill-opacity="1" fill-rule="nonzero"/><path fill="#10069f" d="M 152.121094 415.441406 L 113.414062 415.441406 C 107.648438 415.441406 102.972656 410.765625 102.972656 404.996094 C 102.972656 399.230469 107.648438 394.554688 113.414062 394.554688 L 152.121094 394.554688 C 157.886719 394.554688 162.5625 399.230469 162.5625 404.996094 C 162.5625 410.765625 157.886719 415.441406 152.121094 415.441406 " fill-opacity="1" fill-rule="nonzero"/><path fill="#10069f" d="M 152.492188 561.234375 C 148.878906 561.234375 145.371094 559.363281 143.433594 556.011719 C 140.554688 551.015625 142.265625 544.632812 147.261719 541.742188 L 180.777344 522.394531 C 185.773438 519.503906 192.160156 521.21875 195.042969 526.214844 C 197.925781 531.210938 196.21875 537.597656 191.222656 540.480469 L 157.703125 559.835938 C 156.054688 560.785156 154.261719 561.234375 152.492188 561.234375 " fill-opacity="1" fill-rule="nonzero"/><path fill="#10069f" d="M 259.195312 667.960938 C 257.421875 667.960938 255.628906 667.511719 253.984375 666.558594 C 248.992188 663.675781 247.277344 657.289062 250.160156 652.292969 L 269.515625 618.773438 C 272.398438 613.777344 278.789062 612.070312 283.78125 614.953125 C 288.777344 617.835938 290.488281 624.226562 287.601562 629.222656 L 268.253906 662.734375 C 266.316406 666.085938 262.804688 667.960938 259.195312 667.960938 " fill-opacity="1" fill-rule="nonzero"/><path fill="#10069f" d="M 404.996094 707.023438 C 399.230469 707.023438 394.554688 702.347656 394.554688 696.582031 L 394.554688 657.875 C 394.554688 652.109375 399.230469 647.433594 404.996094 647.433594 C 410.765625 647.433594 415.441406 652.109375 415.441406 657.875 L 415.441406 696.582031 C 415.441406 702.347656 410.765625 707.023438 404.996094 707.023438 " fill-opacity="1" fill-rule="nonzero"/><path fill="#10069f" d="M 550.800781 667.960938 C 547.191406 667.960938 543.679688 666.085938 541.742188 662.734375 L 522.394531 629.222656 C 519.511719 624.226562 521.21875 617.835938 526.214844 614.953125 C 531.210938 612.070312 537.597656 613.785156 540.480469 618.773438 L 559.835938 652.292969 C 562.71875 657.289062 561.003906 663.675781 556.011719 666.5625 C 554.367188 667.511719 552.570312 667.960938 550.800781 667.960938 " fill-opacity="1" fill-rule="nonzero"/><path fill="#10069f" d="M 657.503906 561.234375 C 655.730469 561.234375 653.941406 560.785156 652.292969 559.835938 L 618.773438 540.480469 C 613.777344 537.597656 612.070312 531.210938 614.953125 526.214844 C 617.835938 521.21875 624.226562 519.511719 629.214844 522.394531 L 662.734375 541.742188 C 667.730469 544.632812 669.445312 551.015625 666.5625 556.011719 C 664.628906 559.363281 661.117188 561.234375 657.503906 561.234375 " fill-opacity="1" fill-rule="nonzero"/><path fill="#10069f" d="M 696.582031 415.441406 L 657.875 415.441406 C 652.109375 415.441406 647.433594 410.765625 647.433594 404.996094 C 647.433594 399.230469 652.109375 394.554688 657.875 394.554688 L 696.582031 394.554688 C 702.347656 394.554688 707.023438 399.230469 707.023438 404.996094 C 707.023438 410.765625 702.347656 415.441406 696.582031 415.441406 " fill-opacity="1" fill-rule="nonzero"/><path fill="#10069f" d="M 624.007812 289.007812 C 620.398438 289.007812 616.886719 287.128906 614.953125 283.78125 C 612.070312 278.785156 613.777344 272.398438 618.773438 269.515625 L 652.292969 250.160156 C 657.289062 247.277344 663.675781 248.992188 666.5625 253.988281 C 669.445312 258.980469 667.730469 265.367188 662.734375 268.253906 L 629.214844 287.601562 C 627.574219 288.550781 625.777344 289.007812 624.007812 289.007812 " fill-opacity="1" fill-rule="nonzero"/><path fill="#10069f" d="M 531.425781 196.441406 C 529.65625 196.441406 527.863281 195.992188 526.214844 195.042969 C 521.21875 192.160156 519.511719 185.769531 522.394531 180.777344 L 541.742188 147.261719 C 544.632812 142.265625 551.015625 140.550781 556.011719 143.4375 C 561.003906 146.316406 562.71875 152.707031 559.835938 157.703125 L 540.480469 191.222656 C 538.546875 194.570312 535.039062 196.441406 531.425781 196.441406 " fill-opacity="1" fill-rule="nonzero"/></svg>