<svg xmlns="http://www.w3.org/2000/svg" xmlns:xlink="http://www.w3.org/1999/xlink" width="1080" zoomAndPan="magnify" viewBox="0 0 810 809.999993" height="1080" preserveAspectRatio="xMidYMid meet" version="1.0"><defs><clipPath id="d5542abcb2"><path d="M 123.171875 570 L 687 570 L 687 754.851562 L 123.171875 754.851562 Z M 123.171875 570 " clip-rule="nonzero"/></clipPath><clipPath id="dea464d34d"><path d="M 178 55.101562 L 627 55.101562 L 627 690 L 178 690 Z M 178 55.101562 " clip-rule="nonzero"/></clipPath></defs><g clip-path="url(#d5542abcb2)"><path fill="#10069f" d="M 404.996094 754.476562 C 332.363281 754.476562 263.871094 746.179688 212.144531 731.113281 C 153.921875 714.15625 123.144531 690.160156 123.144531 661.71875 C 123.144531 604.96875 244.0625 577.226562 347.609375 570.710938 C 355.914062 570.167969 363.070312 576.5 363.59375 584.808594 C 364.117188 593.113281 357.804688 600.273438 349.5 600.792969 C 292.175781 604.398438 240.277344 613.628906 203.363281 626.785156 C 166.402344 639.960938 153.285156 653.839844 153.285156 661.71875 C 153.285156 669.46875 167.457031 686.703125 220.570312 702.175781 C 269.640625 716.464844 335.136719 724.335938 404.996094 724.335938 C 474.875 724.335938 540.378906 716.464844 589.4375 702.175781 C 642.539062 686.707031 656.707031 669.46875 656.707031 661.71875 C 656.707031 641.4375 585.339844 607.984375 456.296875 600.558594 C 447.988281 600.082031 441.636719 592.957031 442.117188 584.648438 C 442.59375 576.335938 449.734375 569.96875 458.027344 570.46875 C 563.585938 576.542969 686.851562 604.085938 686.851562 661.71875 C 686.851562 690.160156 656.082031 714.15625 597.871094 731.113281 C 546.144531 746.179688 477.648438 754.476562 404.996094 754.476562 Z M 404.996094 754.476562 " fill-opacity="1" fill-rule="nonzero"/></g><g clip-path="url(#dea464d34d)"><path fill="#10069f" d="M 402.640625 689.789062 C 397.160156 689.792969 392.113281 686.820312 389.457031 682.03125 C 375.832031 657.460938 354.878906 624.132812 330.617188 585.539062 C 262.832031 477.707031 178.46875 343.507812 178.46875 279.53125 C 178.46875 155.925781 279.03125 55.363281 402.636719 55.363281 C 526.222656 55.363281 626.765625 155.925781 626.765625 279.53125 C 626.765625 346.710938 547.339844 471.699219 477.261719 581.980469 C 453.132812 619.949219 430.34375 655.816406 415.816406 682.027344 C 413.164062 686.816406 408.117188 689.789062 402.640625 689.789062 Z M 402.636719 85.503906 C 295.652344 85.503906 208.609375 172.542969 208.609375 279.53125 C 208.609375 334.820312 293.878906 470.460938 356.136719 569.496094 C 373.867188 597.703125 389.847656 623.125 402.640625 644.605469 C 416.480469 621.425781 433.78125 594.203125 451.824219 565.8125 C 512.929688 469.644531 596.621094 337.941406 596.621094 279.53125 C 596.621094 172.542969 509.601562 85.503906 402.636719 85.503906 Z M 402.636719 85.503906 " fill-opacity="1" fill-rule="nonzero"/></g><path fill="#10069f" d="M 402.636719 380.128906 C 342.800781 380.128906 294.117188 331.464844 294.117188 271.648438 C 294.117188 211.8125 342.800781 163.132812 402.636719 163.132812 C 462.453125 163.132812 511.117188 211.8125 511.117188 271.648438 C 511.117188 331.464844 462.453125 380.128906 402.636719 380.128906 Z M 402.636719 193.273438 C 359.421875 193.273438 324.261719 228.433594 324.261719 271.648438 C 324.261719 314.84375 359.421875 349.984375 402.636719 349.984375 C 445.832031 349.984375 480.972656 314.84375 480.972656 271.648438 C 480.972656 228.433594 445.832031 193.273438 402.636719 193.273438 Z M 402.636719 193.273438 " fill-opacity="1" fill-rule="nonzero"/></svg>