<svg xmlns="http://www.w3.org/2000/svg" xmlns:xlink="http://www.w3.org/1999/xlink" width="1080" zoomAndPan="magnify" viewBox="0 0 810 809.999993" height="1080" preserveAspectRatio="xMidYMid meet" version="1.0"><defs><clipPath id="6fad50e718"><path d="M 93.554688 138 L 716.804688 138 L 716.804688 729 L 93.554688 729 Z M 93.554688 138 " clip-rule="nonzero"/></clipPath><clipPath id="ff0d227669"><path d="M 190 81 L 278 81 L 278 218 L 190 218 Z M 190 81 " clip-rule="nonzero"/></clipPath><clipPath id="49e6e2c6ca"><path d="M 361 81 L 449 81 L 449 218 L 361 218 Z M 361 81 " clip-rule="nonzero"/></clipPath><clipPath id="cde98bdf3f"><path d="M 532 81 L 620 81 L 620 218 L 532 218 Z M 532 81 " clip-rule="nonzero"/></clipPath><clipPath id="87ca41a654"><path d="M 93.554688 245 L 716.804688 245 L 716.804688 266 L 93.554688 266 Z M 93.554688 245 " clip-rule="nonzero"/></clipPath></defs><g clip-path="url(#6fad50e718)"><path fill="#10069f" d="M 153.894531 138.875 L 201.085938 138.875 C 206.679688 138.875 211.210938 143.410156 211.210938 149 L 211.210938 173.933594 C 211.210938 186.496094 221.472656 196.753906 234.03125 196.753906 C 246.582031 196.753906 256.851562 186.46875 256.851562 173.933594 L 256.851562 149 C 256.851562 143.410156 261.386719 138.875 266.976562 138.875 L 372.050781 138.875 C 377.644531 138.875 382.179688 143.410156 382.179688 149 L 382.179688 173.933594 C 382.179688 186.476562 392.441406 196.753906 404.996094 196.753906 C 411.261719 196.753906 416.96875 194.179688 421.109375 190.042969 L 421.105469 190.039062 C 421.261719 189.886719 421.417969 189.738281 421.578125 189.597656 C 425.441406 185.523438 427.816406 180.003906 427.816406 173.933594 L 427.816406 149 C 427.816406 143.410156 432.351562 138.875 437.945312 138.875 L 543.019531 138.875 C 548.609375 138.875 553.144531 143.410156 553.144531 149 L 553.144531 173.933594 C 553.144531 186.476562 563.410156 196.753906 575.964844 196.753906 C 582.257812 196.753906 587.957031 194.195312 592.074219 190.082031 L 592.070312 190.042969 C 592.222656 189.890625 592.375 189.746094 592.535156 189.605469 C 596.402344 185.53125 598.785156 180.007812 598.785156 173.933594 L 598.785156 149 C 598.785156 143.410156 603.316406 138.875 608.910156 138.875 L 656.097656 138.875 C 672.605469 138.875 687.605469 145.621094 698.472656 156.488281 C 709.339844 167.355469 716.085938 182.355469 716.085938 198.863281 L 716.085938 669.011719 C 716.085938 685.519531 709.339844 700.519531 698.472656 711.386719 C 687.605469 722.253906 672.605469 729 656.097656 729 L 153.894531 729 C 137.386719 729 122.386719 722.253906 111.519531 711.386719 C 100.652344 700.519531 93.90625 685.519531 93.90625 669.011719 L 93.90625 198.863281 C 93.90625 182.355469 100.652344 167.355469 111.519531 156.488281 C 122.386719 145.621094 137.386719 138.875 153.894531 138.875 Z M 190.960938 159.128906 L 153.894531 159.128906 C 142.976562 159.128906 133.042969 163.601562 125.835938 170.808594 C 118.632812 178.011719 114.160156 187.945312 114.160156 198.863281 L 114.160156 669.011719 C 114.160156 679.929688 118.632812 689.863281 125.835938 697.070312 C 133.042969 704.277344 142.976562 708.75 153.894531 708.75 L 656.097656 708.75 C 667.015625 708.75 676.949219 704.277344 684.15625 697.070312 C 691.363281 689.863281 695.835938 679.929688 695.835938 669.011719 L 695.835938 198.867188 C 695.835938 187.949219 691.363281 178.015625 684.15625 170.808594 C 676.949219 163.601562 667.015625 159.128906 656.097656 159.128906 L 619.035156 159.128906 L 619.035156 173.933594 C 619.035156 197.59375 599.644531 217.003906 575.964844 217.003906 C 552.269531 217.003906 532.894531 197.625 532.894531 173.933594 L 532.894531 159.128906 L 448.070312 159.128906 L 448.070312 173.933594 C 448.070312 197.613281 428.675781 217.003906 405 217.003906 C 381.304688 217.003906 361.925781 197.625 361.925781 173.933594 L 361.925781 159.128906 L 277.101562 159.128906 L 277.101562 173.933594 C 277.101562 197.613281 257.707031 217.003906 234.03125 217.003906 C 210.371094 217.003906 190.960938 197.613281 190.960938 173.933594 Z M 190.960938 159.128906 " fill-opacity="1" fill-rule="nonzero"/></g><g clip-path="url(#ff0d227669)"><path fill="#10069f" d="M 234.03125 80.996094 C 257.707031 80.996094 277.105469 100.386719 277.105469 124.066406 L 277.105469 173.933594 C 277.105469 197.625 257.726562 217.003906 234.03125 217.003906 C 210.355469 217.003906 190.960938 197.59375 190.960938 173.933594 L 190.960938 124.066406 C 190.960938 100.390625 210.371094 80.996094 234.03125 80.996094 Z M 234.03125 101.25 C 221.476562 101.25 211.210938 111.507812 211.210938 124.066406 L 211.210938 173.933594 C 211.210938 180.007812 213.59375 185.53125 217.460938 189.609375 C 217.621094 189.746094 217.773438 189.890625 217.925781 190.042969 L 217.921875 190.082031 C 222.039062 194.195312 227.738281 196.753906 234.03125 196.753906 C 246.585938 196.753906 256.851562 186.476562 256.851562 173.933594 L 256.851562 124.066406 C 256.851562 111.53125 246.582031 101.25 234.03125 101.25 Z M 234.03125 101.25 " fill-opacity="1" fill-rule="nonzero"/></g><g clip-path="url(#49e6e2c6ca)"><path fill="#10069f" d="M 405 80.996094 C 428.675781 80.996094 448.070312 100.386719 448.070312 124.066406 L 448.070312 173.933594 C 448.070312 197.625 428.691406 217.003906 405 217.003906 C 393.144531 217.003906 382.371094 212.160156 374.570312 204.359375 L 374.570312 204.363281 C 374.355469 204.148438 374.152344 203.925781 373.960938 203.699219 C 366.519531 195.933594 361.925781 185.433594 361.925781 173.933594 L 361.925781 124.066406 C 361.925781 100.378906 381.304688 80.996094 405 80.996094 Z M 405 101.25 C 392.441406 101.25 382.179688 111.527344 382.179688 124.066406 L 382.179688 173.933594 C 382.179688 186.46875 392.445312 196.753906 405 196.753906 C 417.554688 196.753906 427.820312 186.476562 427.820312 173.933594 L 427.820312 124.066406 C 427.820312 111.53125 417.550781 101.25 405 101.25 Z M 405 101.25 " fill-opacity="1" fill-rule="nonzero"/></g><g clip-path="url(#cde98bdf3f)"><path fill="#10069f" d="M 575.964844 80.996094 C 599.640625 80.996094 619.035156 100.410156 619.035156 124.066406 L 619.035156 173.933594 C 619.035156 197.609375 599.625 217.003906 575.964844 217.003906 C 552.289062 217.003906 532.894531 197.613281 532.894531 173.933594 L 532.894531 124.066406 C 532.894531 100.378906 552.269531 80.996094 575.964844 80.996094 Z M 575.964844 101.25 C 563.410156 101.25 553.144531 111.527344 553.144531 124.066406 L 553.144531 173.933594 C 553.144531 186.46875 563.414062 196.753906 575.964844 196.753906 C 588.523438 196.753906 598.785156 186.496094 598.785156 173.933594 L 598.785156 124.066406 C 598.785156 111.511719 588.527344 101.25 575.964844 101.25 Z M 575.964844 101.25 " fill-opacity="1" fill-rule="nonzero"/></g><g clip-path="url(#87ca41a654)"><path fill="#10069f" d="M 705.960938 265.984375 C 711.554688 265.984375 716.085938 261.449219 716.085938 255.855469 C 716.085938 250.265625 711.554688 245.730469 705.960938 245.730469 L 104.035156 245.730469 C 98.441406 245.730469 93.90625 250.265625 93.90625 255.855469 C 93.90625 261.449219 98.441406 265.984375 104.035156 265.984375 Z M 705.960938 265.984375 " fill-opacity="1" fill-rule="nonzero"/></g><path fill="#10069f" d="M 311.503906 331.210938 L 372.050781 331.210938 C 377.644531 331.210938 382.179688 335.742188 382.179688 341.335938 L 382.179688 401.886719 C 382.179688 407.476562 377.644531 412.011719 372.050781 412.011719 L 311.503906 412.011719 C 305.910156 412.011719 301.375 407.476562 301.375 401.886719 L 301.375 341.335938 C 301.375 335.742188 305.910156 331.210938 311.503906 331.210938 Z M 361.925781 351.460938 L 321.628906 351.460938 L 321.628906 391.757812 L 361.925781 391.757812 Z M 361.925781 351.460938 " fill-opacity="1" fill-rule="nonzero"/><path fill="#10069f" d="M 437.941406 331.210938 L 498.492188 331.210938 C 504.085938 331.210938 508.617188 335.742188 508.617188 341.335938 L 508.617188 401.886719 C 508.617188 407.476562 504.085938 412.011719 498.492188 412.011719 L 437.941406 412.011719 C 432.347656 412.011719 427.816406 407.476562 427.816406 401.886719 L 427.816406 341.335938 C 427.816406 335.742188 432.347656 331.210938 437.941406 331.210938 Z M 488.367188 351.460938 L 448.066406 351.460938 L 448.066406 391.757812 L 488.367188 391.757812 Z M 488.367188 351.460938 " fill-opacity="1" fill-rule="nonzero"/><path fill="#10069f" d="M 564.382812 331.210938 L 624.933594 331.210938 C 630.523438 331.210938 635.058594 335.742188 635.058594 341.335938 L 635.058594 401.886719 C 635.058594 407.476562 630.523438 412.011719 624.933594 412.011719 L 564.382812 412.011719 C 558.789062 412.011719 554.257812 407.476562 554.257812 401.886719 L 554.257812 341.335938 C 554.257812 335.742188 558.789062 331.210938 564.382812 331.210938 Z M 614.804688 351.460938 L 574.507812 351.460938 L 574.507812 391.757812 L 614.804688 391.757812 Z M 614.804688 351.460938 " fill-opacity="1" fill-rule="nonzero"/><path fill="#10069f" d="M 185.0625 446.964844 L 245.613281 446.964844 C 251.203125 446.964844 255.738281 451.496094 255.738281 457.089844 L 255.738281 517.640625 C 255.738281 523.234375 251.203125 527.765625 245.613281 527.765625 L 185.0625 527.765625 C 179.472656 527.765625 174.9375 523.234375 174.9375 517.640625 L 174.9375 457.089844 C 174.9375 451.496094 179.472656 446.964844 185.0625 446.964844 Z M 235.488281 467.214844 L 195.1875 467.214844 L 195.1875 507.515625 L 235.488281 507.515625 Z M 235.488281 467.214844 " fill-opacity="1" fill-rule="nonzero"/><path fill="#10069f" d="M 311.503906 446.964844 L 372.050781 446.964844 C 377.644531 446.964844 382.179688 451.496094 382.179688 457.089844 L 382.179688 517.640625 C 382.179688 523.234375 377.644531 527.765625 372.050781 527.765625 L 311.503906 527.765625 C 305.910156 527.765625 301.375 523.234375 301.375 517.640625 L 301.375 457.089844 C 301.375 451.496094 305.910156 446.964844 311.503906 446.964844 Z M 361.925781 467.214844 L 321.628906 467.214844 L 321.628906 507.515625 L 361.925781 507.515625 Z M 361.925781 467.214844 " fill-opacity="1" fill-rule="nonzero"/><path fill="#10069f" d="M 437.941406 446.964844 L 498.492188 446.964844 C 504.085938 446.964844 508.617188 451.496094 508.617188 457.089844 L 508.617188 517.640625 C 508.617188 523.234375 504.085938 527.765625 498.492188 527.765625 L 437.941406 527.765625 C 432.347656 527.765625 427.816406 523.234375 427.816406 517.640625 L 427.816406 457.089844 C 427.816406 451.496094 432.347656 446.964844 437.941406 446.964844 Z M 488.367188 467.214844 L 448.066406 467.214844 L 448.066406 507.515625 L 488.367188 507.515625 Z M 488.367188 467.214844 " fill-opacity="1" fill-rule="nonzero"/><path fill="#10069f" d="M 564.382812 446.964844 L 624.933594 446.964844 C 630.523438 446.964844 635.058594 451.496094 635.058594 457.089844 L 635.058594 517.640625 C 635.058594 523.234375 630.523438 527.765625 624.933594 527.765625 L 564.382812 527.765625 C 558.789062 527.765625 554.257812 523.234375 554.257812 517.640625 L 554.257812 457.089844 C 554.257812 451.496094 558.789062 446.964844 564.382812 446.964844 Z M 614.804688 467.214844 L 574.507812 467.214844 L 574.507812 507.515625 L 614.804688 507.515625 Z M 614.804688 467.214844 " fill-opacity="1" fill-rule="nonzero"/><path fill="#10069f" d="M 185.0625 562.71875 L 245.613281 562.71875 C 251.203125 562.71875 255.738281 567.253906 255.738281 572.84375 L 255.738281 633.394531 C 255.738281 638.988281 251.203125 643.519531 245.613281 643.519531 L 185.0625 643.519531 C 179.472656 643.519531 174.9375 638.988281 174.9375 633.394531 L 174.9375 572.84375 C 174.9375 567.253906 179.472656 562.71875 185.0625 562.71875 Z M 235.488281 582.96875 L 195.1875 582.96875 L 195.1875 623.269531 L 235.488281 623.269531 Z M 235.488281 582.96875 " fill-opacity="1" fill-rule="nonzero"/><path fill="#10069f" d="M 311.503906 562.71875 L 372.050781 562.71875 C 377.644531 562.71875 382.179688 567.253906 382.179688 572.84375 L 382.179688 633.394531 C 382.179688 638.988281 377.644531 643.519531 372.050781 643.519531 L 311.503906 643.519531 C 305.910156 643.519531 301.375 638.988281 301.375 633.394531 L 301.375 572.84375 C 301.375 567.253906 305.910156 562.71875 311.503906 562.71875 Z M 361.925781 582.96875 L 321.628906 582.96875 L 321.628906 623.269531 L 361.925781 623.269531 Z M 361.925781 582.96875 " fill-opacity="1" fill-rule="nonzero"/><path fill="#10069f" d="M 437.941406 562.71875 L 498.492188 562.71875 C 504.085938 562.71875 508.617188 567.253906 508.617188 572.84375 L 508.617188 633.394531 C 508.617188 638.988281 504.085938 643.519531 498.492188 643.519531 L 437.941406 643.519531 C 432.347656 643.519531 427.816406 638.988281 427.816406 633.394531 L 427.816406 572.84375 C 427.816406 567.253906 432.347656 562.71875 437.941406 562.71875 Z M 488.367188 582.96875 L 448.066406 582.96875 L 448.066406 623.269531 L 488.367188 623.269531 Z M 488.367188 582.96875 " fill-opacity="1" fill-rule="nonzero"/></svg>