<svg xmlns="http://www.w3.org/2000/svg" xmlns:xlink="http://www.w3.org/1999/xlink" width="1080" zoomAndPan="magnify" viewBox="0 0 810 809.999993" height="1080" preserveAspectRatio="xMidYMid meet" version="1.0"><defs><clipPath id="a2d2aa5e6f"><path d="M 66 103 L 744 103 L 744 707.765625 L 66 707.765625 Z M 66 103 " clip-rule="nonzero"/></clipPath></defs><g clip-path="url(#a2d2aa5e6f)"><path fill="#10069f" d="M 379.15625 671.511719 C 380.675781 677.082031 377.632812 682.65625 372.0625 684.175781 C 363.953125 686.203125 355.847656 688.738281 347.234375 690.765625 C 347.234375 690.765625 347.234375 690.765625 346.726562 690.765625 L 342.167969 691.777344 C 341.152344 691.777344 340.648438 692.285156 339.632812 692.285156 C 335.074219 692.285156 331.019531 689.242188 330.007812 684.683594 C 328.488281 679.109375 332.035156 673.539062 337.101562 672.523438 L 342.167969 671.511719 C 342.167969 671.511719 342.167969 671.511719 342.675781 671.511719 C 350.78125 669.484375 358.886719 667.457031 366.488281 664.921875 C 372.0625 663.402344 377.632812 666.445312 379.15625 671.511719 Z M 298.59375 681.644531 C 290.488281 683.671875 282.378906 685.191406 273.765625 687.21875 C 268.191406 688.230469 264.644531 693.804688 266.167969 699.378906 C 267.179688 703.9375 271.234375 707.484375 276.300781 707.484375 C 276.804688 707.484375 277.820312 707.484375 278.328125 707.484375 C 286.941406 705.457031 295.046875 703.9375 303.152344 701.910156 C 308.726562 700.898438 311.765625 695.324219 310.753906 689.75 C 309.738281 684.175781 304.167969 680.628906 298.59375 681.644531 Z M 475.421875 435.90625 C 477.449219 437.425781 479.476562 437.933594 481.503906 437.933594 C 484.542969 437.933594 487.582031 436.414062 489.609375 433.878906 C 490.621094 432.867188 491.636719 431.855469 492.648438 430.332031 C 497.210938 425.265625 502.78125 420.199219 509.875 415.132812 C 514.4375 411.585938 515.449219 405.507812 511.902344 400.945312 C 508.355469 396.386719 502.277344 395.375 497.714844 398.917969 C 489.609375 405 482.515625 411.078125 477.449219 417.160156 C 475.929688 418.679688 474.914062 420.199219 473.902344 421.71875 C 470.355469 426.28125 470.863281 432.867188 475.421875 435.90625 Z M 433.875 643.644531 C 426.273438 646.175781 418.167969 649.21875 410.0625 651.75 L 405.5 653.269531 C 399.929688 654.789062 397.394531 660.871094 398.914062 665.9375 C 400.433594 670.496094 404.488281 673.03125 408.542969 673.03125 C 409.554688 673.03125 410.566406 673.03125 411.582031 672.523438 L 416.648438 671.003906 C 425.261719 668.46875 433.367188 665.429688 440.96875 662.898438 C 446.035156 660.871094 449.074219 655.296875 447.046875 649.722656 C 445.023438 644.65625 438.941406 642.125 433.875 643.644531 Z M 509.371094 526.601562 C 516.464844 532.683594 522.035156 537.242188 527.101562 542.308594 C 527.101562 542.308594 527.101562 542.308594 527.609375 542.816406 C 528.625 543.828125 529.636719 544.84375 530.648438 546.363281 C 532.675781 548.390625 535.210938 549.910156 538.25 549.910156 C 540.785156 549.910156 542.808594 548.894531 544.835938 547.375 C 548.890625 543.828125 549.398438 537.242188 545.851562 533.1875 C 544.835938 531.667969 543.316406 530.65625 542.304688 529.640625 C 542.304688 529.640625 542.304688 529.640625 541.796875 529.136719 C 536.222656 523.5625 529.636719 517.988281 522.035156 511.402344 C 517.476562 507.855469 511.394531 508.363281 507.847656 512.921875 C 504.304688 517.480469 505.316406 523.054688 509.371094 526.601562 Z M 562.0625 364.464844 C 553.957031 368.011719 545.851562 371.558594 538.25 375.105469 C 536.730469 376.121094 535.210938 376.625 533.691406 377.640625 C 528.625 380.171875 526.597656 386.253906 529.128906 391.320312 C 531.15625 394.867188 534.703125 396.894531 538.25 396.894531 C 539.769531 396.894531 541.289062 396.386719 542.808594 395.878906 C 544.332031 395.375 545.851562 394.359375 547.371094 393.851562 C 554.464844 390.304688 562.0625 386.757812 569.664062 383.71875 C 574.730469 381.691406 577.265625 375.613281 575.238281 370.546875 C 573.210938 364.464844 567.128906 362.4375 562.0625 364.464844 Z M 629.957031 339.640625 C 621.851562 342.171875 613.746094 344.707031 605.636719 347.746094 L 600.570312 349.265625 C 595.503906 351.292969 592.464844 356.867188 594.492188 362.4375 C 596.011719 366.492188 600.0625 369.027344 604.117188 369.027344 C 605.132812 369.027344 606.144531 369.027344 607.664062 368.519531 L 612.222656 367 C 620.332031 364.464844 627.929688 361.425781 636.039062 358.894531 C 641.613281 357.371094 644.144531 351.292969 642.625 346.226562 C 640.597656 341.160156 635.023438 338.117188 629.957031 339.640625 Z M 474.410156 494.679688 C 475.421875 496.203125 476.941406 497.722656 477.957031 498.734375 C 479.984375 500.761719 482.515625 502.28125 485.554688 502.28125 C 488.089844 502.28125 490.621094 501.269531 492.144531 499.746094 C 496.195312 496.203125 496.703125 489.613281 492.648438 485.5625 C 491.636719 484.546875 490.621094 483.027344 489.609375 482.015625 C 484.542969 475.933594 481.503906 469.855469 479.984375 464.28125 C 478.96875 458.707031 473.394531 455.160156 467.824219 456.679688 C 462.25 457.695312 458.703125 463.265625 460.222656 468.839844 C 462.753906 476.949219 467.316406 485.5625 474.410156 494.679688 Z M 552.945312 566.121094 C 547.371094 565.109375 542.304688 568.148438 540.785156 573.722656 C 539.769531 579.296875 536.222656 584.871094 531.15625 590.949219 C 530.144531 591.960938 529.128906 592.976562 528.117188 593.988281 C 524.0625 598.042969 524.0625 604.121094 528.117188 608.175781 C 530.144531 610.203125 532.675781 611.214844 535.210938 611.214844 C 537.742188 611.214844 540.277344 610.203125 542.304688 608.175781 C 543.824219 606.65625 544.835938 605.644531 545.851562 604.121094 C 553.449219 595.507812 558.515625 586.894531 560.542969 577.777344 C 562.0625 573.214844 558.515625 567.640625 552.945312 566.121094 Z M 497.210938 616.28125 C 490.621094 619.828125 483.023438 623.882812 475.421875 627.429688 C 475.421875 627.429688 475.421875 627.429688 474.914062 627.429688 L 470.863281 629.457031 C 465.796875 631.484375 463.261719 637.5625 465.796875 642.628906 C 467.316406 646.175781 471.367188 648.710938 474.914062 648.710938 C 476.4375 648.710938 477.449219 648.203125 478.96875 647.695312 L 483.527344 645.671875 C 483.527344 645.671875 484.035156 645.671875 484.035156 645.671875 C 492.144531 641.617188 500.25 638.070312 506.835938 634.015625 C 511.902344 631.484375 513.421875 624.894531 510.890625 620.335938 C 508.355469 615.269531 502.277344 613.242188 497.210938 616.28125 Z M 304.167969 414.121094 C 304.167969 463.773438 263.632812 504.308594 213.980469 504.308594 C 164.324219 504.308594 123.789062 463.773438 123.789062 414.121094 C 123.789062 364.464844 164.324219 323.933594 213.980469 323.933594 C 263.632812 323.933594 304.167969 364.464844 304.167969 414.121094 Z M 283.898438 414.121094 C 283.898438 375.613281 252.484375 344.199219 213.980469 344.199219 C 175.472656 344.199219 144.058594 375.613281 144.058594 414.121094 C 144.058594 452.628906 175.472656 484.042969 213.980469 484.042969 C 252.484375 484.042969 283.898438 452.628906 283.898438 414.121094 Z M 290.992188 589.9375 C 269.710938 622.363281 246.40625 653.777344 222.085938 684.175781 C 220.058594 686.710938 217.019531 687.722656 213.980469 687.722656 C 210.9375 687.722656 207.898438 686.203125 205.871094 684.175781 C 181.550781 653.777344 158.246094 621.855469 136.964844 589.9375 C 85.285156 512.414062 66.535156 467.320312 66.535156 418.171875 C 66.535156 356.359375 122.777344 270.226562 213.980469 270.226562 C 305.179688 270.226562 360.914062 355.851562 361.421875 417.667969 C 360.914062 467.320312 342.675781 512.414062 290.992188 589.9375 Z M 274.273438 578.789062 C 330.007812 494.679688 341.152344 456.175781 341.152344 418.171875 C 341.152344 364.972656 292.511719 290.492188 213.980469 290.492188 C 135.445312 290.492188 87.308594 364.464844 86.804688 417.667969 C 86.804688 456.175781 97.949219 494.679688 153.683594 578.789062 C 172.429688 607.164062 192.699219 635.03125 213.980469 661.882812 C 235.257812 635.03125 255.527344 607.164062 274.273438 578.789062 Z M 713.050781 184.089844 C 713.050781 213.476562 689.238281 236.785156 660.359375 236.785156 C 631.476562 236.785156 607.664062 212.96875 607.664062 184.089844 C 607.664062 155.210938 631.476562 131.394531 660.359375 131.394531 C 689.238281 131.394531 713.050781 154.703125 713.050781 184.089844 Z M 692.785156 184.089844 C 692.785156 166.355469 678.09375 151.664062 660.359375 151.664062 C 642.625 151.664062 627.929688 166.355469 627.929688 184.089844 C 627.929688 201.824219 642.625 216.515625 660.359375 216.515625 C 678.09375 216.515625 692.785156 201.824219 692.785156 184.089844 Z M 743.453125 186.117188 C 743.453125 213.476562 733.320312 238.304688 704.945312 280.863281 C 693.292969 298.089844 681.132812 315.320312 667.957031 331.53125 C 665.933594 334.066406 662.890625 335.078125 659.851562 335.078125 C 656.8125 335.078125 653.773438 333.558594 651.746094 331.53125 C 638.570312 315.320312 625.90625 298.089844 614.757812 280.863281 C 586.382812 238.304688 576.757812 213.984375 576.25 186.625 C 576.25 151.664062 608.171875 103.023438 659.34375 103.023438 C 711.53125 102.515625 743.453125 151.15625 743.453125 186.117188 Z M 723.1875 186.117188 C 723.1875 163.316406 701.90625 122.78125 660.359375 122.78125 C 618.304688 122.78125 597.53125 163.316406 597.53125 186.117188 C 597.53125 205.878906 603.105469 225.636719 632.492188 269.71875 C 641.105469 282.890625 650.730469 296.066406 660.863281 309.238281 C 671 296.570312 680.117188 283.398438 689.238281 269.71875 C 717.105469 225.636719 723.1875 205.878906 723.1875 186.117188 Z M 723.1875 186.117188 " fill-opacity="1" fill-rule="nonzero"/></g></svg>