<svg xmlns="http://www.w3.org/2000/svg" xmlns:xlink="http://www.w3.org/1999/xlink" width="1080" zoomAndPan="magnify" viewBox="0 0 810 809.999993" height="1080" preserveAspectRatio="xMidYMid meet" version="1.0"><defs><clipPath id="1b27983971"><path d="M 172.410156 260 L 308 260 L 308 463 L 172.410156 463 Z M 172.410156 260 " clip-rule="nonzero"/></clipPath><clipPath id="7b6477997c"><path d="M 502 260 L 637.410156 260 L 637.410156 463 L 502 463 Z M 502 260 " clip-rule="nonzero"/></clipPath><clipPath id="a8b8515f1e"><path d="M 344 511 L 468 511 L 468 726.75 L 344 726.75 Z M 344 511 " clip-rule="nonzero"/></clipPath></defs><path fill="#10069f" d="M 288.917969 609.496094 L 214.972656 609.496094 L 214.972656 394.214844 L 247.558594 394.214844 L 247.558594 576.914062 L 288.917969 576.914062 Z M 288.917969 609.496094 " fill-opacity="1" fill-rule="nonzero"/><path fill="#10069f" d="M 260.089844 435.285156 L 292.675781 435.285156 L 292.675781 593.203125 L 260.089844 593.203125 Z M 260.089844 435.285156 " fill-opacity="1" fill-rule="nonzero"/><g clip-path="url(#1b27983971)"><path fill="#10069f" d="M 204.992188 462.644531 L 172.40625 462.644531 L 172.40625 330.507812 C 172.40625 311.753906 179.710938 294.121094 192.972656 280.855469 C 206.238281 267.59375 223.871094 260.289062 242.625 260.289062 L 307.640625 260.289062 L 307.640625 292.875 L 242.625 292.875 C 221.875 292.875 204.992188 309.757812 204.992188 330.507812 Z M 204.992188 462.644531 " fill-opacity="1" fill-rule="nonzero"/></g><path fill="#10069f" d="M 276.382812 243.605469 C 265.4375 243.605469 254.808594 241.457031 244.792969 237.222656 C 235.128906 233.132812 226.453125 227.285156 219.003906 219.839844 C 211.558594 212.390625 205.710938 203.714844 201.621094 194.050781 C 197.386719 184.035156 195.238281 173.410156 195.238281 162.460938 C 195.238281 151.511719 197.386719 140.886719 201.621094 130.871094 C 205.710938 121.203125 211.558594 112.527344 219.003906 105.082031 C 226.453125 97.632812 235.128906 91.785156 244.792969 87.699219 C 254.808594 83.460938 265.433594 81.3125 276.382812 81.3125 C 287.332031 81.3125 297.957031 83.460938 307.976562 87.699219 C 317.640625 91.785156 326.316406 97.632812 333.761719 105.082031 C 341.210938 112.527344 347.058594 121.203125 351.144531 130.871094 C 355.382812 140.882812 357.53125 151.511719 357.53125 162.460938 C 357.53125 173.410156 355.382812 184.035156 351.144531 194.050781 C 347.058594 203.714844 341.210938 212.390625 333.761719 219.839844 C 326.316406 227.285156 317.640625 233.132812 307.976562 237.222656 C 297.960938 241.457031 287.332031 243.605469 276.382812 243.605469 Z M 276.382812 113.90625 C 249.609375 113.90625 227.824219 135.691406 227.824219 162.464844 C 227.824219 189.242188 249.609375 211.023438 276.382812 211.023438 C 303.160156 211.023438 324.941406 189.242188 324.941406 162.464844 C 324.941406 135.691406 303.160156 113.90625 276.382812 113.90625 Z M 276.382812 113.90625 " fill-opacity="1" fill-rule="nonzero"/><path fill="#10069f" d="M 597.53125 609.496094 L 523.585938 609.496094 L 523.585938 576.914062 L 564.945312 576.914062 L 564.945312 394.214844 L 597.53125 394.214844 Z M 597.53125 609.496094 " fill-opacity="1" fill-rule="nonzero"/><path fill="#10069f" d="M 519.824219 435.285156 L 552.410156 435.285156 L 552.410156 593.203125 L 519.824219 593.203125 Z M 519.824219 435.285156 " fill-opacity="1" fill-rule="nonzero"/><g clip-path="url(#7b6477997c)"><path fill="#10069f" d="M 637.589844 462.644531 L 605.003906 462.644531 L 605.003906 330.507812 C 605.003906 309.757812 588.121094 292.875 567.371094 292.875 L 502.355469 292.875 L 502.355469 260.289062 L 567.371094 260.289062 C 586.128906 260.289062 603.757812 267.59375 617.019531 280.855469 C 630.285156 294.121094 637.589844 311.753906 637.589844 330.507812 Z M 637.589844 462.644531 " fill-opacity="1" fill-rule="nonzero"/></g><path fill="#10069f" d="M 536.117188 243.605469 C 525.171875 243.605469 514.542969 241.457031 504.527344 237.222656 C 494.863281 233.132812 486.1875 227.285156 478.738281 219.839844 C 471.292969 212.390625 465.445312 203.714844 461.355469 194.050781 C 457.121094 184.035156 454.972656 173.410156 454.972656 162.460938 C 454.972656 151.511719 457.121094 140.886719 461.355469 130.871094 C 465.445312 121.203125 471.292969 112.527344 478.738281 105.082031 C 486.1875 97.632812 494.863281 91.785156 504.527344 87.699219 C 514.542969 83.460938 525.167969 81.3125 536.117188 81.3125 C 547.066406 81.3125 557.691406 83.460938 567.710938 87.699219 C 577.375 91.785156 586.050781 97.632812 593.496094 105.082031 C 600.945312 112.527344 606.792969 121.203125 610.878906 130.871094 C 615.117188 140.882812 617.265625 151.511719 617.265625 162.460938 C 617.265625 173.410156 615.117188 184.035156 610.878906 194.050781 C 606.792969 203.714844 600.945312 212.390625 593.496094 219.839844 C 586.050781 227.285156 577.375 233.132812 567.710938 237.222656 C 557.695312 241.457031 547.066406 243.605469 536.117188 243.605469 Z M 536.117188 113.90625 C 509.34375 113.90625 487.558594 135.691406 487.558594 162.464844 C 487.558594 189.242188 509.34375 211.023438 536.117188 211.023438 C 562.894531 211.023438 584.675781 189.242188 584.675781 162.464844 C 584.675781 135.691406 562.894531 113.90625 536.117188 113.90625 Z M 536.117188 113.90625 " fill-opacity="1" fill-rule="nonzero"/><g clip-path="url(#a8b8515f1e)"><path fill="#10069f" d="M 467.664062 726.730469 L 344.839844 726.730469 L 344.839844 511.449219 L 377.425781 511.449219 L 377.425781 694.144531 L 435.078125 694.144531 L 435.078125 511.449219 L 467.664062 511.449219 Z M 467.664062 726.730469 " fill-opacity="1" fill-rule="nonzero"/></g><path fill="#10069f" d="M 389.957031 552.519531 L 422.542969 552.519531 L 422.542969 710.4375 L 389.957031 710.4375 Z M 389.957031 552.519531 " fill-opacity="1" fill-rule="nonzero"/><path fill="#10069f" d="M 507.722656 579.878906 L 475.136719 579.878906 L 475.136719 447.742188 C 475.136719 426.992188 458.253906 410.109375 437.503906 410.109375 L 372.488281 410.109375 C 351.738281 410.109375 334.859375 426.992188 334.859375 447.742188 L 334.859375 579.878906 L 302.273438 579.878906 L 302.273438 447.742188 C 302.273438 428.988281 309.578125 411.351562 322.839844 398.089844 C 336.101562 384.828125 353.734375 377.523438 372.488281 377.523438 L 437.503906 377.523438 C 456.257812 377.523438 473.890625 384.828125 487.152344 398.089844 C 500.417969 411.351562 507.722656 428.988281 507.722656 447.742188 Z M 507.722656 579.878906 " fill-opacity="1" fill-rule="nonzero"/><path fill="#10069f" d="M 406.25 360.839844 C 395.304688 360.839844 384.675781 358.691406 374.660156 354.457031 C 364.996094 350.367188 356.320312 344.519531 348.871094 337.074219 C 341.425781 329.625 335.578125 320.949219 331.488281 311.285156 C 327.253906 301.269531 325.105469 290.644531 325.105469 279.695312 C 325.105469 268.746094 327.253906 258.121094 331.488281 248.101562 C 335.578125 238.4375 341.425781 229.761719 348.871094 222.316406 C 356.320312 214.867188 364.996094 209.019531 374.660156 204.933594 C 384.675781 200.695312 395.300781 198.546875 406.25 198.546875 C 417.199219 198.546875 427.824219 200.695312 437.84375 204.933594 C 447.507812 209.019531 456.183594 214.867188 463.628906 222.316406 C 471.078125 229.761719 476.925781 238.4375 481.011719 248.101562 C 485.25 258.117188 487.398438 268.746094 487.398438 279.695312 C 487.398438 290.644531 485.25 301.269531 481.011719 311.285156 C 476.925781 320.949219 471.078125 329.625 463.628906 337.074219 C 456.183594 344.519531 447.507812 350.367188 437.84375 354.457031 C 427.828125 358.691406 417.199219 360.839844 406.25 360.839844 Z M 406.25 231.140625 C 379.476562 231.140625 357.691406 252.921875 357.691406 279.699219 C 357.691406 306.472656 379.476562 328.257812 406.25 328.257812 C 433.027344 328.257812 454.808594 306.472656 454.808594 279.699219 C 454.808594 252.921875 433.027344 231.140625 406.25 231.140625 Z M 406.25 231.140625 " fill-opacity="1" fill-rule="nonzero"/></svg>