<svg xmlns="http://www.w3.org/2000/svg" xmlns:xlink="http://www.w3.org/1999/xlink" width="1080" zoomAndPan="magnify" viewBox="0 0 810 809.999993" height="1080" preserveAspectRatio="xMidYMid meet" version="1.0"><defs><clipPath id="5b00bca0ff"><path d="M 161.617188 74.429688 L 648.367188 74.429688 L 648.367188 735.929688 L 161.617188 735.929688 Z M 161.617188 74.429688 " clip-rule="nonzero"/></clipPath></defs><g clip-path="url(#5b00bca0ff)"><path fill="#3a73c1" d="M 405.007812 477.882812 C 316.90625 477.882812 245.492188 406.421875 245.492188 318.277344 C 245.492188 230.125 316.90625 158.664062 405.007812 158.664062 C 493.109375 158.664062 564.527344 230.125 564.527344 318.277344 C 564.527344 406.421875 493.109375 477.882812 405.007812 477.882812 Z M 405.007812 74.746094 C 270.589844 74.746094 161.617188 183.773438 161.617188 318.277344 C 161.617188 426.488281 232.164062 518.203125 329.746094 549.921875 L 405.007812 735.570312 L 480.269531 549.921875 C 577.851562 518.203125 648.398438 426.488281 648.398438 318.277344 C 648.398438 183.773438 539.433594 74.746094 405.007812 74.746094 " fill-opacity="1" fill-rule="nonzero"/></g><path fill="#52ace4" d="M 405.007812 237.390625 C 360.363281 237.390625 324.167969 273.605469 324.167969 318.277344 C 324.167969 362.949219 360.363281 399.160156 405.007812 399.160156 C 449.652344 399.160156 485.847656 362.949219 485.847656 318.277344 C 485.847656 273.605469 449.652344 237.390625 405.007812 237.390625 " fill-opacity="1" fill-rule="nonzero"/></svg>