<svg xmlns="http://www.w3.org/2000/svg" xmlns:xlink="http://www.w3.org/1999/xlink" width="1080" zoomAndPan="magnify" viewBox="0 0 810 809.999993" height="1080" preserveAspectRatio="xMidYMid meet" version="1.0"><defs><clipPath id="a5a418fcc8"><path d="M 61.894531 61.894531 L 748.144531 61.894531 L 748.144531 748.144531 L 61.894531 748.144531 Z M 61.894531 61.894531 " clip-rule="nonzero"/></clipPath></defs><g clip-path="url(#a5a418fcc8)"><path fill="#10069f" d="M 329.1875 249.589844 L 354.300781 249.589844 L 354.300781 274.703125 L 329.1875 274.703125 Z M 320.628906 291.800781 L 362.828125 291.800781 C 367.554688 291.800781 371.371094 287.972656 371.371094 283.257812 L 371.371094 241.046875 C 371.371094 236.335938 367.554688 232.507812 362.828125 232.507812 L 320.628906 232.507812 C 315.902344 232.507812 312.089844 236.335938 312.089844 241.046875 L 312.089844 283.257812 C 312.089844 287.972656 315.902344 291.800781 320.628906 291.800781 Z M 244.09375 249.589844 L 269.222656 249.589844 L 269.222656 274.703125 L 244.09375 274.703125 Z M 235.550781 291.800781 L 277.765625 291.800781 C 282.476562 291.800781 286.304688 287.972656 286.304688 283.257812 L 286.304688 241.046875 C 286.304688 236.335938 282.476562 232.507812 277.765625 232.507812 L 235.550781 232.507812 C 230.839844 232.507812 227.011719 236.335938 227.011719 241.046875 L 227.011719 283.257812 C 227.011719 287.972656 230.839844 291.800781 235.550781 291.800781 Z M 329.1875 159.628906 L 354.300781 159.628906 L 354.300781 184.742188 L 329.1875 184.742188 Z M 320.628906 201.839844 L 362.828125 201.839844 C 367.554688 201.839844 371.371094 198.011719 371.371094 193.296875 L 371.371094 151.085938 C 371.371094 146.375 367.554688 142.546875 362.828125 142.546875 L 320.628906 142.546875 C 315.902344 142.546875 312.089844 146.375 312.089844 151.085938 L 312.089844 193.296875 C 312.089844 198.011719 315.902344 201.839844 320.628906 201.839844 Z M 244.09375 159.628906 L 269.222656 159.628906 L 269.222656 184.742188 L 244.09375 184.742188 Z M 235.550781 201.839844 L 277.765625 201.839844 C 282.476562 201.839844 286.304688 198.011719 286.304688 193.296875 L 286.304688 151.085938 C 286.304688 146.375 282.476562 142.546875 277.765625 142.546875 L 235.550781 142.546875 C 230.839844 142.546875 227.011719 146.375 227.011719 151.085938 L 227.011719 193.296875 C 227.011719 198.011719 230.839844 201.839844 235.550781 201.839844 Z M 599.113281 302.324219 L 624.238281 302.324219 L 624.238281 327.4375 L 599.113281 327.4375 Z M 590.570312 344.519531 L 632.78125 344.519531 C 637.492188 344.519531 641.324219 340.691406 641.324219 335.976562 L 641.324219 293.765625 C 641.324219 289.054688 637.492188 285.222656 632.78125 285.222656 L 590.570312 285.222656 C 585.859375 285.222656 582.027344 289.054688 582.027344 293.765625 L 582.027344 335.976562 C 582.027344 340.691406 585.859375 344.519531 590.570312 344.519531 Z M 514.046875 302.324219 L 539.160156 302.324219 L 539.160156 327.4375 L 514.046875 327.4375 Z M 505.507812 344.519531 L 547.703125 344.519531 C 552.429688 344.519531 556.246094 340.691406 556.246094 335.976562 L 556.246094 293.765625 C 556.246094 289.054688 552.429688 285.222656 547.703125 285.222656 L 505.507812 285.222656 C 500.78125 285.222656 496.964844 289.054688 496.964844 293.765625 L 496.964844 335.976562 C 496.964844 340.691406 500.78125 344.519531 505.507812 344.519531 Z M 599.113281 218.496094 L 624.238281 218.496094 L 624.238281 243.609375 L 599.113281 243.609375 Z M 590.570312 260.695312 L 632.78125 260.695312 C 637.492188 260.695312 641.324219 256.863281 641.324219 252.152344 L 641.324219 209.941406 C 641.324219 205.230469 637.492188 201.398438 632.78125 201.398438 L 590.570312 201.398438 C 585.859375 201.398438 582.027344 205.230469 582.027344 209.941406 L 582.027344 252.152344 C 582.027344 256.863281 585.859375 260.695312 590.570312 260.695312 Z M 514.046875 218.496094 L 539.160156 218.496094 L 539.160156 243.609375 L 514.046875 243.609375 Z M 505.507812 260.695312 L 547.703125 260.695312 C 552.429688 260.695312 556.246094 256.863281 556.246094 252.152344 L 556.246094 209.941406 C 556.246094 205.230469 552.429688 201.398438 547.703125 201.398438 L 505.507812 201.398438 C 500.78125 201.398438 496.964844 205.230469 496.964844 209.941406 L 496.964844 252.152344 C 496.964844 256.863281 500.78125 260.695312 505.507812 260.695312 Z M 667.804688 646.136719 L 667.804688 604.335938 L 709.816406 562.324219 C 714.457031 557.683594 717.003906 551.503906 717.003906 544.929688 C 717.003906 538.351562 714.457031 532.15625 709.816406 527.53125 C 705.175781 522.890625 698.996094 520.339844 692.417969 520.339844 C 685.839844 520.339844 679.648438 522.890625 675.007812 527.53125 L 667.804688 534.75 L 667.804688 522.535156 C 667.804688 508.964844 656.757812 497.917969 643.1875 497.917969 C 629.621094 497.917969 618.574219 508.964844 618.574219 522.535156 L 618.574219 534.75 L 611.371094 527.53125 C 601.773438 517.933594 586.15625 517.933594 576.5625 527.53125 C 566.964844 537.125 566.964844 552.742188 576.5625 562.339844 L 618.574219 604.351562 L 618.574219 646.164062 C 581.515625 631.886719 555.347656 586.613281 555.347656 534.863281 C 555.347656 470.941406 594.753906 418.949219 643.1875 418.949219 C 691.621094 418.949219 731.027344 470.953125 731.027344 534.863281 C 731.027344 586.699219 704.890625 631.871094 667.804688 646.148438 Z M 653.210938 594.769531 L 697.742188 550.253906 C 699.152344 548.84375 699.921875 546.949219 699.921875 544.929688 C 699.921875 542.90625 699.152344 541.011719 697.742188 539.601562 C 696.332031 538.195312 694.441406 537.425781 692.417969 537.425781 C 690.398438 537.425781 688.503906 538.195312 687.09375 539.601562 L 665.296875 561.398438 C 662.847656 563.847656 659.175781 564.574219 655.988281 563.25 C 652.796875 561.925781 650.71875 558.808594 650.71875 555.347656 L 650.71875 522.519531 C 650.71875 518.363281 647.347656 514.988281 643.1875 514.988281 C 639.03125 514.988281 635.65625 518.363281 635.65625 522.519531 L 635.65625 555.347656 C 635.65625 558.808594 633.578125 561.925781 630.390625 563.25 C 627.199219 564.574219 623.527344 563.835938 621.078125 561.398438 L 599.28125 539.601562 C 596.351562 536.65625 591.582031 536.65625 588.648438 539.601562 C 585.714844 542.535156 585.714844 547.304688 588.648438 550.238281 L 633.167969 594.753906 C 634.761719 596.351562 635.65625 598.527344 635.65625 600.792969 L 635.65625 731.070312 L 650.71875 731.070312 L 650.71875 600.792969 C 650.71875 598.527344 651.617188 596.351562 653.210938 594.753906 Z M 543.476562 612.496094 C 548.132812 612.496094 552.699219 611.925781 557.144531 610.800781 C 551.859375 601.191406 547.5625 590.699219 544.414062 579.566406 L 519.644531 604.335938 L 519.644531 607.140625 C 527.105469 610.671875 535.105469 612.480469 543.476562 612.480469 Z M 505.050781 594.769531 C 503.457031 596.363281 502.558594 598.542969 502.558594 600.804688 L 502.558594 731.085938 L 487.496094 731.085938 L 487.496094 600.804688 C 487.496094 598.542969 486.601562 596.363281 485.007812 594.769531 L 440.488281 550.253906 C 439.078125 548.84375 438.296875 546.949219 438.296875 544.929688 C 438.296875 542.90625 439.078125 541.011719 440.488281 539.601562 C 441.898438 538.195312 443.777344 537.425781 445.796875 537.425781 C 447.820312 537.425781 449.714844 538.195312 451.121094 539.601562 L 472.917969 561.398438 C 475.367188 563.847656 479.039062 564.574219 482.230469 563.25 C 485.417969 561.925781 487.496094 558.808594 487.496094 555.347656 L 487.496094 522.519531 C 487.496094 518.363281 490.871094 514.988281 495.027344 514.988281 C 499.1875 514.988281 502.558594 518.363281 502.558594 522.519531 L 502.558594 555.347656 C 502.558594 558.808594 504.636719 561.925781 507.828125 563.25 C 511.015625 564.574219 514.6875 563.835938 517.136719 561.398438 L 538.351562 540.1875 C 538.5625 546.808594 539.175781 553.3125 540.128906 559.691406 Z M 470.414062 607.15625 C 462.953125 610.6875 454.953125 612.496094 446.582031 612.496094 C 415.714844 612.496094 390.617188 587.382812 390.617188 556.515625 C 390.617188 530.421875 408.328125 508.027344 433.683594 502.046875 C 438.140625 500.992188 440.988281 496.59375 440.105469 492.097656 C 439.40625 488.550781 439.050781 484.90625 439.050781 481.289062 C 439.050781 450.425781 464.164062 425.328125 495.027344 425.328125 C 522.589844 425.328125 546.292969 445.742188 550.367188 472.90625 C 544.273438 487.527344 540.257812 503.753906 538.835938 520.953125 C 534.320312 521.949219 530.191406 524.183594 526.847656 527.53125 L 519.644531 534.75 L 519.644531 522.535156 C 519.644531 508.964844 508.597656 497.917969 495.027344 497.917969 C 481.460938 497.917969 470.414062 508.964844 470.414062 522.535156 L 470.414062 534.75 L 463.210938 527.53125 C 458.570312 522.890625 452.390625 520.339844 445.796875 520.339844 C 439.207031 520.339844 433.042969 522.890625 428.402344 527.53125 C 423.761719 532.171875 421.210938 538.351562 421.210938 544.929688 C 421.210938 551.503906 423.761719 557.699219 428.402344 562.324219 L 470.414062 604.335938 Z M 355.167969 609.902344 C 366.8125 606.5 377.105469 602.246094 385.917969 597.175781 C 378.105469 585.542969 373.535156 571.550781 373.535156 556.515625 C 373.535156 525.097656 393.207031 497.789062 422.25 487.613281 C 422.066406 485.519531 421.964844 483.398438 421.964844 481.289062 C 421.964844 481.019531 421.996094 480.734375 421.996094 480.449219 C 421.765625 479.964844 421.566406 479.453125 421.425781 478.898438 C 411.289062 439.105469 389.039062 391.484375 353.390625 333.300781 C 347.9375 324.417969 338.609375 322.539062 331.734375 322.539062 C 324.859375 322.539062 315.535156 324.402344 310.09375 333.300781 C 282.09375 379 262.546875 417.851562 250.34375 452.046875 C 254.273438 461.003906 256.464844 470.898438 256.464844 481.289062 C 256.464844 483.398438 256.378906 485.503906 256.195312 487.613281 C 285.238281 497.789062 304.914062 525.097656 304.914062 556.515625 C 304.914062 574.027344 298.71875 590.113281 288.414062 602.699219 C 294.507812 605.40625 301.167969 607.8125 308.316406 609.902344 L 308.316406 512.753906 L 269.5625 474 C 265.136719 469.589844 262.714844 463.707031 262.714844 457.429688 C 262.714844 451.152344 265.152344 445.273438 269.5625 440.859375 C 278.691406 431.71875 293.550781 431.71875 302.691406 440.859375 L 308.316406 446.46875 L 308.316406 436.660156 C 308.316406 423.730469 318.824219 413.226562 331.734375 413.226562 C 344.648438 413.226562 355.167969 423.730469 355.167969 436.660156 L 355.167969 446.46875 L 360.792969 440.859375 C 369.917969 431.71875 384.792969 431.71875 393.921875 440.859375 C 398.332031 445.273438 400.769531 451.152344 400.769531 457.429688 C 400.769531 463.707031 398.332031 469.589844 393.921875 474 L 355.167969 512.753906 Z M 340.589844 503.171875 C 338.996094 504.765625 338.085938 506.945312 338.085938 509.207031 L 338.085938 731.085938 L 325.398438 731.085938 L 325.398438 509.207031 C 325.398438 506.945312 324.488281 504.765625 322.894531 503.171875 L 281.636719 461.914062 C 280.453125 460.734375 279.800781 459.136719 279.800781 457.429688 C 279.800781 455.722656 280.453125 454.125 281.636719 452.945312 C 282.832031 451.75 284.414062 451.109375 286.121094 451.109375 C 287.828125 451.109375 289.425781 451.75 290.621094 452.945312 L 310.808594 473.148438 C 313.257812 475.59375 316.929688 476.320312 320.117188 474.996094 C 323.308594 473.671875 325.398438 470.570312 325.398438 467.109375 L 325.398438 436.6875 C 325.398438 433.183594 328.246094 430.335938 331.734375 430.335938 C 335.222656 430.335938 338.085938 433.183594 338.085938 436.6875 L 338.085938 467.109375 C 338.085938 470.570312 340.175781 473.671875 343.367188 474.996094 C 346.554688 476.320312 350.226562 475.582031 352.675781 473.148438 L 372.863281 452.945312 C 375.339844 450.46875 379.371094 450.46875 381.847656 452.945312 C 383.03125 454.125 383.683594 455.722656 383.683594 457.429688 C 383.683594 459.136719 383.03125 460.734375 381.847656 461.914062 Z M 231.867188 612.496094 C 223.496094 612.496094 215.492188 610.6875 208.019531 607.15625 L 208.019531 604.351562 L 250.046875 562.339844 C 259.640625 552.742188 259.640625 537.125 250.046875 527.53125 C 245.40625 522.890625 239.226562 520.339844 232.632812 520.339844 C 226.042969 520.339844 219.878906 522.890625 215.238281 527.53125 L 208.019531 534.75 L 208.019531 522.535156 C 208.019531 508.964844 196.984375 497.917969 183.417969 497.917969 C 169.851562 497.917969 158.804688 508.964844 158.804688 522.535156 L 158.804688 534.75 L 151.585938 527.53125 C 141.988281 517.933594 126.386719 517.933594 116.792969 527.53125 C 107.195312 537.125 107.195312 552.742188 116.792969 562.339844 L 158.804688 604.351562 L 158.804688 607.15625 C 151.34375 610.6875 143.34375 612.496094 134.972656 612.496094 C 104.105469 612.496094 78.992188 587.382812 78.992188 556.515625 C 78.992188 530.421875 96.703125 508.027344 122.074219 502.046875 C 126.527344 500.992188 129.363281 496.59375 128.492188 492.097656 C 127.796875 488.550781 127.441406 484.921875 127.441406 481.289062 C 127.441406 450.425781 152.554688 425.328125 183.417969 425.328125 C 214.285156 425.328125 239.382812 450.441406 239.382812 481.289062 C 239.382812 484.921875 239.039062 488.550781 238.34375 492.097656 C 237.460938 496.59375 240.308594 500.992188 244.765625 502.046875 C 270.121094 508.027344 287.828125 530.421875 287.828125 556.515625 C 287.828125 587.382812 262.714844 612.496094 231.867188 612.496094 Z M 193.441406 594.769531 L 237.957031 550.253906 C 240.890625 547.320312 240.890625 542.535156 237.957031 539.617188 C 236.550781 538.207031 234.65625 537.4375 232.632812 537.4375 C 230.613281 537.4375 228.734375 538.207031 227.324219 539.617188 L 205.527344 561.414062 C 203.078125 563.863281 199.40625 564.589844 196.21875 563.265625 C 193.027344 561.941406 190.933594 558.824219 190.933594 555.363281 L 190.933594 522.535156 C 190.933594 518.375 187.5625 515.003906 183.417969 515.003906 C 179.277344 515.003906 175.886719 518.375 175.886719 522.535156 L 175.886719 555.363281 C 175.886719 558.824219 173.808594 561.941406 170.621094 563.265625 C 167.429688 564.589844 163.742188 563.847656 161.308594 561.414062 L 139.511719 539.617188 C 136.578125 536.671875 131.8125 536.671875 128.863281 539.617188 C 125.929688 542.550781 125.929688 547.320312 128.863281 550.253906 L 173.382812 594.769531 C 174.992188 596.363281 175.886719 598.542969 175.886719 600.804688 L 175.886719 731.085938 L 190.933594 731.085938 L 190.933594 600.804688 C 190.933594 598.542969 191.847656 596.363281 193.441406 594.769531 Z M 183.988281 320.089844 L 183.988281 345.203125 L 143.441406 345.203125 L 143.441406 320.089844 Z M 183.988281 223.765625 L 183.988281 248.878906 L 143.441406 248.878906 L 143.441406 223.765625 Z M 104.292969 207.59375 L 104.292969 490.1875 C 106.355469 489.234375 108.460938 488.367188 110.625 487.613281 C 110.457031 485.519531 110.355469 483.398438 110.355469 481.289062 C 110.355469 441.015625 143.128906 408.242188 183.417969 408.242188 C 183.601562 408.242188 183.804688 408.242188 183.988281 408.257812 L 183.988281 362.285156 L 134.898438 362.285156 C 130.1875 362.285156 126.359375 358.457031 126.359375 353.746094 L 126.359375 311.535156 C 126.359375 306.820312 130.1875 302.992188 134.898438 302.992188 L 183.988281 302.992188 L 183.988281 265.960938 L 134.898438 265.960938 C 130.1875 265.960938 126.359375 262.148438 126.359375 257.421875 L 126.359375 215.207031 C 126.359375 210.496094 130.1875 206.667969 134.898438 206.667969 L 183.988281 206.667969 L 183.988281 177.480469 L 134.386719 177.480469 C 117.789062 177.480469 104.292969 190.992188 104.292969 207.578125 Z M 397.308594 115.109375 L 201.070312 115.109375 L 201.070312 410.40625 C 216.046875 414.136719 229.1875 422.492188 238.925781 433.867188 C 251.613281 401.679688 270.21875 365.6875 295.53125 324.375 C 302.992188 312.175781 315.859375 305.46875 331.734375 305.46875 C 347.609375 305.46875 360.480469 312.1875 367.953125 324.375 C 378.972656 342.371094 388.738281 359.382812 397.308594 375.542969 Z M 174.078125 98.027344 C 168.855469 98.027344 164.582031 93.769531 164.582031 88.53125 C 164.582031 83.292969 168.855469 79.035156 174.078125 79.035156 L 424.300781 79.035156 C 429.539062 79.035156 433.796875 83.292969 433.796875 88.53125 C 433.796875 93.769531 429.539062 98.027344 424.300781 98.027344 Z M 471.027344 177.496094 L 471.027344 412.3125 C 478.542969 409.679688 486.613281 408.242188 495.027344 408.242188 C 524.199219 408.242188 550.039062 425.769531 561.628906 451.308594 C 580.875 421.167969 610.289062 401.863281 643.1875 401.863281 C 651.472656 401.863281 659.53125 403.089844 667.25 405.394531 L 667.25 177.496094 Z M 501.277344 135.355469 L 637.023438 135.355469 L 637.023438 160.410156 L 501.277344 160.410156 Z M 569.144531 79.035156 C 592.351562 79.035156 611.753906 96.0625 615.484375 118.273438 L 522.789062 118.273438 C 526.519531 96.078125 545.980469 79.035156 569.144531 79.035156 Z M 684.347656 412.511719 L 684.347656 168.953125 C 684.347656 164.242188 680.53125 160.410156 675.804688 160.410156 L 654.109375 160.410156 L 654.109375 126.828125 C 654.109375 122.117188 650.277344 118.285156 645.566406 118.285156 L 632.738281 118.285156 C 628.882812 86.636719 601.773438 61.964844 569.160156 61.964844 C 536.542969 61.964844 509.421875 86.652344 505.5625 118.285156 L 492.75 118.285156 C 488.023438 118.285156 484.207031 122.117188 484.207031 126.828125 L 484.207031 160.410156 L 462.496094 160.410156 C 457.769531 160.410156 453.957031 164.242188 453.957031 168.953125 L 453.957031 420.925781 C 443.820312 427.847656 435.535156 437.257812 429.925781 448.246094 C 425.667969 436.117188 420.5 423.375 414.363281 409.964844 C 414.394531 409.695312 414.40625 409.410156 414.40625 409.140625 L 414.40625 115.109375 L 424.316406 115.109375 C 438.980469 115.109375 450.894531 103.179688 450.894531 88.53125 C 450.894531 73.882812 438.980469 61.953125 424.316406 61.953125 L 174.078125 61.953125 C 159.429688 61.953125 147.5 73.867188 147.5 88.53125 C 147.5 103.195312 159.429688 115.109375 174.078125 115.109375 L 183.988281 115.109375 L 183.988281 160.398438 L 134.386719 160.398438 C 108.378906 160.398438 87.207031 181.566406 87.207031 207.59375 L 87.207031 501.148438 C 71.519531 514.648438 61.910156 534.578125 61.910156 556.515625 C 61.910156 596.804688 94.683594 629.578125 134.972656 629.578125 C 143.085938 629.578125 151.171875 628.183594 158.804688 625.550781 L 158.804688 739.613281 C 158.804688 744.324219 162.632812 748.15625 167.34375 748.15625 L 199.476562 748.15625 C 204.203125 748.15625 208.019531 744.324219 208.019531 739.613281 L 208.019531 625.550781 C 215.664062 628.167969 223.75 629.578125 231.867188 629.578125 C 248.066406 629.578125 263.042969 624.269531 275.171875 615.3125 C 284.925781 620.238281 296.03125 624.382812 308.316406 627.640625 L 308.316406 739.613281 C 308.316406 744.324219 312.132812 748.15625 316.859375 748.15625 L 346.625 748.15625 C 351.351562 748.15625 355.167969 744.324219 355.167969 739.613281 L 355.167969 627.613281 C 371.328125 623.3125 385.449219 617.519531 397.238281 610.316406 C 410.234375 622.261719 427.574219 629.5625 446.582031 629.5625 C 454.695312 629.5625 462.78125 628.167969 470.414062 625.535156 L 470.414062 739.597656 C 470.414062 744.3125 474.242188 748.140625 478.957031 748.140625 L 511.101562 748.140625 C 515.8125 748.140625 519.644531 744.3125 519.644531 739.597656 L 519.644531 625.535156 C 527.273438 628.15625 535.359375 629.5625 543.476562 629.5625 C 551.589844 629.5625 559.25 628.296875 566.710938 625.777344 C 580.390625 644.3125 598.230469 657.980469 618.574219 664.160156 L 618.574219 739.597656 C 618.574219 744.3125 622.402344 748.140625 627.117188 748.140625 L 659.261719 748.140625 C 663.972656 748.140625 667.804688 744.3125 667.804688 739.597656 L 667.804688 664.171875 C 714.570312 649.980469 748.113281 596.394531 748.113281 534.847656 C 748.113281 480.007812 721.804688 432.828125 684.332031 412.511719 Z M 684.347656 412.511719 " fill-opacity="1" fill-rule="evenodd"/></g></svg>