<svg xmlns="http://www.w3.org/2000/svg" xmlns:xlink="http://www.w3.org/1999/xlink" width="1080" zoomAndPan="magnify" viewBox="0 0 810 809.999993" height="1080" preserveAspectRatio="xMidYMid meet" version="1.0"><defs><clipPath id="579c0c5e18"><path d="M 125 300 L 687 300 L 687 723.566406 L 125 723.566406 Z M 125 300 " clip-rule="nonzero"/></clipPath><clipPath id="f88b3c876f"><path d="M 314 349 L 496 349 L 496 723.566406 L 314 723.566406 Z M 314 349 " clip-rule="nonzero"/></clipPath><clipPath id="e1f799470e"><path d="M 84.464844 86.066406 L 725.714844 86.066406 L 725.714844 193 L 84.464844 193 Z M 84.464844 86.066406 " clip-rule="nonzero"/></clipPath></defs><g clip-path="url(#579c0c5e18)"><path fill="#10069f" d="M 196.746094 704.460938 L 615.84375 704.460938 C 676.027344 589.003906 672.707031 490.292969 659.285156 427.511719 C 647.019531 370.363281 624.359375 331.6875 616.566406 319.707031 L 196.023438 319.707031 C 188.230469 331.6875 165.570312 370.363281 153.304688 427.511719 C 139.882812 490.292969 136.707031 589.003906 196.746094 704.460938 Z M 621.761719 723.800781 L 190.972656 723.800781 C 187.363281 723.800781 184.042969 721.777344 182.457031 718.601562 C 153.449219 664.339844 135.265625 608.777344 128.625 553.503906 C 123.285156 509.199219 125.308594 465.035156 134.6875 422.316406 C 150.5625 349.292969 181.878906 305.851562 183.179688 304.121094 C 185.054688 301.667969 187.941406 300.078125 190.972656 300.078125 L 621.761719 300.078125 C 624.792969 300.078125 627.824219 301.523438 629.554688 304.121094 C 630.855469 305.996094 662.171875 349.292969 678.046875 422.316406 C 687.28125 465.035156 689.304688 509.199219 684.109375 553.503906 C 677.46875 608.777344 659.429688 664.339844 630.277344 718.601562 C 628.691406 721.777344 625.371094 723.800781 621.761719 723.800781 Z M 621.761719 723.800781 " fill-opacity="1" fill-rule="evenodd"/></g><g clip-path="url(#f88b3c876f)"><path fill="#10069f" d="M 334.425781 704.460938 L 475.855469 704.460938 L 475.855469 368.777344 L 334.425781 368.777344 Z M 485.527344 723.800781 L 324.609375 723.800781 C 319.269531 723.800781 314.941406 719.46875 314.941406 714.128906 L 314.941406 359.105469 C 314.941406 353.765625 319.269531 349.4375 324.609375 349.4375 L 485.527344 349.4375 C 490.867188 349.4375 495.195312 353.765625 495.195312 359.105469 L 495.195312 714.128906 C 495.195312 719.46875 490.867188 723.800781 485.527344 723.800781 Z M 485.527344 723.800781 " fill-opacity="1" fill-rule="evenodd"/></g><path fill="#10069f" d="M 485.527344 529.257812 L 324.609375 529.257812 C 319.269531 529.257812 314.941406 524.929688 314.941406 519.589844 C 314.941406 514.25 319.269531 509.917969 324.609375 509.917969 L 485.527344 509.917969 C 490.867188 509.917969 495.195312 514.25 495.195312 519.589844 C 495.195312 524.929688 490.867188 529.257812 485.527344 529.257812 Z M 485.527344 529.257812 " fill-opacity="1" fill-rule="evenodd"/><path fill="#10069f" d="M 423.46875 583.519531 L 386.667969 583.519531 C 381.328125 583.519531 377 579.191406 377 573.851562 C 377 568.511719 381.328125 564.183594 386.667969 564.183594 L 423.46875 564.183594 C 428.808594 564.183594 433.136719 568.511719 433.136719 573.851562 C 433.28125 579.191406 428.808594 583.519531 423.46875 583.519531 Z M 423.46875 583.519531 " fill-opacity="1" fill-rule="evenodd"/><path fill="#10069f" d="M 193.136719 509.773438 L 261.542969 509.773438 L 261.542969 368.777344 L 224.886719 368.777344 C 216.082031 387.535156 187.796875 452.914062 193.136719 509.773438 Z M 271.214844 529.257812 L 184.476562 529.257812 C 179.714844 529.257812 175.675781 525.792969 174.808594 521.03125 C 163.261719 446.273438 208.144531 358.238281 210.167969 354.632812 C 211.898438 351.457031 215.21875 349.4375 218.824219 349.4375 L 271.214844 349.4375 C 276.554688 349.4375 280.882812 353.765625 280.882812 359.105469 L 280.882812 519.589844 C 281.027344 524.929688 276.554688 529.257812 271.214844 529.257812 Z M 271.214844 529.257812 " fill-opacity="1" fill-rule="evenodd"/><path fill="#10069f" d="M 548.59375 509.773438 L 617 509.773438 C 622.339844 452.914062 593.910156 387.390625 585.105469 368.777344 L 548.449219 368.777344 L 548.449219 509.773438 Z M 625.660156 529.257812 L 538.925781 529.257812 C 533.585938 529.257812 529.253906 524.929688 529.253906 519.589844 L 529.253906 359.105469 C 529.253906 353.765625 533.585938 349.4375 538.925781 349.4375 L 591.3125 349.4375 C 594.917969 349.4375 598.238281 351.457031 599.96875 354.632812 C 601.847656 358.382812 646.875 446.273438 635.328125 521.03125 C 634.460938 525.792969 630.421875 529.257812 625.660156 529.257812 Z M 625.660156 529.257812 " fill-opacity="1" fill-rule="evenodd"/><path fill="#10069f" d="M 268.757812 300.078125 L 541.523438 300.078125 L 541.523438 262.269531 L 268.757812 262.269531 Z M 551.191406 319.5625 L 258.945312 319.5625 C 253.605469 319.5625 249.277344 315.234375 249.277344 309.894531 L 249.277344 261.113281 C 249.277344 251.15625 257.359375 242.929688 267.460938 242.929688 L 542.820312 242.929688 C 552.777344 242.929688 561.003906 251.011719 561.003906 261.113281 L 561.003906 309.894531 C 560.859375 315.234375 556.53125 319.5625 551.191406 319.5625 Z M 551.191406 319.5625 " fill-opacity="1" fill-rule="evenodd"/><path fill="#10069f" d="M 405.140625 262.414062 C 399.800781 262.414062 395.472656 258.082031 395.472656 252.742188 L 395.472656 217.53125 C 395.472656 212.191406 399.800781 207.859375 405.140625 207.859375 C 410.480469 207.859375 414.808594 212.191406 414.808594 217.53125 L 414.808594 252.742188 C 414.808594 258.082031 410.480469 262.414062 405.140625 262.414062 Z M 405.140625 262.414062 " fill-opacity="1" fill-rule="evenodd"/><path fill="#10069f" d="M 405.140625 149.699219 C 389.121094 149.699219 376.132812 162.6875 376.132812 178.707031 C 376.132812 194.726562 389.121094 207.714844 405.140625 207.714844 C 421.160156 207.714844 434.148438 194.726562 434.148438 178.707031 C 434.003906 162.6875 421.015625 149.699219 405.140625 149.699219 Z M 405.140625 227.054688 C 378.441406 227.054688 356.792969 205.261719 356.792969 178.5625 C 356.792969 151.863281 378.441406 130.074219 405.140625 130.074219 C 431.839844 130.074219 453.488281 151.863281 453.488281 178.5625 C 453.488281 205.40625 431.695312 227.054688 405.140625 227.054688 Z M 405.140625 227.054688 " fill-opacity="1" fill-rule="evenodd"/><g clip-path="url(#e1f799470e)"><path fill="#10069f" d="M 94.277344 192.851562 C 89.515625 192.851562 85.332031 189.386719 84.609375 184.480469 C 83.886719 179.140625 87.640625 174.234375 92.835938 173.511719 L 714.558594 86.34375 C 719.898438 85.621094 724.804688 89.375 725.527344 94.570312 C 726.25 99.910156 722.496094 104.816406 717.300781 105.539062 L 95.578125 192.707031 C 95.144531 192.851562 94.710938 192.851562 94.277344 192.851562 Z M 94.277344 192.851562 " fill-opacity="1" fill-rule="evenodd"/></g></svg>