<svg xmlns="http://www.w3.org/2000/svg" xmlns:xlink="http://www.w3.org/1999/xlink" width="1080" zoomAndPan="magnify" viewBox="0 0 810 809.999993" height="1080" preserveAspectRatio="xMidYMid meet" version="1.0"><defs><clipPath id="6154af0c19"><path d="M 11 323.1875 L 798 323.1875 L 798 404.9375 L 11 404.9375 Z M 11 323.1875 " clip-rule="nonzero"/></clipPath></defs><g clip-path="url(#6154af0c19)"><path fill="#009c32" d="M 53.289062 323.125 C 51.9375 323.105469 50.585938 323.152344 49.242188 323.265625 C 47.894531 323.382812 46.554688 323.5625 45.226562 323.808594 C 43.898438 324.058594 42.585938 324.367188 41.289062 324.746094 C 39.988281 325.125 38.714844 325.566406 37.460938 326.070312 C 36.207031 326.574219 34.980469 327.136719 33.78125 327.761719 C 32.585938 328.386719 31.421875 329.070312 30.289062 329.8125 C 29.160156 330.554688 28.070312 331.347656 27.015625 332.195312 C 25.964844 333.046875 24.957031 333.945312 23.996094 334.894531 C 23.035156 335.84375 22.121094 336.835938 21.257812 337.875 C 20.394531 338.914062 19.582031 339.996094 18.828125 341.113281 C 18.070312 342.234375 17.371094 343.386719 16.726562 344.578125 C 16.085938 345.765625 15.503906 346.984375 14.980469 348.230469 C 14.460938 349.476562 14 350.746094 13.605469 352.039062 C 13.210938 353.332031 12.878906 354.640625 12.613281 355.964844 C 12.347656 357.289062 12.148438 358.625 12.011719 359.96875 C 11.878906 361.316406 11.8125 362.664062 11.8125 364.015625 C 11.8125 365.367188 11.878906 366.714844 12.011719 368.058594 C 12.148438 369.402344 12.347656 370.738281 12.613281 372.0625 C 12.878906 373.390625 13.210938 374.699219 13.605469 375.988281 C 14 377.28125 14.460938 378.550781 14.980469 379.796875 C 15.503906 381.046875 16.085938 382.261719 16.726562 383.453125 C 17.371094 384.640625 18.070312 385.796875 18.828125 386.914062 C 19.582031 388.035156 20.394531 389.113281 21.257812 390.152344 C 22.121094 391.191406 23.035156 392.1875 23.996094 393.136719 C 24.957031 394.085938 25.964844 394.984375 27.015625 395.832031 C 28.070312 396.683594 29.160156 397.476562 30.289062 398.21875 C 31.421875 398.957031 32.585938 399.640625 33.78125 400.265625 C 34.980469 400.890625 36.207031 401.457031 37.460938 401.960938 C 38.714844 402.464844 39.988281 402.90625 41.289062 403.28125 C 42.585938 403.660156 43.898438 403.972656 45.226562 404.21875 C 46.554688 404.46875 47.894531 404.648438 49.242188 404.761719 C 50.585938 404.878906 51.9375 404.925781 53.289062 404.90625 L 756.488281 404.90625 C 757.839844 404.925781 759.1875 404.878906 760.535156 404.761719 C 761.882812 404.648438 763.21875 404.46875 764.546875 404.21875 C 765.875 403.972656 767.191406 403.660156 768.488281 403.28125 C 769.785156 402.90625 771.0625 402.464844 772.316406 401.960938 C 773.570312 401.457031 774.796875 400.890625 775.992188 400.265625 C 777.191406 399.640625 778.355469 398.957031 779.484375 398.21875 C 780.617188 397.476562 781.707031 396.683594 782.757812 395.832031 C 783.808594 394.984375 784.816406 394.085938 785.777344 393.136719 C 786.742188 392.1875 787.65625 391.191406 788.519531 390.152344 C 789.382812 389.113281 790.191406 388.035156 790.949219 386.914062 C 791.707031 385.796875 792.40625 384.640625 793.046875 383.453125 C 793.691406 382.261719 794.273438 381.046875 794.792969 379.796875 C 795.316406 378.550781 795.773438 377.28125 796.167969 375.988281 C 796.566406 374.699219 796.894531 373.390625 797.164062 372.0625 C 797.429688 370.738281 797.628906 369.402344 797.761719 368.058594 C 797.894531 366.714844 797.960938 365.367188 797.960938 364.015625 C 797.960938 362.664062 797.894531 361.316406 797.761719 359.96875 C 797.628906 358.625 797.429688 357.289062 797.164062 355.964844 C 796.894531 354.640625 796.566406 353.332031 796.167969 352.039062 C 795.773438 350.746094 795.316406 349.476562 794.792969 348.230469 C 794.273438 346.984375 793.691406 345.765625 793.046875 344.578125 C 792.40625 343.386719 791.707031 342.234375 790.949219 341.113281 C 790.191406 339.996094 789.382812 338.914062 788.519531 337.875 C 787.65625 336.835938 786.742188 335.84375 785.777344 334.894531 C 784.816406 333.945312 783.808594 333.046875 782.757812 332.195312 C 781.707031 331.347656 780.617188 330.554688 779.484375 329.8125 C 778.355469 329.070312 777.191406 328.386719 775.992188 327.761719 C 774.796875 327.136719 773.570312 326.574219 772.316406 326.070312 C 771.0625 325.566406 769.785156 325.125 768.488281 324.746094 C 767.191406 324.367188 765.875 324.058594 764.546875 323.808594 C 763.21875 323.5625 761.882812 323.382812 760.535156 323.265625 C 759.1875 323.152344 757.839844 323.105469 756.488281 323.125 Z M 53.289062 323.125 " fill-opacity="1" fill-rule="nonzero"/></g></svg>