<svg xmlns="http://www.w3.org/2000/svg" xmlns:xlink="http://www.w3.org/1999/xlink" width="1080" zoomAndPan="magnify" viewBox="0 0 810 809.999993" height="1080" preserveAspectRatio="xMidYMid meet" version="1.0"><defs><clipPath id="99378b5730"><path d="M 89.097656 172 L 720.597656 172 L 720.597656 768.871094 L 89.097656 768.871094 Z M 89.097656 172 " clip-rule="nonzero"/></clipPath><clipPath id="a87b3971b2"><path d="M 202 41.371094 L 346 41.371094 L 346 170 L 202 170 Z M 202 41.371094 " clip-rule="nonzero"/></clipPath></defs><g clip-path="url(#99378b5730)"><path fill="#10069f" d="M 495.125 725.234375 L 499.539062 664.367188 C 499.90625 659.292969 489.085938 659.527344 485.078125 658.28125 L 434.238281 642.472656 C 421.5 674.679688 419.59375 674.246094 397.375 699.082031 C 393.792969 703.074219 401.242188 723.492188 417.90625 726.125 C 431.28125 728.242188 440.457031 739.507812 439.402344 753.265625 C 438.980469 758.789062 434.261719 762.691406 428.765625 762.691406 L 395.546875 762.691406 C 390.414062 762.691406 386.738281 760.324219 383.832031 756.761719 L 353.117188 719.183594 C 344.152344 708.214844 344.402344 698.617188 351.890625 682.125 C 306.996094 695.253906 304.921875 689.152344 294.75 724.296875 C 293.214844 729.601562 299.148438 733.132812 301.824219 736.84375 C 305.898438 742.515625 309.753906 756.253906 300.828125 759.964844 C 289.085938 764.847656 272.382812 763.917969 259.96875 760.414062 C 241.703125 755.265625 257.992188 694.929688 261.488281 678.699219 C 267.773438 649.472656 297.613281 675.128906 301.292969 599.894531 C 276.085938 613.769531 251.664062 617.546875 225.171875 609.234375 C 217.082031 618.625 212.601562 629.171875 206.324219 639.515625 L 155.90625 722.585938 C 144.464844 741.453125 119.242188 743.484375 103.117188 729.976562 C 88.296875 717.554688 85.28125 698.914062 94.425781 681.984375 L 149.996094 579.121094 C 156.082031 567.855469 160.265625 558.222656 161.203125 544.796875 L 164.128906 502.949219 C 165.398438 484.816406 169.988281 465.089844 165.53125 447.371094 C 160.789062 428.546875 155.875 412.570312 157.625 392.511719 L 168.289062 270.050781 C 169.75 253.304688 169.738281 237.4375 173.1875 221.054688 C 181.082031 183.492188 217.523438 163.765625 254.054688 177.199219 C 276.109375 185.3125 292.09375 205.222656 296.050781 229.484375 C 303.773438 276.800781 283.382812 298.347656 303.402344 309.722656 L 377.164062 351.621094 C 392.226562 360.179688 395 370.773438 397.449219 387.105469 C 399.167969 398.582031 413.980469 408.421875 422.347656 416.789062 C 455.453125 449.894531 494.46875 472.910156 538.382812 488.703125 C 544.027344 490.734375 552.902344 494.996094 558.675781 490.238281 C 572.515625 478.8125 588.273438 467.738281 598.613281 452.992188 C 603.085938 446.605469 625.40625 391.226562 638.972656 411.757812 C 647.417969 424.535156 637.652344 442.902344 657.378906 450.449219 C 671.070312 455.679688 676.425781 467.386719 682.554688 478.921875 C 691.289062 487.117188 704.65625 490.785156 714.496094 497.761719 C 733.476562 511.210938 704 534.640625 695.066406 538.925781 C 678.085938 547.0625 651.410156 532.449219 647.617188 540.269531 L 635.792969 564.640625 C 632.660156 571.101562 627.945312 576.871094 625.761719 583.960938 C 620.097656 602.328125 611.972656 618.328125 600.296875 633.761719 C 619.792969 663.976562 640.847656 663.3125 649.035156 696.804688 C 653.011719 713.078125 664.761719 748.5 641.179688 752.777344 C 634.398438 754.003906 625.84375 751.714844 620.621094 746.101562 C 605.46875 729.820312 616.039062 708.703125 598.03125 697.054688 C 582.679688 687.125 568.636719 676.464844 551.808594 669.339844 C 546.742188 686.652344 529.574219 728.597656 546.179688 735.257812 C 556.671875 739.464844 563.058594 759.425781 552.289062 765.710938 C 542.101562 771.65625 526.90625 766.574219 515.433594 767.546875 C 502.570312 768.636719 495.105469 725.335938 495.117188 725.21875 Z M 340.789062 380.273438 C 344.609375 371.988281 349.472656 366.09375 351.875 356.851562 C 331.523438 344.097656 311.835938 332.613281 291.1875 321.265625 C 283.582031 317.082031 278.152344 313.152344 275.21875 304.484375 L 252.628906 237.84375 C 251.285156 233.886719 255.59375 229.75 257.757812 228.976562 C 260.25 228.097656 265.15625 229.144531 266.644531 232.507812 L 278.566406 259.351562 C 282.417969 246.191406 281.582031 234.21875 277.4375 222.609375 C 268.039062 196.304688 239.984375 182.132812 213.703125 192.695312 C 198.925781 198.640625 189.394531 214.058594 188.007812 230.207031 L 174.78125 384.125 L 268.28125 394.886719 C 270.820312 385.089844 272.488281 375.832031 269.542969 366.738281 C 259.535156 359.789062 244.058594 356.828125 237.691406 345.277344 C 222.648438 318 213.023438 288.203125 201.480469 258.84375 C 199.554688 253.945312 203.425781 249.609375 206 249.445312 C 209.03125 249.253906 214.003906 249.328125 215.789062 253.628906 L 248.941406 333.253906 C 253.972656 345.335938 325.835938 372.976562 340.804688 380.257812 Z M 379.914062 381.59375 C 380.519531 374.726562 372.921875 365.636719 367.050781 368.050781 C 362.417969 370.535156 358.273438 378.835938 357.113281 384.683594 C 355.785156 391.359375 365.566406 393.242188 370.105469 392.859375 C 374.648438 392.480469 379.28125 388.785156 379.914062 381.59375 Z M 145.28125 709.699219 L 209.253906 601.863281 C 191.601562 590.71875 180.402344 573.988281 183.523438 553.996094 C 187.027344 531.542969 218.488281 573.417969 285.921875 551.390625 C 346.292969 531.667969 363.582031 517.414062 431.523438 518.957031 C 467.101562 519.761719 500.9375 516.042969 533.21875 504.769531 C 471.558594 480.222656 428.609375 452.042969 387.601562 403.429688 C 378.992188 408.046875 371.320312 408.777344 363.4375 411.71875 C 360.335938 431.203125 373.359375 448.847656 368.207031 475.707031 C 365.863281 487.914062 355.511719 495.511719 343.792969 493.964844 C 308.074219 489.257812 331.753906 424.097656 344.234375 400.617188 C 324.613281 392.28125 308.613281 382.8125 288.503906 376.710938 C 286.59375 394.414062 280.128906 412.390625 286.222656 428.039062 L 320.140625 515.179688 C 321.5 518.675781 317.058594 521.367188 315.175781 522.386719 C 313.289062 523.40625 307.304688 524.386719 305.957031 521.199219 L 269.980469 435.835938 C 266.675781 428 268.136719 420.09375 266.894531 411.300781 L 199.25 404.917969 C 190.871094 404.128906 183.472656 401.792969 175.046875 402.160156 C 169.949219 447.253906 230.09375 498.582031 248.226562 533.726562 C 250.304688 537.746094 247.886719 542.511719 245.371094 544.570312 C 243.460938 546.132812 238.761719 546.8125 235.988281 543.308594 C 218.34375 520.941406 204.105469 497.644531 184.136719 474.867188 C 177.59375 501.835938 181.539062 555.367188 171.324219 574.386719 L 108.746094 690.902344 C 103.035156 701.546875 106.414062 714.617188 115.339844 719.035156 C 126.355469 724.480469 138.246094 721.582031 145.289062 709.71875 Z M 348.882812 433.871094 C 342.597656 443.800781 336.066406 477.242188 346.394531 478.472656 C 360.75 480.183594 350.820312 440.644531 348.882812 433.871094 Z M 701.128906 510.902344 C 690.035156 501.4375 670.082031 496.613281 664.960938 481.753906 C 658.277344 462.347656 638.082031 464.863281 632.539062 454.527344 C 629.746094 449.335938 630.792969 443.617188 627.265625 437.929688 C 620.996094 442.710938 619.277344 450.589844 615.730469 457.972656 C 610.832031 468.175781 578.484375 495.800781 568.421875 504.96875 C 583.949219 523.722656 601.785156 537.441406 623.28125 550.191406 C 629.488281 539.417969 631.40625 528.597656 641.8125 523.464844 C 661.863281 513.578125 685.277344 539.273438 701.128906 510.902344 Z M 388.628906 612.148438 C 390.398438 608.132812 392.449219 605.75 394.714844 604.96875 C 396.890625 604.21875 401.574219 603.839844 402.984375 606.46875 C 404.945312 610.105469 403.917969 614.027344 405.609375 618.742188 C 424.140625 617.398438 494.925781 649.398438 500.171875 641.542969 C 502.746094 637.691406 501.257812 626.539062 510.535156 627.378906 C 513.273438 627.625 516.925781 630.160156 517.152344 634.609375 C 518.585938 662.847656 514.59375 689.566406 511.960938 718.019531 C 511.023438 728.226562 514.777344 740.164062 520.429688 748.183594 C 523.867188 753.058594 533.191406 751.894531 538.964844 750.085938 C 536.871094 745.785156 530.703125 747.140625 528.0625 743.253906 C 521.1875 733.15625 521.394531 720.660156 523.984375 708.828125 C 528.328125 688.976562 532.089844 669.621094 541.820312 651.871094 C 550.863281 635.375 593.65625 646.824219 614.378906 565.238281 C 591.585938 550.515625 572.398438 534.675781 553.261719 515.046875 C 513.390625 531.984375 462.667969 536.832031 419.683594 535.679688 C 393.480469 534.980469 369.683594 539.292969 345.4375 547.867188 L 290.289062 567.371094 C 261.519531 577.542969 232.011719 577.566406 201.640625 568.144531 C 208.242188 594.894531 251.058594 599.984375 272.164062 594.398438 C 300.253906 586.949219 313.980469 563.144531 323.578125 568.535156 C 325.875 569.820312 328.050781 573.714844 326.730469 577.234375 C 314.660156 609.394531 319.34375 607.898438 312.433594 637.765625 C 304.355469 672.644531 279.265625 671.472656 276.671875 685.480469 C 273.09375 704.867188 268.097656 724.289062 267.757812 744.125 C 272.78125 748.726562 282.105469 747.738281 287.734375 745.195312 C 278.492188 740.863281 274.300781 733.863281 277.140625 724.207031 C 287.648438 688.5625 288.761719 683.472656 318.660156 674.15625 C 361.445312 660.828125 369.808594 654.84375 388.640625 612.117188 Z M 383.152344 716.277344 C 363.871094 688.496094 409.828125 677.3125 416.761719 639.351562 C 411.199219 636.246094 404.058594 635.382812 396.859375 636.085938 C 372.421875 682.078125 375.546875 642.753906 362.566406 703.066406 C 372.996094 717.238281 383.433594 732.25 396.1875 744.222656 C 402.570312 750.21875 415.980469 746.996094 422.582031 746.625 C 394.75 737.558594 399.816406 740.304688 383.140625 716.285156 Z M 637.667969 735.707031 C 639.164062 718.800781 634.679688 707.492188 630.976562 694.9375 C 627.613281 685.40625 621.269531 678.8125 613.347656 672.785156 C 603.195312 665.0625 596.617188 653.730469 585.765625 646.898438 C 579.433594 646.347656 572.988281 653.015625 565.996094 656.4375 C 582.777344 667.636719 600.253906 677.601562 616.652344 691.117188 C 629.25 701.496094 623.289062 738.128906 637.667969 735.707031 Z M 637.667969 735.707031 " fill-opacity="1" fill-rule="nonzero"/></g><g clip-path="url(#a87b3971b2)"><path fill="#10069f" d="M 312.183594 101.1875 C 313.835938 123.820312 308.730469 145.714844 290.648438 159.539062 C 275.808594 170.882812 256.878906 172.742188 237.726562 165.113281 C 209.34375 153.8125 201.632812 120.65625 203.183594 92.4375 C 204.710938 64.6875 225.371094 43.996094 252.601562 41.628906 C 279.589844 39.289062 300.527344 55.710938 307.96875 81.507812 C 318.230469 88.941406 345.191406 74.875 345.457031 90.195312 C 345.6875 103.945312 328.527344 97.757812 312.175781 101.179688 Z M 291.179688 85.210938 C 288.230469 69.429688 275.21875 58.425781 258.839844 57.960938 C 237.816406 57.363281 221.144531 70.648438 220.273438 91.496094 C 241.859375 91.648438 268.386719 88.203125 291.179688 85.203125 Z M 230.507812 139.074219 C 243.070312 154.640625 264.527344 156.917969 279.332031 147.035156 C 293.15625 137.8125 299.65625 118.472656 293.089844 102.757812 L 220.539062 109.898438 C 220.652344 120.160156 223.195312 130.015625 230.507812 139.074219 Z M 230.507812 139.074219 " fill-opacity="1" fill-rule="nonzero"/></g></svg>