<svg xmlns="http://www.w3.org/2000/svg" xmlns:xlink="http://www.w3.org/1999/xlink" width="1080" zoomAndPan="magnify" viewBox="0 0 810 809.999993" height="1080" preserveAspectRatio="xMidYMid meet" version="1.0"><defs><clipPath id="3866982ee9"><path d="M 43.1875 43.1875 L 766.9375 43.1875 L 766.9375 766 L 43.1875 766 Z M 43.1875 43.1875 " clip-rule="nonzero"/></clipPath></defs><g clip-path="url(#3866982ee9)"><path fill="#10069f" d="M 632.484375 496.933594 C 615.636719 496.933594 599.375 500.175781 583.953125 506.238281 L 528.867188 416.574219 L 542.433594 416.574219 C 555.675781 416.574219 566.464844 405.785156 566.464844 392.527344 C 566.464844 379.269531 555.675781 368.496094 542.433594 368.496094 L 500.164062 368.496094 L 432.101562 309.550781 L 415.613281 204.398438 C 415.105469 201.167969 414.277344 198.042969 413.289062 194.972656 C 425.316406 202.011719 439.269531 206.121094 454.195312 206.121094 C 499.054688 206.121094 535.554688 169.621094 535.554688 124.75 C 535.554688 79.875 499.054688 43.386719 454.195312 43.386719 C 409.335938 43.386719 372.835938 79.875 372.835938 124.75 C 372.835938 136.015625 375.144531 146.765625 379.308594 156.535156 C 359.152344 146.964844 335.558594 148.644531 317.5625 160.984375 C 303.15625 170.847656 289.417969 181.835938 276.683594 193.640625 C 244.945312 223.105469 218.632812 258.324219 198.445312 298.308594 C 187.363281 320.378906 184.71875 344.917969 190.648438 368.496094 L 188.9375 368.496094 C 175.695312 368.496094 164.90625 379.285156 164.90625 392.527344 C 164.90625 405.773438 175.695312 416.574219 188.9375 416.574219 L 218.191406 416.574219 C 223.132812 421.445312 228.550781 425.8125 234.386719 429.605469 L 250.140625 452.566406 L 219.019531 503.648438 C 205.679688 499.269531 191.78125 496.933594 177.539062 496.933594 C 103.558594 496.933594 43.375 557.132812 43.375 631.109375 C 43.375 705.085938 103.558594 765.273438 177.539062 765.273438 C 241.914062 765.273438 297.429688 718.636719 309.21875 655.941406 L 401.605469 655.941406 C 403.675781 655.941406 405.679688 655.660156 407.722656 655.085938 C 408.363281 654.925781 408.949219 654.726562 409.925781 654.328125 C 411.339844 653.804688 412.621094 653.113281 414.277344 652.203125 C 414.648438 652.015625 415.25 651.523438 415.796875 651.042969 L 415.796875 651.070312 C 418.09375 649.398438 419.871094 647.609375 421.21875 645.609375 C 421.40625 645.382812 421.59375 645.15625 421.699219 644.996094 L 521.632812 496.34375 L 543.058594 531.257812 C 514.664062 556.730469 498.335938 592.710938 498.335938 631.121094 C 498.335938 705.101562 558.519531 765.285156 632.496094 765.285156 C 706.476562 765.285156 766.660156 705.101562 766.660156 631.121094 C 766.660156 557.144531 706.476562 496.945312 632.496094 496.945312 Z M 454.167969 56.75 C 491.671875 56.75 522.179688 87.257812 522.179688 124.761719 C 522.179688 162.265625 491.671875 192.785156 454.167969 192.785156 C 416.667969 192.785156 386.160156 162.277344 386.160156 124.761719 C 386.160156 87.246094 416.667969 56.75 454.167969 56.75 Z M 188.914062 403.222656 C 183.023438 403.222656 178.230469 398.429688 178.230469 392.527344 C 178.230469 386.625 183.023438 381.847656 188.914062 381.847656 L 195.039062 381.847656 C 198.097656 389.46875 202.0625 396.613281 206.789062 403.222656 Z M 177.511719 751.910156 C 110.890625 751.910156 56.699219 697.703125 56.699219 631.097656 C 56.699219 564.488281 110.902344 510.269531 177.511719 510.269531 C 189.273438 510.269531 200.78125 512.03125 211.863281 515.34375 L 198.964844 536.503906 C 192.011719 534.835938 184.867188 533.765625 177.511719 533.765625 C 123.921875 533.765625 80.328125 577.4375 80.328125 631.097656 C 80.328125 684.753906 123.933594 728.277344 177.511719 728.277344 C 221.703125 728.277344 260.328125 698.144531 271.488281 655.914062 L 295.613281 655.914062 C 284.039062 711.136719 234.640625 751.894531 177.511719 751.894531 Z M 145.441406 634.714844 C 145.601562 636.050781 145.921875 637.53125 146.484375 639.601562 C 146.871094 640.628906 147.335938 641.5625 148.40625 643.605469 C 149.058594 644.753906 149.699219 645.714844 150.863281 647.316406 C 151.730469 648.320312 152.679688 649.144531 154.265625 650.441406 C 154.640625 650.855469 155.949219 651.988281 156.417969 652.296875 C 157.003906 652.671875 157.683594 653.019531 158.5 653.324219 L 160.902344 654.378906 C 163.199219 655.140625 165.949219 655.914062 169.019531 655.914062 L 257.363281 655.914062 C 246.574219 690.480469 214.414062 714.925781 177.511719 714.925781 C 131.289062 714.925781 93.679688 677.332031 93.679688 631.097656 C 93.679688 584.863281 131.289062 547.117188 177.511719 547.117188 C 182.332031 547.117188 187.03125 547.679688 191.648438 548.519531 L 148.5 619.332031 C 148.230469 619.761719 147.980469 620.5625 147.820312 621.027344 C 147.257812 622.164062 146.882812 623.273438 146.121094 625.742188 C 145.84375 626.808594 145.589844 627.890625 145.402344 629.398438 C 145.1875 630.121094 144.988281 631.242188 144.988281 631.898438 C 144.988281 633.207031 145.296875 634.246094 145.441406 634.714844 Z M 411.074219 636.851562 C 410.738281 637.199219 410.429688 637.597656 410.164062 638.011719 C 409.710938 638.757812 408.976562 639.480469 408.921875 639.652344 C 408.203125 640 407.640625 640.429688 407.242188 640.773438 C 407.226562 640.773438 407.214844 640.773438 407.199219 640.800781 C 406.585938 641.148438 405.984375 641.535156 406 641.578125 C 405.359375 641.738281 404.769531 641.9375 404.332031 642.152344 C 403.261719 642.445312 402.40625 642.578125 401.566406 642.578125 L 169.019531 642.578125 C 167.84375 642.578125 166.324219 642.125 165.9375 642.058594 C 165.828125 642.003906 164.214844 641.484375 164.105469 641.441406 C 163.652344 640.949219 163.183594 640.480469 162.117188 639.613281 C 161.71875 639.308594 161.34375 639.121094 161.371094 639.09375 C 160.835938 638.359375 160.421875 637.730469 159.699219 636.410156 C 159.421875 635.847656 159.179688 635.449219 159.195312 635.621094 C 158.992188 634.808594 158.78125 633.898438 158.726562 633.898438 C 158.726562 633.367188 158.578125 632.75 158.417969 632.203125 C 158.484375 631.898438 158.539062 631.601562 158.550781 631.402344 C 158.644531 630.535156 158.859375 629.746094 159.234375 628.453125 C 159.40625 627.945312 159.515625 627.492188 159.355469 627.679688 C 159.699219 627.15625 160.101562 626.277344 160.339844 625.527344 L 263.757812 455.796875 C 265.121094 453.554688 265.039062 450.710938 263.558594 448.546875 L 258.9375 441.820312 L 309.472656 463.195312 C 307.894531 463.742188 306.480469 464.648438 305.679688 466.171875 C 304.53125 468.359375 304.679688 471.003906 306.066406 473.0625 L 353.210938 542.070312 L 357.960938 586.957031 L 284.960938 480.015625 C 283.675781 478.132812 281.621094 477.210938 279.273438 477.105469 C 277.015625 477.171875 274.917969 478.375 273.746094 480.308594 L 194.160156 611.070312 C 192.90625 613.125 192.863281 615.714844 194.039062 617.8125 C 195.226562 619.90625 197.445312 621.214844 199.859375 621.214844 L 368.710938 621.214844 C 368.789062 621.214844 368.871094 621.148438 368.949219 621.148438 C 375.773438 628.625 385.480469 633.339844 396.332031 633.339844 C 404.609375 633.339844 412.152344 630.574219 418.320312 626.050781 L 411.074219 636.835938 Z M 324.238281 475.972656 L 339.65625 475.972656 L 346.535156 478.882812 L 350.257812 514.0625 L 324.25 475.984375 Z M 241.914062 558.28125 L 254.265625 538 C 275.839844 555.730469 290.648438 580.535156 295.945312 607.878906 L 271.863281 607.878906 C 267.214844 588.691406 256.800781 571.429688 241.914062 558.28125 Z M 257.804688 607.878906 L 211.730469 607.878906 L 234.71875 570.109375 C 245.761719 580.46875 253.691406 593.433594 257.804688 607.878906 Z M 261.261719 526.503906 L 279.765625 496.105469 L 356.066406 607.878906 L 309.5 607.878906 C 303.929688 575.890625 286.695312 546.824219 261.261719 526.503906 Z M 424.4375 469.121094 C 424.4375 469.121094 424.398438 469.242188 424.398438 469.296875 C 424.398438 469.335938 424.421875 469.375 424.421875 469.429688 L 420.164062 596.972656 C 419.722656 609.894531 409.257812 620.015625 396.332031 620.015625 C 384.089844 620.015625 373.902344 610.84375 372.621094 598.679688 L 359.390625 473.566406 C 359.136719 471.152344 357.589844 469.070312 355.359375 468.121094 L 255.386719 425.839844 C 244.050781 421.058594 234.078125 414.195312 225.839844 405.664062 C 225.628906 405.410156 225.414062 405.171875 225.160156 404.945312 C 217.042969 396.347656 210.648438 386.105469 206.414062 374.597656 C 197.84375 351.378906 199.246094 326.414062 210.328125 304.332031 C 229.792969 265.761719 255.148438 231.808594 285.71875 203.4375 C 297.964844 192.078125 311.207031 181.503906 325.066406 171.996094 C 332.996094 166.5625 342.316406 163.773438 351.914062 163.773438 C 359.539062 163.773438 367.320312 165.546875 374.703125 169.125 C 389.496094 176.335938 399.84375 190.289062 402.382812 206.46875 L 419.242188 314.039062 C 419.496094 315.601562 420.285156 317.027344 421.472656 318.054688 L 492.046875 379.164062 C 496.679688 383.167969 499.308594 388.75 499.457031 394.863281 C 499.601562 400.886719 497.1875 406.71875 492.832031 410.84375 C 485.835938 417.441406 474.808594 418.589844 466.410156 413.382812 L 366.28125 348.992188 L 358.871094 299.832031 C 358.441406 297 356.253906 294.746094 353.4375 294.25 C 350.605469 293.769531 347.789062 295.09375 346.414062 297.617188 L 316.613281 351.859375 C 314.890625 354.984375 315.960938 358.921875 319.019531 360.78125 L 408.375 414.71875 C 419.191406 421.246094 425.636719 433.15625 425.222656 445.769531 L 424.449219 469.109375 Z M 435.597656 428.042969 C 431.875 417.882812 424.824219 409.054688 415.265625 403.289062 L 331.394531 352.660156 L 348.601562 321.328125 L 353.515625 353.929688 C 353.796875 355.839844 354.890625 357.523438 356.507812 358.5625 L 459.296875 424.664062 C 461.6875 426.132812 464.222656 427.171875 466.800781 428.027344 L 435.597656 428.027344 Z M 437.5625 475.972656 L 477.414062 475.972656 L 435.476562 538.332031 Z M 527.546875 480.484375 C 526.359375 478.546875 524.261719 477.359375 521.992188 477.304688 C 519.789062 477.28125 517.585938 478.375 516.316406 480.257812 L 432.433594 605.074219 C 433.035156 602.605469 433.421875 600.054688 433.515625 597.410156 L 434.648438 563.511719 L 495.503906 473.019531 C 496.878906 470.976562 497.011719 468.320312 495.851562 466.144531 C 494.6875 463.96875 492.417969 462.605469 489.964844 462.605469 L 438.015625 462.605469 L 438.5625 446.199219 C 438.617188 444.570312 438.507812 442.980469 438.402344 441.378906 L 491.433594 441.378906 C 493.847656 441.378906 496.078125 440.070312 497.265625 437.960938 C 498.453125 435.851562 498.386719 433.261719 497.117188 431.207031 L 493.953125 426.050781 C 496.851562 424.597656 499.617188 422.792969 502.03125 420.523438 C 502.03125 420.523438 502.03125 420.523438 502.046875 420.5 C 509.136719 413.769531 513.058594 404.304688 512.832031 394.515625 C 512.726562 390.097656 511.671875 385.824219 509.976562 381.832031 L 542.433594 381.832031 C 548.320312 381.832031 553.113281 386.613281 553.113281 392.515625 C 553.113281 398.414062 548.320312 403.207031 542.433594 403.207031 L 516.933594 403.207031 C 514.515625 403.207031 512.285156 404.515625 511.097656 406.625 C 509.910156 408.734375 509.976562 411.324219 511.246094 413.382812 L 642.097656 626.34375 C 643.605469 628.773438 644.074219 631.628906 643.417969 634.394531 C 642.765625 637.117188 641.09375 639.425781 638.585938 640.949219 C 633.632812 644.058594 626.984375 642.324219 623.953125 637.476562 L 527.574219 480.46875 Z M 653.433594 619.320312 L 611.042969 550.324219 C 617.957031 548.414062 625.0625 547.117188 632.484375 547.117188 C 678.707031 547.117188 716.316406 584.78125 716.316406 631.097656 C 716.316406 677.410156 678.707031 714.925781 632.484375 714.925781 C 586.261719 714.925781 548.507812 677.332031 548.507812 631.097656 C 548.507812 610.363281 556.277344 590.402344 570.015625 575.183594 L 612.578125 644.527344 C 617.039062 651.65625 624.699219 655.929688 633.058594 655.929688 C 637.585938 655.929688 641.84375 654.671875 645.59375 652.3125 C 651.070312 648.984375 654.886719 643.726562 656.382812 637.503906 C 657.878906 631.242188 656.824219 624.792969 653.433594 619.347656 Z M 632.484375 751.910156 C 565.863281 751.910156 511.671875 697.703125 511.671875 631.097656 C 511.671875 597.316406 525.691406 565.636719 550.148438 542.804688 L 562.832031 563.472656 C 545.25 581.457031 535.15625 605.742188 535.15625 631.097656 C 535.15625 684.6875 578.8125 728.277344 632.484375 728.277344 C 686.15625 728.277344 729.664062 684.671875 729.664062 631.097656 C 729.664062 577.519531 686.0625 533.769531 632.484375 533.769531 C 622.511719 533.769531 612.871094 535.355469 603.671875 538.332031 L 591.054688 517.800781 C 604.273438 512.898438 618.144531 510.285156 632.484375 510.285156 C 699.105469 510.285156 753.296875 564.488281 753.296875 631.109375 C 753.296875 697.730469 699.09375 751.921875 632.484375 751.921875 Z M 632.484375 751.910156 " fill-opacity="1" fill-rule="nonzero"/></g></svg>