<svg xmlns="http://www.w3.org/2000/svg" xmlns:xlink="http://www.w3.org/1999/xlink" width="1080" zoomAndPan="magnify" viewBox="0 0 810 809.999993" height="1080" preserveAspectRatio="xMidYMid meet" version="1.0"><path fill="#97d700" d="M 678.175781 208.058594 L 551.117188 208.058594 L 551.117188 131.824219 C 551.117188 103.800781 528.316406 81 500.292969 81 L 309.707031 81 C 281.683594 81 258.882812 103.800781 258.882812 131.824219 L 258.882812 208.058594 L 131.824219 208.058594 C 103.800781 208.058594 81 230.859375 81 258.882812 C 81 280.964844 81 659.53125 81 678.175781 C 81 706.199219 103.800781 729 131.824219 729 L 678.175781 729 C 706.199219 729 729 706.199219 729 678.175781 C 729 659.617188 729 280.953125 729 258.882812 C 729 230.859375 706.199219 208.058594 678.175781 208.058594 Z M 284.292969 131.824219 C 284.292969 117.8125 295.695312 106.410156 309.707031 106.410156 L 500.292969 106.410156 C 514.304688 106.410156 525.707031 117.8125 525.707031 131.824219 L 525.707031 208.058594 L 500.292969 208.058594 L 500.292969 182.648438 C 500.292969 154.621094 477.496094 131.824219 449.46875 131.824219 L 360.53125 131.824219 C 332.503906 131.824219 309.707031 154.621094 309.707031 182.648438 L 309.707031 208.058594 L 284.292969 208.058594 Z M 474.882812 208.058594 L 335.117188 208.058594 L 335.117188 182.648438 C 335.117188 168.636719 346.515625 157.234375 360.53125 157.234375 L 449.46875 157.234375 C 463.484375 157.234375 474.882812 168.636719 474.882812 182.648438 Z M 131.824219 233.46875 C 189.675781 233.46875 623.253906 233.46875 678.175781 233.46875 C 692.1875 233.46875 703.589844 244.871094 703.589844 258.882812 L 703.589844 424.058594 C 703.589844 438.070312 692.1875 449.46875 678.175781 449.46875 L 462.175781 449.46875 L 462.175781 411.351562 C 462.175781 404.335938 456.488281 398.648438 449.46875 398.648438 L 360.53125 398.648438 C 353.511719 398.648438 347.824219 404.335938 347.824219 411.351562 L 347.824219 449.46875 L 131.824219 449.46875 C 117.8125 449.46875 106.410156 438.070312 106.410156 424.058594 L 106.410156 258.882812 C 106.410156 244.871094 117.8125 233.46875 131.824219 233.46875 Z M 373.234375 424.058594 L 436.765625 424.058594 L 436.765625 468.53125 C 436.765625 486.042969 422.515625 500.292969 405 500.292969 C 387.484375 500.292969 373.234375 486.042969 373.234375 468.53125 Z M 678.175781 703.589844 L 131.824219 703.589844 C 117.8125 703.589844 106.410156 692.1875 106.410156 678.175781 L 106.410156 468.046875 C 113.894531 472.382812 122.570312 474.882812 131.824219 474.882812 L 348.183594 474.882812 C 351.355469 503.429688 375.621094 525.707031 405 525.707031 C 434.378906 525.707031 458.644531 503.429688 461.816406 474.882812 L 678.175781 474.882812 C 687.429688 474.882812 696.105469 472.382812 703.589844 468.046875 L 703.589844 678.175781 C 703.589844 692.1875 692.1875 703.589844 678.175781 703.589844 Z M 678.175781 703.589844 " fill-opacity="1" fill-rule="nonzero"/></svg>