<svg xmlns="http://www.w3.org/2000/svg" xmlns:xlink="http://www.w3.org/1999/xlink" width="1080" zoomAndPan="magnify" viewBox="0 0 810 809.999993" height="1080" preserveAspectRatio="xMidYMid meet" version="1.0"><defs><clipPath id="0bdecffb67"><path d="M 275 102.464844 L 558 102.464844 L 558 339 L 275 339 Z M 275 102.464844 " clip-rule="nonzero"/></clipPath><clipPath id="92920378bd"><path d="M 45 482 L 287 482 L 287 728.714844 L 45 728.714844 Z M 45 482 " clip-rule="nonzero"/></clipPath><clipPath id="094852b910"><path d="M 270 377 L 752.925781 377 L 752.925781 658 L 270 658 Z M 270 377 " clip-rule="nonzero"/></clipPath></defs><path fill="#97d700" d="M 539.125 377.117188 C 534.566406 377.117188 530.835938 373.386719 530.835938 368.828125 L 530.835938 311.214844 C 530.835938 305.414062 528.210938 300.164062 523.511719 296.847656 C 518.816406 293.53125 513.011719 292.566406 507.484375 294.5 L 483.863281 302.511719 C 459.683594 310.664062 433.160156 310.664062 408.980469 302.511719 L 385.359375 294.5 C 379.832031 292.703125 374.027344 293.53125 369.332031 296.847656 C 364.632812 300.164062 362.007812 305.414062 362.007812 311.214844 L 362.007812 368.828125 C 362.007812 373.386719 358.277344 377.117188 353.71875 377.117188 C 349.160156 377.117188 345.429688 373.386719 345.429688 368.828125 L 345.429688 311.214844 C 345.429688 300.027344 350.679688 289.941406 359.660156 283.445312 C 368.777344 276.953125 379.96875 275.296875 390.605469 278.75 L 414.230469 286.761719 C 434.953125 293.808594 457.75 293.808594 478.472656 286.761719 L 502.097656 278.75 C 512.734375 275.15625 523.925781 276.816406 533.042969 283.445312 C 542.164062 290.078125 547.273438 300.164062 547.273438 311.214844 L 547.273438 368.828125 C 547.414062 373.386719 543.683594 377.117188 539.125 377.117188 Z M 539.125 377.117188 " fill-opacity="1" fill-rule="nonzero"/><path fill="#97d700" d="M 446.421875 274.882812 C 414.644531 274.882812 388.8125 249.046875 388.8125 217.269531 C 388.8125 185.496094 414.644531 159.660156 446.421875 159.660156 C 478.199219 159.660156 504.03125 185.496094 504.03125 217.269531 C 504.03125 249.046875 478.199219 274.882812 446.421875 274.882812 Z M 446.421875 176.238281 C 423.765625 176.238281 405.390625 194.613281 405.390625 217.269531 C 405.390625 239.929688 423.765625 258.300781 446.421875 258.300781 C 469.078125 258.300781 487.453125 239.929688 487.453125 217.269531 C 487.453125 194.613281 469.078125 176.238281 446.421875 176.238281 Z M 446.421875 176.238281 " fill-opacity="1" fill-rule="nonzero"/><path fill="#97d700" d="M 391.851562 377.117188 C 387.292969 377.117188 383.5625 373.386719 383.5625 368.828125 L 383.5625 343.128906 C 383.5625 338.570312 387.292969 334.839844 391.851562 334.839844 C 396.410156 334.839844 400.140625 338.570312 400.140625 343.128906 L 400.140625 368.828125 C 400.140625 373.386719 396.410156 377.117188 391.851562 377.117188 Z M 391.851562 377.117188 " fill-opacity="1" fill-rule="nonzero"/><path fill="#97d700" d="M 500.992188 377.117188 C 496.433594 377.117188 492.703125 373.386719 492.703125 368.828125 L 492.703125 343.128906 C 492.703125 338.570312 496.433594 334.839844 500.992188 334.839844 C 505.550781 334.839844 509.28125 338.570312 509.28125 343.128906 L 509.28125 368.828125 C 509.28125 373.386719 505.550781 377.117188 500.992188 377.117188 Z M 500.992188 377.117188 " fill-opacity="1" fill-rule="nonzero"/><g clip-path="url(#0bdecffb67)"><path fill="#97d700" d="M 294.726562 338.984375 C 292.65625 338.984375 290.445312 338.15625 288.925781 336.5 C 288.097656 335.667969 287.40625 334.703125 286.992188 333.597656 C 276.492188 305.691406 273.3125 275.296875 278.148438 245.730469 C 282.984375 216.164062 295.417969 188.394531 314.347656 165.1875 C 317.9375 160.902344 321.804688 156.621094 325.8125 152.476562 C 342.945312 135.34375 363.113281 122.21875 385.632812 113.65625 C 385.773438 113.65625 385.910156 113.515625 385.910156 113.515625 C 413.816406 103.015625 444.210938 99.839844 473.777344 104.675781 C 503.339844 109.511719 531.109375 121.945312 554.320312 140.871094 C 557.914062 143.773438 558.328125 149.023438 555.425781 152.476562 C 552.523438 156.066406 547.273438 156.484375 543.820312 153.582031 C 522.960938 136.449219 497.816406 125.121094 471.152344 120.839844 C 444.625 116.554688 417.269531 119.179688 392.128906 128.714844 C 391.988281 128.714844 391.851562 128.851562 391.851562 128.851562 C 371.402344 136.589844 353.167969 148.46875 337.554688 163.941406 C 333.824219 167.671875 330.371094 171.402344 327.195312 175.410156 C 310.0625 196.269531 298.734375 221.414062 294.453125 248.078125 C 290.167969 274.742188 292.792969 302.097656 302.328125 327.242188 C 303.570312 330.28125 302.878906 333.875 300.53125 336.222656 C 298.871094 338.15625 296.800781 338.984375 294.726562 338.984375 Z M 294.726562 338.984375 " fill-opacity="1" fill-rule="nonzero"/></g><path fill="#97d700" d="M 446.421875 443.707031 C 437.304688 443.707031 428.046875 443.015625 418.929688 441.496094 C 389.363281 436.660156 361.59375 424.226562 338.386719 405.300781 C 334.792969 402.398438 334.378906 397.148438 337.28125 393.695312 C 340.179688 390.242188 345.429688 389.6875 348.882812 392.589844 C 369.746094 409.71875 394.890625 421.050781 421.554688 425.332031 C 448.21875 429.613281 475.710938 426.851562 500.855469 417.320312 C 521.300781 409.582031 539.539062 397.699219 555.148438 382.226562 C 558.878906 378.496094 562.332031 374.765625 565.511719 370.761719 C 582.640625 349.898438 593.972656 324.753906 598.253906 298.089844 C 602.535156 271.425781 599.910156 244.074219 590.378906 218.929688 C 589.136719 215.890625 589.828125 212.296875 592.175781 209.949219 C 595.351562 206.769531 600.601562 206.769531 603.917969 209.949219 C 604.746094 210.777344 605.4375 211.746094 605.851562 212.851562 C 616.488281 240.757812 619.53125 271.152344 614.695312 300.714844 C 609.859375 330.28125 597.425781 358.050781 578.496094 381.261719 C 574.90625 385.542969 571.039062 389.824219 567.03125 393.96875 C 549.761719 411.238281 529.589844 424.363281 506.933594 432.929688 C 487.453125 439.976562 467.007812 443.707031 446.421875 443.707031 Z M 446.421875 443.707031 " fill-opacity="1" fill-rule="nonzero"/><path fill="#97d700" d="M 294.175781 339.953125 C 292.65625 339.953125 291.136719 339.539062 289.894531 338.707031 L 260.605469 321.023438 C 256.734375 318.675781 255.355469 313.566406 257.839844 309.695312 C 260.191406 305.828125 265.300781 304.445312 269.167969 306.933594 L 291.136719 320.195312 L 303.570312 297.675781 C 305.78125 293.671875 310.890625 292.152344 314.898438 294.5 C 318.90625 296.710938 320.425781 301.820312 318.078125 305.828125 L 301.496094 335.808594 C 300.390625 337.742188 298.597656 339.261719 296.386719 339.8125 C 295.558594 339.8125 294.867188 339.953125 294.175781 339.953125 Z M 294.175781 339.953125 " fill-opacity="1" fill-rule="nonzero"/><path fill="#97d700" d="M 582.089844 252.914062 C 580.707031 252.914062 579.328125 252.636719 578.082031 251.949219 C 574.078125 249.738281 572.558594 244.625 574.90625 240.617188 L 591.484375 210.640625 C 592.589844 208.707031 594.386719 207.183594 596.597656 206.632812 C 598.804688 206.082031 601.15625 206.355469 602.949219 207.601562 L 632.238281 225.285156 C 636.109375 227.632812 637.488281 232.742188 635.003906 236.613281 C 632.65625 240.480469 627.542969 241.863281 623.675781 239.375 L 601.707031 226.113281 L 589.273438 248.632812 C 587.890625 251.394531 584.992188 252.914062 582.089844 252.914062 Z M 582.089844 252.914062 " fill-opacity="1" fill-rule="nonzero"/><g clip-path="url(#92920378bd)"><path fill="#97d700" d="M 202.441406 728.996094 C 200.230469 728.996094 198.019531 728.167969 196.363281 726.371094 L 47.570312 568.183594 C 44.390625 564.867188 44.53125 559.617188 47.984375 556.441406 L 124.105469 484.875 C 125.765625 483.355469 127.835938 482.527344 130.046875 482.664062 C 132.257812 482.664062 134.332031 483.632812 135.851562 485.289062 L 284.644531 643.476562 C 286.164062 645.136719 286.992188 647.207031 286.851562 649.417969 C 286.851562 651.628906 285.886719 653.703125 284.226562 655.222656 L 208.105469 726.648438 C 206.585938 728.167969 204.511719 728.996094 202.441406 728.996094 Z M 65.390625 562.796875 L 202.855469 708.964844 L 266.960938 648.726562 L 129.496094 502.558594 Z M 65.390625 562.796875 " fill-opacity="1" fill-rule="nonzero"/></g><path fill="#97d700" d="M 205.894531 672.492188 C 191.527344 672.492188 179.785156 660.746094 179.785156 646.378906 C 179.785156 632.011719 191.527344 620.269531 205.894531 620.269531 C 220.261719 620.269531 232.007812 632.011719 232.007812 646.378906 C 232.007812 660.746094 220.261719 672.492188 205.894531 672.492188 Z M 205.894531 636.984375 C 200.644531 636.984375 196.363281 641.265625 196.363281 646.515625 C 196.363281 651.765625 200.644531 656.050781 205.894531 656.050781 C 211.144531 656.050781 215.425781 651.765625 215.425781 646.515625 C 215.425781 641.265625 211.007812 636.984375 205.894531 636.984375 Z M 205.894531 636.984375 " fill-opacity="1" fill-rule="nonzero"/><g clip-path="url(#094852b910)"><path fill="#97d700" d="M 475.988281 657.292969 L 278.5625 657.292969 C 274.003906 657.292969 270.273438 653.5625 270.273438 649.003906 C 270.273438 644.445312 274.003906 640.714844 278.5625 640.714844 L 475.988281 640.714844 C 507.761719 640.714844 537.742188 628.558594 560.539062 606.3125 L 727.429688 443.292969 C 733.367188 437.488281 736.546875 429.339844 736.132812 420.910156 C 735.71875 412.484375 731.574219 404.882812 724.941406 399.773438 C 714.164062 391.484375 698.832031 391.898438 688.46875 400.738281 L 534.980469 532.679688 C 531.523438 535.71875 526.273438 535.304688 523.234375 531.847656 C 520.195312 528.394531 520.609375 523.144531 524.066406 520.105469 L 677.554688 388.167969 C 693.855469 374.214844 717.894531 373.523438 734.890625 386.648438 C 745.25 394.660156 751.742188 406.820312 752.574219 419.945312 C 753.402344 433.066406 748.429688 445.917969 738.894531 455.035156 L 572.003906 618.058594 C 546.308594 643.476562 512.183594 657.292969 475.988281 657.292969 Z M 475.988281 657.292969 " fill-opacity="1" fill-rule="nonzero"/></g><path fill="#97d700" d="M 498.367188 551.882812 L 369.46875 551.882812 C 364.910156 551.882812 361.179688 548.152344 361.179688 543.59375 C 361.179688 539.03125 364.910156 535.304688 369.46875 535.304688 L 498.367188 535.304688 C 514.671875 535.304688 528.070312 522.039062 528.070312 505.597656 C 528.070312 489.160156 514.808594 475.894531 498.367188 475.894531 L 329.265625 475.894531 C 271.105469 475.894531 215.566406 496.757812 172.597656 534.613281 L 171.632812 535.441406 C 168.179688 538.480469 162.929688 538.203125 159.890625 534.75 C 156.851562 531.296875 157.125 526.046875 160.578125 523.007812 L 161.546875 522.039062 C 207.550781 481.421875 267.097656 459.179688 329.128906 459.179688 L 498.230469 459.179688 C 523.648438 459.179688 544.511719 479.902344 544.511719 505.460938 C 544.511719 531.15625 523.789062 551.882812 498.367188 551.882812 Z M 498.367188 551.882812 " fill-opacity="1" fill-rule="nonzero"/><path fill="#97d700" d="M 516.605469 480.730469 C 514.253906 480.730469 511.769531 479.625 510.109375 477.691406 C 507.210938 474.101562 507.761719 468.988281 511.355469 466.085938 L 597.285156 396.179688 C 620.636719 377.253906 654.621094 378.636719 676.3125 399.496094 C 679.625 402.675781 679.765625 407.925781 676.585938 411.238281 C 673.410156 414.554688 668.160156 414.695312 664.84375 411.515625 C 649.09375 396.457031 624.640625 395.492188 607.785156 409.167969 L 521.855469 479.074219 C 520.195312 480.039062 518.402344 480.730469 516.605469 480.730469 Z M 516.605469 480.730469 " fill-opacity="1" fill-rule="nonzero"/></svg>