<svg xmlns="http://www.w3.org/2000/svg" xmlns:xlink="http://www.w3.org/1999/xlink" width="1080" zoomAndPan="magnify" viewBox="0 0 810 809.999993" height="1080" preserveAspectRatio="xMidYMid meet" version="1.0"><defs><clipPath id="8bfc05c456"><path d="M 108 87 L 690.25 87 L 690.25 728 L 108 728 Z M 108 87 " clip-rule="nonzero"/></clipPath></defs><g clip-path="url(#8bfc05c456)"><path fill="#97d700" d="M 415.035156 306.546875 C 411.140625 301.753906 409.5625 295.808594 410.152344 290.105469 C 410.714844 284.640625 413.273438 279.363281 417.6875 275.511719 C 418.082031 275.117188 418.507812 274.773438 418.953125 274.480469 C 423.625 270.964844 429.292969 269.550781 434.738281 270.113281 C 440.203125 270.679688 445.476562 273.234375 449.328125 277.648438 C 449.675781 277.996094 449.984375 278.371094 450.253906 278.761719 L 466.839844 299.175781 L 475.25 288.828125 L 484.097656 277.933594 L 484.09375 277.929688 L 484.140625 277.871094 L 484.355469 277.617188 L 509.5625 246.59375 C 513.453125 241.804688 518.960938 239.039062 524.675781 238.449219 C 530.375 237.863281 536.320312 239.441406 541.113281 243.332031 C 545.90625 247.222656 548.667969 252.726562 549.261719 258.441406 C 549.851562 264.144531 548.269531 270.09375 544.378906 274.882812 L 518.9375 306.191406 L 510.472656 316.609375 C 510.21875 316.980469 509.941406 317.324219 509.636719 317.640625 L 484.648438 348.390625 L 484.65625 348.394531 C 484.0625 349.125 483.425781 349.816406 482.765625 350.453125 C 482.128906 351.0625 481.453125 351.628906 480.75 352.160156 C 475.984375 355.964844 470.101562 357.503906 464.457031 356.921875 C 458.746094 356.332031 453.242188 353.570312 449.347656 348.78125 Z M 479.710938 177.898438 C 446.890625 177.898438 417.136719 191.128906 395.492188 212.542969 C 395.328125 212.683594 395.164062 212.832031 395.011719 212.988281 C 373.335938 234.664062 359.921875 264.613281 359.921875 297.683594 C 359.921875 330.753906 373.335938 360.707031 395.011719 382.386719 C 416.6875 404.0625 446.640625 417.476562 479.710938 417.476562 C 512.78125 417.476562 542.726562 404.0625 564.402344 382.382812 C 586.082031 360.707031 599.492188 330.753906 599.492188 297.683594 C 599.492188 264.613281 586.082031 234.667969 564.402344 212.988281 C 542.730469 191.3125 512.78125 177.898438 479.710938 177.898438 Z M 553.082031 224.3125 C 534.308594 205.535156 508.363281 193.914062 479.710938 193.914062 C 451.246094 193.914062 425.453125 205.371094 406.707031 223.90625 C 406.589844 224.046875 406.460938 224.179688 406.332031 224.308594 C 387.554688 243.089844 375.9375 269.03125 375.9375 297.683594 C 375.9375 326.335938 387.558594 352.285156 406.332031 371.0625 C 425.113281 389.839844 451.058594 401.457031 479.710938 401.457031 C 508.363281 401.457031 534.304688 389.839844 553.082031 371.058594 C 571.859375 352.28125 583.476562 326.335938 583.476562 297.683594 C 583.476562 269.03125 571.859375 243.089844 553.082031 224.3125 Z M 479.707031 508.308594 C 482.355469 508.308594 485.371094 508.234375 488.730469 508.089844 C 492.03125 507.945312 494.992188 507.761719 497.613281 507.539062 C 503.03125 507.078125 507.929688 504.875 511.742188 501.417969 C 515.539062 497.980469 518.214844 493.324219 519.210938 487.957031 L 522.457031 470.445312 C 522.753906 468.839844 523.4375 467.460938 524.414062 466.40625 C 525.378906 465.363281 526.707031 464.578125 528.285156 464.160156 C 535.753906 462.1875 543.007812 459.726562 549.992188 456.832031 C 557.070312 453.898438 563.933594 450.488281 570.527344 446.652344 C 571.945312 445.828125 573.453125 445.445312 574.90625 445.5 C 576.339844 445.554688 577.789062 446.042969 579.121094 446.960938 L 591.582031 455.527344 C 596.222656 458.722656 601.585938 460.113281 606.816406 459.761719 C 612.074219 459.402344 617.199219 457.304688 621.355469 453.519531 C 624.484375 450.671875 627.734375 447.507812 631.089844 444.039062 C 634.25 440.773438 637.292969 437.417969 640.207031 433.992188 C 643.765625 429.8125 645.703125 424.789062 645.960938 419.679688 C 646.222656 414.558594 644.820312 409.359375 641.707031 404.835938 L 641.691406 404.847656 L 633.667969 393.167969 C 633.574219 393.007812 633.476562 392.855469 633.371094 392.703125 C 632.453125 391.367188 631.964844 389.917969 631.910156 388.484375 C 631.859375 387.039062 632.242188 385.53125 633.066406 384.113281 C 636.902344 377.511719 640.316406 370.644531 643.253906 363.558594 C 646.144531 356.582031 648.601562 349.339844 650.566406 341.882812 C 650.988281 340.296875 651.777344 338.964844 652.820312 338 C 653.871094 337.023438 655.253906 336.339844 656.863281 336.046875 L 670.253906 333.570312 C 675.460938 332.609375 680 330.058594 683.410156 326.441406 C 683.574219 326.285156 683.734375 326.121094 683.886719 325.945312 C 687.335938 322.0625 689.507812 317.042969 689.867188 311.492188 C 689.996094 309.457031 690.105469 307.148438 690.1875 304.59375 C 690.277344 301.726562 690.328125 299.40625 690.328125 297.683594 C 690.328125 295.964844 690.277344 293.644531 690.1875 290.777344 C 690.105469 288.222656 689.996094 285.914062 689.867188 283.878906 C 689.523438 278.585938 687.519531 273.773438 684.324219 269.957031 C 684.1875 269.777344 684.042969 269.597656 683.886719 269.425781 C 680.445312 265.554688 675.726562 262.816406 670.253906 261.804688 L 656.863281 259.328125 C 655.402344 259.058594 654.121094 258.464844 653.109375 257.625 L 652.847656 257.367188 C 651.777344 256.375 650.980469 255.046875 650.566406 253.488281 C 648.601562 246.03125 646.144531 238.792969 643.253906 231.816406 C 640.316406 224.734375 636.902344 217.867188 633.066406 211.261719 C 632.242188 209.84375 631.859375 208.335938 631.910156 206.886719 C 631.964844 205.457031 632.457031 204.003906 633.371094 202.671875 L 633.355469 202.660156 L 633.371094 202.640625 L 641.410156 190.945312 L 641.710938 190.535156 C 644.824219 186.015625 646.226562 180.8125 645.960938 175.695312 C 645.714844 170.8125 643.9375 166.007812 640.675781 161.941406 C 640.539062 161.75 640.394531 161.5625 640.238281 161.378906 C 637.335938 157.960938 634.285156 154.601562 631.101562 151.3125 C 627.894531 148 624.640625 144.839844 621.355469 141.851562 C 617.191406 138.070312 612.0625 135.964844 606.808594 135.613281 C 601.578125 135.253906 596.21875 136.652344 591.578125 139.84375 L 579.121094 148.414062 C 577.789062 149.332031 576.335938 149.824219 574.902344 149.875 C 573.453125 149.929688 571.945312 149.546875 570.527344 148.722656 C 563.933594 144.890625 557.074219 141.480469 550 138.550781 C 543.011719 135.65625 535.757812 133.195312 528.289062 131.214844 C 526.730469 130.800781 525.402344 130.007812 524.414062 128.941406 L 524.398438 128.953125 C 523.429688 127.902344 522.75 126.527344 522.457031 124.933594 L 519.210938 107.410156 C 518.214844 102.046875 515.539062 97.386719 511.738281 93.945312 C 507.921875 90.492188 503.023438 88.28125 497.609375 87.828125 C 494.992188 87.605469 492.007812 87.421875 488.675781 87.28125 C 485.308594 87.140625 482.308594 87.066406 479.707031 87.066406 C 477.109375 87.066406 474.105469 87.140625 470.734375 87.28125 C 467.402344 87.421875 464.410156 87.605469 461.796875 87.828125 C 456.375 88.285156 451.476562 90.496094 447.667969 93.949219 C 443.867188 97.394531 441.1875 102.050781 440.199219 107.414062 L 436.953125 124.929688 C 436.6875 126.390625 436.09375 127.667969 435.253906 128.679688 L 434.996094 128.941406 C 434.003906 130.011719 432.679688 130.800781 431.117188 131.214844 C 423.65625 133.1875 416.410156 135.644531 409.429688 138.542969 C 402.355469 141.476562 395.488281 144.886719 388.890625 148.722656 C 387.476562 149.542969 385.96875 149.929688 384.515625 149.875 C 383.179688 149.824219 381.835938 149.402344 380.59375 148.628906 L 380.300781 148.414062 L 367.835938 139.84375 L 367.824219 139.859375 L 367.804688 139.84375 C 363.15625 136.648438 357.808594 135.253906 352.597656 135.609375 C 347.34375 135.964844 342.214844 138.066406 338.058594 141.847656 C 334.75 144.855469 331.492188 148.023438 328.300781 151.320312 C 325.121094 154.605469 322.070312 157.964844 319.171875 161.378906 L 319.191406 161.394531 C 315.640625 165.574219 313.710938 170.585938 313.449219 175.6875 C 313.191406 180.820312 314.585938 186.007812 317.671875 190.503906 L 317.675781 190.5 L 317.703125 190.535156 L 326.046875 202.671875 L 326.0625 202.660156 C 326.964844 203.980469 327.449219 205.4375 327.503906 206.882812 C 327.558594 208.335938 327.175781 209.84375 326.351562 211.261719 C 322.515625 217.863281 319.105469 224.726562 316.171875 231.808594 C 313.277344 238.792969 310.820312 246.03125 308.847656 253.488281 C 308.46875 254.929688 307.785156 256.15625 306.882812 257.09375 L 306.574219 257.367188 C 305.511719 258.347656 304.140625 259.035156 302.558594 259.328125 L 289.160156 261.804688 C 283.953125 262.765625 279.417969 265.316406 276.007812 268.933594 C 275.839844 269.089844 275.683594 269.253906 275.527344 269.425781 C 272.082031 273.308594 269.90625 278.328125 269.550781 283.878906 C 269.417969 285.925781 269.304688 288.21875 269.226562 290.769531 C 269.132812 293.628906 269.085938 295.9375 269.085938 297.683594 C 269.085938 299.433594 269.132812 301.742188 269.226562 304.601562 C 269.304688 307.15625 269.417969 309.445312 269.550781 311.492188 C 269.886719 316.785156 271.890625 321.601562 275.085938 325.410156 C 275.222656 325.59375 275.367188 325.773438 275.523438 325.945312 C 278.964844 329.816406 283.6875 332.554688 289.160156 333.570312 L 302.558594 336.046875 C 304.140625 336.335938 305.511719 337.023438 306.570312 338.003906 L 306.585938 337.988281 L 306.601562 338.003906 C 307.648438 338.96875 308.429688 340.300781 308.847656 341.886719 C 310.820312 349.34375 313.277344 356.589844 316.171875 363.566406 C 319.105469 370.648438 322.515625 377.511719 326.351562 384.109375 C 327.175781 385.527344 327.558594 387.035156 327.503906 388.484375 C 327.457031 389.824219 327.035156 391.167969 326.261719 392.410156 L 326.046875 392.703125 L 317.703125 404.835938 L 317.71875 404.847656 L 317.703125 404.867188 C 314.59375 409.390625 313.191406 414.582031 313.449219 419.679688 C 313.699219 424.5625 315.476562 429.363281 318.738281 433.425781 C 318.875 433.621094 319.019531 433.808594 319.171875 433.992188 C 321.929688 437.238281 324.988281 440.59375 328.324219 444.039062 C 331.675781 447.507812 334.933594 450.679688 338.0625 453.523438 C 342.222656 457.304688 347.34375 459.40625 352.601562 459.761719 C 357.832031 460.113281 363.191406 458.722656 367.835938 455.527344 L 380.296875 446.957031 C 381.632812 446.039062 383.085938 445.550781 384.511719 445.496094 C 385.964844 445.441406 387.472656 445.824219 388.890625 446.648438 C 395.496094 450.488281 402.359375 453.898438 409.445312 456.835938 C 416.421875 459.730469 423.664062 462.1875 431.121094 464.160156 C 432.703125 464.578125 434.03125 465.363281 434.996094 466.40625 C 435.972656 467.460938 436.660156 468.84375 436.953125 470.449219 L 440.195312 487.953125 C 441.1875 493.3125 443.859375 497.976562 447.664062 501.417969 C 451.472656 504.867188 456.371094 507.082031 461.789062 507.539062 C 464.414062 507.761719 467.382812 507.945312 470.683594 508.089844 C 474.046875 508.234375 477.0625 508.308594 479.707031 508.308594 Z M 471.375 492.136719 C 473.765625 492.238281 476.542969 492.292969 479.707031 492.292969 C 482.875 492.292969 485.652344 492.238281 488.039062 492.136719 C 490.480469 492.03125 493.246094 491.847656 496.300781 491.585938 C 498.175781 491.429688 499.816406 490.710938 501.046875 489.597656 C 502.285156 488.472656 503.171875 486.910156 503.507812 485.078125 L 506.753906 467.566406 C 507.609375 462.945312 509.691406 458.847656 512.714844 455.582031 C 515.746094 452.308594 519.675781 449.917969 524.21875 448.710938 C 530.933594 446.9375 537.496094 444.707031 543.863281 442.070312 C 550.324219 439.390625 556.558594 436.296875 562.519531 432.832031 C 566.582031 430.472656 571.039062 429.378906 575.46875 429.546875 C 579.921875 429.714844 584.304688 431.144531 588.191406 433.820312 L 600.652344 442.390625 C 602.207031 443.460938 604.003906 443.925781 605.753906 443.808594 C 607.480469 443.695312 609.1875 442.980469 610.59375 441.699219 C 613.914062 438.675781 616.9375 435.761719 619.640625 432.964844 C 622.53125 429.976562 625.351562 426.871094 628.074219 423.667969 C 629.273438 422.261719 629.921875 420.574219 630.007812 418.867188 C 630.097656 417.171875 629.621094 415.433594 628.570312 413.90625 L 628.585938 413.894531 L 628.570312 413.875 L 620.535156 402.179688 L 620.234375 401.773438 C 617.558594 397.882812 616.128906 393.503906 615.960938 389.050781 C 615.792969 384.617188 616.882812 380.164062 619.242188 376.105469 C 622.710938 370.136719 625.808594 363.898438 628.488281 357.429688 C 631.125 351.070312 633.351562 344.515625 635.121094 337.816406 C 636.324219 333.273438 638.71875 329.339844 641.996094 326.300781 C 645.261719 323.273438 649.363281 321.195312 653.988281 320.34375 L 667.375 317.867188 C 669.085938 317.546875 670.570312 316.75 671.675781 315.625 L 671.9375 315.316406 C 673.074219 314.035156 673.792969 312.359375 673.914062 310.492188 C 674.066406 308.121094 674.175781 305.984375 674.234375 304.09375 C 674.285156 302.542969 674.3125 300.414062 674.3125 297.683594 C 674.3125 294.953125 674.285156 292.824219 674.234375 291.277344 C 674.175781 289.382812 674.066406 287.25 673.914062 284.875 C 673.800781 283.136719 673.179688 281.566406 672.191406 280.328125 L 671.9375 280.058594 C 670.789062 278.761719 669.207031 277.847656 667.375 277.507812 L 653.984375 275.027344 C 649.605469 274.222656 645.699219 272.308594 642.527344 269.546875 C 642.335938 269.394531 642.144531 269.238281 641.960938 269.066406 C 638.714844 266.054688 636.332031 262.128906 635.121094 257.554688 C 633.347656 250.855469 631.125 244.300781 628.488281 237.945312 C 625.808594 231.476562 622.710938 225.238281 619.242188 219.269531 C 616.882812 215.210938 615.792969 210.757812 615.960938 206.324219 C 616.128906 201.875 617.558594 197.492188 620.234375 193.601562 L 620.25 193.613281 L 628.277344 181.929688 C 628.371094 181.773438 628.464844 181.617188 628.574219 181.464844 C 629.621094 179.941406 630.097656 178.199219 630.007812 176.507812 C 629.929688 174.929688 629.371094 173.378906 628.347656 172.042969 L 628.042969 171.699219 C 625.316406 168.5 622.515625 165.410156 619.652344 162.449219 L 619.621094 162.417969 C 616.769531 159.464844 613.753906 156.546875 610.59375 153.671875 C 609.1875 152.394531 607.476562 151.679688 605.746094 151.566406 C 603.996094 151.445312 602.203125 151.914062 600.648438 152.984375 L 588.191406 161.550781 C 584.300781 164.226562 579.921875 165.660156 575.464844 165.828125 C 571.03125 165.996094 566.578125 164.90625 562.519531 162.546875 C 556.5625 159.082031 550.332031 155.992188 543.871094 153.316406 C 537.496094 150.671875 530.929688 148.441406 524.222656 146.664062 C 519.660156 145.453125 515.730469 143.074219 512.714844 139.828125 L 512.730469 139.8125 L 512.714844 139.796875 C 509.691406 136.53125 507.609375 132.433594 506.753906 127.8125 L 503.507812 110.289062 C 503.167969 108.457031 502.28125 106.890625 501.039062 105.765625 C 499.8125 104.65625 498.171875 103.9375 496.296875 103.78125 C 493.222656 103.519531 490.476562 103.335938 488.046875 103.234375 C 485.683594 103.136719 482.90625 103.082031 479.707031 103.082031 C 476.511719 103.082031 473.730469 103.136719 471.363281 103.234375 C 468.933594 103.335938 466.183594 103.519531 463.105469 103.78125 C 461.234375 103.9375 459.589844 104.65625 458.363281 105.769531 C 457.125 106.890625 456.242188 108.457031 455.902344 110.292969 L 452.65625 127.808594 C 451.847656 132.1875 449.941406 136.089844 447.175781 139.261719 C 447.023438 139.453125 446.867188 139.644531 446.695312 139.828125 C 443.683594 143.078125 439.753906 145.453125 435.1875 146.664062 C 428.480469 148.4375 421.925781 150.667969 415.558594 153.304688 C 409.097656 155.984375 402.863281 159.082031 396.898438 162.546875 C 392.839844 164.90625 388.386719 165.992188 383.953125 165.828125 C 379.722656 165.667969 375.550781 164.351562 371.792969 161.910156 C 371.601562 161.800781 371.414062 161.679688 371.230469 161.550781 L 358.765625 152.980469 L 358.777344 152.964844 C 357.226562 151.90625 355.421875 151.441406 353.660156 151.5625 C 351.933594 151.679688 350.222656 152.390625 348.816406 153.667969 C 345.65625 156.542969 342.632812 159.476562 339.75 162.457031 C 336.890625 165.410156 334.09375 168.496094 331.371094 171.699219 L 331.351562 171.683594 L 331.339844 171.699219 C 330.144531 173.109375 329.488281 174.792969 329.402344 176.5 C 329.316406 178.191406 329.800781 179.941406 330.871094 181.496094 L 330.863281 181.503906 L 339.1875 193.601562 L 339.171875 193.613281 L 339.1875 193.632812 C 341.859375 197.523438 343.289062 201.894531 343.457031 206.320312 C 343.621094 210.757812 342.53125 215.210938 340.175781 219.269531 C 336.710938 225.234375 333.613281 231.472656 330.933594 237.9375 C 328.296875 244.300781 326.070312 250.855469 324.296875 257.554688 C 323.160156 261.847656 320.964844 265.59375 317.960938 268.554688 C 317.800781 268.734375 317.636719 268.902344 317.457031 269.0625 C 314.199219 272.085938 310.089844 274.167969 305.4375 275.027344 L 292.039062 277.507812 C 290.328125 277.824219 288.84375 278.625 287.738281 279.75 L 287.476562 280.058594 C 286.339844 281.335938 285.621094 283.011719 285.5 284.875 C 285.347656 287.230469 285.238281 289.378906 285.179688 291.269531 C 285.128906 292.835938 285.101562 294.976562 285.101562 297.683594 C 285.101562 300.394531 285.128906 302.539062 285.179688 304.101562 C 285.238281 305.992188 285.347656 308.136719 285.5 310.492188 C 285.613281 312.238281 286.234375 313.808594 287.21875 315.039062 L 287.472656 315.3125 C 288.621094 316.609375 290.207031 317.527344 292.039062 317.867188 L 305.4375 320.34375 C 310.089844 321.203125 314.195312 323.28125 317.457031 326.304688 L 317.441406 326.320312 C 320.710938 329.355469 323.097656 333.28125 324.296875 337.816406 C 326.070312 344.519531 328.296875 351.078125 330.933594 357.4375 C 333.613281 363.902344 336.710938 370.136719 340.175781 376.101562 C 342.535156 380.160156 343.625 384.613281 343.457031 389.046875 C 343.300781 393.28125 341.984375 397.460938 339.535156 401.21875 C 339.425781 401.40625 339.3125 401.589844 339.1875 401.773438 L 330.839844 413.90625 L 330.828125 413.898438 C 329.789062 415.417969 329.316406 417.160156 329.402344 418.867188 C 329.484375 420.4375 330.042969 421.992188 331.066406 423.328125 L 331.371094 423.667969 C 334.246094 427.054688 337.050781 430.15625 339.773438 432.96875 C 342.476562 435.765625 345.5 438.683594 348.820312 441.703125 C 350.226562 442.980469 351.9375 443.695312 353.664062 443.808594 C 355.414062 443.925781 357.210938 443.460938 358.765625 442.390625 L 371.226562 433.820312 C 375.113281 431.144531 379.496094 429.714844 383.949219 429.542969 C 388.378906 429.378906 392.839844 430.464844 396.898438 432.824219 C 402.863281 436.292969 409.105469 439.390625 415.574219 442.074219 C 421.933594 444.710938 428.488281 446.941406 435.191406 448.710938 C 439.730469 449.917969 443.664062 452.308594 446.695312 455.582031 C 449.71875 458.847656 451.804688 462.945312 452.65625 467.570312 L 455.898438 485.074219 C 456.234375 486.90625 457.117188 488.472656 458.359375 489.59375 C 459.589844 490.710938 461.230469 491.429688 463.101562 491.585938 C 466.160156 491.847656 468.929688 492.03125 471.375 492.136719 Z M 410.90625 703.664062 C 410.511719 703.609375 410.121094 703.523438 409.730469 703.40625 C 393.148438 698.46875 377.527344 693.507812 357.703125 686.738281 C 338.90625 680.316406 316.023438 672.136719 284.492188 660.613281 L 264.398438 672.210938 C 265.890625 677.3125 265.886719 682.640625 264.558594 687.605469 C 262.667969 694.667969 258.078125 701.019531 251.261719 704.960938 L 218.59375 723.824219 C 218.410156 723.929688 218.226562 724.027344 218.042969 724.117188 C 211.34375 727.804688 203.765625 728.519531 196.898438 726.675781 C 189.859375 724.789062 183.511719 720.203125 179.558594 713.367188 L 179.546875 713.378906 L 112.210938 596.757812 C 112.105469 596.578125 112.007812 596.398438 111.917969 596.207031 C 108.234375 589.507812 107.523438 581.9375 109.359375 575.074219 C 111.25 568.011719 115.839844 561.65625 122.65625 557.71875 L 122.703125 557.695312 L 155.332031 538.851562 C 155.511719 538.75 155.699219 538.652344 155.882812 538.5625 C 162.582031 534.878906 170.152344 534.160156 177.019531 535.996094 C 181.988281 537.332031 186.609375 539.996094 190.28125 543.832031 L 239.875 515.199219 L 240.148438 515.027344 C 254.632812 506.210938 269.992188 501.019531 286.210938 499.464844 C 300.570312 498.085938 315.53125 499.574219 331.082031 503.929688 L 331.421875 504.011719 L 439.507812 533.140625 C 448.613281 535.589844 455.902344 541.546875 460.308594 549.167969 L 460.324219 549.160156 C 464.640625 556.628906 466.171875 565.707031 463.925781 574.65625 C 463.855469 575.027344 463.757812 575.386719 463.636719 575.738281 C 461.84375 582.027344 458.371094 587.417969 453.847656 591.558594 L 462.191406 593.808594 L 630.234375 496.675781 L 630.242188 496.691406 L 630.265625 496.675781 C 644.546875 488.433594 658.480469 491.714844 668.664062 500.285156 C 672.417969 503.441406 675.613281 507.304688 678.058594 511.527344 C 680.515625 515.765625 682.277344 520.441406 683.152344 525.207031 C 685.515625 538.054688 681.636719 551.394531 668.269531 559.289062 L 507.667969 681.222656 L 507.359375 681.476562 C 493.722656 692.355469 478.761719 699.640625 462.488281 703.335938 C 446.460938 706.976562 429.257812 707.082031 410.90625 703.664062 Z M 257.117188 658.003906 L 198.941406 557.242188 L 247.875 528.992188 C 248.074219 528.894531 248.273438 528.785156 248.46875 528.664062 L 248.988281 528.351562 L 252.097656 526.554688 C 263.421875 520.28125 275.296875 516.542969 287.710938 515.351562 C 300.097656 514.164062 313.125 515.480469 326.773438 519.300781 L 327.296875 519.460938 L 327.917969 519.628906 C 329.203125 520 330.492188 520.390625 331.785156 520.808594 C 332.402344 521.007812 333.023438 521.125 333.640625 521.171875 L 435.382812 548.589844 C 440.261719 549.902344 444.160156 553.078125 446.5 557.132812 L 446.515625 557.15625 L 446.5 557.167969 C 448.84375 561.226562 449.648438 566.183594 448.34375 571.054688 L 448.339844 571.074219 C 447.03125 575.929688 443.847656 579.820312 439.777344 582.171875 L 439.445312 582.378906 C 435.507812 584.535156 430.769531 585.265625 426.097656 584.074219 L 425.875 584.015625 L 425.871094 584.015625 L 425.839844 584.007812 L 369.179688 568.828125 C 364.914062 567.6875 360.53125 570.222656 359.390625 574.488281 C 358.25 578.753906 360.785156 583.136719 365.050781 584.273438 L 421.265625 599.335938 C 421.5625 599.4375 421.867188 599.515625 422.175781 599.582031 L 461.242188 610.117188 L 461.246094 610.105469 C 463.222656 610.632812 465.402344 610.40625 467.3125 609.300781 L 638.242188 510.5 L 638.234375 510.488281 C 645.695312 506.195312 653.023438 507.953125 658.40625 512.484375 C 660.679688 514.394531 662.664062 516.820312 664.238281 519.535156 C 665.796875 522.230469 666.910156 525.15625 667.449219 528.085938 C 668.683594 534.808594 666.746094 541.726562 659.941406 545.65625 L 659.953125 545.671875 C 659.671875 545.835938 659.394531 546.015625 659.128906 546.21875 L 498.082031 668.488281 C 497.855469 668.632812 497.632812 668.792969 497.414062 668.964844 L 496.46875 669.710938 L 494.34375 671.324219 C 483.429688 679.40625 471.640625 684.886719 458.984375 687.761719 C 445.140625 690.902344 430.128906 690.976562 413.964844 687.984375 C 397.601562 683.105469 382.214844 678.21875 362.832031 671.597656 C 342.980469 664.816406 319.238281 656.320312 286.464844 644.332031 C 284.011719 643.445312 281.402344 643.832031 279.371094 645.160156 Z M 181.214844 558.417969 L 181.140625 558.292969 L 181.101562 558.21875 L 180.800781 557.703125 L 180.550781 557.300781 C 178.820312 554.304688 176.015625 552.285156 172.890625 551.445312 C 169.867188 550.636719 166.5625 550.921875 163.648438 552.484375 L 163.339844 552.675781 L 130.667969 571.542969 L 130.664062 571.542969 C 127.667969 573.277344 125.640625 576.082031 124.808594 579.199219 C 123.996094 582.226562 124.285156 585.542969 125.855469 588.457031 L 126.035156 588.75 L 193.371094 705.371094 L 193.355469 705.378906 L 193.371094 705.402344 C 195.085938 708.378906 197.894531 710.390625 201.027344 711.226562 C 204.050781 712.039062 207.363281 711.757812 210.277344 710.195312 L 210.585938 710.003906 L 243.253906 691.136719 C 246.253906 689.402344 248.277344 686.597656 249.109375 683.476562 C 249.945312 680.351562 249.605469 676.914062 247.882812 673.929688 L 247.894531 673.917969 L 247.882812 673.894531 Z M 426.039062 291.730469 C 425.871094 293.398438 426.316406 295.117188 427.417969 296.476562 L 461.734375 338.710938 C 462.839844 340.074219 464.429688 340.863281 466.082031 341.035156 C 467.714844 341.203125 469.398438 340.78125 470.742188 339.730469 L 471.121094 339.425781 C 471.308594 339.285156 471.503906 339.125 471.691406 338.945312 C 471.871094 338.773438 472.046875 338.582031 472.207031 338.382812 L 472.210938 338.386719 L 472.238281 338.355469 L 497.648438 307.085938 L 497.679688 307.046875 L 506.554688 296.121094 L 531.992188 264.816406 C 533.097656 263.457031 533.542969 261.730469 533.371094 260.066406 C 533.203125 258.410156 532.40625 256.824219 531.046875 255.71875 C 529.6875 254.613281 527.964844 254.167969 526.300781 254.339844 C 524.644531 254.511719 523.054688 255.300781 521.949219 256.664062 L 496.757812 287.664062 L 496.589844 287.882812 L 496.542969 287.941406 L 496.539062 287.9375 L 496.511719 287.96875 L 487.636719 298.898438 L 473.152344 316.722656 C 472.785156 317.195312 472.359375 317.632812 471.875 318.023438 C 468.457031 320.804688 463.425781 320.285156 460.648438 316.867188 L 437.5 288.375 L 437.457031 288.324219 C 436.351562 286.964844 434.769531 286.171875 433.113281 286 C 431.472656 285.835938 429.78125 286.257812 428.4375 287.320312 L 428.363281 287.382812 C 427.003906 288.488281 426.210938 290.078125 426.039062 291.730469 Z M 470.742188 339.730469 L 470.828125 339.65625 Z M 470.742188 339.730469 " fill-opacity="1" fill-rule="evenodd"/></g></svg>