<svg xmlns="http://www.w3.org/2000/svg" xmlns:xlink="http://www.w3.org/1999/xlink" width="1080" zoomAndPan="magnify" viewBox="0 0 810 809.999993" height="1080" preserveAspectRatio="xMidYMid meet" version="1.0"><defs><clipPath id="b28f8fa032"><path d="M 155.386719 246.035156 L 519 246.035156 L 519 545 L 155.386719 545 Z M 155.386719 246.035156 " clip-rule="nonzero"/></clipPath><clipPath id="a6451c0342"><path d="M 455 246.035156 L 519 246.035156 L 519 319 L 455 319 Z M 455 246.035156 " clip-rule="nonzero"/></clipPath><clipPath id="f0408fa0d9"><rect x="0" width="673" y="0" height="628"/></clipPath></defs><g transform="matrix(1, 0, 0, 1, 68, 94)"><g clip-path="url(#f0408fa0d9)"><path fill="#97d700" d="M 580.9375 625.277344 L 92.753906 625.277344 C 85.375 625.277344 79.398438 619.300781 79.398438 611.917969 L 79.398438 307.675781 C 79.398438 300.296875 85.375 294.292969 92.753906 294.292969 C 100.136719 294.292969 106.113281 300.296875 106.113281 307.675781 L 106.113281 598.5625 L 567.582031 598.5625 L 567.582031 307.675781 C 567.582031 300.296875 573.558594 294.292969 580.9375 294.292969 C 588.320312 294.292969 594.296875 300.296875 594.296875 307.675781 L 594.296875 611.917969 C 594.296875 619.300781 588.320312 625.277344 580.9375 625.277344 " fill-opacity="1" fill-rule="nonzero"/><path fill="#97d700" d="M 657.515625 279.1875 C 654.632812 279.1875 651.75 278.289062 649.316406 276.386719 L 336.847656 33.84375 L 24.378906 276.386719 C 18.53125 280.910156 10.148438 279.851562 5.617188 274.03125 C 1.101562 268.1875 2.15625 259.800781 7.980469 255.277344 L 328.648438 6.367188 C 333.488281 2.628906 340.207031 2.628906 345.046875 6.367188 L 665.714844 255.277344 C 671.535156 259.800781 672.59375 268.1875 668.070312 274.03125 C 665.449219 277.417969 661.484375 279.1875 657.515625 279.1875 " fill-opacity="1" fill-rule="nonzero"/><g clip-path="url(#b28f8fa032)"><path fill="#97d700" d="M 506.832031 249.3125 C 453.515625 335.496094 400.203125 421.691406 346.894531 507.894531 L 249.25 429.375 C 246.902344 427.480469 242.84375 426.585938 240.605469 429.375 C 212.707031 464.105469 184.820312 498.835938 156.9375 533.574219 C 152.046875 539.6875 160.609375 548.355469 165.585938 542.21875 L 245.863281 442.25 L 344.15625 521.296875 C 347.238281 523.742188 351.492188 523.742188 353.753906 520.074219 C 408.308594 431.867188 462.875 343.664062 517.445312 255.476562 C 521.542969 248.761719 510.964844 242.621094 506.832031 249.3125 Z M 506.832031 249.3125 " fill-opacity="1" fill-rule="nonzero"/></g><g clip-path="url(#a6451c0342)"><path fill="#97d700" d="M 509.019531 247.109375 L 457.820312 284.027344 C 451.496094 288.578125 457.585938 299.191406 463.933594 294.582031 L 504.019531 265.683594 C 501.769531 280.710938 499.214844 295.691406 496.363281 310.625 C 494.894531 318.316406 506.683594 321.628906 508.164062 313.878906 C 511.953125 294.011719 515.214844 274.058594 517.945312 254.019531 C 518.667969 249.433594 513.910156 243.589844 509.019531 247.109375 Z M 509.019531 247.109375 " fill-opacity="1" fill-rule="nonzero"/></g></g></g></svg>