<svg xmlns="http://www.w3.org/2000/svg" xmlns:xlink="http://www.w3.org/1999/xlink" width="1080" zoomAndPan="magnify" viewBox="0 0 810 809.999993" height="1080" preserveAspectRatio="xMidYMid meet" version="1.0"><defs><clipPath id="9f40e192a6"><path d="M 229 76 L 563 76 L 563 728.726562 L 229 728.726562 Z M 229 76 " clip-rule="nonzero"/></clipPath><clipPath id="71978fcb42"><path d="M 493 283 L 732 283 L 732 728.726562 L 493 728.726562 Z M 493 283 " clip-rule="nonzero"/></clipPath><clipPath id="130f8ff1c2"><path d="M 71 283 L 310 283 L 310 728.726562 L 71 728.726562 Z M 71 283 " clip-rule="nonzero"/></clipPath></defs><g clip-path="url(#9f40e192a6)"><path fill="#97d700" d="M 553.742188 220.933594 L 418.304688 85.496094 C 406.082031 73.277344 386.273438 73.277344 374.050781 85.496094 L 238.613281 220.933594 C 226.390625 233.15625 226.390625 252.96875 238.613281 265.191406 C 244.726562 271.300781 252.734375 274.355469 260.742188 274.355469 C 268.75 274.355469 276.757812 271.300781 282.867188 265.191406 L 364.175781 183.882812 L 364.175781 697.773438 C 364.175781 715.058594 378.1875 729.066406 395.46875 729.066406 C 412.75 729.066406 426.761719 715.058594 426.761719 697.773438 L 426.761719 182.460938 L 509.488281 265.191406 C 515.601562 271.300781 523.609375 274.355469 531.617188 274.355469 C 539.625 274.355469 547.632812 271.300781 553.742188 265.191406 C 565.964844 252.96875 565.964844 233.15625 553.742188 220.933594 " fill-opacity="1" fill-rule="nonzero"/></g><g clip-path="url(#71978fcb42)"><path fill="#97d700" d="M 722.664062 380.273438 L 634.6875 292.292969 C 622.46875 280.070312 602.652344 280.070312 590.429688 292.292969 L 502.453125 380.273438 C 490.234375 392.496094 490.234375 412.304688 502.453125 424.527344 C 508.5625 430.636719 516.570312 433.691406 524.578125 433.691406 C 532.59375 433.691406 540.601562 430.636719 546.707031 424.527344 L 580.804688 390.433594 L 580.804688 697.773438 C 580.804688 715.058594 594.816406 729.066406 612.097656 729.066406 C 629.378906 729.066406 643.390625 715.058594 643.390625 697.773438 L 643.390625 389.507812 L 678.410156 424.527344 C 684.523438 430.636719 692.53125 433.691406 700.539062 433.691406 C 708.546875 433.691406 716.554688 430.636719 722.664062 424.527344 C 734.886719 412.304688 734.886719 392.496094 722.664062 380.273438 " fill-opacity="1" fill-rule="nonzero"/></g><g clip-path="url(#130f8ff1c2)"><path fill="#97d700" d="M 300.835938 380.273438 L 212.859375 292.292969 C 200.636719 280.070312 180.820312 280.070312 168.597656 292.292969 L 80.617188 380.273438 C 68.402344 392.496094 68.402344 412.304688 80.617188 424.527344 C 86.730469 430.636719 94.738281 433.691406 102.746094 433.691406 C 110.757812 433.691406 118.761719 430.636719 124.878906 424.527344 L 158.972656 390.433594 L 158.972656 697.773438 C 158.972656 715.058594 172.984375 729.066406 190.265625 729.066406 C 207.546875 729.066406 221.558594 715.058594 221.558594 697.773438 L 221.558594 389.507812 L 256.578125 424.527344 C 262.6875 430.636719 270.695312 433.691406 278.703125 433.691406 C 286.71875 433.691406 294.722656 430.636719 300.835938 424.527344 C 313.054688 412.304688 313.054688 392.496094 300.835938 380.273438 " fill-opacity="1" fill-rule="nonzero"/></g></svg>