<svg xmlns="http://www.w3.org/2000/svg" xmlns:xlink="http://www.w3.org/1999/xlink" width="1080" zoomAndPan="magnify" viewBox="0 0 810 809.999993" height="1080" preserveAspectRatio="xMidYMid meet" version="1.0"><defs><clipPath id="0189d72f24"><path d="M 168 95.335938 L 429 95.335938 L 429 165 L 168 165 Z M 168 95.335938 " clip-rule="nonzero"/></clipPath><clipPath id="e2852d31fc"><path d="M 77.726562 654 L 725.726562 654 L 725.726562 706.585938 L 77.726562 706.585938 Z M 77.726562 654 " clip-rule="nonzero"/></clipPath></defs><path fill="#97d700" d="M 467.15625 670.054688 L 129.613281 670.054688 C 125.4375 670.054688 122.019531 666.636719 122.019531 662.460938 L 122.019531 156.972656 C 122.019531 152.796875 125.4375 149.378906 129.613281 149.378906 L 467.15625 149.378906 C 471.332031 149.378906 474.75 152.796875 474.75 156.972656 L 474.75 662.460938 C 474.75 666.636719 471.332031 670.054688 467.15625 670.054688 Z M 137.207031 654.867188 L 459.5625 654.867188 L 459.5625 164.566406 L 137.207031 164.566406 Z M 137.207031 654.867188 " fill-opacity="1" fill-rule="evenodd"/><path fill="#97d700" d="M 347.808594 670.054688 L 249.089844 670.054688 C 244.914062 670.054688 241.496094 666.636719 241.496094 662.460938 L 241.496094 550.328125 C 241.496094 534.507812 254.40625 521.597656 270.226562 521.597656 L 326.546875 521.597656 C 342.367188 521.597656 355.277344 534.503906 355.277344 550.324219 L 355.277344 662.460938 C 355.277344 664.484375 354.515625 666.382812 353 667.773438 C 351.734375 669.167969 349.835938 670.054688 347.808594 670.054688 Z M 256.683594 654.867188 L 340.214844 654.867188 L 340.214844 550.328125 C 340.214844 542.859375 334.140625 536.785156 326.675781 536.785156 L 270.351562 536.785156 C 262.886719 536.785156 256.8125 542.859375 256.8125 550.324219 L 256.8125 654.867188 Z M 256.683594 654.867188 " fill-opacity="1" fill-rule="evenodd"/><g clip-path="url(#0189d72f24)"><path fill="#97d700" d="M 420.457031 164.566406 L 176.445312 164.566406 C 172.265625 164.566406 168.851562 161.148438 168.851562 156.972656 L 168.851562 103.308594 C 168.851562 99.132812 172.265625 95.714844 176.445312 95.714844 L 420.582031 95.714844 C 424.757812 95.714844 428.175781 99.132812 428.175781 103.308594 L 428.175781 156.972656 C 428.046875 161.148438 424.632812 164.566406 420.453125 164.566406 Z M 184.039062 149.378906 L 412.988281 149.378906 L 412.988281 110.902344 L 184.039062 110.902344 Z M 184.039062 149.378906 " fill-opacity="1" fill-rule="evenodd"/></g><path fill="#97d700" d="M 258.203125 284.042969 L 181.125 284.042969 C 176.949219 284.042969 173.53125 280.625 173.53125 276.449219 L 173.53125 210.632812 C 173.53125 206.457031 176.949219 203.039062 181.125 203.039062 L 258.203125 203.039062 C 262.378906 203.039062 265.796875 206.457031 265.796875 210.632812 L 265.796875 276.449219 C 265.796875 280.625 262.378906 284.042969 258.203125 284.042969 Z M 188.71875 268.855469 L 250.609375 268.855469 L 250.609375 218.226562 L 188.71875 218.226562 Z M 188.71875 268.855469 " fill-opacity="1" fill-rule="evenodd"/><path fill="#97d700" d="M 415.644531 284.042969 L 338.570312 284.042969 C 334.394531 284.042969 330.976562 280.625 330.976562 276.449219 L 330.976562 210.632812 C 330.976562 206.457031 334.394531 203.039062 338.570312 203.039062 L 415.644531 203.039062 C 419.820312 203.039062 423.238281 206.457031 423.238281 210.632812 L 423.238281 276.449219 C 423.238281 280.625 419.949219 284.042969 415.644531 284.042969 Z M 346.164062 268.855469 L 408.050781 268.855469 L 408.050781 218.226562 L 346.164062 218.226562 Z M 346.164062 268.855469 " fill-opacity="1" fill-rule="evenodd"/><path fill="#97d700" d="M 258.078125 385.292969 L 181 385.292969 C 176.824219 385.292969 173.40625 381.875 173.40625 377.699219 L 173.40625 311.882812 C 173.40625 307.707031 176.824219 304.289062 181 304.289062 L 258.078125 304.289062 C 262.253906 304.289062 265.671875 307.707031 265.671875 311.882812 L 265.671875 377.699219 C 265.671875 381.875 262.253906 385.292969 258.078125 385.292969 Z M 188.59375 370.105469 L 250.484375 370.105469 L 250.484375 319.476562 L 188.59375 319.476562 Z M 188.59375 370.105469 " fill-opacity="1" fill-rule="evenodd"/><path fill="#97d700" d="M 415.519531 385.292969 L 338.445312 385.292969 C 334.265625 385.292969 330.851562 381.875 330.851562 377.699219 L 330.851562 311.882812 C 330.851562 307.707031 334.265625 304.289062 338.445312 304.289062 L 415.519531 304.289062 C 419.695312 304.289062 423.113281 307.707031 423.113281 311.882812 L 423.113281 377.699219 C 423.113281 381.875 419.695312 385.292969 415.519531 385.292969 Z M 346.039062 370.105469 L 407.925781 370.105469 L 407.925781 319.476562 L 346.039062 319.476562 Z M 346.039062 370.105469 " fill-opacity="1" fill-rule="evenodd"/><path fill="#97d700" d="M 257.949219 486.539062 L 180.746094 486.539062 C 176.570312 486.539062 173.152344 483.121094 173.152344 478.945312 L 173.152344 413.132812 C 173.152344 408.957031 176.570312 405.539062 180.746094 405.539062 L 257.824219 405.539062 C 262 405.539062 265.417969 408.957031 265.417969 413.132812 L 265.417969 478.945312 C 265.542969 483.121094 262.125 486.539062 257.949219 486.539062 Z M 188.339844 471.351562 L 250.230469 471.351562 L 250.230469 420.726562 L 188.339844 420.726562 Z M 188.339844 471.351562 " fill-opacity="1" fill-rule="evenodd"/><path fill="#97d700" d="M 415.394531 486.539062 L 338.316406 486.539062 C 334.140625 486.539062 330.722656 483.121094 330.722656 478.945312 L 330.722656 413.132812 C 330.722656 408.957031 334.140625 405.539062 338.316406 405.539062 L 415.394531 405.539062 C 419.570312 405.539062 422.988281 408.957031 422.988281 413.132812 L 422.988281 478.945312 C 422.988281 483.121094 419.570312 486.539062 415.394531 486.539062 Z M 345.910156 471.351562 L 407.800781 471.351562 L 407.800781 420.726562 L 345.910156 420.726562 Z M 345.910156 471.351562 " fill-opacity="1" fill-rule="evenodd"/><path fill="#97d700" d="M 600.554688 410.980469 L 540.4375 410.980469 C 536.257812 410.980469 532.84375 407.5625 532.84375 403.386719 L 532.84375 347.828125 C 532.84375 343.652344 536.257812 340.234375 540.4375 340.234375 L 600.554688 340.234375 C 604.730469 340.234375 608.148438 343.652344 608.148438 347.828125 L 608.148438 403.386719 C 608.148438 407.5625 604.730469 410.980469 600.554688 410.980469 Z M 548.03125 395.796875 L 592.960938 395.796875 L 592.960938 355.421875 L 548.03125 355.421875 Z M 548.03125 395.796875 " fill-opacity="1" fill-rule="evenodd"/><path fill="#97d700" d="M 600.554688 504.890625 L 540.4375 504.890625 C 536.257812 504.890625 532.84375 501.472656 532.84375 497.296875 L 532.84375 441.734375 C 532.84375 437.558594 536.257812 434.140625 540.4375 434.140625 L 600.554688 434.140625 C 604.730469 434.140625 608.148438 437.558594 608.148438 441.734375 L 608.148438 497.296875 C 608.148438 501.597656 604.730469 504.890625 600.554688 504.890625 Z M 548.03125 489.703125 L 592.960938 489.703125 L 592.960938 449.328125 L 548.03125 449.328125 Z M 548.03125 489.703125 " fill-opacity="1" fill-rule="evenodd"/><path fill="#97d700" d="M 600.554688 598.925781 L 540.4375 598.925781 C 536.257812 598.925781 532.84375 595.507812 532.84375 591.332031 L 532.84375 535.769531 C 532.84375 531.59375 536.257812 528.175781 540.4375 528.175781 L 600.554688 528.175781 C 604.730469 528.175781 608.148438 531.59375 608.148438 535.769531 L 608.148438 591.332031 C 608.148438 595.507812 604.730469 598.925781 600.554688 598.925781 Z M 548.03125 583.738281 L 592.960938 583.738281 L 592.960938 543.363281 L 548.03125 543.363281 Z M 548.03125 583.738281 " fill-opacity="1" fill-rule="evenodd"/><path fill="#97d700" d="M 673.832031 670.054688 L 467.15625 670.054688 C 462.980469 670.054688 459.5625 666.636719 459.5625 662.460938 L 459.5625 311.882812 C 459.5625 307.707031 462.980469 304.289062 467.15625 304.289062 L 673.832031 304.289062 C 678.011719 304.289062 681.425781 307.707031 681.425781 311.882812 L 681.425781 662.460938 C 681.425781 666.636719 678.011719 670.054688 673.832031 670.054688 Z M 474.75 654.867188 L 666.238281 654.867188 L 666.238281 319.476562 L 474.75 319.476562 Z M 474.75 654.867188 " fill-opacity="1" fill-rule="evenodd"/><g clip-path="url(#e2852d31fc)"><path fill="#97d700" d="M 718.128906 706.503906 L 85.320312 706.503906 C 81.140625 706.503906 77.726562 703.085938 77.726562 698.910156 L 77.726562 662.332031 C 77.726562 658.15625 81.140625 654.738281 85.320312 654.738281 L 718.128906 654.738281 C 722.308594 654.738281 725.722656 658.15625 725.722656 662.332031 L 725.722656 698.910156 C 725.722656 703.085938 722.308594 706.503906 718.128906 706.503906 Z M 92.914062 691.316406 L 710.535156 691.316406 L 710.535156 669.925781 L 92.914062 669.925781 Z M 92.914062 691.316406 " fill-opacity="1" fill-rule="evenodd"/></g></svg>