<svg xmlns="http://www.w3.org/2000/svg" xmlns:xlink="http://www.w3.org/1999/xlink" width="1080" zoomAndPan="magnify" viewBox="0 0 810 809.999993" height="1080" preserveAspectRatio="xMidYMid meet" version="1.0"><path fill="#97d700" d="M 287.703125 432.25 L 515.320312 432.25 C 517.847656 434.773438 516.914062 440.09375 515.816406 443.21875 C 508.269531 463.96875 486.621094 477.828125 465.917969 477.828125 L 338.59375 477.828125 C 317.9375 477.828125 296.585938 463.828125 288.695312 443.21875 C 287.359375 439.796875 287.65625 435.929688 287.703125 432.25 Z M 287.703125 414.234375 C 279.164062 414.234375 271.96875 421.132812 270.023438 428.140625 C 268.085938 435.183594 269.136719 442.582031 271.917969 449.785156 C 282.785156 477.496094 310.046875 495.855469 338.59375 495.855469 L 465.929688 495.855469 C 494.523438 495.855469 521.785156 477.484375 532.648438 449.785156 C 535.386719 442.734375 536.375 435.488281 534.394531 428.636719 C 532.363281 421.839844 526.007812 415.777344 518.351562 414.386719 C 517.855469 414.28125 517.3125 414.234375 516.816406 414.234375 Z M 287.703125 414.234375 " fill-opacity="1" fill-rule="evenodd"/><path fill="#97d700" d="M 628.109375 416.910156 C 639.480469 416.910156 646.933594 418.597656 651.339844 421.03125 C 655.714844 423.507812 657.945312 426.394531 659.773438 432.304688 C 665.835938 452.207031 649.699219 476.445312 629.644531 476.445312 L 590.230469 476.445312 C 578.257812 476.445312 572.757812 472.757812 569.917969 468.898438 C 567.089844 465.019531 566.6875 459.863281 568.078125 455.695312 C 570.519531 448.347656 580.203125 437.625 592.261719 429.78125 C 604.386719 421.925781 618.835938 416.863281 628.109375 416.910156 Z M 582.433594 414.625 C 568.136719 423.917969 555.734375 435.679688 550.96875 449.976562 C 547.890625 459.308594 548.789062 470.480469 555.429688 479.515625 C 562.035156 488.550781 574.199219 494.460938 590.242188 494.460938 L 629.652344 494.460938 C 663.167969 494.460938 686.691406 458.765625 677.015625 427.042969 C 674.234375 417.902344 668.523438 409.964844 660.042969 405.300781 C 651.605469 400.640625 641.167969 398.898438 627.070312 398.898438 C 613.03125 398.839844 596.730469 405.398438 582.433594 414.625 Z M 582.433594 414.625 " fill-opacity="1" fill-rule="evenodd"/><path fill="#97d700" d="M 176.296875 416.910156 C 185.589844 416.863281 200.023438 421.917969 212.144531 429.769531 C 224.203125 437.613281 233.886719 448.289062 235.824219 454.09375 C 237.699219 459.898438 237.261719 465.007812 234.441406 468.886719 C 231.550781 472.75 226.042969 476.476562 214.082031 476.476562 L 174.761719 476.476562 C 154.753906 476.476562 138.53125 452.152344 144.574219 432.296875 C 146.414062 426.386719 148.609375 423.5 153.011719 421.019531 C 157.433594 418.597656 164.9375 416.910156 176.296875 416.910156 Z M 176.25 398.886719 C 163.199219 398.886719 152.773438 400.574219 144.289062 405.292969 C 135.855469 409.953125 130.136719 417.902344 127.363281 427.035156 C 117.675781 458.757812 141.304688 494.492188 174.761719 494.492188 L 214.082031 494.492188 C 230.171875 494.492188 242.332031 488.628906 248.976562 479.613281 C 255.621094 470.527344 256.527344 459.355469 253.445312 450.015625 C 248.679688 435.71875 236.214844 423.910156 221.917969 414.625 C 207.570312 405.398438 191.347656 398.792969 176.25 398.886719 Z M 176.25 398.886719 " fill-opacity="1" fill-rule="evenodd"/><path fill="#97d700" d="M 402.1875 194.402344 C 445.578125 194.453125 492.484375 196.089844 532.050781 199.066406 C 544.019531 199.96875 555.039062 206.660156 563.191406 221.0625 C 581.0625 252.738281 595.40625 282.667969 606.378906 314.398438 C 593.121094 315.78125 488.765625 327.199219 402.199219 327.199219 C 315.660156 327.199219 211.308594 315.789062 198.058594 314.398438 C 209.039062 282.667969 223.421875 252.785156 241.257812 221.0625 C 249.339844 206.71875 260.367188 199.96875 272.378906 199.066406 C 311.925781 196.089844 358.847656 194.453125 402.1875 194.402344 Z M 402.1875 176.378906 C 358.449219 176.484375 311.191406 178.066406 271.023438 181.097656 C 252.808594 182.5 236.03125 193.667969 225.546875 212.277344 C 205.539062 247.875 187.375 281.828125 175.800781 319.957031 C 174.210938 325.320312 177.890625 330.871094 183.503906 331.46875 C 183.503906 331.46875 308.511719 345.167969 402.1875 345.167969 C 495.914062 345.167969 621.007812 331.46875 621.007812 331.46875 C 626.574219 330.832031 630.199219 325.320312 628.605469 319.957031 C 617.042969 281.828125 598.914062 247.867188 578.859375 212.277344 C 568.335938 193.621094 551.648438 182.5 533.488281 181.097656 C 493.332031 178.074219 446.015625 176.4375 402.1875 176.378906 Z M 402.1875 176.378906 " fill-opacity="1" fill-rule="evenodd"/><path fill="#97d700" d="M 600.507812 590.464844 L 675.167969 590.464844 L 675.167969 636.246094 C 675.167969 641.460938 671.25 645.386719 666.027344 645.386719 L 609.589844 645.386719 C 604.328125 645.386719 600.507812 641.507812 600.507812 636.246094 Z M 129.132812 590.464844 L 203.902344 590.464844 L 203.902344 636.246094 C 203.902344 641.507812 200.023438 645.386719 194.761719 645.386719 L 138.21875 645.386719 C 133.003906 645.386719 129.132812 641.507812 129.132812 636.246094 Z M 402.1875 156.820312 C 454.660156 156.820312 507.6875 156.621094 557.824219 163.570312 C 578.078125 166.457031 590.382812 177.675781 600.363281 192.363281 C 624.601562 228.011719 640.328125 265.9375 654.285156 304.953125 C 655.820312 309.269531 659.890625 312.109375 664.503906 312.109375 L 727.257812 312.109375 C 733.167969 312.109375 736.636719 314.140625 738.667969 316.773438 C 740.660156 319.402344 741.746094 323.175781 740.203125 328.933594 C 737.878906 337.714844 735.789062 342.34375 732.359375 345.757812 C 728.9375 349.140625 722.875 352.515625 710.121094 355.488281 L 699.644531 357.863281 C 692.792969 359.453125 689.273438 367.15625 692.542969 373.410156 C 700.292969 388.15625 705.460938 403.347656 705.460938 415.207031 L 705.460938 535.992188 C 705.460938 550.632812 695.089844 563.644531 683.507812 568.855469 L 120.898438 568.855469 C 109.382812 563.644531 99.003906 550.632812 99.003906 535.992188 L 99.003906 415.226562 C 99.003906 403.367188 104.125 388.164062 111.863281 373.429688 C 115.140625 367.175781 111.605469 359.472656 104.761719 357.882812 L 94.285156 355.507812 C 81.523438 352.535156 74.984375 349.703125 72.050781 345.824219 C 64.308594 335.796875 61.574219 328.296875 65.796875 316.78125 C 66.941406 313.65625 71.257812 312.121094 77.167969 312.121094 L 139.960938 312.121094 C 144.527344 312.121094 148.609375 309.289062 150.140625 304.960938 C 164.085938 265.996094 179.832031 228.023438 204.054688 192.375 C 213.976562 177.734375 226.347656 166.410156 246.554688 163.578125 C 296.738281 156.621094 349.765625 156.820312 402.1875 156.820312 Z M 402.1875 135.230469 C 349.8125 135.230469 295.855469 134.925781 243.570312 142.238281 C 216.425781 146.011719 198.097656 162.632812 186.191406 180.257812 C 162.007812 215.859375 146.769531 253.28125 133.167969 290.523438 L 77.167969 290.523438 C 65.644531 290.523438 55.121094 295.238281 48.65625 303.628906 C 42.253906 311.96875 40.316406 323.425781 43.292969 334.546875 C 45.96875 344.488281 49.25 353.714844 56.75 361.160156 C 64.097656 368.511719 74.621094 372.828125 88.863281 376.210938 C 83.304688 389.023438 77.300781 401.917969 77.300781 415.226562 L 77.300781 536.011719 C 77.300781 557.90625 90.863281 574.679688 107.535156 584.363281 L 107.535156 636.246094 C 107.535156 653.023438 121.441406 666.976562 138.21875 666.976562 L 194.761719 666.976562 C 211.601562 666.976562 225.492188 653.070312 225.492188 636.246094 L 225.492188 590.464844 L 578.917969 590.464844 L 578.917969 636.246094 C 578.917969 653.023438 592.765625 666.976562 609.597656 666.976562 L 666.035156 666.976562 C 682.820312 666.976562 696.765625 653.070312 696.765625 636.246094 L 696.765625 584.363281 C 713.503906 574.679688 727.105469 557.90625 727.105469 536.011719 L 727.105469 415.226562 C 727.105469 401.917969 721.09375 389.023438 715.59375 376.210938 C 729.84375 372.828125 740.261719 368.511719 747.65625 361.160156 C 755.160156 353.714844 758.4375 344.488281 761.066406 334.546875 C 764.042969 323.425781 762.164062 311.96875 755.757812 303.628906 C 749.351562 295.238281 738.78125 290.472656 727.269531 290.472656 L 671.269531 290.472656 C 657.609375 253.234375 642.472656 215.8125 618.246094 180.210938 C 606.273438 162.585938 588.113281 146.011719 560.855469 142.238281 C 508.574219 134.925781 454.558594 135.230469 402.1875 135.230469 Z M 402.1875 135.230469 " fill-opacity="1" fill-rule="evenodd"/></svg>