<svg xmlns="http://www.w3.org/2000/svg" xmlns:xlink="http://www.w3.org/1999/xlink" width="1080" zoomAndPan="magnify" viewBox="0 0 810 809.999993" height="1080" preserveAspectRatio="xMidYMid meet" version="1.0"><path fill="#97d700" d="M 559.785156 463.054688 C 557.214844 467.023438 553.238281 469.71875 548.097656 470.753906 C 538.808594 472.601562 529.644531 466.578125 527.691406 457.355469 L 514.09375 391.554688 C 511.257812 377.863281 503.433594 365.84375 492.050781 357.71875 L 486.199219 353.53125 C 483.085938 320.730469 477.109375 295.164062 470.898438 276.097656 L 515.871094 310.773438 C 527.425781 319.675781 535.558594 332.414062 538.78125 346.625 L 562.160156 449.757812 C 563.203125 454.367188 562.359375 459.089844 559.785156 463.054688 Z M 543.488281 657.066406 C 549.222656 666.707031 546.507812 679.285156 536.871094 686.011719 C 528.136719 692.113281 516.4375 690.957031 509.378906 683.640625 L 429.960938 590.421875 C 423.75 583.125 399.945312 515.539062 380.347656 453.933594 L 380.347656 398.734375 C 390.433594 391.648438 398.90625 382.320312 404.945312 371.496094 L 427.492188 331.046875 C 429.726562 327.03125 428.289062 321.972656 424.277344 319.738281 C 420.273438 317.5 415.203125 318.9375 412.972656 322.949219 L 390.425781 363.402344 C 383.375 376.046875 372.152344 386.121094 358.824219 391.777344 L 267.277344 430.617188 C 259.476562 433.9375 250.476562 430.859375 246.085938 423.085938 C 241.882812 415.632812 244.089844 406.117188 251.085938 401.261719 L 339.296875 353.421875 C 341.5625 352.195312 343.125 349.988281 343.542969 347.445312 L 355.28125 274.746094 C 360.898438 252.640625 380.6875 237.234375 403.523438 237.234375 L 404.332031 237.234375 C 413.011719 237.234375 421.242188 239.421875 428.433594 243.363281 C 428.445312 243.367188 428.453125 243.375 428.460938 243.386719 L 440.476562 252.648438 C 444.765625 257.179688 448.238281 262.582031 450.617188 268.671875 C 461.621094 296.886719 474.167969 346.582031 471.394531 423.101562 L 467.222656 545.761719 C 467.164062 547.570312 467.691406 549.347656 468.734375 550.828125 Z M 384.839844 526.898438 L 331.726562 572.96875 C 330.300781 574.199219 329.339844 575.886719 328.992188 577.746094 L 311.707031 671.910156 C 310.699219 677.765625 307.429688 682.832031 302.507812 686.152344 C 297.589844 689.488281 291.648438 690.648438 285.285156 689.265625 C 274.4375 686.945312 267.132812 676.871094 268.300781 665.886719 L 280.675781 555.851562 C 281.882812 544.476562 287.269531 534.046875 295.839844 526.46875 L 366.191406 464.257812 C 370.398438 477.386719 378.191406 501.375 386.605469 525.734375 C 385.980469 526.046875 385.390625 526.425781 384.839844 526.898438 Z M 333.753906 162.277344 C 333.753906 130.105469 359.929688 103.9375 392.09375 103.9375 C 424.265625 103.9375 450.433594 130.105469 450.433594 162.277344 C 450.433594 194.445312 424.265625 220.609375 392.09375 220.609375 C 359.929688 220.609375 333.753906 194.445312 333.753906 162.277344 Z M 578.363281 446.082031 L 554.988281 342.957031 C 550.917969 324.976562 540.632812 308.875 526.023438 297.609375 L 451.660156 240.273438 C 445.808594 234.324219 438.875 229.542969 431.210938 226.191406 C 452.695312 212.992188 467.054688 189.28125 467.054688 162.277344 C 467.054688 120.941406 433.429688 87.316406 392.09375 87.316406 C 350.765625 87.316406 317.132812 120.941406 317.132812 162.277344 C 317.132812 194.320312 337.347656 221.710938 365.6875 232.417969 C 352.75 241.382812 343.058594 254.894531 339.058594 271.078125 C 339.011719 271.300781 338.960938 271.523438 338.921875 271.746094 L 327.785156 340.757812 L 242.800781 386.84375 C 242.578125 386.960938 242.367188 387.09375 242.160156 387.230469 C 227.734375 396.816406 223.097656 416.152344 231.832031 431.648438 C 240.148438 446.394531 258.15625 452.515625 273.769531 445.921875 L 363.722656 407.753906 L 363.722656 444.25 L 284.824219 514.015625 C 273.136719 524.347656 265.785156 538.585938 264.152344 554.042969 L 251.773438 664.085938 C 249.707031 683.597656 262.609375 701.414062 282.375 705.648438 C 285.085938 706.230469 287.800781 706.511719 290.496094 706.511719 C 298.039062 706.511719 305.40625 704.265625 311.824219 699.925781 C 320.53125 694.035156 326.308594 685.089844 328.078125 674.820312 L 344.820312 583.613281 L 392.417969 542.332031 C 402.304688 570.078125 412.132812 595.117188 417.3125 601.199219 L 497.054688 694.792969 C 504.472656 702.507812 514.335938 706.5 524.394531 706.5 C 532.101562 706.5 539.910156 704.15625 546.816406 699.339844 C 563.125 687.960938 567.9375 665.660156 557.429688 648.039062 L 483.933594 543.542969 L 488.007812 423.683594 C 488.628906 406.492188 488.496094 390.582031 487.789062 375.902344 C 492.832031 381.132812 496.316406 387.691406 497.804688 394.921875 L 511.414062 460.757812 C 514.78125 476.625 528.921875 487.636719 544.921875 487.636719 C 547.207031 487.636719 549.53125 487.414062 551.867188 486.945312 C 560.9375 485.132812 568.699219 479.863281 573.734375 472.097656 C 578.765625 464.339844 580.410156 455.101562 578.363281 446.082031 " fill-opacity="1" fill-rule="nonzero"/></svg>