<svg xmlns="http://www.w3.org/2000/svg" xmlns:xlink="http://www.w3.org/1999/xlink" width="1080" zoomAndPan="magnify" viewBox="0 0 810 809.999993" height="1080" preserveAspectRatio="xMidYMid meet" version="1.0"><defs><clipPath id="b5461cae08"><path d="M 81 81 L 729 81 L 729 706.5 L 81 706.5 Z M 81 81 " clip-rule="nonzero"/></clipPath><clipPath id="a4ed27afd6"><path d="M 112.105469 383.652344 L 261.15625 383.652344 L 261.15625 655.851562 L 112.105469 655.851562 Z M 112.105469 383.652344 " clip-rule="nonzero"/></clipPath><clipPath id="73499a5b46"><path d="M 0.105469 0.652344 L 149.15625 0.652344 L 149.15625 272.851562 L 0.105469 272.851562 Z M 0.105469 0.652344 " clip-rule="nonzero"/></clipPath><clipPath id="2ab1e06707"><rect x="0" width="150" y="0" height="273"/></clipPath><clipPath id="c8894e3e2b"><path d="M 176.472656 411.582031 L 293.785156 411.582031 L 293.785156 562.15625 L 176.472656 562.15625 Z M 176.472656 411.582031 " clip-rule="nonzero"/></clipPath><clipPath id="30e59f9d82"><path d="M 0.472656 0.582031 L 117.785156 0.582031 L 117.785156 151.15625 L 0.472656 151.15625 Z M 0.472656 0.582031 " clip-rule="nonzero"/></clipPath><clipPath id="4398f4bbdc"><rect x="0" width="118" y="0" height="152"/></clipPath><clipPath id="d15399df16"><path d="M 215.195312 455.890625 L 332.507812 455.890625 L 332.507812 540.445312 L 215.195312 540.445312 Z M 215.195312 455.890625 " clip-rule="nonzero"/></clipPath><clipPath id="88bb05d149"><path d="M 0.195312 0.890625 L 117.507812 0.890625 L 117.507812 85.445312 L 0.195312 85.445312 Z M 0.195312 0.890625 " clip-rule="nonzero"/></clipPath><clipPath id="dd60fa61a8"><rect x="0" width="118" y="0" height="86"/></clipPath></defs><g clip-path="url(#b5461cae08)"><path fill="#10069f" d="M 711.015625 240.4375 C 702.53125 231.953125 691.566406 225.960938 679.355469 223.644531 C 690.613281 200.453125 698.902344 179.074219 698.902344 165.503906 C 698.902344 142.167969 689.445312 121.050781 674.15625 105.761719 L 674.109375 105.761719 C 658.820312 90.457031 637.703125 81 614.398438 81 C 591.0625 81 569.945312 90.457031 554.65625 105.746094 C 539.367188 121.035156 529.910156 142.167969 529.910156 165.488281 C 529.910156 178.882812 537.910156 199.804688 548.890625 222.542969 L 141.964844 222.542969 C 141.914062 222.542969 141.882812 222.542969 141.835938 222.542969 C 140.992188 222.542969 140.148438 222.574219 139.292969 222.605469 C 138.726562 222.640625 138.15625 222.671875 137.574219 222.722656 C 137.363281 222.738281 137.171875 222.738281 136.960938 222.753906 C 136.863281 222.753906 136.75 222.769531 136.652344 222.785156 C 122.011719 224.066406 108.8125 230.558594 98.964844 240.40625 C 87.953125 251.449219 81.105469 266.671875 81.105469 283.417969 L 81.105469 645.695312 C 81.105469 662.441406 87.953125 677.664062 98.984375 688.695312 C 110.011719 699.722656 125.234375 706.574219 141.980469 706.574219 L 596.195312 706.574219 C 596.195312 706.574219 596.210938 706.574219 596.210938 706.574219 L 668.035156 706.574219 C 668.910156 706.574219 669.816406 706.539062 670.722656 706.507812 C 671.242188 706.492188 671.761719 706.445312 672.261719 706.410156 C 672.523438 706.394531 672.78125 706.378906 673.054688 706.363281 C 673.167969 706.347656 673.285156 706.332031 673.398438 706.332031 C 673.945312 706.28125 674.496094 706.21875 675.03125 706.152344 C 675.066406 706.152344 675.113281 706.136719 675.144531 706.136719 C 688.734375 704.53125 701.007812 698.394531 710.386719 689.292969 L 711.035156 688.710938 C 722.0625 677.679688 728.914062 662.457031 728.914062 645.714844 L 728.914062 283.433594 C 728.894531 266.671875 722.046875 251.449219 711.015625 240.4375 Z M 569.378906 120.464844 C 580.890625 108.953125 596.828125 101.828125 614.398438 101.828125 C 632.003906 101.828125 647.921875 108.953125 659.421875 120.464844 C 670.933594 131.980469 678.0625 147.917969 678.0625 165.488281 C 678.0625 188.242188 644.132812 247.140625 621.183594 286.964844 L 614.382812 298.804688 L 607.5 286.851562 C 597.605469 269.703125 585.703125 249.039062 575.351562 229.261719 C 575.0625 228.503906 574.6875 227.773438 574.21875 227.09375 C 561.070312 201.765625 550.703125 178.152344 550.703125 165.503906 C 550.722656 147.917969 557.847656 131.996094 569.378906 120.464844 Z M 368.789062 402.675781 L 651.875 685.761719 L 600.519531 685.761719 L 474.785156 560.027344 C 470.71875 555.960938 464.128906 555.960938 460.0625 560.027344 L 334.324219 685.761719 L 282.972656 685.761719 L 434.394531 534.339844 C 438.457031 530.277344 438.457031 523.683594 434.394531 519.621094 L 158.140625 243.386719 L 209.496094 243.386719 L 328.382812 362.269531 C 332.445312 366.335938 339.039062 366.335938 343.101562 362.269531 L 461.988281 243.386719 L 513.34375 243.386719 L 368.773438 387.957031 C 364.722656 392.003906 364.722656 398.613281 368.789062 402.675781 Z M 571.0625 685.746094 L 363.769531 685.746094 L 467.414062 582.101562 Z M 238.9375 243.386719 L 432.546875 243.386719 L 335.734375 340.199219 Z M 141.964844 685.746094 C 130.96875 685.746094 120.941406 681.246094 113.6875 673.972656 C 106.433594 666.71875 101.914062 656.691406 101.914062 645.695312 L 101.914062 283.417969 C 101.914062 272.421875 106.417969 262.398438 113.6875 255.144531 C 118.304688 250.527344 124.035156 247.027344 130.417969 245.085938 L 412.289062 526.972656 L 253.515625 685.746094 Z M 708.070312 645.714844 C 708.070312 656.710938 703.566406 666.734375 696.296875 673.988281 L 695.828125 674.492188 C 691.308594 678.863281 685.769531 682.183594 679.597656 684.046875 L 390.863281 395.308594 L 542.785156 243.386719 L 559.433594 243.386719 C 569.378906 262.234375 580.292969 281.152344 589.523438 297.183594 C 595.886719 308.230469 601.441406 317.847656 605.214844 324.894531 C 606.15625 326.675781 607.597656 328.199219 609.507812 329.203125 C 614.5625 331.890625 620.84375 329.980469 623.53125 324.941406 C 627.273438 317.929688 632.8125 308.328125 639.160156 297.3125 C 648.390625 281.28125 659.324219 262.316406 669.28125 243.433594 C 679.777344 243.773438 689.300781 248.195312 696.28125 255.175781 C 703.535156 262.429688 708.054688 272.453125 708.054688 283.453125 L 708.054688 645.714844 Z M 614.398438 201.441406 C 625.007812 201.441406 634.625 197.132812 641.574219 190.183594 C 648.519531 183.238281 652.828125 173.617188 652.828125 163.011719 C 652.828125 152.46875 648.539062 142.878906 641.574219 135.882812 L 641.523438 135.835938 C 634.5625 128.886719 624.957031 124.582031 614.398438 124.582031 C 604.132812 124.582031 594.785156 128.628906 587.886719 135.21875 L 587.222656 135.835938 C 580.277344 142.785156 575.96875 152.402344 575.96875 163.011719 C 575.96875 173.585938 580.292969 183.207031 587.273438 190.183594 C 594.21875 197.132812 603.824219 201.441406 614.398438 201.441406 Z M 601.945312 150.558594 L 602.351562 150.121094 C 605.492188 147.203125 609.734375 145.40625 614.398438 145.40625 C 619.289062 145.40625 623.695312 147.367188 626.851562 150.523438 L 626.902344 150.574219 C 630.058594 153.730469 632.019531 158.136719 632.019531 163.027344 C 632.019531 167.886719 630.042969 172.289062 626.867188 175.480469 C 623.695312 178.65625 619.273438 180.628906 614.414062 180.628906 C 609.523438 180.628906 605.101562 178.65625 601.914062 175.480469 C 598.753906 172.324219 596.796875 167.917969 596.796875 163.027344 C 596.796875 158.152344 598.753906 153.746094 601.945312 150.558594 Z M 294.113281 478.160156 C 294.113281 454.824219 284.65625 433.707031 269.367188 418.417969 L 269.320312 418.417969 C 254.03125 403.132812 232.914062 393.671875 209.609375 393.671875 C 186.273438 393.671875 165.15625 403.132812 149.867188 418.417969 C 134.578125 433.707031 125.121094 454.839844 125.121094 478.160156 C 125.121094 506.40625 160.652344 568.011719 184.765625 609.839844 C 191.132812 620.886719 196.6875 630.507812 200.460938 637.550781 C 201.398438 639.332031 202.839844 640.855469 204.75 641.859375 C 209.804688 644.546875 216.085938 642.636719 218.777344 637.597656 C 222.515625 630.585938 228.054688 620.984375 234.402344 609.972656 C 258.46875 568.15625 294.113281 506.324219 294.113281 478.160156 Z M 216.410156 599.640625 L 209.609375 611.476562 L 202.726562 599.527344 C 179.761719 559.703125 145.933594 501.027344 145.933594 478.175781 C 145.933594 460.589844 153.058594 444.671875 164.570312 433.15625 C 176.085938 421.640625 192.023438 414.515625 209.59375 414.515625 C 227.195312 414.515625 243.117188 421.640625 254.613281 433.15625 C 266.128906 444.671875 273.253906 460.605469 273.253906 478.175781 C 273.289062 500.929688 239.359375 559.816406 216.410156 599.640625 Z M 236.734375 448.507812 C 229.773438 441.5625 220.167969 437.253906 209.609375 437.253906 C 199.34375 437.253906 189.996094 441.300781 183.097656 447.894531 L 182.433594 448.507812 C 175.488281 455.457031 171.179688 465.074219 171.179688 475.683594 C 171.179688 486.257812 175.503906 495.878906 182.484375 502.859375 C 189.429688 509.804688 199.035156 514.113281 209.625 514.113281 C 220.234375 514.113281 229.851562 509.804688 236.800781 502.859375 C 243.75 495.910156 248.054688 486.292969 248.054688 475.683594 C 248.054688 465.140625 243.765625 455.554688 236.800781 448.558594 Z M 222.0625 488.136719 C 218.890625 491.3125 214.46875 493.289062 209.609375 493.289062 C 204.71875 493.289062 200.296875 491.3125 197.105469 488.136719 C 193.949219 484.980469 191.988281 480.574219 191.988281 475.683594 C 191.988281 470.824219 193.964844 466.421875 197.140625 463.230469 L 197.5625 462.792969 C 200.703125 459.863281 204.945312 458.078125 209.609375 458.078125 C 214.5 458.078125 218.90625 460.039062 222.0625 463.199219 L 222.113281 463.246094 C 225.269531 466.402344 227.230469 470.808594 227.230469 475.699219 C 227.214844 480.542969 225.253906 484.945312 222.0625 488.136719 Z M 222.0625 488.136719 " fill-opacity="1" fill-rule="nonzero"/></g><g clip-path="url(#a4ed27afd6)"><g transform="matrix(1, 0, 0, 1, 112, 383)"><g clip-path="url(#2ab1e06707)"><g clip-path="url(#73499a5b46)"><path fill="#ffffff" d="M 0.105469 0.652344 L 149.15625 0.652344 L 149.15625 273.132812 L 0.105469 273.132812 Z M 0.105469 0.652344 " fill-opacity="1" fill-rule="nonzero"/></g></g></g></g><g clip-path="url(#c8894e3e2b)"><g transform="matrix(1, 0, 0, 1, 176, 411)"><g clip-path="url(#4398f4bbdc)"><g clip-path="url(#30e59f9d82)"><path fill="#ffffff" d="M 0.472656 0.582031 L 117.785156 0.582031 L 117.785156 151.34375 L 0.472656 151.34375 Z M 0.472656 0.582031 " fill-opacity="1" fill-rule="nonzero"/></g></g></g></g><g clip-path="url(#d15399df16)"><g transform="matrix(1, 0, 0, 1, 215, 455)"><g clip-path="url(#dd60fa61a8)"><g clip-path="url(#88bb05d149)"><path fill="#ffffff" d="M 0.195312 0.890625 L 117.449219 0.890625 L 117.449219 85.445312 L 0.195312 85.445312 Z M 0.195312 0.890625 " fill-opacity="1" fill-rule="nonzero"/></g></g></g></g></svg>