<svg xmlns="http://www.w3.org/2000/svg" xmlns:xlink="http://www.w3.org/1999/xlink" width="1080" zoomAndPan="magnify" viewBox="0 0 810 809.999993" height="1080" preserveAspectRatio="xMidYMid meet" version="1.0"><path stroke-linecap="butt" transform="matrix(-0.75, 0.000000000000000372, -0.000000000000000372, -0.75, 354.720631, 84.085833)" fill="none" stroke-linejoin="miter" d="M 0.00250834 3.99986 L 442.945239 3.99986 " stroke="#000000" stroke-width="8" stroke-opacity="1" stroke-miterlimit="4"/><path stroke-linecap="butt" transform="matrix(0, -0.75, 0.75, 0, 22.474767, 725.943799)" fill="none" stroke-linejoin="miter" d="M -0.00201736 4.002394 L 863.362609 4.002394 " stroke="#000000" stroke-width="8" stroke-opacity="1" stroke-miterlimit="4"/><path stroke-linecap="butt" transform="matrix(0.75, 0, 0, 0.75, 22.517522, 725.902423)" fill="none" stroke-linejoin="miter" d="M -0.00252918 3.999894 L 877.997515 3.999894 " stroke="#000000" stroke-width="8" stroke-opacity="1" stroke-miterlimit="4"/><path stroke-linecap="butt" transform="matrix(0.00661811, 0.749971, -0.749971, 0.00661811, 684.015545, 396.669698)" fill="none" stroke-linejoin="miter" d="M -0.00114493 4.000039 L 446.943342 4.001237 " stroke="#000000" stroke-width="8" stroke-opacity="1" stroke-miterlimit="4"/><path stroke-linecap="butt" transform="matrix(0.75, 0, 0, 0.75, 683.974961, 396.652646)" fill="none" stroke-linejoin="miter" d="M 0.00213521 3.999597 L 134.064642 3.999597 " stroke="#000000" stroke-width="8" stroke-opacity="1" stroke-miterlimit="4"/><path stroke-linecap="round" transform="matrix(0.75, 0, 0, 0.75, 683.974961, 396.652646)" fill="none" stroke-linejoin="round" d="M 118.064641 -8.000404 L 134.064642 3.999597 L 118.064641 15.999597 " stroke="#000000" stroke-width="8" stroke-opacity="1" stroke-miterlimit="4"/><path stroke-linecap="butt" transform="matrix(0, 0.75, -0.75, 0, 354.764107, 78.42682)" fill="none" stroke-linejoin="miter" d="M -0.00138507 3.997977 L 84.399661 3.997977 " stroke="#000000" stroke-width="8" stroke-opacity="1" stroke-miterlimit="4"/></svg>