<svg xmlns="http://www.w3.org/2000/svg" xmlns:xlink="http://www.w3.org/1999/xlink" width="1080" zoomAndPan="magnify" viewBox="0 0 810 809.999993" height="1080" preserveAspectRatio="xMidYMid meet" version="1.0"><path stroke-linecap="butt" transform="matrix(0, -0.75, 0.75, 0, 22.474756, 725.943799)" fill="none" stroke-linejoin="miter" d="M -0.00201736 4.002409 L 863.362609 4.002409 " stroke="#000000" stroke-width="8" stroke-opacity="1" stroke-miterlimit="4"/><path stroke-linecap="butt" transform="matrix(-0.75, 0.000000001309, -0.000000001309, -0.75, 354.720631, 28.49649)" fill="none" stroke-linejoin="miter" d="M 0.00250833 4.000529 L 442.945239 4.000529 " stroke="#000000" stroke-width="8" stroke-opacity="1" stroke-miterlimit="4"/><path stroke-linecap="butt" transform="matrix(0.75, 0, 0, 0.75, 22.496474, 781.491725)" fill="none" stroke-linejoin="miter" d="M -0.000506851 4.000617 L 877.999537 4.000617 " stroke="#000000" stroke-width="8" stroke-opacity="1" stroke-miterlimit="4"/><path stroke-linecap="butt" transform="matrix(0.00661811, 0.749971, -0.749971, 0.00661811, 683.994401, 452.259045)" fill="none" stroke-linejoin="miter" d="M -0.000463381 3.997895 L 446.938815 3.999047 " stroke="#000000" stroke-width="8" stroke-opacity="1" stroke-miterlimit="4"/><path stroke-linecap="butt" transform="matrix(0.75, 0, 0, 0.75, 683.953913, 452.242005)" fill="none" stroke-linejoin="miter" d="M -0.00105079 4.000243 L 134.066664 4.000243 " stroke="#000000" stroke-width="8" stroke-opacity="1" stroke-miterlimit="4"/><path stroke-linecap="round" transform="matrix(0.75, 0, 0, 0.75, 683.953913, 452.242005)" fill="none" stroke-linejoin="round" d="M 118.066663 -7.999757 L 134.066664 4.000243 L 118.066663 16.000244 " stroke="#000000" stroke-width="8" stroke-opacity="1" stroke-miterlimit="4"/><path stroke-linecap="butt" transform="matrix(0, 0.75, -0.75, 0, 354.764107, 22.837482)" fill="none" stroke-linejoin="miter" d="M -0.00205951 3.997977 L 84.398986 3.997977 " stroke="#000000" stroke-width="8" stroke-opacity="1" stroke-miterlimit="4"/><path stroke-linecap="butt" transform="matrix(0, 0.75, -0.75, 0, 28.513988, 22.500019)" fill="none" stroke-linejoin="miter" d="M -0.0000251574 3.997817 L 1020.010443 3.997817 " stroke="#000000" stroke-width="8" stroke-opacity="1" stroke-miterlimit="4"/></svg>