<svg xmlns="http://www.w3.org/2000/svg" xmlns:xlink="http://www.w3.org/1999/xlink" width="1080" zoomAndPan="magnify" viewBox="0 0 810 809.999993" height="1080" preserveAspectRatio="xMidYMid meet" version="1.0"><path fill="#10069f" d="M 617.0625 767.679688 L 798.894531 635.6875 C 805.871094 630.625 810 622.523438 810 613.90625 C 810 605.28125 805.871094 597.183594 798.894531 592.117188 L 615.839844 459.242188 C 607.648438 453.296875 596.816406 452.445312 587.796875 457.042969 C 578.78125 461.644531 573.105469 470.90625 573.105469 481.027344 L 573.105469 563.6875 C 567.421875 562.132812 561.402344 561.480469 555.199219 562.011719 C 553.261719 562.179688 360.210938 577.261719 229.023438 455.171875 C 144.898438 376.886719 102.289062 257.648438 102.296875 100.582031 C 102.296875 96.457031 102.324219 92.28125 102.382812 88.109375 C 102.386719 87.859375 102.390625 87.617188 102.390625 87.371094 C 102.390625 59.460938 79.964844 36.636719 51.960938 36.242188 C 23.71875 35.847656 0.496094 58.417969 0.101562 86.664062 C 0.0351562 91.351562 0 96.003906 0 100.636719 C 0.00390625 287.714844 53.855469 432.40625 160.175781 530.839844 C 325.375 683.789062 554.6875 664.78125 564.367188 663.894531 C 567.378906 663.617188 570.28125 663.039062 573.101562 662.277344 L 573.101562 746.78125 C 573.105469 746.792969 573.105469 746.816406 573.101562 746.832031 C 573.101562 761.703125 585.15625 773.75 600.019531 773.75 C 606.488281 773.753906 612.421875 771.472656 617.0625 767.679688 Z M 617.0625 767.679688 " fill-opacity="1" fill-rule="nonzero"/></svg>