<svg xmlns="http://www.w3.org/2000/svg" xmlns:xlink="http://www.w3.org/1999/xlink" width="1920" zoomAndPan="magnify" viewBox="0 0 1440 809.999993" height="1080" preserveAspectRatio="xMidYMid meet" version="1.0"><defs><filter x="0%" y="0%" width="100%" height="100%" id="960497aa1a"><feColorMatrix values="0 0 0 0 1 0 0 0 0 1 0 0 0 0 1 0 0 0 1 0" color-interpolation-filters="sRGB"/></filter><mask id="167a9cd290"><g filter="url(#960497aa1a)"><rect x="-144" width="1728" fill="#000000" y="-80.999999" height="971.999992" fill-opacity="0.3"/></g></mask><clipPath id="5144288b61"><path d="M 957 32 L 1440 32 L 1440 651 L 957 651 Z M 957 32 " clip-rule="nonzero"/></clipPath><clipPath id="b942ab9172"><path d="M 1478.277344 328.839844 C 1479.621094 620.636719 1211.410156 748.046875 1037.410156 565.839844 C 948.328125 472.589844 930.957031 277.3125 1001.519531 157.273438 C 1059.96875 57.808594 1170.328125 -0.769531 1315.042969 51.65625 C 1303.3125 186.113281 1209.039062 268.402344 1062.148438 296.089844 C 1065.929688 264.878906 1075.222656 235.527344 1089 210.851562 C 1142.898438 195.40625 1196.03125 164.132812 1221.214844 111.515625 C 1153.21875 112.027344 1110.726562 139.648438 1076.953125 187.523438 C 986.78125 315.445312 1050.292969 570.582031 1218.84375 570.390625 C 1411.882812 570.199219 1459.179688 247.960938 1316.453125 141.636719 C 1326.898438 116.960938 1333.628906 90.238281 1336.578125 61.847656 C 1431.875 114.65625 1477.699219 207.261719 1478.277344 328.839844 " clip-rule="nonzero"/></clipPath><clipPath id="a03e69a4a0"><path d="M 0 0 L 483 0 L 483 619 L 0 619 Z M 0 0 " clip-rule="nonzero"/></clipPath><clipPath id="2c973955c6"><path d="M 521.277344 296.839844 C 522.621094 588.636719 254.410156 716.046875 80.410156 533.839844 C -8.671875 440.589844 -26.042969 245.3125 44.519531 125.273438 C 102.96875 25.808594 213.328125 -32.769531 358.042969 19.65625 C 346.3125 154.113281 252.039062 236.402344 105.148438 264.089844 C 108.929688 232.878906 118.222656 203.527344 132 178.851562 C 185.898438 163.40625 239.03125 132.132812 264.214844 79.515625 C 196.21875 80.027344 153.726562 107.648438 119.953125 155.523438 C 29.78125 283.445312 93.292969 538.582031 261.84375 538.390625 C 454.882812 538.199219 502.179688 215.960938 359.453125 109.636719 C 369.898438 84.960938 376.628906 58.238281 379.578125 29.847656 C 474.875 82.65625 520.699219 175.261719 521.277344 296.839844 " clip-rule="nonzero"/></clipPath><clipPath id="7070486b8c"><rect x="0" width="483" y="0" height="619"/></clipPath><clipPath id="ce61504b05"><path d="M 0 33 L 442.277344 33 L 442.277344 473 L 0 473 Z M 0 33 " clip-rule="nonzero"/></clipPath><clipPath id="bb68b7288f"><path d="M 435.230469 294.359375 C 415.8125 362.613281 358.066406 412.476562 275.839844 432.792969 C 250.460938 423.753906 223.992188 419.078125 197.269531 419.078125 C 158.6875 419.078125 120.683594 428.5 84.214844 447.082031 C 70.117188 454.199219 56.785156 462.59375 44.222656 472.015625 C 41.46875 474.066406 38.007812 470.347656 40.378906 467.785156 C 81.589844 423.242188 146.0625 380.625 246.808594 360.5 C 308.078125 348.257812 348.710938 317.304688 361.273438 273.273438 C 373.320312 230.914062 357.617188 180.152344 322.242188 147.019531 C 298.785156 125.039062 247.066406 92.609375 164.390625 122.152344 C 74.601562 154.261719 36.917969 259.558594 36.597656 260.585938 L -36.144531 235.589844 C -34.21875 229.886719 13.332031 94.46875 138.5 49.734375 C 227.007812 18.136719 313.140625 33.132812 374.792969 90.878906 C 431.578125 144.007812 455.289062 223.925781 435.230469 294.359375 " clip-rule="nonzero"/></clipPath><clipPath id="ba9c0caafb"><path d="M 0 0 L 442.277344 0 L 442.277344 440 L 0 440 Z M 0 0 " clip-rule="nonzero"/></clipPath><clipPath id="f8cec227db"><path d="M 435.230469 261.359375 C 415.8125 329.613281 358.066406 379.476562 275.839844 399.792969 C 250.460938 390.753906 223.992188 386.078125 197.269531 386.078125 C 158.6875 386.078125 120.683594 395.5 84.214844 414.082031 C 70.117188 421.199219 56.785156 429.59375 44.222656 439.015625 C 41.46875 441.066406 38.007812 437.347656 40.378906 434.785156 C 81.589844 390.242188 146.0625 347.625 246.808594 327.5 C 308.078125 315.257812 348.710938 284.304688 361.273438 240.273438 C 373.320312 197.914062 357.617188 147.152344 322.242188 114.019531 C 298.785156 92.039062 247.066406 59.609375 164.390625 89.152344 C 74.601562 121.261719 36.917969 226.558594 36.597656 227.585938 L -36.144531 202.589844 C -34.21875 196.886719 13.332031 61.46875 138.5 16.734375 C 227.007812 -14.863281 313.140625 0.132812 374.792969 57.878906 C 431.578125 111.007812 455.289062 190.925781 435.230469 261.359375 " clip-rule="nonzero"/></clipPath><clipPath id="db2d9e5b3a"><rect x="0" width="443" y="0" height="440"/></clipPath><clipPath id="9f50fa650d"><path d="M 0 143 L 938 143 L 938 778 L 0 778 Z M 0 143 " clip-rule="nonzero"/></clipPath><clipPath id="b15076f22a"><path d="M 880.96875 436.316406 C 935.125 486.945312 952.171875 565.265625 924.355469 635.761719 C 889.171875 724.84375 795.472656 777.976562 673.640625 777.976562 C 566.355469 777.976562 465.992188 695.683594 368.960938 616.085938 C 338.839844 591.347656 310.320312 567.957031 282.316406 547.574219 C 219.058594 501.558594 159.265625 520.335938 129.269531 535.589844 C 76.78125 562.316406 38.648438 615.828125 38.648438 662.871094 L -38.257812 662.871094 C -38.257812 587.308594 16.28125 506.816406 94.40625 467.078125 C 172.144531 427.472656 257.128906 434.136719 327.5625 485.34375 C 357.363281 507.070312 388.0625 532.257812 417.734375 556.613281 C 504.320312 627.621094 593.851562 701.066406 673.640625 701.066406 C 762.726562 701.066406 829.699219 666.140625 852.832031 607.5 C 868.984375 566.609375 859.371094 521.425781 828.414062 492.457031 C 775.925781 443.429688 675.4375 446.957031 559.5625 501.945312 L 504.640625 528.027344 L 504.511719 143.367188 C 521.238281 172.207031 547.128906 199.1875 581.480469 223.351562 L 581.480469 409.273438 C 755.355469 345.246094 847.578125 405.105469 880.96875 436.316406 " clip-rule="nonzero"/></clipPath><clipPath id="c805b9abfd"><path d="M 0 0.28125 L 938 0.28125 L 938 635 L 0 635 Z M 0 0.28125 " clip-rule="nonzero"/></clipPath><clipPath id="a05c946694"><path d="M 880.96875 293.316406 C 935.125 343.945312 952.171875 422.265625 924.355469 492.761719 C 889.171875 581.84375 795.472656 634.976562 673.640625 634.976562 C 566.355469 634.976562 465.992188 552.683594 368.960938 473.085938 C 338.839844 448.347656 310.320312 424.957031 282.316406 404.574219 C 219.058594 358.558594 159.265625 377.335938 129.269531 392.589844 C 76.78125 419.316406 38.648438 472.828125 38.648438 519.871094 L -38.257812 519.871094 C -38.257812 444.308594 16.28125 363.816406 94.40625 324.078125 C 172.144531 284.472656 257.128906 291.136719 327.5625 342.34375 C 357.363281 364.070312 388.0625 389.257812 417.734375 413.613281 C 504.320312 484.621094 593.851562 558.066406 673.640625 558.066406 C 762.726562 558.066406 829.699219 523.140625 852.832031 464.5 C 868.984375 423.609375 859.371094 378.425781 828.414062 349.457031 C 775.925781 300.429688 675.4375 303.957031 559.5625 358.945312 L 504.640625 385.027344 L 504.511719 0.367188 C 521.238281 29.207031 547.128906 56.1875 581.480469 80.351562 L 581.480469 266.273438 C 755.355469 202.246094 847.578125 262.105469 880.96875 293.316406 " clip-rule="nonzero"/></clipPath><clipPath id="0e7e235509"><rect x="0" width="938" y="0" height="635"/></clipPath><clipPath id="bb6b6bf933"><path d="M 504 63.28125 L 948.527344 63.28125 L 948.527344 305 L 504 305 Z M 504 63.28125 " clip-rule="nonzero"/></clipPath><clipPath id="eeb38a9db5"><path d="M 948.328125 228.347656 C 942.046875 252.511719 938.136719 278.144531 936.726562 305 C 781.054688 302.371094 508.996094 229.949219 504.511719 63.382812 L 581.417969 63.320312 C 581.417969 142.46875 768.683594 226.167969 948.328125 228.347656 " clip-rule="nonzero"/></clipPath><clipPath id="c2daac3b4a"><path d="M 0.480469 0.28125 L 444.480469 0.28125 L 444.480469 242 L 0.480469 242 Z M 0.480469 0.28125 " clip-rule="nonzero"/></clipPath><clipPath id="6dc0cf600d"><path d="M 444.328125 165.347656 C 438.046875 189.511719 434.136719 215.144531 432.726562 242 C 277.054688 239.371094 4.996094 166.949219 0.511719 0.382812 L 77.417969 0.320312 C 77.417969 79.46875 264.683594 163.167969 444.328125 165.347656 " clip-rule="nonzero"/></clipPath><clipPath id="242acf66ca"><rect x="0" width="445" y="0" height="242"/></clipPath><clipPath id="5b4800e7b4"><rect x="0" width="1440" y="0" height="810"/></clipPath></defs><g mask="url(#167a9cd290)"><g transform="matrix(1, 0, 0, 1, 0, 0.000000000000039746)"><g clip-path="url(#5b4800e7b4)"><g clip-path="url(#5144288b61)"><g clip-path="url(#b942ab9172)"><g transform="matrix(1, 0, 0, 1, 957, 32)"><g clip-path="url(#7070486b8c)"><g clip-path="url(#a03e69a4a0)"><g clip-path="url(#2c973955c6)"><rect x="-1481.16" width="2488.32" fill="#ffffff" y="-326.839997" height="1399.679988" fill-opacity="1"/></g></g></g></g></g></g><g clip-path="url(#ce61504b05)"><g clip-path="url(#bb68b7288f)"><g transform="matrix(1, 0, 0, 1, 0, 33)"><g clip-path="url(#db2d9e5b3a)"><g clip-path="url(#ba9c0caafb)"><g clip-path="url(#f8cec227db)"><rect x="-524.16" width="2488.32" fill="#ffffff" y="-327.839997" height="1399.679988" fill-opacity="1"/></g></g></g></g></g></g><g clip-path="url(#9f50fa650d)"><g clip-path="url(#b15076f22a)"><g transform="matrix(1, 0, 0, 1, 0, 143)"><g clip-path="url(#0e7e235509)"><g clip-path="url(#c805b9abfd)"><g clip-path="url(#a05c946694)"><rect x="-524.16" width="2488.32" fill="#ffffff" y="-437.839997" height="1399.679988" fill-opacity="1"/></g></g></g></g></g></g><g clip-path="url(#bb6b6bf933)"><g clip-path="url(#eeb38a9db5)"><g transform="matrix(1, 0, 0, 1, 504, 63)"><g clip-path="url(#242acf66ca)"><g clip-path="url(#c2daac3b4a)"><g clip-path="url(#6dc0cf600d)"><rect x="-1028.16" width="2488.32" fill="#ffffff" y="-357.839997" height="1399.679988" fill-opacity="1"/></g></g></g></g></g></g></g></g></g></svg>