<svg xmlns="http://www.w3.org/2000/svg" xmlns:xlink="http://www.w3.org/1999/xlink" width="1080" zoomAndPan="magnify" viewBox="0 0 810 809.999993" height="1080" preserveAspectRatio="xMidYMid meet" version="1.0"><defs><clipPath id="d4e4285e4e"><path d="M 19.492188 132.734375 L 790.492188 132.734375 L 790.492188 677.234375 L 19.492188 677.234375 Z M 19.492188 132.734375 " clip-rule="nonzero"/></clipPath></defs><g clip-path="url(#d4e4285e4e)"><path fill="#10069f" d="M 419.449219 218.496094 C 425.257812 183.921875 457.730469 128.050781 498.707031 133.335938 C 533.351562 137.804688 539.847656 187.386719 506.566406 197.070312 C 495.863281 200.183594 471.199219 194.894531 482.578125 182.296875 C 488.398438 175.851562 492.027344 181.746094 497.742188 181.71875 C 516.28125 181.628906 517.449219 149.582031 492.46875 149.992188 C 463.285156 150.476562 440.421875 197.15625 435.296875 221.894531 C 435.390625 224.980469 443.847656 227.964844 446.722656 230.03125 C 465.847656 243.742188 475.511719 263.699219 478.664062 286.898438 C 512.582031 265.5 546.851562 244.121094 582.542969 225.707031 C 636.167969 198.039062 710.140625 166.289062 771.386719 171.09375 C 784.808594 172.144531 791.003906 173.1875 790.464844 187.640625 C 788.753906 233.226562 739.285156 325.101562 697.914062 346.339844 C 686.035156 352.4375 672.070312 354.660156 658.867188 355.320312 C 665.847656 362.277344 674.886719 368.179688 681.921875 375.003906 C 686.511719 379.460938 704.113281 398.5625 704.847656 403.414062 C 705.898438 410.355469 703.558594 411.726562 698.761719 415.59375 C 683.824219 427.625 657.074219 438.785156 638.121094 441.777344 C 586.464844 449.917969 541.222656 418.226562 498.394531 394.777344 C 501.574219 404.113281 506.445312 412.808594 509.886719 422.074219 C 526.484375 466.769531 531.550781 519.25 516.820312 565.152344 C 499.9375 617.757812 453.75 654.136719 405.636719 677.019531 C 371.78125 662.554688 335.800781 637.335938 314.457031 606.980469 C 275.246094 551.207031 277.9375 475.703125 303.074219 414.550781 C 306.007812 407.414062 310.121094 400.652344 312.886719 393.460938 C 255.039062 427.871094 201.101562 462.488281 133.097656 429.214844 C 125.410156 425.449219 104.175781 413.816406 105.066406 404.773438 C 106.378906 391.445312 140.8125 364.59375 151.09375 355.324219 C 135.234375 354.484375 120.960938 351.496094 107.289062 343.210938 C 67.90625 319.355469 23.363281 235.382812 19.722656 190.054688 C 18.316406 172.59375 23.214844 172.324219 39.882812 171.09375 C 76.269531 168.40625 114.195312 178.503906 148.160156 190.519531 C 212.925781 213.433594 272.871094 250.46875 330.679688 286.886719 C 334.007812 287.910156 332.347656 280.921875 332.765625 278.488281 C 336.796875 254.921875 352.664062 234.019531 374.144531 223.761719 C 370.945312 200.203125 352.742188 163.824219 329.992188 153.390625 C 313.183594 145.679688 291.050781 154.984375 300.042969 174.128906 C 306.804688 188.527344 321.527344 174.992188 328.140625 182.863281 C 336.632812 192.972656 319.664062 198.433594 311.535156 198.140625 C 265.054688 196.453125 274.574219 120.585938 328.386719 135.257812 C 363.554688 144.84375 381.847656 186.238281 391.746094 217.9375 L 419.4375 218.5 Z M 365.519531 330.296875 C 294.792969 282.871094 217.367188 231.167969 135.992188 204.003906 C 104.515625 193.496094 69.90625 185.25 36.648438 188.246094 C 42.144531 225.695312 60.582031 264.855469 82.914062 295.230469 C 118.0625 343.027344 136.8125 338.726562 192.550781 336.902344 C 229.898438 335.679688 267.179688 333.105469 304.296875 331.574219 C 324.652344 330.734375 345.152344 330.484375 365.519531 330.296875 Z M 445.769531 330.300781 C 503.089844 330.707031 560.121094 334.925781 617.421875 336.898438 C 639.128906 337.644531 664.265625 341.59375 685.164062 333.578125 C 717.40625 321.210938 752.570312 258.242188 763.773438 226.710938 C 765.585938 221.609375 774.085938 193.46875 773.210938 190.378906 C 772.757812 188.777344 771.433594 188.503906 770.019531 188.246094 C 757.339844 185.9375 733.710938 189.035156 720.648438 191.484375 C 634.609375 207.609375 530.773438 270.992188 458.234375 319.761719 C 456.710938 320.785156 443.632812 328.4375 445.769531 330.308594 Z M 405.863281 233.472656 C 376.6875 233.289062 350.617188 257.007812 348.449219 286.257812 C 347.945312 292.992188 347.15625 296.089844 352.480469 300.597656 C 358.929688 306.0625 392.425781 328.234375 399.0625 328.996094 C 404 329.5625 409.757812 328.683594 414.820312 328.964844 L 458.824219 299.300781 C 466.339844 291.308594 457.96875 269.195312 452.890625 260.691406 C 443.339844 244.679688 424.761719 233.585938 405.859375 233.464844 Z M 481.285156 402.648438 C 482.742188 400.976562 464.433594 375.648438 461.601562 373.011719 C 458.292969 369.929688 425.582031 348.640625 421.753906 347.089844 C 418.03125 345.582031 394.289062 345.320312 390.171875 346.410156 C 387.152344 347.214844 351.496094 369.980469 348.363281 373.003906 C 344.921875 376.320312 328.617188 398.46875 328.675781 401.992188 C 364.664062 409.136719 401.886719 409.484375 438.515625 407.910156 L 481.28125 402.652344 Z M 354.996094 347.421875 C 306.980469 347.675781 258.957031 350.761719 211.003906 354.042969 C 201.296875 354.707031 192.121094 352.808594 182.382812 355.675781 C 174.4375 358.015625 157.800781 371.125 151.078125 376.992188 C 147.359375 380.238281 125.480469 401.476562 126.203125 404.5 C 131.746094 408.941406 138.511719 413.078125 144.953125 416.042969 C 193.121094 438.1875 230.355469 420.523438 273.003906 397.628906 C 301.117188 382.535156 328.488281 365.0625 354.996094 347.425781 Z M 454.976562 347.421875 C 486.113281 368.308594 518.617188 389.242188 552.292969 405.976562 C 597.503906 428.4375 640.519531 437.105469 683.683594 404.453125 C 684.535156 400.03125 662.601562 380.082031 658.179688 376.382812 C 650.148438 369.664062 633.34375 356.277344 623.421875 354.570312 C 614.550781 353.046875 605.328125 354.53125 596.398438 353.972656 C 568.816406 352.238281 541.066406 349.777344 513.566406 348.667969 C 494.089844 347.882812 474.457031 347.734375 454.972656 347.421875 Z M 504.933594 469.722656 C 507.265625 467.316406 493.074219 419.457031 489.738281 418.625 C 433.925781 427.792969 376.101562 427.890625 320.332031 418.335938 C 317.226562 418.941406 304.902344 461.988281 304.9375 467.796875 C 304.960938 470.730469 305.230469 469.261719 306.933594 469.804688 C 314.71875 472.28125 328.894531 473.820312 337.398438 474.851562 C 380.703125 480.09375 430.632812 480.355469 473.878906 474.847656 C 484.277344 473.523438 494.554688 471.09375 504.933594 469.722656 Z M 507.589844 486.84375 C 439.726562 498.144531 371.011719 499.035156 303.175781 486.757812 C 298.746094 487.976562 301.863281 530.75 303.675781 537.222656 C 369.207031 553.398438 438.808594 551.785156 504.683594 538.558594 L 506.273438 537.195312 C 507.972656 520.425781 510.144531 503.644531 507.585938 486.839844 Z M 501.003906 556.570312 C 456.097656 565.289062 409.28125 568.070312 363.558594 564.453125 C 345.269531 563.003906 327.105469 559.191406 308.9375 557.246094 C 312.09375 568.203125 324.503906 597.644531 333.453125 603.761719 C 337.894531 606.800781 354.921875 609.339844 361.125 610.296875 C 387.140625 614.308594 414.785156 614.710938 440.972656 611.632812 C 447.660156 610.84375 471.191406 607.292969 475.964844 604.527344 C 481.710938 601.203125 503.671875 560.117188 501 556.566406 Z M 453.65625 626.300781 C 421.996094 632.425781 389.386719 630.933594 357.613281 626.960938 L 377.1875 642.90625 L 405.660156 659.125 C 422.414062 649.476562 439.636719 639.710938 453.65625 626.300781 Z M 453.65625 626.300781 " fill-opacity="1" fill-rule="nonzero"/></g></svg>