<svg xmlns="http://www.w3.org/2000/svg" xmlns:xlink="http://www.w3.org/1999/xlink" width="1080" zoomAndPan="magnify" viewBox="0 0 810 809.999993" height="1080" preserveAspectRatio="xMidYMid meet" version="1.0"><path fill="#10069f" d="M 460.707031 267 C 460.386719 273.023438 459.621094 279.0625 459.867188 285.058594 C 460.152344 292 463.363281 293.460938 469.042969 289.707031 C 482.085938 281.085938 493.917969 270.5625 508.652344 264.597656 C 511.523438 263.4375 512.421875 260.527344 513.902344 258.199219 C 519.105469 250.035156 523.167969 241.277344 526.660156 232.273438 C 534.867188 211.125 549.855469 194.871094 565.097656 178.824219 C 569.605469 174.078125 575.671875 171.582031 581.625 169.105469 C 595.753906 163.230469 610.335938 158.722656 625.089844 154.738281 C 639.046875 150.96875 653.066406 147.417969 666.707031 142.535156 C 670.085938 141.324219 673.664062 140.5 677.21875 140.023438 C 682.101562 139.363281 685.710938 141.402344 687.925781 146 C 689.96875 150.234375 688.792969 153.902344 686.199219 157.214844 C 682.039062 162.523438 675.960938 164.835938 669.847656 166.917969 C 651.210938 173.261719 632.703125 179.925781 614.257812 186.824219 C 602.402344 191.261719 593.242188 198.34375 586.113281 208.46875 C 578.691406 219.007812 570.765625 228.886719 560.472656 237.050781 C 552.605469 243.289062 548.210938 252.875 542.789062 261.316406 C 536.53125 271.0625 531.28125 281.523438 524.421875 290.804688 C 518.710938 298.53125 510.378906 303.945312 502.464844 309.433594 C 496.859375 313.316406 490.960938 316.832031 484.949219 320.058594 C 479.859375 322.785156 478.3125 326.40625 479.710938 331.941406 C 480.789062 336.226562 482.292969 338.738281 487.089844 336.289062 C 488.160156 335.746094 489.359375 335.460938 490.449219 334.945312 C 505.433594 327.875 521.089844 322.605469 537.355469 319.851562 C 549.75 317.75 558.113281 311.769531 564.875 301.210938 C 575.277344 284.972656 588.050781 270.378906 599.738281 255.035156 C 616.414062 233.144531 638.292969 221.652344 664.953125 218.027344 C 678.089844 216.242188 691.25 214.589844 704.410156 212.976562 C 706.789062 212.683594 709.257812 212.621094 711.632812 212.902344 C 718.597656 213.726562 721.316406 218.695312 718.078125 224.890625 C 715.785156 229.28125 711.886719 232.253906 707.707031 234.734375 C 699.992188 239.320312 691.476562 241.417969 682.710938 243.058594 C 632.601562 252.4375 640.292969 247.679688 607.855469 286.132812 C 595.671875 300.574219 583.585938 315.121094 572.058594 330.082031 C 566.710938 337.023438 560.121094 341.738281 552.691406 345.882812 C 537.429688 354.394531 520.6875 358.714844 504.113281 363.566406 C 501.03125 364.46875 497.945312 365.371094 494.863281 366.28125 C 493.617188 366.648438 492.710938 367.40625 493.230469 368.773438 C 493.472656 369.410156 494.296875 370.171875 494.9375 370.25 C 498.511719 370.703125 502.109375 371.175781 505.703125 371.253906 C 542.292969 372.097656 578.710938 375.472656 615.152344 378.550781 C 626.699219 379.527344 637.050781 383.34375 645.90625 390.984375 C 650.472656 394.925781 655.394531 398.46875 659.792969 402.574219 C 693.476562 434.03125 731.234375 459.890625 770.699219 483.390625 C 784.394531 491.542969 781.015625 490.898438 772.113281 499.84375 C 764.683594 507.308594 755.015625 506.210938 746.210938 502 C 734.261719 496.285156 722.417969 490.25 710.96875 483.597656 C 693.890625 473.675781 678.417969 461.449219 663.527344 448.492188 C 650.792969 437.410156 638.332031 426.011719 624.6875 415.992188 C 620.953125 413.25 617.363281 411.765625 612.726562 411.335938 C 570.6875 407.46875 528.515625 405.785156 486.398438 403.15625 C 484.886719 403.0625 483.335938 403.574219 481.804688 403.804688 C 482.273438 406.234375 484.367188 406.699219 486.226562 407.316406 C 518.242188 417.957031 550.132812 429.011719 582.351562 438.996094 C 597.683594 443.75 606.269531 452.59375 610.886719 468.21875 C 618.394531 493.613281 624.234375 519.542969 634.011719 544.277344 C 641.78125 563.941406 653.496094 581.152344 665.695312 598.160156 C 668.515625 602.097656 672.019531 604.058594 676.605469 604.773438 C 681.371094 605.515625 686.191406 606.238281 690.515625 608.535156 C 698.4375 612.742188 699.277344 620.101562 692.464844 626.074219 C 685.851562 631.867188 677.722656 632.730469 669.6875 631.179688 C 652.113281 627.789062 637.476562 620.542969 628.769531 603.054688 C 612.40625 570.195312 597.617188 536.910156 591.046875 500.515625 C 590.832031 499.332031 590.257812 498.207031 590.113281 497.023438 C 588.171875 481.214844 580.902344 472.363281 563.980469 467.917969 C 540.816406 461.832031 518.839844 451.238281 496.351562 442.578125 C 494.101562 441.714844 491.851562 440.847656 489.589844 440.015625 C 487.769531 439.34375 485.714844 437.71875 484.058594 439.542969 C 482.414062 441.359375 484.242188 443.3125 485.203125 444.824219 C 493.429688 457.753906 499.65625 471.722656 506.410156 485.417969 C 512.488281 497.746094 516.871094 510.660156 519.375 524.171875 C 523.703125 547.53125 521.207031 569.484375 507.898438 590.066406 C 493.035156 613.054688 473.816406 630.621094 448.699219 641.394531 C 441.859375 644.328125 436.414062 647.222656 437.699219 655.863281 C 437.8125 656.617188 437.476562 657.449219 437.285156 658.226562 C 436.125 662.863281 435.789062 668.609375 430.238281 669.875 C 423.734375 671.359375 421.667969 665.238281 418.675781 661.140625 C 416.359375 657.96875 416.699219 652.203125 412.519531 651.355469 C 406.730469 650.183594 400.5625 650.765625 394.558594 650.808594 C 391.675781 650.828125 390.8125 653.289062 389.730469 655.488281 C 388.140625 658.726562 386.519531 661.992188 384.5 664.960938 C 382.460938 667.953125 379.984375 671.023438 375.707031 670.019531 C 371.640625 669.066406 370.328125 665.519531 369.394531 661.945312 C 368.785156 659.617188 367.769531 657.144531 368.066406 654.882812 C 369.082031 647.167969 364.433594 644.609375 358.375 642 C 337.722656 633.105469 320.5625 619.789062 306.28125 602.136719 C 284.757812 575.523438 279.609375 546.265625 288.695312 513.808594 C 295.148438 490.753906 306.664062 470.03125 317.988281 449.199219 C 319.632812 446.175781 323.816406 442.628906 321.660156 439.871094 C 319.148438 436.65625 315 440.457031 311.898438 441.660156 C 284.195312 452.410156 256.777344 463.929688 228.292969 472.542969 C 223.972656 473.847656 221.578125 476.300781 220.464844 480.636719 C 218.671875 487.632812 215.96875 494.429688 214.609375 501.492188 C 207.46875 538.601562 192.867188 572.835938 175.179688 605.941406 C 165.039062 624.90625 147.65625 630.484375 127.898438 631.457031 C 122.074219 631.742188 116.804688 629.515625 112.605469 625.386719 C 106.609375 619.496094 107.546875 612.484375 115.121094 608.71875 C 118.648438 606.964844 122.695312 605.875 126.617188 605.382812 C 133.53125 604.515625 138.113281 600.996094 142.191406 595.460938 C 159.78125 571.59375 173.304688 545.84375 180.996094 517.066406 C 185.664062 499.605469 191.382812 482.429688 195.992188 464.957031 C 199.40625 452 207.292969 444.429688 219.863281 440.351562 C 252.71875 429.699219 285.429688 418.582031 318.191406 407.640625 C 319.703125 407.136719 321.234375 406.613281 322.628906 405.863281 C 323.222656 405.546875 323.496094 404.625 323.917969 403.980469 C 323.261719 403.664062 322.609375 403.105469 321.949219 403.089844 C 320.351562 403.042969 318.746094 403.269531 317.144531 403.359375 C 283.035156 405.363281 248.925781 407.316406 214.828125 409.398438 C 206.8125 409.890625 198.828125 410.9375 190.816406 411.480469 C 187.410156 411.714844 184.890625 413.175781 182.191406 415.136719 C 169.800781 424.132812 158.285156 434.179688 146.949219 444.40625 C 122 466.917969 94.671875 485.804688 64.175781 500.027344 C 60.148438 501.90625 56.117188 503.671875 51.726562 504.464844 C 41.980469 506.21875 31.789062 501.53125 26.902344 493.277344 C 25.582031 491.050781 26.242188 489.308594 27.820312 487.996094 C 29.652344 486.46875 31.855469 485.371094 33.925781 484.140625 C 74.417969 459.984375 113.515625 433.816406 147.488281 400.898438 C 164.761719 384.160156 184.929688 377.488281 208.453125 376.644531 C 240.566406 375.492188 272.535156 371.253906 304.734375 371.175781 C 306.332031 371.167969 307.941406 370.921875 309.519531 370.640625 C 311.09375 370.355469 312.835938 369.769531 312.652344 367.886719 C 312.582031 367.171875 310.964844 366.34375 309.914062 366.027344 C 301.453125 363.476562 293 360.878906 284.464844 358.601562 C 271.539062 355.152344 259.617188 349.40625 247.992188 342.996094 C 242.691406 340.074219 238.476562 335.964844 234.59375 331.148438 C 217.164062 309.566406 199.167969 288.441406 181.730469 266.871094 C 172.910156 255.960938 161.886719 249.714844 148.128906 247.652344 C 138.996094 246.285156 129.941406 244.402344 120.855469 242.714844 C 113.3125 241.316406 105.988281 239.234375 99.246094 235.449219 C 94.992188 233.0625 91.050781 230.183594 88.394531 226.0625 C 83.925781 219.140625 86.867188 213.082031 95.152344 212.964844 C 101.9375 212.871094 108.753906 213.945312 115.53125 214.722656 C 129.902344 216.367188 144.261719 218.109375 158.28125 221.902344 C 173.792969 226.097656 186.964844 233.683594 197.816406 245.910156 C 214.949219 265.210938 230.488281 285.6875 245.09375 306.882812 C 249.503906 313.277344 254.789062 316.941406 262.363281 318.402344 C 280.949219 321.992188 299.054688 327.257812 316.304688 335.25 C 318.910156 336.457031 322.703125 339.640625 324.664062 335.390625 C 326.53125 331.335938 328.90625 326.183594 323.863281 322.226562 C 321.664062 320.503906 319.152344 319.152344 316.691406 317.800781 C 305.339844 311.585938 294.585938 304.292969 285.605469 295.132812 C 279.304688 288.710938 274.882812 280.40625 269.863281 272.785156 C 264.78125 265.066406 260 257.152344 255.078125 249.324219 C 250.984375 242.816406 246.132812 237.113281 239.875 232.417969 C 232.40625 226.820312 227.03125 219.171875 221.875 211.460938 C 213.820312 199.410156 203.429688 190.847656 189.386719 185.925781 C 172.335938 179.953125 155.445312 173.488281 138.292969 167.777344 C 132.964844 166.003906 127.585938 164.210938 123.082031 160.652344 C 117.207031 156.015625 115.484375 151.210938 117.777344 146.113281 C 120.210938 140.699219 124.511719 138.648438 131.992188 140.519531 C 139.769531 142.464844 147.339844 145.253906 155.019531 147.601562 C 175.757812 153.941406 196.949219 158.699219 217.339844 166.300781 C 230.488281 171.203125 241.414062 178.398438 250.617188 189.171875 C 263.519531 204.265625 275.070312 219.964844 281.90625 238.8125 C 283.542969 243.316406 285.964844 247.546875 288.144531 251.847656 C 291.824219 259.085938 296.679688 264.429688 304.507812 268.355469 C 315.550781 273.894531 325.300781 281.992188 335.660156 288.910156 C 337.832031 290.359375 339.65625 293.394531 342.972656 291.390625 C 345.738281 289.714844 346.113281 286.914062 346.023438 284 C 345.699219 273.550781 345.351562 263.105469 345.039062 252.660156 C 344.855469 246.519531 345.898438 240.578125 348.929688 235.207031 C 353.839844 226.496094 361.140625 221.4375 371.460938 221.78125 C 377.53125 221.980469 379.648438 224.316406 378.105469 230.226562 C 376.699219 235.613281 374.3125 240.792969 371.929688 245.867188 C 368.765625 252.613281 367.5 259.605469 368.132812 266.960938 C 368.261719 268.429688 368.445312 270.285156 370.632812 270.359375 C 372.53125 270.425781 373.675781 269.097656 374.074219 267.570312 C 375.28125 262.90625 375.914062 258.078125 377.355469 253.5 C 378.859375 248.742188 381.613281 244.832031 387.199219 244.046875 C 391.65625 243.417969 395.308594 243.742188 395.625 249.554688 C 395.730469 251.527344 396.332031 253.496094 396.902344 255.410156 C 397.851562 258.570312 400.214844 259.769531 403.367188 259.609375 C 406.03125 259.472656 407.90625 258.214844 408.765625 255.621094 C 409.140625 254.476562 409.488281 253.324219 409.832031 252.167969 C 410.777344 248.992188 409.304688 244.320312 414.742188 243.894531 C 420.523438 243.445312 424.9375 245.574219 427.414062 251.070312 C 429.582031 255.890625 430.335938 261.0625 431.3125 266.191406 C 431.695312 268.203125 432.519531 270.257812 434.941406 270.292969 C 437.859375 270.332031 437.578125 267.742188 437.699219 265.921875 C 438.128906 259.40625 437.125 253.117188 434.355469 247.132812 C 432.332031 242.757812 430.179688 238.40625 428.652344 233.855469 C 425.273438 223.78125 428.390625 220.320312 438.972656 221.957031 C 450.121094 223.683594 458.945312 233.425781 460.273438 246.511719 C 460.960938 253.273438 460.394531 260.164062 460.394531 266.996094 C 460.5 267 460.601562 267 460.707031 267 Z M 439.804688 465.488281 C 439.84375 449.105469 436.363281 435.550781 431.054688 422.425781 C 430.226562 420.378906 429.722656 416.578125 426.996094 417.246094 C 423.636719 418.066406 426.425781 421.171875 426.539062 423.210938 C 426.675781 425.589844 427.546875 427.917969 427.917969 430.296875 C 430.421875 446.230469 428.050781 461.503906 421.539062 476.183594 C 420.929688 477.566406 420.003906 479.253906 418.179688 478.441406 C 417.597656 478.179688 417.472656 476.214844 417.628906 475.097656 C 418.902344 465.957031 420.644531 456.863281 421.546875 447.6875 C 422.574219 437.273438 422.863281 426.265625 417.929688 417.132812 C 415.199219 412.078125 415.441406 411.71875 420.007812 410.597656 C 421.546875 410.21875 423.121094 409.695312 424.472656 408.894531 C 426.832031 407.5 429.910156 406.171875 428.878906 402.664062 C 428.050781 399.839844 425.195312 400.027344 422.796875 399.984375 C 418.382812 399.90625 413.964844 399.976562 409.554688 399.804688 C 407.871094 399.738281 406.363281 398.691406 406.675781 396.847656 C 406.839844 395.886719 408.089844 394.5625 409.035156 394.386719 C 412.179688 393.804688 415.402344 393.433594 418.601562 393.402344 C 425.886719 393.332031 433.058594 392.386719 440.089844 390.679688 C 458.410156 386.230469 474.179688 368.300781 474.320312 350.234375 C 474.484375 328.707031 467.925781 309.03125 454.035156 292.292969 C 444.015625 280.214844 431.007812 275.304688 415.371094 277.722656 C 406.964844 279.023438 398.558594 278.964844 390.148438 277.695312 C 374.503906 275.335938 361.652344 280.46875 351.535156 292.457031 C 339.738281 306.433594 334.40625 323.042969 331.773438 340.851562 C 329.878906 353.65625 333.765625 364.410156 341.210938 374.636719 C 350.65625 387.613281 364.230469 391.347656 378.972656 392.914062 C 384.160156 393.464844 389.402344 393.535156 394.617188 393.867188 C 396.765625 394.003906 399.019531 394.960938 399.164062 397.03125 C 399.34375 399.472656 396.851562 399.984375 394.820312 400.023438 C 390.402344 400.109375 385.980469 399.976562 381.5625 400.015625 C 379.464844 400.03125 377.390625 400.605469 376.773438 402.839844 C 376.15625 405.078125 377.691406 406.78125 379.445312 407.714844 C 382.9375 409.570312 388.121094 410.167969 389.792969 412.96875 C 391.386719 415.636719 385.882812 418.351562 385.308594 422.675781 C 383.382812 437.203125 383.679688 451.507812 386.632812 465.816406 C 387.277344 468.957031 387.792969 472.128906 388.160156 475.3125 C 388.289062 476.433594 387.996094 478.511719 387.53125 478.621094 C 385.671875 479.0625 384.710938 477.460938 384.160156 475.976562 C 382.492188 471.464844 380.699219 466.972656 379.441406 462.339844 C 375.769531 448.847656 376.242188 435.3125 379.550781 421.800781 C 379.90625 420.351562 381.214844 418.234375 379.5 417.421875 C 376.988281 416.226562 376.320312 418.8125 375.59375 420.535156 C 366.445312 442.199219 362.3125 464.304688 369.921875 487.394531 C 371.050781 490.824219 372.453125 494.175781 373.359375 497.660156 C 373.785156 499.289062 375.503906 501.359375 373.125 502.726562 C 372.867188 502.875 370.996094 500.714844 370.222656 499.421875 C 356.582031 476.625 356.507812 452.980469 366.011719 428.800781 C 367.335938 425.441406 368.988281 422.214844 370.421875 418.894531 C 370.894531 417.804688 370.957031 416.503906 369.75 415.9375 C 369.289062 415.722656 368.210938 416.375 367.648438 416.886719 C 362.839844 421.257812 359.0625 426.425781 356.105469 432.195312 C 348.566406 446.921875 342.28125 462.082031 339.84375 478.605469 C 339.257812 482.601562 339.347656 486.933594 335.578125 489.75 C 332.996094 486.136719 333.976562 481.980469 334.101562 478.085938 C 334.722656 459.132812 341.316406 442.019531 350.625 425.769531 C 351.683594 423.914062 355.066406 421.832031 352.726562 419.972656 C 351.085938 418.667969 348.621094 421.734375 346.972656 423.378906 C 342.429688 427.914062 337.175781 432.050781 333.753906 437.34375 C 315.386719 465.796875 298.960938 495.253906 292.609375 529.074219 C 290.0625 542.644531 289.757812 556.335938 295.382812 569.402344 C 316.59375 618.695312 365.792969 653.9375 428.136719 640.648438 C 461.339844 633.570312 485.394531 612.925781 503.085938 584.289062 C 514.023438 566.585938 517.046875 547.832031 512.910156 527.613281 C 506.097656 494.320312 489.988281 465.238281 471.902344 437.09375 C 468 431.023438 462.398438 426.214844 456.792969 421.601562 C 455.617188 420.632812 454.105469 418.878906 452.753906 420.074219 C 451.304688 421.355469 453.199219 422.875 453.953125 424.089844 C 464.050781 440.414062 470.730469 457.902344 471.636719 477.230469 C 471.835938 481.464844 473.109375 486.085938 469.890625 489.949219 C 466.273438 486.84375 466.597656 482.359375 465.90625 478.285156 C 462.707031 459.414062 455.800781 441.953125 445.695312 425.789062 C 443.226562 421.832031 439.511719 414.96875 436.078125 416.582031 C 432.792969 418.125 437.972656 424.078125 439.5 427.945312 C 449.242188 452.566406 449.34375 476.503906 435.382812 499.679688 C 434.632812 500.921875 433.972656 503.375 432.304688 502.746094 C 430.507812 502.066406 431.742188 499.890625 432.179688 498.523438 C 435.875 487.058594 440.355469 475.78125 439.804688 465.488281 Z M 133.476562 624.808594 C 146.171875 621.5 161.171875 618.46875 169.003906 602.664062 C 176.3125 587.921875 183.480469 573.140625 190.269531 558.132812 C 201.796875 532.660156 206.257812 505.164062 215.050781 478.957031 C 217.226562 472.464844 213.144531 469.363281 210.210938 465.207031 C 206.886719 460.5 204.648438 461.511719 203.179688 466.34375 C 198.148438 482.851562 192.5625 499.230469 188.425781 515.960938 C 180.769531 546.917969 166.265625 574.273438 147.765625 599.960938 C 142.40625 607.410156 136.8125 611.984375 127.4375 612.300781 C 123.421875 612.4375 116.820312 612.996094 117.203125 618.234375 C 117.597656 623.558594 124.054688 623.992188 128.804688 624.789062 C 129.585938 624.917969 130.40625 624.808594 133.476562 624.808594 Z M 672.730469 624.863281 C 682.054688 624.886719 689.765625 621.242188 688.753906 617.996094 C 687.035156 612.457031 681.363281 612.863281 676.816406 611.914062 C 674.460938 611.421875 672.039062 611.277344 669.664062 610.878906 C 666.769531 610.394531 664.613281 608.941406 662.855469 606.445312 C 649.433594 587.402344 635.890625 568.527344 627.339844 546.511719 C 617.859375 522.113281 612.835938 496.394531 604.269531 471.746094 C 603.351562 469.097656 602.460938 466.4375 601.433594 463.828125 C 600.722656 462.03125 599.554688 461.554688 597.75 462.722656 C 592.21875 466.296875 589.371094 473.863281 591.253906 480.355469 C 593.375 487.671875 595.96875 494.886719 597.59375 502.316406 C 605.363281 537.960938 620.074219 570.828125 636.894531 602.941406 C 645.058594 618.523438 659.859375 621.65625 672.730469 624.863281 Z M 46.621094 497.730469 C 51.28125 497.726562 54.742188 496.738281 58 495.070312 C 70.148438 488.847656 82.480469 483.023438 94.160156 475.867188 C 121.054688 459.390625 143.964844 437.859375 168.367188 418.21875 C 176.621094 411.582031 176.628906 411.589844 173.398438 401.726562 C 172.898438 400.195312 172.292969 398.691406 171.941406 397.128906 C 170.972656 392.765625 168.703125 391.796875 165.171875 394.558594 C 161.0625 397.777344 156.796875 400.875 153.074219 404.5 C 120.332031 436.378906 83.363281 462.597656 44.367188 486.136719 C 42.992188 486.96875 41.527344 487.707031 40.3125 488.730469 C 36.660156 491.816406 37.183594 495.066406 41.683594 496.75 C 43.523438 497.4375 45.585938 497.535156 46.621094 497.730469 Z M 758.507812 497.699219 C 761.699219 497.355469 766.519531 497.945312 767.660156 492.921875 C 768.578125 488.878906 764.164062 488.148438 761.714844 486.351562 C 760.425781 485.40625 758.949219 484.714844 757.585938 483.863281 C 723.109375 462.324219 689.511719 439.625 660.117188 411.238281 C 654.058594 405.386719 647.390625 400.164062 640.898438 394.777344 C 637.875 392.273438 635.140625 391.820312 633.949219 396.703125 C 633.378906 399.042969 632.917969 401.507812 631.8125 403.597656 C 628.925781 409.050781 629.90625 412.640625 635.054688 416.621094 C 647.453125 426.199219 659.207031 436.605469 671.273438 446.613281 C 694.273438 465.6875 719.121094 481.886719 746.277344 494.445312 C 749.929688 496.136719 753.621094 497.761719 758.507812 497.699219 Z M 225.585938 466.039062 C 228.53125 465.21875 232.484375 464.410156 236.226562 463.035156 C 262.566406 453.378906 288.941406 443.796875 315.15625 433.796875 C 329.464844 428.335938 342.460938 420.476562 353.640625 409.84375 C 354.785156 408.753906 356.484375 407.535156 355.753906 405.917969 C 355.058594 404.382812 353.023438 404.554688 351.527344 404.964844 C 337.234375 408.886719 322.644531 411.996094 308.753906 417.03125 C 281.613281 426.882812 254.273438 436.121094 226.964844 445.46875 C 222.804688 446.894531 218.738281 448.625 214.695312 450.359375 C 212.824219 451.160156 211.25 452.375 211.789062 454.878906 C 212.761719 459.394531 220.378906 466.054688 225.585938 466.039062 Z M 578.71875 465.761719 C 585.078125 466.460938 592.488281 461.539062 593.617188 455.261719 C 594.730469 449.054688 588.34375 449.582031 584.882812 447.730469 C 582.433594 446.425781 579.640625 445.753906 576.988281 444.84375 C 550.441406 435.746094 523.855469 426.796875 497.488281 417.171875 C 483.609375 412.101562 469.027344 408.949219 454.722656 405.074219 C 453.320312 404.695312 450.96875 404.773438 450.246094 405.636719 C 449.171875 406.917969 450.515625 408.609375 451.839844 409.503906 C 459.125 414.402344 464.691406 421.421875 472.828125 425.378906 C 505.011719 441.03125 539.089844 451.699219 572.597656 463.859375 C 574.855469 464.679688 577.183594 465.289062 578.71875 465.761719 Z M 102.308594 220.425781 C 100.097656 220.628906 97.070312 218.695312 95.921875 221.710938 C 94.878906 224.453125 97.714844 225.824219 99.574219 227.1875 C 107.265625 232.796875 116.25 234.960938 125.410156 236.398438 C 136.914062 238.210938 148.3125 240.472656 159.605469 243.324219 C 168.039062 245.453125 175.28125 249.347656 181.007812 255.980469 C 189.140625 265.402344 197.46875 274.660156 205.453125 284.207031 C 216.792969 297.761719 227.875 311.527344 239.113281 325.167969 C 240.324219 326.640625 241.535156 328.777344 243.917969 327.800781 C 246.445312 326.773438 247.125 324.234375 247.1875 321.820312 C 247.261719 318.828125 245.160156 316.671875 243.5 314.421875 C 227.515625 292.765625 211.363281 271.289062 193.273438 251.265625 C 182.574219 239.421875 169.84375 231.988281 154.664062 228.210938 C 137.46875 223.933594 119.9375 221.859375 102.308594 220.425781 Z M 710.230469 222.4375 C 709.550781 219.820312 707.492188 220.097656 705.496094 220.25 C 688.273438 221.59375 671.144531 223.625 654.269531 227.40625 C 637.363281 231.191406 623.203125 239.117188 611.4375 252.386719 C 593.808594 272.265625 577.8125 293.347656 562.125 314.710938 C 560.730469 316.613281 559.417969 318.753906 558.78125 320.988281 C 558.101562 323.386719 559.027344 325.867188 561.160156 327.339844 C 564.132812 329.390625 565.367188 326.453125 566.902344 324.875 C 568.574219 323.148438 569.996094 321.183594 571.582031 319.371094 C 589.582031 298.835938 605.265625 276.371094 624.121094 256.535156 C 630.429688 249.902344 637.570312 245.15625 646.515625 243.285156 C 657.507812 240.984375 668.488281 238.640625 679.527344 236.59375 C 689.050781 234.824219 698.433594 232.828125 706.496094 227.023438 C 708.132812 225.84375 709.632812 224.539062 710.230469 222.4375 Z M 129.628906 147.117188 C 127.21875 146.777344 125.8125 147.328125 125.035156 148.953125 C 124.25 150.585938 124.75 152.25 125.804688 153.429688 C 128.839844 156.820312 132.96875 158.398438 137.160156 159.871094 C 152.265625 165.1875 167.164062 171.160156 182.476562 175.78125 C 203.777344 182.203125 220.667969 193.828125 231.816406 213.332031 C 232.800781 215.050781 234.054688 216.746094 235.554688 218.011719 C 237.921875 220.015625 241.132812 226.15625 243.339844 221.695312 C 246.597656 215.105469 259.296875 211.5 253.929688 203.261719 C 245.257812 189.945312 233.847656 178.824219 217.597656 173.246094 C 189.539062 163.617188 160.390625 157.789062 132.445312 147.898438 C 131.316406 147.503906 130.140625 147.253906 129.628906 147.117188 Z M 681.003906 150.1875 C 679.589844 145.632812 676.324219 147.035156 673.238281 147.945312 C 646.671875 155.804688 620.117188 163.710938 593.542969 171.527344 C 578.835938 175.851562 566.820312 183.824219 557.210938 195.972656 C 549.628906 205.554688 549.0625 205.265625 556.945312 214.433594 C 559.429688 217.320312 560.039062 223.074219 564.339844 222.820312 C 568.863281 222.554688 570.753906 217.214844 573.542969 213.875 C 575.59375 211.414062 577.339844 208.6875 579.15625 206.035156 C 587.578125 193.757812 598.390625 185.015625 612.726562 179.882812 C 630.113281 173.652344 647.367188 167.066406 664.90625 161.246094 C 669.457031 159.734375 674.109375 158.308594 677.996094 155.257812 C 679.636719 153.964844 680.832031 152.445312 681.003906 150.1875 Z M 526.035156 378.144531 C 524.882812 378.144531 521.675781 378.101562 518.476562 378.164062 C 516.921875 378.195312 514.75 377.765625 514.140625 379.433594 C 512.328125 384.410156 513.152344 389.691406 513.835938 394.695312 C 514.40625 398.894531 518.722656 397.914062 521.753906 398.113281 C 545.316406 399.667969 568.882812 401.105469 592.441406 402.691406 C 600.824219 403.253906 609.167969 404.433594 617.554688 404.78125 C 623.730469 405.035156 626.441406 401.308594 627.449219 393.707031 C 628.238281 387.765625 623.9375 387.390625 620.167969 386.300781 C 618.640625 385.855469 617.039062 385.546875 615.457031 385.417969 C 586.335938 383.023438 557.210938 380.671875 526.035156 378.144531 Z M 278.339844 378.355469 C 278.335938 378.320312 278.335938 378.285156 278.332031 378.25 C 254.402344 380.191406 230.457031 381.988281 206.546875 384.167969 C 199.003906 384.859375 191.285156 384.316406 183.941406 386.789062 C 181.71875 387.539062 179.257812 387.8125 178.429688 390.667969 C 176.4375 397.53125 182.632812 405.542969 189.984375 404.738281 C 221.433594 401.296875 253.050781 400.421875 284.585938 398.261719 C 290.980469 397.820312 292.5625 395.535156 292.476562 389.421875 C 292.3125 377.917969 292.71875 377.910156 280.738281 378.230469 C 279.9375 378.253906 279.140625 378.3125 278.339844 378.355469 Z M 481.304688 355.34375 C 479.695312 362.085938 482.828125 362.40625 487.074219 361.1875 C 497.449219 358.207031 507.75 354.960938 518.183594 352.207031 C 529.097656 349.328125 539.316406 344.839844 549.226562 339.59375 C 555.722656 336.160156 556.402344 331.390625 551.640625 326.441406 C 548.855469 323.546875 545.695312 324.628906 542.667969 325.238281 C 525.382812 328.699219 508.574219 333.648438 492.203125 340.347656 C 484.492188 343.503906 480.269531 347.824219 481.304688 355.34375 Z M 324.738281 356.890625 C 322.890625 352.714844 326.105469 346.167969 319.097656 342.945312 C 300.476562 334.367188 281.039062 328.636719 260.945312 324.835938 C 255.109375 323.734375 253.039062 327.390625 251.367188 331.632812 C 249.472656 336.433594 253.335938 337.824219 256.445312 339.582031 C 276.179688 350.738281 298.382812 354.757812 319.664062 361.425781 C 322.589844 362.339844 325.460938 361.980469 324.738281 356.890625 Z M 295.628906 271.519531 C 291.195312 271.394531 289.296875 274.402344 287.941406 277.90625 C 286.277344 282.210938 285.558594 286.378906 289.761719 289.917969 C 300.507812 298.972656 311.671875 307.410156 324.207031 313.875 C 325.910156 314.753906 327.917969 316.597656 329.644531 314.996094 C 333.570312 311.359375 334.707031 306.023438 336.765625 301.3125 C 338.515625 297.300781 334.886719 295.558594 332.382812 293.847656 C 322.796875 287.296875 313.105469 280.90625 303.382812 274.550781 C 301.046875 273.027344 298.546875 271.667969 295.628906 271.519531 Z M 519.050781 283.113281 C 518.953125 273.414062 512.300781 268.914062 504.015625 273.820312 C 493 280.339844 482.535156 287.804688 471.878906 294.929688 C 468.902344 296.921875 467.53125 299.414062 469.589844 303.0625 C 471.15625 305.839844 472.320312 308.859375 473.566406 311.8125 C 475.148438 315.566406 477.320312 316.257812 481.058594 314.265625 C 493.875 307.4375 505.449219 298.886719 516.476562 289.53125 C 518.480469 287.828125 519.226562 285.667969 519.050781 283.113281 Z M 287.835938 263.574219 C 287.089844 262.152344 286.257812 260.351562 285.234375 258.667969 C 280.007812 250.066406 276.152344 240.804688 271.964844 231.695312 C 269.792969 226.96875 267.265625 222.390625 264.679688 217.875 C 263.449219 215.71875 261.65625 214.277344 258.726562 215.289062 C 252.882812 217.3125 248.023438 227.171875 251.546875 232.089844 C 260.667969 244.824219 269.277344 257.859375 277.296875 271.304688 C 278.246094 272.898438 280.027344 275.132812 281.933594 272.9375 C 284.222656 270.304688 287.242188 267.953125 287.835938 263.574219 Z M 555.523438 226.796875 C 555.257812 226.019531 554.898438 224.441406 554.199219 223.03125 C 552.390625 219.378906 550.230469 215.613281 545.847656 215.101562 C 541.253906 214.566406 540.25 219.035156 538.617188 222.019531 C 531.714844 234.675781 527.101562 248.472656 519.296875 260.695312 C 515.558594 266.546875 520.78125 270.136719 523.964844 272.6875 C 527.542969 275.554688 529.015625 270.492188 530.398438 268.171875 C 537.179688 256.804688 544.179688 245.601562 552.308594 235.136719 C 554.046875 232.890625 555.667969 230.617188 555.523438 226.796875 Z M 323.488281 396.523438 C 323.488281 396.132812 323.492188 395.746094 323.492188 395.355469 C 330.652344 395.355469 337.816406 395.441406 344.976562 395.296875 C 346.71875 395.265625 350.394531 394.398438 348.316406 392.398438 C 342.660156 386.957031 338.636719 378.558594 331.125 376.566406 C 322.464844 374.273438 312.867188 375.125 303.960938 377.679688 C 299.09375 379.078125 297.257812 385.402344 298.636719 391.902344 C 299.851562 397.632812 304.027344 396.597656 307.964844 396.542969 C 313.140625 396.46875 318.3125 396.523438 323.488281 396.523438 Z M 482.144531 395.410156 C 482.144531 395.824219 482.144531 396.242188 482.148438 396.660156 C 488.171875 396.660156 494.199219 396.636719 500.230469 396.671875 C 502.703125 396.6875 504.988281 396.527344 506.429688 394.03125 C 510.121094 387.648438 506.449219 378.03125 499.191406 377.027344 C 485.792969 375.175781 471.738281 372.132812 462.746094 387.003906 C 462.152344 387.984375 460.960938 388.601562 460.0625 389.402344 C 458.652344 390.667969 456.179688 391.550781 457.375 394.039062 C 458.121094 395.589844 460.121094 395.371094 461.660156 395.382812 C 468.488281 395.441406 475.316406 395.410156 482.144531 395.410156 Z M 403.285156 273.136719 C 407.097656 272.707031 413.03125 272.078125 418.949219 271.363281 C 423.410156 270.824219 425.136719 268.0625 424.414062 263.84375 C 423.875 260.714844 423.101562 257.601562 422.109375 254.589844 C 421.5 252.75 420.3125 250.894531 417.921875 251.175781 C 416.058594 251.390625 415.523438 253.144531 415.132812 254.664062 C 413.933594 259.351562 413.011719 263.945312 406.996094 265.148438 C 398.796875 266.792969 394.558594 264.519531 390.917969 255.710938 C 389.921875 253.304688 389.199219 248.882812 385.75 251.941406 C 381.398438 255.796875 380.65625 261.886719 381.609375 267.488281 C 382.382812 272.023438 387.101562 271.402344 390.402344 272.039062 C 393.90625 272.71875 397.542969 272.6875 403.285156 273.136719 Z M 368.589844 228.691406 C 363.605469 228.261719 356.96875 233.476562 354.300781 240.136719 C 349.828125 251.304688 351.617188 262.882812 352.542969 274.367188 C 352.667969 275.925781 353.289062 277.589844 355.035156 278.117188 C 357.183594 278.769531 358.8125 277.476562 360.289062 276.1875 C 363.164062 273.6875 362.207031 270.308594 362.023438 267.226562 C 361.460938 257.847656 363.402344 249.058594 367.558594 240.652344 C 368.960938 237.824219 369.984375 234.773438 370.863281 231.730469 C 371.402344 229.878906 370.097656 228.902344 368.589844 228.691406 Z M 454.226562 261.230469 C 454.289062 253.765625 454.25 247.429688 451.964844 241.296875 C 449.910156 235.773438 446.441406 231.679688 441.007812 229.367188 C 439.1875 228.589844 437.183594 227.929688 435.476562 229.609375 C 434.066406 231.003906 435.078125 232.570312 435.523438 233.996094 C 436.117188 235.890625 436.703125 237.824219 437.621094 239.574219 C 442.359375 248.621094 444.484375 258.175781 443.679688 268.394531 C 443.523438 270.339844 443.488281 272.464844 444.109375 274.261719 C 444.929688 276.65625 447.199219 278.164062 449.625 278.261719 C 452.738281 278.390625 453.199219 275.578125 453.433594 273.257812 C 453.871094 268.902344 454.023438 264.519531 454.226562 261.230469 Z M 431.976562 655.363281 C 431.871094 652.304688 432.878906 648.488281 427.835938 648.449219 C 425.4375 648.429688 422.390625 648.671875 422.328125 651.707031 C 422.246094 655.800781 423.625 660.382812 427.859375 661.386719 C 431.359375 662.214844 431.222656 657.917969 431.976562 655.363281 Z M 378.769531 648.457031 C 375.089844 648.046875 373.703125 649.972656 373.761719 653.375 C 373.8125 656.636719 373.933594 660.074219 377.230469 661.742188 C 379.117188 662.695312 383.460938 656.125 383.519531 652.542969 C 383.574219 649.214844 381.273438 648.753906 378.769531 648.457031 Z M 378.769531 648.457031 " fill-opacity="1" fill-rule="nonzero"/><path fill="#10069f" d="M 324.273438 570.03125 C 324.605469 570.878906 325.15625 571.882812 325.394531 572.957031 C 328.46875 586.988281 333.589844 599.785156 346.261719 608.136719 C 347.1875 608.746094 348.132812 610.039062 347.03125 610.953125 C 346.4375 611.449219 344.820312 611.113281 343.851562 610.707031 C 330.894531 605.28125 319.882812 585.984375 321.859375 572.285156 C 322.039062 571.058594 322.320312 569.875 324.273438 570.03125 Z M 324.273438 570.03125 " fill-opacity="1" fill-rule="nonzero"/><path fill="#10069f" d="M 484.039062 574.886719 C 482.164062 589.261719 477.875 603.105469 462.53125 610.40625 C 461.207031 611.035156 459.652344 612.566406 458.394531 610.621094 C 458.109375 610.183594 459.125 608.382812 459.957031 607.824219 C 472.179688 599.617188 477.144531 587.164062 480.292969 573.589844 C 480.613281 572.230469 480.148438 569.859375 482.351562 570.097656 C 484.242188 570.304688 483.976562 572.4375 484.039062 574.886719 Z M 484.039062 574.886719 " fill-opacity="1" fill-rule="nonzero"/><path fill="#10069f" d="M 457.175781 585.140625 C 454.878906 598.121094 449.980469 609.472656 436.554688 614.910156 C 435.546875 615.316406 433.726562 615.730469 433.324219 615.257812 C 431.796875 613.460938 433.835938 612.511719 434.878906 611.707031 C 444.152344 604.5625 449.085938 594.800781 452.15625 583.816406 C 452.628906 582.121094 452.863281 579.25 455.410156 579.867188 C 457.605469 580.398438 457.222656 583.023438 457.175781 585.140625 Z M 457.175781 585.140625 " fill-opacity="1" fill-rule="nonzero"/><path fill="#10069f" d="M 348.53125 584.109375 C 348.539062 582.507812 348.53125 580.417969 350.078125 579.949219 C 352.949219 579.074219 353.101562 582.027344 353.53125 583.609375 C 356.648438 595.054688 361.992188 605.015625 371.628906 612.328125 C 372.511719 613 373.683594 614.054688 372.6875 615.082031 C 372.175781 615.609375 370.5 615.347656 369.503906 615.007812 C 358.324219 611.203125 348.785156 597.089844 348.53125 584.109375 Z M 348.53125 584.109375 " fill-opacity="1" fill-rule="nonzero"/><path fill="#10069f" d="M 354.847656 315.476562 C 355.976562 306.347656 358.382812 298.375 365.296875 292.601562 C 367.09375 291.101562 369.730469 289.601562 371.863281 291.484375 C 374.792969 294.066406 371.695312 295.53125 370.070312 296.992188 C 364.488281 302.015625 361.746094 308.671875 359.265625 315.492188 C 358.597656 317.324219 358.296875 319.738281 355.726562 319.394531 C 355.214844 319.328125 355.066406 316.523438 354.847656 315.476562 Z M 354.847656 315.476562 " fill-opacity="1" fill-rule="nonzero"/><path fill="#10069f" d="M 439.9375 318.578125 C 439.902344 319.992188 440.042969 321.917969 437.933594 322.03125 C 437.144531 322.078125 435.9375 320.800781 435.5 319.855469 C 432.992188 314.445312 431.4375 308.636719 428.3125 303.445312 C 427.132812 301.484375 422.90625 299.0625 426.722656 296.761719 C 429.136719 295.304688 431.648438 298.507812 433.433594 300.667969 C 437.675781 305.808594 439.03125 312.03125 439.9375 318.578125 Z M 439.9375 318.578125 " fill-opacity="1" fill-rule="nonzero"/><path fill="#10069f" d="M 397.820312 439.769531 C 397.90625 440.972656 398.078125 442.175781 398.042969 443.375 C 397.972656 446.082031 400.554688 450.609375 398.074219 451.023438 C 394.792969 451.570312 394.941406 446.6875 394.140625 443.917969 C 393.703125 442.40625 393.632812 440.734375 393.679688 439.136719 C 393.785156 435.609375 393.269531 429.445312 396.191406 429.648438 C 400.160156 429.921875 396.734375 435.488281 397.800781 438.570312 C 397.925781 438.925781 397.816406 439.367188 397.820312 439.769531 Z M 397.820312 439.769531 " fill-opacity="1" fill-rule="nonzero"/><path fill="#10069f" d="M 408.007812 439.308594 C 408.902344 436.363281 407.519531 429.058594 408.839844 429.617188 C 413.792969 431.710938 412.054688 437.476562 411.882812 441.980469 C 411.753906 445.460938 410.125 451.621094 408.777344 451.195312 C 404.035156 449.6875 408.542969 445.394531 407.84375 442.292969 C 407.675781 441.558594 407.914062 440.730469 408.007812 439.308594 Z M 408.007812 439.308594 " fill-opacity="1" fill-rule="nonzero"/><path fill="#10069f" d="M 420.289062 311.046875 C 420.128906 313.054688 420.195312 313.890625 419.980469 314.640625 C 419.382812 316.753906 420.28125 320.46875 417.199219 320.292969 C 414.214844 320.121094 415.433594 316.535156 415.066406 314.382812 C 414.464844 310.84375 413.914062 307.289062 413.503906 303.71875 C 413.332031 302.226562 413.183594 300.335938 415.292969 300.011719 C 417.242188 299.710938 418.25 301.515625 418.640625 302.835938 C 419.546875 305.875 419.914062 309.070312 420.289062 311.046875 Z M 420.289062 311.046875 " fill-opacity="1" fill-rule="nonzero"/><path fill="#10069f" d="M 439.46875 292.160156 C 443.90625 291.71875 452.351562 302.703125 450.933594 307.125 C 450.457031 308.621094 448.976562 308.714844 448.265625 307.847656 C 444.738281 303.558594 441.34375 299.15625 438.078125 294.660156 C 437.277344 293.558594 438.199219 292.5625 439.46875 292.160156 Z M 439.46875 292.160156 " fill-opacity="1" fill-rule="nonzero"/><path fill="#10069f" d="M 374.042969 308.800781 C 374.164062 307.613281 374.097656 305.984375 374.527344 304.503906 C 375.515625 301.105469 377.011719 296.386719 380.917969 297.605469 C 385.507812 299.035156 381.09375 302.582031 380.601562 305.1875 C 380.308594 306.71875 379.804688 308.257812 379.117188 309.65625 C 378.054688 311.808594 379.636719 316.300781 375.476562 315.574219 C 373.40625 315.207031 374.296875 311.457031 374.042969 308.800781 Z M 374.042969 308.800781 " fill-opacity="1" fill-rule="nonzero"/><path fill="#10069f" d="M 395.160156 309.460938 C 395.160156 311.421875 395.25 313.386719 395.105469 315.335938 C 395.0625 315.886719 394.355469 316.78125 393.90625 316.8125 C 393.273438 316.859375 392.203125 316.394531 392.003906 315.882812 C 391.03125 313.34375 389.929688 310.769531 389.535156 308.109375 C 389.066406 304.925781 389.554688 300.480469 392.992188 300.429688 C 396.890625 300.375 394.574219 304.6875 394.914062 307.105469 C 395.023438 307.878906 394.933594 308.675781 394.933594 309.460938 C 395.003906 309.460938 395.085938 309.460938 395.160156 309.460938 Z M 395.160156 309.460938 " fill-opacity="1" fill-rule="nonzero"/><path fill="#10069f" d="M 431.414062 592.734375 C 431.15625 596.472656 429.597656 599.285156 427.917969 601.910156 C 426.292969 604.441406 424.046875 609.316406 421.742188 607.78125 C 418.8125 605.832031 423.25 602.679688 424.261719 599.972656 C 425.222656 597.394531 426.5625 594.957031 427.75 592.464844 C 428.257812 591.394531 428.871094 589.984375 430.175781 590.394531 C 430.859375 590.605469 431.128906 592.148438 431.414062 592.734375 Z M 431.414062 592.734375 " fill-opacity="1" fill-rule="nonzero"/><path fill="#10069f" d="M 375.261719 590.070312 C 376.175781 590.613281 377.121094 590.84375 377.421875 591.410156 C 380.019531 596.277344 382.539062 601.191406 384.957031 606.148438 C 385.1875 606.613281 384.738281 607.890625 384.300781 608.078125 C 383.785156 608.296875 382.738281 607.945312 382.265625 607.480469 C 378.210938 603.53125 375.332031 598.875 374.46875 593.199219 C 374.324219 592.246094 374.964844 591.171875 375.261719 590.070312 Z M 375.261719 590.070312 " fill-opacity="1" fill-rule="nonzero"/><path fill="#10069f" d="M 407.621094 307.585938 C 407.523438 309.484375 407.597656 310.695312 407.363281 311.847656 C 407.085938 313.21875 407.492188 315.445312 405.082031 314.992188 C 404.371094 314.859375 403.722656 313.285156 403.4375 312.261719 C 403.132812 311.148438 403.089844 309.875 403.28125 308.726562 C 403.695312 306.222656 401.871094 301.839844 405.074219 301.648438 C 408.996094 301.414062 406.277344 306.125 407.621094 307.585938 Z M 407.621094 307.585938 " fill-opacity="1" fill-rule="nonzero"/></svg>