<svg xmlns="http://www.w3.org/2000/svg" xmlns:xlink="http://www.w3.org/1999/xlink" width="1080" zoomAndPan="magnify" viewBox="0 0 810 809.999993" height="1080" preserveAspectRatio="xMidYMid meet" version="1.0"><defs><clipPath id="6d5a07f616"><path d="M 85 129 L 727 129 L 727 685.78125 L 85 685.78125 Z M 85 129 " clip-rule="nonzero"/></clipPath></defs><g clip-path="url(#6d5a07f616)"><path fill="#10069f" d="M 373.128906 662.804688 C 373.003906 662.996094 372.992188 663.1875 373.105469 663.386719 C 373.207031 663.585938 373.375 663.6875 373.597656 663.6875 C 434.9375 663.667969 465.746094 663.648438 466.027344 663.632812 C 471.894531 663.34375 475.769531 663.875 477.664062 665.222656 C 484.335938 669.988281 484.371094 679.363281 477.664062 683.738281 C 475.746094 684.96875 472.523438 685.570312 467.972656 685.542969 C 455.644531 685.449219 380.988281 685.441406 244.023438 685.519531 C 239.910156 685.519531 237.011719 684.984375 235.296875 683.910156 C 230.054688 680.597656 229.261719 673.476562 233.449219 668.394531 C 234.648438 666.941406 237.167969 665.570312 240.996094 664.277344 C 249.710938 661.320312 263.09375 656.476562 281.148438 649.742188 C 281.988281 649.425781 282.648438 648.894531 283.152344 648.152344 L 322.070312 590.148438 C 322.125 590.054688 322.171875 589.949219 322.179688 589.835938 C 322.191406 589.722656 322.171875 589.613281 322.136719 589.507812 C 322.101562 589.398438 322.035156 589.308594 321.957031 589.230469 C 321.878906 589.152344 321.777344 589.101562 321.679688 589.070312 C 284.191406 577.929688 250.808594 559.765625 221.546875 534.578125 C 207.714844 522.664062 195.179688 507.402344 183.960938 488.796875 C 171.261719 467.726562 164.539062 444.75 163.789062 419.867188 C 162.738281 384.695312 164.183594 344.523438 171.417969 307.136719 C 172.28125 302.648438 171.964844 297.074219 170.476562 290.402344 C 168.4375 281.238281 163.566406 273.914062 155.859375 268.433594 C 153.308594 266.617188 144.929688 263.648438 130.71875 259.527344 C 124.1875 257.632812 113.371094 254.265625 98.238281 249.425781 C 80.824219 243.855469 82 225.847656 98.238281 219.613281 C 112.855469 213.988281 128.871094 208.253906 146.261719 202.410156 C 148.042969 201.816406 149.433594 200.730469 150.441406 199.152344 C 161.269531 182.085938 172.703125 166.023438 187.421875 154.429688 C 224.402344 125.261719 268.726562 123.925781 312.328125 140.1875 C 351.601562 154.820312 380.855469 180.9375 400.085938 218.53125 C 407.398438 232.8125 414.710938 247.902344 422.035156 263.804688 C 422.496094 264.785156 423.066406 265.695312 423.761719 266.53125 C 427.535156 271.082031 430.03125 274.050781 431.253906 275.4375 C 448.164062 294.515625 493.027344 344.589844 565.835938 425.652344 C 572.464844 433.039062 597.753906 460.3125 641.710938 507.46875 C 665.410156 532.890625 691.714844 558.859375 713.992188 580.710938 C 720.789062 587.382812 724.71875 592.597656 725.785156 596.367188 C 727.910156 603.964844 725.960938 610.980469 719.9375 617.414062 C 719.277344 618.132812 718.527344 618.738281 717.6875 619.238281 C 704.730469 627.097656 690.011719 636.28125 673.550781 646.796875 C 654.722656 658.816406 638.125 656.914062 623.78125 641.089844 C 606.523438 622.035156 587.492188 603.445312 566.695312 585.320312 C 559.808594 579.320312 552.53125 574.515625 544.878906 570.90625 C 543.707031 570.351562 542.496094 570.265625 541.273438 570.648438 C 515.917969 578.417969 491.324219 585.628906 467.503906 592.285156 C 450.269531 597.097656 433.257812 599.746094 416.46875 600.230469 C 416.054688 600.242188 415.675781 600.347656 415.316406 600.546875 C 414.945312 600.742188 414.644531 601.011719 414.40625 601.347656 Z M 121.792969 234.109375 C 126.261719 235.679688 136.398438 238.890625 152.175781 243.742188 C 161.28125 246.554688 167.507812 249.292969 170.867188 251.960938 C 189.457031 266.75 196.367188 289.835938 192.484375 313.121094 C 186.871094 346.703125 185.179688 379.046875 185.40625 414.671875 C 185.496094 430.492188 188.046875 444.824219 193.054688 457.667969 C 207.332031 494.210938 235.679688 522.730469 269.578125 543.035156 C 319.539062 572.949219 377.953125 584.757812 435.585938 577.144531 C 447.90625 575.511719 465.601562 571.117188 488.683594 563.964844 C 506.679688 558.378906 522.011719 553.71875 534.699219 549.976562 C 547.792969 546.105469 557.199219 544.074219 562.921875 543.878906 C 579.285156 543.328125 597.214844 548.347656 611.292969 553.863281 C 641.09375 565.527344 664.253906 574.398438 680.773438 580.480469 C 681.007812 580.558594 681.1875 580.488281 681.3125 580.277344 C 681.433594 580.066406 681.410156 579.878906 681.222656 579.714844 C 676.574219 575.894531 671.957031 572.273438 667.355469 568.847656 C 641.921875 549.953125 616.769531 532.070312 591.917969 515.199219 C 590.292969 514.105469 588.546875 513.28125 586.675781 512.726562 C 534.488281 497.269531 481.269531 479.386719 427.007812 459.078125 C 398.503906 448.421875 374.167969 438.109375 354.023438 428.144531 C 327.558594 415.0625 287.597656 390.289062 285.636719 357.039062 C 283.949219 328.324219 307.332031 300.722656 330.113281 285.640625 C 330.570312 285.347656 331.027344 285.101562 331.511719 284.902344 C 332.003906 284.703125 332.507812 284.554688 333.011719 284.453125 C 333.539062 284.355469 334.066406 284.308594 334.601562 284.316406 C 335.140625 284.320312 335.664062 284.378906 336.171875 284.488281 C 336.695312 284.597656 337.210938 284.757812 337.691406 284.964844 C 338.175781 285.175781 338.632812 285.429688 339.070312 285.730469 C 339.507812 286.03125 339.910156 286.371094 340.28125 286.753906 C 340.648438 287.132812 340.972656 287.546875 341.253906 287.992188 L 341.535156 288.425781 C 341.835938 288.890625 342.082031 289.386719 342.296875 289.902344 C 342.507812 290.414062 342.664062 290.945312 342.765625 291.492188 C 342.878906 292.035156 342.933594 292.585938 342.933594 293.140625 C 342.945312 293.695312 342.890625 294.246094 342.789062 294.792969 C 342.6875 295.335938 342.53125 295.867188 342.339844 296.386719 C 342.140625 296.902344 341.894531 297.398438 341.601562 297.867188 C 341.308594 298.339844 340.972656 298.777344 340.605469 299.183594 C 340.222656 299.59375 339.808594 299.960938 339.375 300.292969 C 326.335938 310.035156 316.582031 320.546875 310.109375 331.832031 C 310.007812 332.003906 309.953125 332.1875 309.929688 332.382812 C 309.917969 332.574219 309.941406 332.765625 309.996094 332.953125 C 310.0625 333.140625 310.152344 333.304688 310.277344 333.453125 C 310.410156 333.597656 310.570312 333.710938 310.746094 333.792969 L 313.480469 335.03125 C 313.648438 335.09375 313.78125 335.203125 313.894531 335.363281 C 319.371094 342.671875 322.765625 346.96875 324.074219 348.25 C 336.136719 360.191406 349.933594 370.078125 365.476562 377.910156 C 385.839844 388.1875 406.078125 397.539062 426.191406 405.960938 C 471.097656 424.777344 515.894531 440.960938 560.570312 454.507812 C 560.738281 454.558594 560.894531 454.550781 561.0625 454.488281 C 561.230469 454.429688 561.355469 454.324219 561.457031 454.175781 C 561.546875 454.027344 561.578125 453.867188 561.566406 453.691406 C 561.554688 453.515625 561.488281 453.363281 561.378906 453.234375 L 406.613281 280.382812 C 406.097656 279.804688 405.671875 279.171875 405.335938 278.480469 C 391.472656 250.171875 383.152344 231.007812 370.261719 211.097656 C 333.359375 154.15625 236.441406 124.851562 188.113281 184.539062 C 180.945312 193.378906 174.136719 202.621094 167.699219 212.257812 C 164.753906 216.652344 160.195312 219.886719 154 221.96875 C 145.199219 224.921875 134.457031 228.601562 121.792969 233.011719 C 121.523438 233.089844 121.390625 233.269531 121.390625 233.542969 C 121.390625 233.816406 121.523438 234.003906 121.792969 234.109375 Z M 602.847656 498.292969 L 578.308594 470.886719 C 578.210938 470.769531 578.085938 470.675781 577.941406 470.613281 C 577.796875 470.546875 577.648438 470.515625 577.480469 470.519531 C 577.324219 470.523438 577.179688 470.558594 577.035156 470.632812 C 576.886719 470.703125 576.765625 470.800781 576.664062 470.921875 C 573.058594 475.355469 569.273438 474.886719 563.851562 473.296875 C 502.15625 455.105469 441.980469 432.730469 383.308594 406.171875 C 354.199219 392.992188 325.046875 377.652344 304.164062 352.464844 C 304.039062 352.296875 303.871094 352.25 303.667969 352.316406 C 303.46875 352.386719 303.378906 352.527344 303.390625 352.738281 C 303.835938 373.140625 323.546875 389.164062 339.988281 399.464844 C 368.671875 417.410156 400.050781 429.671875 432.617188 442.167969 C 487.507812 463.195312 544.085938 482.15625 602.367188 499.050781 C 602.589844 499.109375 602.757812 499.039062 602.882812 498.84375 C 603.003906 498.644531 602.996094 498.460938 602.835938 498.285156 Z M 579.230469 566.023438 C 579.160156 565.988281 579.09375 565.984375 579.015625 566.007812 C 578.949219 566.03125 578.894531 566.078125 578.859375 566.144531 C 578.828125 566.214844 578.816406 566.285156 578.847656 566.355469 C 578.871094 566.429688 578.914062 566.480469 578.980469 566.515625 C 601.550781 585.828125 622.179688 605.84375 640.871094 626.558594 C 643.914062 629.929688 646.515625 631.78125 648.675781 632.109375 C 651.476562 632.527344 654.621094 631.769531 658.105469 629.832031 C 668.386719 624.105469 680.113281 617.003906 693.292969 608.53125 C 693.617188 608.320312 693.765625 608.023438 693.730469 607.640625 C 693.699219 607.253906 693.496094 606.988281 693.136719 606.84375 C 670.738281 598.003906 644.117188 587.699219 613.265625 575.929688 C 601.226562 571.328125 589.867188 568.023438 579.207031 566.023438 Z M 385.648438 600.683594 L 347.457031 595.839844 C 347.113281 595.796875 346.789062 595.847656 346.472656 595.992188 C 346.148438 596.136719 345.902344 596.355469 345.710938 596.644531 L 301.550781 662.472656 C 301.386719 662.734375 301.375 663 301.519531 663.273438 C 301.664062 663.546875 301.898438 663.683594 302.203125 663.6875 L 319.875 663.6875 C 320.625 663.6875 321.308594 663.472656 321.914062 663.042969 C 329.113281 657.980469 340.101562 654.410156 353.449219 648.957031 C 354.269531 648.628906 354.90625 648.097656 355.386719 647.367188 L 386.0625 601.644531 C 386.117188 601.558594 386.152344 601.460938 386.164062 601.355469 C 386.175781 601.25 386.164062 601.148438 386.117188 601.050781 C 386.074219 600.949219 386.007812 600.867188 385.929688 600.804688 C 385.828125 600.738281 385.726562 600.699219 385.625 600.683594 Z M 385.648438 600.683594 " fill-opacity="1" fill-rule="nonzero"/></g><path fill="#10069f" d="M 265.128906 200.652344 C 265.203125 201.359375 265.234375 202.066406 265.21875 202.777344 C 265.207031 203.488281 265.15625 204.195312 265.074219 204.902344 C 264.992188 205.609375 264.878906 206.308594 264.726562 207.003906 C 264.578125 207.699219 264.390625 208.386719 264.171875 209.066406 C 263.953125 209.746094 263.710938 210.410156 263.421875 211.066406 C 263.132812 211.722656 262.820312 212.359375 262.460938 212.984375 C 262.125 213.609375 261.742188 214.214844 261.332031 214.800781 C 260.925781 215.390625 260.480469 215.957031 260.015625 216.503906 C 259.535156 217.054688 259.042969 217.578125 258.527344 218.074219 C 258.011719 218.574219 257.46875 219.046875 256.890625 219.496094 C 256.324219 219.945312 255.730469 220.363281 255.128906 220.753906 C 254.519531 221.148438 253.890625 221.507812 253.234375 221.839844 C 252.589844 222.171875 251.933594 222.472656 251.269531 222.738281 C 250.585938 223.011719 249.898438 223.246094 249.199219 223.449219 C 248.507812 223.648438 247.792969 223.820312 247.074219 223.957031 C 246.367188 224.089844 245.644531 224.191406 244.917969 224.253906 C 244.195312 224.320312 243.457031 224.355469 242.722656 224.351562 C 241.992188 224.347656 241.269531 224.308594 240.542969 224.234375 C 239.828125 224.164062 239.109375 224.054688 238.390625 223.914062 C 237.679688 223.769531 236.976562 223.59375 236.28125 223.382812 C 235.597656 223.171875 234.914062 222.929688 234.25 222.65625 C 233.558594 222.382812 232.902344 222.074219 232.253906 221.738281 C 231.625 221.398438 231.007812 221.03125 230.410156 220.636719 C 229.808594 220.238281 229.234375 219.8125 228.664062 219.359375 C 228.09375 218.90625 227.554688 218.429688 227.046875 217.921875 C 226.539062 217.417969 226.054688 216.890625 225.597656 216.339844 C 225.144531 215.789062 224.722656 215.214844 224.328125 214.625 C 223.925781 214.03125 223.558594 213.421875 223.21875 212.792969 C 222.890625 212.164062 222.597656 211.523438 222.324219 210.863281 C 222.050781 210.207031 221.796875 209.539062 221.589844 208.859375 C 221.382812 208.179688 221.21875 207.492188 221.085938 206.792969 C 220.957031 206.097656 220.859375 205.394531 220.792969 204.6875 C 220.730469 203.980469 220.699219 203.269531 220.710938 202.558594 C 220.703125 201.851562 220.742188 201.144531 220.824219 200.4375 C 220.90625 199.730469 221.03125 199.027344 221.183594 198.332031 C 221.332031 197.636719 221.507812 196.949219 221.726562 196.273438 C 221.945312 195.59375 222.199219 194.925781 222.488281 194.273438 C 222.765625 193.617188 223.078125 192.980469 223.417969 192.355469 C 223.765625 191.734375 224.148438 191.125 224.554688 190.539062 C 224.960938 189.949219 225.40625 189.378906 225.886719 188.832031 C 226.363281 188.285156 226.855469 187.761719 227.371094 187.261719 C 227.890625 186.761719 228.429688 186.289062 228.984375 185.84375 C 229.5625 185.394531 230.15625 184.972656 230.773438 184.582031 C 231.386719 184.191406 232.019531 183.828125 232.652344 183.496094 C 233.296875 183.167969 233.957031 182.867188 234.628906 182.601562 C 235.3125 182.332031 236 182.09375 236.6875 181.894531 C 237.390625 181.691406 238.09375 181.523438 238.8125 181.386719 C 239.53125 181.253906 240.265625 181.152344 240.992188 181.085938 C 241.714844 181.019531 242.445312 180.988281 243.164062 180.992188 C 243.894531 180.992188 244.628906 181.03125 245.34375 181.105469 C 246.070312 181.179688 246.789062 181.289062 247.511719 181.429688 C 248.210938 181.574219 248.910156 181.746094 249.605469 181.957031 C 250.3125 182.164062 250.996094 182.40625 251.664062 182.679688 C 252.328125 182.957031 252.984375 183.261719 253.625 183.601562 C 254.273438 183.9375 254.890625 184.304688 255.488281 184.707031 C 256.089844 185.101562 256.667969 185.527344 257.238281 185.980469 C 257.792969 186.433594 258.332031 186.914062 258.851562 187.417969 C 259.359375 187.921875 259.832031 188.449219 260.289062 189 C 260.746094 189.550781 261.167969 190.125 261.570312 190.71875 C 261.972656 191.308594 262.332031 191.917969 262.667969 192.546875 C 263.007812 193.175781 263.3125 193.816406 263.585938 194.472656 C 263.859375 195.128906 264.101562 195.800781 264.308594 196.480469 C 264.515625 197.160156 264.691406 197.847656 264.835938 198.546875 C 264.976562 199.242188 265.074219 199.945312 265.128906 200.652344 Z M 265.128906 200.652344 " fill-opacity="1" fill-rule="nonzero"/></svg>