<svg xmlns="http://www.w3.org/2000/svg" xmlns:xlink="http://www.w3.org/1999/xlink" width="1080" zoomAndPan="magnify" viewBox="0 0 810 809.999993" height="1080" preserveAspectRatio="xMidYMid meet" version="1.0"><defs><clipPath id="589d25a8ed"><path d="M 137 122 L 675 122 L 675 695.109375 L 137 695.109375 Z M 137 122 " clip-rule="nonzero"/></clipPath></defs><path fill="#10069f" d="M 379.714844 150.539062 L 368.871094 153.421875 C 352.179688 157.6875 351.414062 182.085938 368.128906 186.902344 C 379.75 190.578125 395.996094 184.773438 400.003906 175.476562 C 407.300781 162.296875 393.980469 146.46875 379.714844 150.539062 Z M 387.996094 169.113281 C 386.351562 174.09375 369.398438 177.523438 369.488281 170.382812 C 369.476562 169.945312 369.539062 169.523438 369.671875 169.109375 C 369.804688 168.695312 370 168.316406 370.265625 167.96875 C 370.527344 167.621094 370.839844 167.328125 371.199219 167.085938 C 371.5625 166.847656 371.953125 166.671875 372.375 166.566406 L 383.21875 163.683594 C 383.964844 163.457031 384.710938 163.449219 385.460938 163.664062 C 386.207031 163.878906 386.839844 164.277344 387.355469 164.859375 C 387.871094 165.445312 388.183594 166.125 388.300781 166.894531 C 388.417969 167.664062 388.316406 168.402344 387.996094 169.113281 Z M 387.996094 169.113281 " fill-opacity="1" fill-rule="nonzero"/><g clip-path="url(#589d25a8ed)"><path fill="#10069f" d="M 655.664062 568.007812 C 647.328125 561.648438 637.464844 558.921875 628.390625 557.980469 C 648.769531 535.726562 642.25 485.71875 613.851562 473.941406 C 698.636719 370.785156 668.484375 203.890625 504.839844 147.105469 C 456.988281 129.488281 415.78125 125.996094 410.003906 125.578125 C 404.011719 124.140625 361.121094 114.800781 337.582031 135.800781 C 333.140625 139.867188 328.226562 143.242188 322.835938 145.921875 L 306.199219 153.972656 C 306.101562 154.019531 306.003906 154.070312 305.90625 154.125 C 304.835938 154.707031 279.683594 168.804688 281.617188 200.710938 C 281.789062 203.511719 282.242188 206.265625 282.980469 208.972656 C 283.71875 211.679688 284.722656 214.285156 285.992188 216.785156 C 287.261719 219.285156 288.773438 221.632812 290.523438 223.824219 C 292.273438 226.015625 294.230469 228.007812 296.390625 229.796875 C 268.78125 250.117188 243.011719 243.835938 230.054688 223.949219 C 225.382812 216.359375 213.945312 223.105469 218.347656 230.875 C 221.0625 235.164062 224.320312 238.996094 228.113281 242.371094 C 215.980469 243.46875 212.351562 233.796875 205.925781 242.351562 C 205.710938 242.742188 205.535156 243.152344 205.402344 243.578125 C 205.265625 244.003906 205.175781 244.4375 205.125 244.882812 C 205.078125 245.324219 205.070312 245.769531 205.109375 246.214844 C 205.148438 246.660156 205.230469 247.097656 205.355469 247.523438 C 205.480469 247.953125 205.644531 248.367188 205.851562 248.761719 C 206.058594 249.160156 206.300781 249.53125 206.578125 249.878906 C 206.859375 250.226562 207.167969 250.546875 207.511719 250.832031 C 207.851562 251.121094 208.21875 251.371094 208.609375 251.585938 C 214.289062 254.480469 220.316406 255.960938 226.6875 256.039062 C 229.460938 256.0625 232.183594 255.714844 234.859375 254.992188 C 237.535156 254.269531 240.0625 253.203125 242.445312 251.789062 C 263.675781 260.65625 283.085938 255.261719 304.082031 241.003906 C 309.75 236.5 316.496094 239.464844 323.011719 239.445312 L 438.363281 239.445312 C 447.046875 239.4375 455.644531 240.296875 464.152344 242.03125 C 472.660156 243.765625 480.910156 246.335938 488.898438 249.742188 C 494.851562 252.28125 500.328125 255.613281 505.320312 259.730469 C 510.316406 263.847656 514.628906 268.585938 518.261719 273.945312 C 563.390625 340.792969 528.78125 431.445312 442.222656 468.601562 L 310.226562 468.601562 C 277.921875 451.386719 237.445312 417.460938 227.730469 353.539062 C 227.300781 350.671875 226.390625 347.96875 225 345.425781 C 223.609375 342.878906 221.820312 340.65625 219.640625 338.746094 C 206.578125 326.804688 183.894531 333.933594 180.152344 351.269531 C 173.457031 378.90625 167.90625 430.683594 202.691406 474.464844 C 170.753906 491.15625 171.292969 538.476562 194.386719 561.007812 C 139.070312 569.015625 111.449219 642.480469 168.777344 673.652344 C 175.617188 677.664062 182.820312 680.847656 190.390625 683.207031 C 197.960938 685.566406 205.703125 687.035156 213.609375 687.617188 C 244.53125 690.023438 322.722656 695.257812 416.835938 695.257812 C 477.726562 695.257812 545.289062 693.066406 611.007812 686.5 C 616.6875 685.660156 622.214844 684.234375 627.589844 682.21875 C 632.964844 680.203125 638.070312 677.644531 642.898438 674.539062 C 657.488281 665.105469 674.78125 646.503906 674.273438 611.460938 C 673.992188 591.835938 667.730469 577.214844 655.664062 568.007812 Z M 438.371094 225.851562 L 326.617188 225.851562 C 310.796875 226.976562 296.15625 216.320312 295.199219 199.886719 C 295.078125 198.230469 295.066406 196.574219 295.171875 194.917969 C 295.277344 193.261719 295.492188 191.617188 295.816406 189.992188 C 296.144531 188.363281 296.582031 186.765625 297.125 185.195312 C 297.667969 183.628906 298.316406 182.105469 299.066406 180.625 C 299.816406 179.144531 300.664062 177.71875 301.609375 176.355469 C 302.550781 174.988281 303.585938 173.691406 304.703125 172.46875 C 305.824219 171.242188 307.023438 170.097656 308.296875 169.035156 C 309.574219 167.972656 310.914062 167 312.320312 166.121094 C 323.6875 160.613281 337.070312 155.074219 346.636719 145.949219 C 366.019531 128.65625 406.859375 138.808594 407.261719 138.910156 C 407.679688 139.015625 408.101562 139.082031 408.535156 139.109375 C 439.972656 142.046875 470.507812 148.96875 500.140625 159.875 C 513.945312 164.929688 527.308594 170.964844 540.226562 177.980469 C 542.160156 188.640625 535.21875 191.757812 527.148438 191.0625 C 526.707031 191.007812 526.261719 191 525.820312 191.03125 C 525.375 191.066406 524.941406 191.144531 524.511719 191.261719 C 524.082031 191.382812 523.667969 191.542969 523.273438 191.742188 C 522.875 191.945312 522.5 192.179688 522.152344 192.453125 C 521.800781 192.730469 521.480469 193.035156 521.1875 193.371094 C 520.898438 193.707031 520.640625 194.070312 520.421875 194.457031 C 520.203125 194.84375 520.023438 195.246094 519.882812 195.667969 C 519.742188 196.089844 519.640625 196.523438 519.585938 196.964844 C 519.015625 205.769531 528.726562 205.386719 535.460938 204.113281 C 537.734375 213.617188 530.300781 218.042969 525.289062 218.84375 C 524.847656 218.910156 524.417969 219.019531 524 219.171875 C 523.578125 219.324219 523.179688 219.515625 522.796875 219.746094 C 522.414062 219.976562 522.058594 220.242188 521.730469 220.542969 C 521.398438 220.84375 521.101562 221.175781 520.839844 221.535156 C 520.574219 221.894531 520.347656 222.277344 520.15625 222.679688 C 519.96875 223.085938 519.820312 223.503906 519.714844 223.9375 C 519.605469 224.371094 519.542969 224.808594 519.523438 225.253906 C 519.503906 225.699219 519.523438 226.144531 519.59375 226.585938 C 519.660156 227.027344 519.769531 227.457031 519.917969 227.875 C 520.070312 228.296875 520.261719 228.695312 520.492188 229.078125 C 520.722656 229.460938 520.988281 229.816406 521.289062 230.148438 C 521.589844 230.476562 521.921875 230.773438 522.277344 231.039062 C 522.636719 231.304688 523.019531 231.53125 523.421875 231.71875 C 523.828125 231.910156 524.246094 232.058594 524.679688 232.167969 C 525.113281 232.273438 525.550781 232.339844 525.996094 232.359375 C 526.441406 232.378906 526.886719 232.355469 527.328125 232.289062 C 530.1875 231.800781 532.914062 230.90625 535.507812 229.605469 C 538.101562 228.304688 540.449219 226.65625 542.550781 224.65625 C 552 227.195312 562.394531 226.457031 569.34375 216.976562 C 574.433594 209.628906 563.628906 201.875 558.296875 209.050781 C 555.964844 212.296875 552.207031 212.644531 549.03125 212.183594 C 549.765625 207.289062 549.394531 202.476562 547.917969 197.75 C 549.5 196.136719 550.792969 194.320312 551.785156 192.289062 C 552.78125 190.261719 553.425781 188.125 553.726562 185.886719 C 673.25 258.082031 662.328125 401.484375 600.082031 469.363281 C 594.253906 467.890625 558.3125 468.882812 551.714844 468.613281 C 577.585938 438.625 587.941406 394.257812 580.117188 351.5625 C 569.648438 281.210938 510.621094 224.980469 438.371094 225.851562 Z M 543.898438 295.644531 C 561.121094 320.269531 570.191406 355.730469 568.988281 385.949219 C 555.5 388.328125 547.945312 381.234375 545.757812 378.734375 C 546.902344 375.386719 547.894531 371.992188 548.738281 368.558594 C 549.585938 365.125 550.277344 361.660156 550.816406 358.164062 C 551.355469 354.667969 551.742188 351.152344 551.972656 347.625 C 552.207031 344.09375 552.28125 340.5625 552.203125 337.023438 C 552.125 333.488281 551.890625 329.960938 551.5 326.445312 C 551.109375 322.929688 550.566406 319.4375 549.871094 315.96875 C 549.175781 312.5 548.328125 309.070312 547.332031 305.675781 C 546.332031 302.28125 545.1875 298.941406 543.898438 295.644531 Z M 532.707031 407.183594 C 535.542969 402.347656 538.117188 397.378906 540.433594 392.273438 C 545.539062 396.78125 557.402344 401.410156 567.816406 399.871094 C 566.878906 406.960938 565.308594 413.90625 563.105469 420.710938 C 560.902344 427.515625 558.105469 434.066406 554.710938 440.363281 C 536.214844 446.085938 522.71875 436.1875 516.644531 430.238281 C 522.613281 422.980469 527.96875 415.296875 532.707031 407.183594 Z M 507.539062 440.425781 C 515.402344 448.035156 528.949219 456.0625 544.746094 455.644531 C 541.164062 460.652344 536.976562 464.242188 533.59375 468.605469 L 471.75 468.605469 C 484.933594 460.800781 496.859375 451.410156 507.539062 440.425781 Z M 193.371094 354.480469 C 196.050781 343.214844 212.699219 344.113281 214.285156 355.59375 C 215.082031 361.242188 216.167969 366.835938 217.542969 372.371094 C 218.917969 377.910156 220.578125 383.359375 222.519531 388.726562 C 224.460938 394.089844 226.675781 399.339844 229.160156 404.476562 C 231.644531 409.613281 234.390625 414.605469 237.394531 419.457031 C 240.398438 424.308594 243.644531 428.992188 247.132812 433.503906 C 250.621094 438.019531 254.335938 442.339844 258.273438 446.46875 C 262.207031 450.597656 266.347656 454.515625 270.691406 458.214844 C 275.035156 461.914062 279.558594 465.378906 284.261719 468.609375 C 281.847656 468.679688 221.910156 468.480469 219.242188 468.671875 C 218.238281 468.808594 217.160156 469.011719 216.027344 469.269531 C 183.574219 431.375 185.71875 386.042969 193.371094 354.480469 Z M 191.429688 515.339844 C 193.535156 488.070312 217.164062 482.835938 220.703125 482.203125 C 220.703125 482.1875 591.457031 482.214844 591.488281 482.203125 C 592.800781 482.148438 624.0625 481.867188 626.472656 517.957031 C 628.585938 538.527344 617.90625 555.804688 601.285156 559.609375 L 357.632812 559.609375 C 357.988281 558.140625 358.210938 556.648438 358.304688 555.140625 C 366.464844 552.972656 377.664062 546.644531 378.109375 533.324219 C 378.253906 524.378906 364.933594 523.949219 364.507812 532.875 C 364.335938 538.03125 359.519531 540.492188 356.117188 541.597656 C 354.433594 537.492188 352.183594 533.726562 349.371094 530.296875 C 351.480469 521.40625 348.03125 513.285156 339.46875 505.042969 C 339.144531 504.734375 338.792969 504.460938 338.414062 504.226562 C 338.039062 503.988281 337.640625 503.789062 337.222656 503.628906 C 336.804688 503.46875 336.378906 503.351562 335.9375 503.277344 C 335.5 503.203125 335.054688 503.171875 334.609375 503.183594 C 334.164062 503.195312 333.722656 503.25 333.289062 503.347656 C 332.851562 503.449219 332.429688 503.585938 332.023438 503.769531 C 331.617188 503.949219 331.230469 504.171875 330.867188 504.429688 C 330.5 504.6875 330.164062 504.976562 329.859375 505.300781 C 329.550781 505.625 329.277344 505.976562 329.042969 506.351562 C 328.804688 506.730469 328.605469 507.125 328.445312 507.542969 C 328.285156 507.960938 328.167969 508.386719 328.089844 508.828125 C 328.015625 509.265625 327.984375 509.710938 327.996094 510.15625 C 328.007812 510.601562 328.0625 511.042969 328.160156 511.480469 C 328.257812 511.914062 328.398438 512.335938 328.578125 512.742188 C 328.761719 513.152344 328.980469 513.535156 329.238281 513.902344 C 329.492188 514.265625 329.785156 514.601562 330.109375 514.910156 C 333.253906 517.898438 336.890625 522.308594 336.3125 526.355469 C 335.695312 530.691406 330.550781 534.230469 328.613281 535.234375 C 322.261719 538.316406 324.746094 548.257812 331.699219 548.089844 C 335.574219 547.632812 336.410156 546.625 341.484375 542.671875 C 344.984375 548.503906 345.828125 554.015625 343.367188 559.601562 L 213.484375 559.601562 C 208.171875 556.039062 189.417969 541.488281 191.429688 515.347656 Z M 609.589844 672.972656 C 587.363281 675.199219 564.921875 676.90625 542.59375 678.203125 C 543.960938 675.957031 545.023438 673.574219 545.78125 671.058594 C 546.542969 668.542969 546.976562 665.96875 547.085938 663.34375 C 555.257812 660.898438 566.433594 654.128906 566.433594 640.628906 C 566.277344 631.691406 552.984375 631.6875 552.832031 640.628906 C 552.832031 645.964844 547.902344 648.652344 544.457031 649.882812 C 542.605469 645.734375 540.183594 641.957031 537.183594 638.550781 C 539.039062 629.476562 535.285156 621.378906 526.332031 613.316406 C 525.996094 613.027344 525.636719 612.773438 525.253906 612.554688 C 524.867188 612.335938 524.464844 612.15625 524.046875 612.015625 C 523.628906 611.878906 523.199219 611.78125 522.757812 611.722656 C 522.320312 611.667969 521.878906 611.652344 521.441406 611.683594 C 521 611.714844 520.5625 611.785156 520.136719 611.898438 C 519.710938 612.015625 519.296875 612.167969 518.898438 612.363281 C 518.503906 612.558594 518.128906 612.789062 517.777344 613.058594 C 517.425781 613.324219 517.101562 613.625 516.808594 613.953125 C 516.515625 614.285156 516.257812 614.640625 516.03125 615.023438 C 515.808594 615.40625 515.621094 615.804688 515.476562 616.222656 C 515.332031 616.640625 515.226562 617.066406 515.164062 617.503906 C 515.101562 617.941406 515.082031 618.382812 515.105469 618.824219 C 515.128906 619.265625 515.191406 619.699219 515.300781 620.128906 C 515.410156 620.558594 515.558594 620.972656 515.746094 621.371094 C 515.933594 621.773438 516.160156 622.148438 516.421875 622.507812 C 516.6875 622.863281 516.980469 623.1875 517.308594 623.488281 C 520.617188 626.429688 524.476562 630.804688 524.015625 634.972656 C 523.535156 639.4375 518.402344 643.226562 516.457031 644.3125 C 510.3125 647.542969 512.910156 657.234375 519.742188 657.074219 C 520.890625 657.074219 521.972656 656.796875 522.980469 656.25 C 525.445312 654.84375 527.695312 653.15625 529.734375 651.1875 C 538.425781 663.742188 530.144531 674.09375 523.933594 679.199219 C 386.21875 685.828125 256.644531 677.324219 214.667969 674.054688 C 207.800781 673.554688 201.082031 672.285156 194.507812 670.242188 C 187.933594 668.203125 181.679688 665.441406 175.738281 661.964844 C 155.148438 649.714844 147.105469 633.921875 151.839844 615.003906 C 161.699219 575.5625 200.039062 573.15625 209.21875 573.15625 C 318.53125 575.273438 548.515625 577.976562 604.273438 572.878906 C 625.511719 568.097656 661.101562 570.449219 660.683594 611.660156 C 661.46875 666.367188 611.628906 672.746094 609.589844 672.980469 Z M 609.589844 672.972656 " fill-opacity="1" fill-rule="nonzero"/></g><path fill="#10069f" d="M 246.734375 607.546875 C 245.820312 604.550781 244.546875 601.714844 242.917969 599.042969 C 241.285156 596.367188 239.351562 593.933594 237.109375 591.746094 C 230.515625 585.722656 221.375 595.375 227.769531 601.628906 C 229.5 603.273438 234.375 609.148438 234.003906 614.441406 C 233.929688 615.484375 233.707031 618.667969 228.503906 622.351562 C 221.292969 627.652344 229.019531 638.496094 236.375 633.445312 C 238.414062 632.082031 240.234375 630.46875 241.832031 628.609375 C 243.433594 626.746094 244.75 624.703125 245.789062 622.480469 C 248.082031 624.066406 250.273438 626.214844 250.984375 628.828125 C 252.246094 633.460938 248.492188 639.097656 245.121094 643.011719 C 244.828125 643.351562 244.574219 643.714844 244.355469 644.101562 C 244.136719 644.492188 243.957031 644.898438 243.816406 645.320312 C 243.679688 645.746094 243.582031 646.179688 243.527344 646.621094 C 243.472656 647.066406 243.464844 647.507812 243.496094 647.953125 C 243.53125 648.398438 243.605469 648.835938 243.726562 649.265625 C 243.84375 649.695312 244.007812 650.109375 244.207031 650.507812 C 244.40625 650.90625 244.644531 651.28125 244.921875 651.632812 C 245.195312 651.984375 245.503906 652.308594 245.839844 652.597656 C 246.179688 652.890625 246.542969 653.144531 246.929688 653.363281 C 247.320312 653.585938 247.726562 653.765625 248.148438 653.902344 C 248.574219 654.042969 249.007812 654.140625 249.449219 654.195312 C 249.890625 654.25 250.335938 654.261719 250.78125 654.226562 C 251.226562 654.195312 251.664062 654.117188 252.09375 654 C 252.523438 653.878906 252.9375 653.71875 253.335938 653.519531 C 253.734375 653.316406 254.109375 653.082031 254.460938 652.804688 C 254.8125 652.53125 255.136719 652.226562 255.425781 651.886719 C 263.492188 642.519531 266.402344 633.527344 264.082031 625.15625 C 261.203125 614.796875 251.320312 609.496094 246.734375 607.546875 Z M 246.734375 607.546875 " fill-opacity="1" fill-rule="nonzero"/></svg>