<svg xmlns="http://www.w3.org/2000/svg" xmlns:xlink="http://www.w3.org/1999/xlink" width="1080" zoomAndPan="magnify" viewBox="0 0 810 809.999993" height="1080" preserveAspectRatio="xMidYMid meet" version="1.0"><defs><clipPath id="0e57910040"><path d="M 247 252 L 273 252 L 273 764.710938 L 247 764.710938 Z M 247 252 " clip-rule="nonzero"/></clipPath><clipPath id="31c5b28636"><path d="M 286 45.460938 L 591 45.460938 L 591 544 L 286 544 Z M 286 45.460938 " clip-rule="nonzero"/></clipPath><clipPath id="76f6c9ade1"><path d="M 427 207 L 453 207 L 453 764.710938 L 427 764.710938 Z M 427 207 " clip-rule="nonzero"/></clipPath><clipPath id="739b4ec972"><path d="M 135 429 L 161 429 L 161 764.710938 L 135 764.710938 Z M 135 429 " clip-rule="nonzero"/></clipPath><clipPath id="65ce6c24eb"><path d="M 466 317 L 766.351562 317 L 766.351562 585 L 466 585 Z M 466 317 " clip-rule="nonzero"/></clipPath><clipPath id="2babd65987"><path d="M 603 405 L 629 405 L 629 764.710938 L 603 764.710938 Z M 603 405 " clip-rule="nonzero"/></clipPath><clipPath id="0714d83956"><path d="M 43.351562 739 L 762 739 L 762 764.710938 L 43.351562 764.710938 Z M 43.351562 739 " clip-rule="nonzero"/></clipPath></defs><path fill="#10069f" d="M 258.601562 498.171875 C 244.304688 498.171875 230.125 494.605469 217.601562 487.859375 C 211.578125 484.617188 209.324219 477.101562 212.570312 471.078125 C 215.8125 465.050781 223.332031 462.796875 229.351562 466.042969 C 238.40625 470.921875 248.246094 473.390625 258.601562 473.390625 C 258.914062 473.390625 259.25 473.402344 259.566406 473.378906 C 259.722656 473.371094 259.882812 473.363281 260.039062 473.359375 C 277.289062 472.992188 293.726562 465.316406 305.136719 452.304688 C 309.644531 447.160156 317.476562 446.648438 322.621094 451.15625 C 327.765625 455.671875 328.28125 463.496094 323.765625 468.644531 C 307.832031 486.816406 284.878906 497.558594 260.777344 498.136719 C 260.058594 498.167969 259.3125 498.171875 258.601562 498.171875 Z M 258.601562 498.171875 " fill-opacity="1" fill-rule="nonzero"/><path fill="#10069f" d="M 103.949219 402.675781 C 100.066406 402.675781 96.246094 400.859375 93.832031 397.449219 C 81.679688 380.316406 75.253906 360.101562 75.253906 338.988281 C 75.253906 297.523438 101.035156 260.085938 138.984375 244.898438 C 141.695312 177.46875 197.414062 123.453125 265.511719 123.453125 C 298.929688 123.453125 330.429688 136.335938 354.210938 159.722656 C 359.089844 164.519531 359.15625 172.367188 354.355469 177.246094 C 349.558594 182.125 341.710938 182.191406 336.832031 177.390625 C 317.71875 158.589844 292.390625 148.234375 265.511719 148.234375 C 209.351562 148.234375 163.660156 193.914062 163.660156 250.054688 C 163.660156 250.730469 163.6875 251.390625 163.710938 252.050781 L 163.75 253.398438 C 163.890625 259.007812 160.246094 264.011719 154.863281 265.597656 C 122.582031 275.097656 100.035156 305.277344 100.035156 338.988281 C 100.035156 354.9375 104.878906 370.195312 114.042969 383.117188 C 118.003906 388.699219 116.6875 396.433594 111.105469 400.394531 C 108.929688 401.933594 106.425781 402.675781 103.949219 402.675781 Z M 103.949219 402.675781 " fill-opacity="1" fill-rule="nonzero"/><g clip-path="url(#0e57910040)"><path fill="#10069f" d="M 260.300781 764.421875 C 253.457031 764.421875 247.910156 758.875 247.910156 752.03125 L 247.910156 265.1875 C 247.910156 258.34375 253.457031 252.796875 260.300781 252.796875 C 267.144531 252.796875 272.691406 258.34375 272.691406 265.1875 L 272.691406 752.03125 C 272.691406 758.875 267.144531 764.421875 260.300781 764.421875 Z M 260.300781 764.421875 " fill-opacity="1" fill-rule="nonzero"/></g><path fill="#10069f" d="M 260.300781 336.40625 C 257.128906 336.40625 253.960938 335.195312 251.539062 332.777344 C 246.699219 327.9375 246.699219 320.089844 251.539062 315.253906 L 293.648438 273.148438 C 298.492188 268.308594 306.335938 268.3125 311.171875 273.148438 C 316.011719 277.984375 316.011719 285.832031 311.171875 290.667969 L 269.058594 332.777344 C 266.640625 335.195312 263.46875 336.40625 260.300781 336.40625 Z M 260.300781 336.40625 " fill-opacity="1" fill-rule="nonzero"/><path fill="#10069f" d="M 260.300781 400.355469 C 257.128906 400.355469 253.960938 399.144531 251.539062 396.730469 L 195.742188 340.933594 C 190.90625 336.09375 190.90625 328.25 195.742188 323.410156 C 200.585938 318.574219 208.429688 318.574219 213.265625 323.410156 L 269.058594 379.207031 C 273.898438 384.046875 273.898438 391.890625 269.058594 396.730469 C 266.640625 399.148438 263.472656 400.355469 260.300781 400.355469 Z M 260.300781 400.355469 " fill-opacity="1" fill-rule="nonzero"/><g clip-path="url(#31c5b28636)"><path fill="#10069f" d="M 439.8125 543.179688 C 380.785156 543.179688 328.550781 513.707031 303.492188 466.265625 C 292.042969 444.632812 286.234375 419.75 286.234375 392.328125 C 286.234375 313.742188 303.273438 232.472656 334.214844 163.484375 C 366.234375 91.90625 407.683594 45.640625 439.8125 45.640625 C 495.246094 45.640625 575.796875 180.792969 590.796875 338.527344 C 591.445312 345.339844 586.449219 351.386719 579.632812 352.035156 C 572.8125 352.6875 566.773438 347.683594 566.125 340.871094 C 557.089844 245.8125 526.253906 177.296875 508.679688 144.917969 C 482.132812 96.007812 453.941406 70.421875 439.8125 70.421875 C 424.519531 70.421875 388.664062 102.4375 356.832031 173.613281 C 327.285156 239.492188 311.015625 317.164062 311.015625 392.328125 C 311.015625 415.667969 315.855469 436.644531 325.402344 454.679688 C 346.164062 493.984375 390 518.398438 439.816406 518.398438 C 454.59375 518.398438 469.011719 516.25 482.671875 512.015625 C 489.21875 509.972656 496.152344 513.644531 498.175781 520.179688 C 500.203125 526.71875 496.546875 533.664062 490.011719 535.683594 C 473.964844 540.660156 457.078125 543.179688 439.8125 543.179688 Z M 439.8125 543.179688 " fill-opacity="1" fill-rule="nonzero"/></g><g clip-path="url(#76f6c9ade1)"><path fill="#10069f" d="M 439.816406 764.65625 C 432.972656 764.65625 427.425781 759.105469 427.425781 752.265625 L 427.425781 219.8125 C 427.425781 212.96875 432.972656 207.421875 439.816406 207.421875 C 446.660156 207.421875 452.207031 212.96875 452.207031 219.8125 L 452.207031 752.265625 C 452.207031 759.105469 446.660156 764.65625 439.816406 764.65625 Z M 439.816406 764.65625 " fill-opacity="1" fill-rule="nonzero"/></g><path fill="#10069f" d="M 439.816406 338.261719 C 436.648438 338.261719 433.476562 337.050781 431.054688 334.632812 C 426.214844 329.796875 426.214844 321.949219 431.054688 317.109375 L 488.355469 259.808594 C 493.191406 254.964844 501.039062 254.96875 505.875 259.808594 C 510.71875 264.648438 510.71875 272.492188 505.875 277.332031 L 448.578125 334.632812 C 446.160156 337.054688 442.984375 338.261719 439.816406 338.261719 Z M 439.816406 338.261719 " fill-opacity="1" fill-rule="nonzero"/><path fill="#10069f" d="M 439.816406 445.476562 C 436.648438 445.476562 433.476562 444.265625 431.054688 441.847656 L 364.507812 375.300781 C 359.664062 370.460938 359.664062 362.613281 364.507812 357.777344 C 369.347656 352.933594 377.191406 352.9375 382.03125 357.777344 L 448.578125 424.324219 C 453.421875 429.164062 453.421875 437.011719 448.578125 441.847656 C 446.160156 444.265625 442.984375 445.476562 439.816406 445.476562 Z M 439.816406 445.476562 " fill-opacity="1" fill-rule="nonzero"/><path fill="#10069f" d="M 147.894531 635.394531 C 100.863281 635.394531 53.25 603.425781 53.25 542.324219 C 53.25 475.136719 73.277344 423.8125 85.21875 399.199219 C 92.503906 384.175781 118.554688 335.171875 147.894531 335.171875 C 177.234375 335.171875 203.285156 384.175781 210.570312 399.199219 C 222.507812 423.8125 242.539062 475.136719 242.539062 542.324219 C 242.539062 603.425781 194.925781 635.394531 147.894531 635.394531 Z M 147.894531 359.949219 C 142.28125 359.949219 124.675781 374.636719 107.515625 410.015625 C 96.5 432.714844 78.03125 480.089844 78.03125 542.328125 C 78.03125 589.246094 114.246094 610.617188 147.894531 610.617188 C 181.542969 610.617188 217.757812 589.25 217.757812 542.328125 C 217.757812 480.089844 199.285156 432.714844 188.273438 410.015625 C 171.113281 374.632812 153.507812 359.949219 147.894531 359.949219 Z M 147.894531 359.949219 " fill-opacity="1" fill-rule="nonzero"/><g clip-path="url(#739b4ec972)"><path fill="#10069f" d="M 147.894531 764.421875 C 141.050781 764.421875 135.503906 758.875 135.503906 752.03125 L 135.503906 441.808594 C 135.503906 434.964844 141.050781 429.417969 147.894531 429.417969 C 154.738281 429.417969 160.285156 434.964844 160.285156 441.808594 L 160.285156 752.03125 C 160.285156 758.875 154.738281 764.421875 147.894531 764.421875 Z M 147.894531 764.421875 " fill-opacity="1" fill-rule="nonzero"/></g><path fill="#10069f" d="M 147.894531 515.992188 C 144.722656 515.992188 141.554688 514.78125 139.132812 512.363281 C 134.292969 507.523438 134.292969 499.679688 139.132812 494.84375 L 172.519531 461.460938 C 177.363281 456.617188 185.203125 456.621094 190.042969 461.460938 C 194.882812 466.296875 194.882812 474.144531 190.042969 478.980469 L 156.65625 512.363281 C 154.234375 514.785156 151.0625 515.992188 147.894531 515.992188 Z M 147.894531 515.992188 " fill-opacity="1" fill-rule="nonzero"/><path fill="#10069f" d="M 147.894531 578.460938 C 144.722656 578.460938 141.554688 577.25 139.132812 574.828125 L 100.359375 536.054688 C 95.519531 531.21875 95.519531 523.371094 100.359375 518.535156 C 105.199219 513.695312 113.042969 513.695312 117.882812 518.535156 L 156.65625 557.308594 C 161.492188 562.148438 161.492188 569.992188 156.65625 574.828125 C 154.234375 577.25 151.066406 578.460938 147.894531 578.460938 Z M 147.894531 578.460938 " fill-opacity="1" fill-rule="nonzero"/><g clip-path="url(#65ce6c24eb)"><path fill="#10069f" d="M 673.019531 584.921875 C 643.707031 584.921875 627.070312 570.828125 614.246094 553.816406 C 596.183594 567.171875 569.511719 574.851562 549.484375 574.851562 C 503.527344 574.851562 466.140625 537.464844 466.140625 491.511719 C 466.140625 457.964844 486.675781 427.617188 517.082031 414.730469 C 520.109375 360.355469 565.308594 317.046875 620.433594 317.046875 C 674.886719 317.046875 719.777344 359.472656 723.664062 413.011719 C 750.210938 430.148438 766.425781 459.605469 766.425781 491.511719 C 766.425781 543.015625 724.523438 584.921875 673.019531 584.921875 Z M 616.285156 522.617188 C 616.480469 522.617188 616.675781 522.621094 616.871094 522.632812 C 620.851562 522.820312 624.5 524.910156 626.671875 528.253906 C 640.710938 549.859375 651.230469 560.140625 673.019531 560.140625 C 710.859375 560.140625 741.644531 529.351562 741.644531 491.511719 C 741.644531 466.289062 727.851562 443.148438 705.644531 431.117188 C 701.660156 428.960938 699.171875 424.800781 699.15625 420.269531 C 698.996094 377.015625 663.683594 341.828125 620.433594 341.828125 C 577.015625 341.828125 541.695312 377.144531 541.695312 420.558594 C 541.695312 421.121094 541.722656 421.671875 541.742188 422.226562 L 541.769531 423.074219 C 541.949219 428.707031 538.300781 433.75 532.894531 435.347656 C 508.179688 442.636719 490.921875 465.726562 490.921875 491.507812 C 490.921875 523.800781 517.191406 550.066406 549.484375 550.066406 C 570.265625 550.066406 596.945312 539.425781 606.582031 527.296875 C 608.941406 524.335938 612.515625 522.617188 616.285156 522.617188 Z M 616.285156 522.617188 " fill-opacity="1" fill-rule="nonzero"/></g><g clip-path="url(#2babd65987)"><path fill="#10069f" d="M 616.285156 764.421875 C 609.441406 764.421875 603.894531 758.875 603.894531 752.03125 L 603.894531 418.144531 C 603.894531 411.304688 609.441406 405.753906 616.285156 405.753906 C 623.128906 405.753906 628.675781 411.304688 628.675781 418.144531 L 628.675781 752.03125 C 628.675781 758.875 623.128906 764.421875 616.285156 764.421875 Z M 616.285156 764.421875 " fill-opacity="1" fill-rule="nonzero"/></g><path fill="#10069f" d="M 616.285156 470.882812 C 613.117188 470.882812 609.941406 469.671875 607.523438 467.253906 C 602.683594 462.414062 602.683594 454.566406 607.523438 449.730469 L 636.402344 420.855469 C 641.234375 416.015625 649.089844 416.015625 653.921875 420.855469 C 658.761719 425.695312 658.761719 433.539062 653.921875 438.375 L 625.042969 467.253906 C 622.628906 469.671875 619.453125 470.882812 616.285156 470.882812 Z M 616.285156 470.882812 " fill-opacity="1" fill-rule="nonzero"/><path fill="#10069f" d="M 616.285156 514.742188 C 613.117188 514.742188 609.945312 513.53125 607.523438 511.113281 L 569.257812 472.847656 C 564.414062 468.007812 564.414062 460.160156 569.257812 455.328125 C 574.09375 450.484375 581.9375 450.484375 586.777344 455.328125 L 625.042969 493.589844 C 629.886719 498.429688 629.886719 506.277344 625.042969 511.113281 C 622.628906 513.53125 619.453125 514.742188 616.285156 514.742188 Z M 616.285156 514.742188 " fill-opacity="1" fill-rule="nonzero"/><g clip-path="url(#0714d83956)"><path fill="#10069f" d="M 749.511719 764.421875 L 55.648438 764.421875 C 48.804688 764.421875 43.257812 758.875 43.257812 752.03125 C 43.257812 745.1875 48.804688 739.640625 55.648438 739.640625 L 749.511719 739.640625 C 756.355469 739.640625 761.902344 745.1875 761.902344 752.03125 C 761.902344 758.875 756.355469 764.421875 749.511719 764.421875 Z M 749.511719 764.421875 " fill-opacity="1" fill-rule="nonzero"/></g></svg>