<svg xmlns="http://www.w3.org/2000/svg" xmlns:xlink="http://www.w3.org/1999/xlink" width="1080" zoomAndPan="magnify" viewBox="0 0 810 809.999993" height="1080" preserveAspectRatio="xMidYMid meet" version="1.0"><defs><clipPath id="1b0381ca20"><path d="M 61.996094 133.597656 L 748.246094 133.597656 L 748.246094 676.597656 L 61.996094 676.597656 Z M 61.996094 133.597656 " clip-rule="nonzero"/></clipPath></defs><g clip-path="url(#1b0381ca20)"><path fill="#10069f" d="M 648.992188 579 C 635.894531 569.707031 628.085938 554.976562 625.140625 534.027344 C 625.078125 533.675781 625.023438 533.414062 624.957031 533.0625 C 601.425781 434.261719 566.238281 386.21875 520.394531 390.074219 C 510.917969 390.863281 507.414062 403.085938 515.046875 408.75 C 562.183594 443.992188 565.027344 500.449219 563.667969 655.621094 L 536.992188 655.621094 C 534.613281 635.542969 527.90625 611.875 517.003906 585.308594 C 516.097656 583.117188 514.496094 581.277344 512.410156 580.136719 C 491.667969 568.652344 477.753906 554.976562 471.066406 539.546875 C 466.007812 523.855469 456.242188 512.546875 442.03125 505.796875 C 412.566406 491.859375 364.882812 498.34375 296.265625 525.875 C 293.121094 527.097656 290.777344 529.816406 290.007812 533.0625 L 284.816406 555.152344 L 261.183594 655.621094 L 225.871094 655.621094 C 225.789062 621.34375 231.566406 573.476562 241.183594 530.082031 C 241.445312 528.941406 241.5 527.710938 241.367188 526.574219 C 230.945312 442.414062 215.078125 379.292969 194.230469 338.792969 C 192.679688 335.808594 189.769531 333.792969 186.410156 333.269531 C 103.609375 321.785156 86.523438 304.074219 83.691406 294.609375 C 83.058594 292.417969 82.15625 288.382812 83.390625 286.28125 C 86.488281 280.984375 107.019531 278.011719 116.460938 274.882812 C 178.496094 254.28125 212.535156 218.425781 217.960938 168.191406 C 271.875 228.542969 256.582031 302.09375 343.046875 337.476562 C 387.757812 355.800781 445.300781 362.375 496.964844 355.1875 C 587.121094 342.5625 635.425781 366.585938 666.011719 537.359375 C 666.109375 537.796875 666.230469 538.324219 666.390625 538.761719 C 673.761719 560.851562 686.097656 578.296875 703.199219 590.921875 C 679.914062 592.0625 661.742188 588.027344 648.992188 579 Z M 483.417969 655.621094 L 516.027344 655.621094 C 513.757812 638.789062 508.085938 618.976562 499.089844 596.445312 C 493.417969 593.203125 488.203125 589.695312 483.417969 586.011719 Z M 309.695312 655.621094 L 295.414062 600.828125 L 282.542969 655.621094 Z M 740.9375 587.066406 C 713.507812 577.859375 695.632812 560.152344 686.339844 532.886719 C 656.796875 368.6875 608.230469 318.625 494.078125 334.582031 C 445.894531 341.332031 392.382812 335.195312 350.917969 318.277344 C 267.179688 284.042969 294.132812 203.972656 214.753906 136.105469 C 207.785156 130.148438 197.03125 135.550781 197.640625 144.695312 C 201.199219 198.171875 172.496094 234.378906 109.902344 255.15625 C 95.554688 259.984375 74.3125 260.519531 65.410156 275.847656 C 61.492188 282.597656 60.921875 290.839844 63.761719 300.480469 C 71.320312 325.992188 107.703125 342.824219 178.125 353.082031 C 196.5625 391.304688 210.808594 449.867188 220.503906 527.363281 C 209.792969 576.28125 203.828125 630.722656 205.304688 666.402344 C 205.539062 672.015625 210.117188 676.398438 215.703125 676.398438 L 323.15625 676.398438 C 329.972656 676.398438 334.925781 669.941406 333.21875 663.335938 L 305.613281 557.523438 L 309.007812 543.144531 C 382.859375 514.304688 417.25 517.019531 433.128906 524.558594 C 442.175781 528.855469 448.164062 535.957031 451.40625 546.300781 C 451.503906 546.5625 451.625 546.914062 451.757812 547.179688 C 454.484375 553.664062 458.128906 559.804688 462.636719 565.675781 L 462.636719 665.96875 C 462.636719 671.753906 467.289062 676.398438 473.023438 676.398438 L 573.972656 676.398438 C 579.671875 676.398438 584.308594 671.753906 584.363281 666.054688 C 585.160156 583.296875 585.160156 525.875 578.304688 484.496094 C 574.882812 463.894531 569.6875 446.800781 562.148438 432.332031 C 581.785156 457.230469 595.539062 499.398438 604.628906 537.449219 C 608.441406 563.75 619.324219 583.472656 636.953125 595.921875 C 659.976562 612.316406 694.523438 616.085938 739.683594 607.054688 C 750.109375 605.019531 751.003906 590.414062 740.9375 587.066406 Z M 740.9375 587.066406 " fill-opacity="1" fill-rule="evenodd"/></g></svg>