<svg xmlns="http://www.w3.org/2000/svg" xmlns:xlink="http://www.w3.org/1999/xlink" width="1080" zoomAndPan="magnify" viewBox="0 0 810 809.999993" height="1080" preserveAspectRatio="xMidYMid meet" version="1.0"><defs><clipPath id="7763001b0d"><path d="M 265 96.703125 L 448 96.703125 L 448 261 L 265 261 Z M 265 96.703125 " clip-rule="nonzero"/></clipPath><clipPath id="41c9c41676"><path d="M 248 478 L 702.972656 478 L 702.972656 655 L 248 655 Z M 248 478 " clip-rule="nonzero"/></clipPath><clipPath id="97ce21689e"><path d="M 106.722656 464 L 278 464 L 278 713.203125 L 106.722656 713.203125 Z M 106.722656 464 " clip-rule="nonzero"/></clipPath></defs><path fill="#10069f" d="M 512.984375 256.089844 C 496.980469 256.089844 485.316406 251.429688 478.144531 242.136719 C 463.925781 223.714844 472.816406 192.308594 489.621094 172.574219 C 501.550781 158.601562 514.617188 154.402344 538.394531 146.78125 C 546.550781 144.164062 555.792969 141.167969 567.113281 137.222656 C 585.023438 130.90625 602.757812 123.980469 619.835938 116.554688 C 620.207031 116.394531 620.585938 116.253906 620.976562 116.140625 C 621.363281 116.027344 621.761719 115.9375 622.160156 115.871094 C 622.5625 115.804688 622.964844 115.765625 623.367188 115.75 C 623.773438 115.734375 624.179688 115.742188 624.582031 115.777344 C 624.988281 115.8125 625.386719 115.871094 625.785156 115.953125 C 626.183594 116.039062 626.570312 116.144531 626.957031 116.277344 C 627.339844 116.410156 627.710938 116.566406 628.078125 116.746094 C 628.441406 116.921875 628.792969 117.125 629.132812 117.347656 C 629.472656 117.570312 629.796875 117.8125 630.105469 118.074219 C 630.414062 118.335938 630.707031 118.617188 630.980469 118.914062 C 631.257812 119.214844 631.511719 119.527344 631.746094 119.859375 C 631.984375 120.1875 632.199219 120.53125 632.390625 120.886719 C 632.582031 121.246094 632.753906 121.613281 632.902344 121.992188 C 633.050781 122.367188 633.171875 122.753906 633.273438 123.148438 C 633.371094 123.539062 633.449219 123.9375 633.5 124.339844 C 633.550781 124.742188 633.574219 125.148438 633.574219 125.550781 C 633.574219 149.296875 627.742188 172.316406 616.621094 192.125 C 608.359375 206.863281 584.476562 242.152344 541.222656 252.355469 C 530.679688 254.839844 521.265625 256.085938 512.984375 256.089844 Z M 493.703125 230.125 C 496.933594 234.335938 506.8125 240.269531 536.710938 233.21875 C 572.382812 224.796875 592.492188 194.941406 599.480469 182.492188 C 603.066406 176.039062 606 169.304688 608.273438 162.285156 C 610.546875 155.261719 612.121094 148.089844 613 140.761719 C 600.09375 146.066406 586.90625 151.085938 573.625 155.75 C 562.054688 159.816406 552.261719 162.960938 544.394531 165.480469 C 522.085938 172.628906 512.8125 175.59375 504.582031 185.304688 C 493.351562 198.519531 486.273438 220.496094 493.703125 230.125 Z M 493.703125 230.125 " fill-opacity="1" fill-rule="nonzero"/><path fill="#10069f" d="M 457.320312 320.648438 C 456.726562 320.648438 456.136719 320.597656 455.554688 320.488281 C 454.96875 320.382812 454.398438 320.222656 453.84375 320.011719 C 453.289062 319.800781 452.757812 319.542969 452.246094 319.238281 C 451.738281 318.929688 451.261719 318.578125 450.816406 318.1875 C 450.371094 317.792969 449.964844 317.363281 449.597656 316.894531 C 449.230469 316.425781 448.910156 315.929688 448.632812 315.40625 C 448.355469 314.878906 448.128906 314.332031 447.949219 313.765625 C 447.773438 313.199219 447.648438 312.621094 447.574219 312.03125 C 445.609375 296.121094 435.507812 241.746094 388.039062 210.148438 C 371.660156 199.25 352.988281 192.378906 332.554688 189.734375 C 331.914062 189.652344 331.289062 189.503906 330.675781 189.300781 C 330.066406 189.09375 329.480469 188.828125 328.921875 188.507812 C 328.363281 188.1875 327.839844 187.8125 327.355469 187.386719 C 326.867188 186.964844 326.429688 186.496094 326.035156 185.984375 C 325.640625 185.472656 325.300781 184.929688 325.015625 184.351562 C 324.730469 183.773438 324.503906 183.171875 324.335938 182.550781 C 324.167969 181.929688 324.0625 181.292969 324.015625 180.652344 C 323.972656 180.007812 323.992188 179.367188 324.078125 178.726562 C 324.160156 178.085938 324.304688 177.460938 324.511719 176.851562 C 324.714844 176.238281 324.980469 175.652344 325.300781 175.09375 C 325.621094 174.535156 325.996094 174.011719 326.417969 173.527344 C 326.84375 173.039062 327.3125 172.601562 327.820312 172.207031 C 328.332031 171.8125 328.878906 171.472656 329.453125 171.1875 C 330.03125 170.898438 330.632812 170.671875 331.253906 170.503906 C 331.878906 170.335938 332.511719 170.230469 333.15625 170.1875 C 333.796875 170.140625 334.441406 170.160156 335.078125 170.246094 C 358.535156 173.28125 379.996094 181.207031 398.945312 193.789062 C 430.105469 214.527344 447.195312 243.578125 456.492188 268.007812 C 458.445312 262.839844 460.695312 257.808594 463.246094 252.910156 C 488.769531 203.917969 535.847656 184.882812 554.902344 179.011719 C 555.515625 178.832031 556.136719 178.714844 556.773438 178.65625 C 557.410156 178.601562 558.042969 178.605469 558.679688 178.675781 C 559.3125 178.742188 559.933594 178.867188 560.542969 179.058594 C 561.152344 179.246094 561.738281 179.492188 562.300781 179.792969 C 562.863281 180.09375 563.390625 180.449219 563.882812 180.851562 C 564.375 181.257812 564.824219 181.707031 565.230469 182.199219 C 565.632812 182.691406 565.988281 183.21875 566.292969 183.78125 C 566.59375 184.339844 566.839844 184.925781 567.03125 185.535156 C 567.21875 186.144531 567.347656 186.765625 567.414062 187.402344 C 567.480469 188.035156 567.488281 188.667969 567.433594 189.304688 C 567.375 189.941406 567.261719 190.5625 567.082031 191.175781 C 566.90625 191.789062 566.671875 192.378906 566.378906 192.945312 C 566.085938 193.511719 565.742188 194.046875 565.347656 194.546875 C 564.949219 195.046875 564.507812 195.503906 564.023438 195.917969 C 563.539062 196.332031 563.019531 196.695312 562.460938 197.007812 C 561.90625 197.320312 561.324219 197.578125 560.71875 197.777344 C 544.015625 202.957031 502.785156 219.574219 480.714844 262.011719 C 476.738281 269.691406 473.609375 277.695312 471.324219 286.03125 C 469.039062 294.367188 467.644531 302.847656 467.148438 311.476562 C 467.105469 312.082031 467.011719 312.675781 466.863281 313.265625 C 466.710938 313.851562 466.507812 314.417969 466.253906 314.96875 C 466 315.519531 465.695312 316.039062 465.34375 316.53125 C 464.992188 317.027344 464.597656 317.484375 464.160156 317.902344 C 463.726562 318.324219 463.253906 318.699219 462.75 319.035156 C 462.242188 319.367188 461.710938 319.652344 461.152344 319.886719 C 460.59375 320.121094 460.019531 320.300781 459.425781 320.429688 C 458.835938 320.558594 458.234375 320.632812 457.628906 320.648438 Z M 457.320312 320.648438 " fill-opacity="1" fill-rule="nonzero"/><g clip-path="url(#7763001b0d)"><path fill="#10069f" d="M 410.070312 260.933594 C 400.398438 260.933594 390.699219 259.085938 383.273438 257.675781 C 363.75 253.972656 315.164062 240.066406 285.644531 191.363281 C 266.394531 159.582031 264.007812 127.449219 265.394531 106.085938 C 265.421875 105.683594 265.472656 105.285156 265.546875 104.890625 C 265.621094 104.496094 265.722656 104.109375 265.84375 103.726562 C 265.964844 103.34375 266.109375 102.96875 266.277344 102.605469 C 266.449219 102.242188 266.636719 101.886719 266.847656 101.546875 C 267.058594 101.207031 267.292969 100.878906 267.542969 100.566406 C 267.792969 100.253906 268.0625 99.957031 268.351562 99.675781 C 268.640625 99.394531 268.945312 99.132812 269.265625 98.890625 C 269.582031 98.648438 269.917969 98.425781 270.265625 98.226562 C 270.613281 98.023438 270.96875 97.84375 271.339844 97.6875 C 271.707031 97.527344 272.085938 97.394531 272.472656 97.28125 C 272.855469 97.171875 273.25 97.082031 273.644531 97.019531 C 274.042969 96.957031 274.441406 96.917969 274.839844 96.902344 C 275.242188 96.886719 275.644531 96.898438 276.042969 96.929688 C 276.445312 96.964844 276.839844 97.023438 277.234375 97.109375 C 277.625 97.191406 278.011719 97.296875 278.390625 97.429688 C 278.773438 97.558594 279.140625 97.710938 279.503906 97.886719 C 299.1875 107.46875 319.507812 116.925781 339.90625 126.007812 C 348.414062 129.796875 356.09375 133.140625 362.863281 136.09375 C 399.238281 151.941406 415.84375 159.175781 429.710938 178.433594 C 437.046875 188.625 442.890625 200.992188 445.757812 212.359375 C 449.609375 227.703125 447.863281 240.433594 440.730469 249.101562 C 433.1875 258.316406 421.648438 260.933594 410.070312 260.933594 Z M 284.863281 122.28125 C 285.070312 127.460938 285.59375 132.605469 286.445312 137.71875 C 287.296875 142.832031 288.460938 147.871094 289.945312 152.839844 C 291.425781 157.804688 293.214844 162.660156 295.304688 167.402344 C 297.398438 172.144531 299.777344 176.734375 302.445312 181.179688 C 327.863281 223.140625 370.003906 235.15625 386.9375 238.371094 C 397.378906 240.355469 419.101562 244.480469 425.535156 236.636719 C 432.398438 228.269531 424.835938 205.308594 413.761719 189.917969 C 403.042969 175.039062 389.960938 169.339844 355.011719 154.125 C 348.203125 151.15625 340.492188 147.808594 331.90625 143.976562 C 316.101562 136.902344 300.332031 129.652344 284.863281 122.28125 Z M 284.863281 122.28125 " fill-opacity="1" fill-rule="nonzero"/></g><path fill="#10069f" d="M 454.726562 584.089844 C 450.4375 584.089844 446.226562 583.511719 442.09375 582.363281 L 404.195312 571.886719 C 382.054688 565.765625 359.914062 559.644531 337.773438 553.527344 C 337.152344 553.355469 336.550781 553.125 335.972656 552.835938 C 335.398438 552.546875 334.851562 552.203125 334.34375 551.804688 C 333.832031 551.410156 333.367188 550.96875 332.945312 550.476562 C 332.523438 549.988281 332.152344 549.464844 331.832031 548.902344 C 331.511719 548.339844 331.25 547.753906 331.046875 547.140625 C 330.84375 546.527344 330.703125 545.898438 330.625 545.257812 C 330.542969 544.617188 330.527344 543.976562 330.574219 543.332031 C 330.621094 542.6875 330.730469 542.054688 330.90625 541.429688 C 331.078125 540.808594 331.308594 540.207031 331.597656 539.632812 C 331.886719 539.054688 332.230469 538.511719 332.628906 538 C 333.027344 537.492188 333.46875 537.027344 333.960938 536.605469 C 334.449219 536.183594 334.972656 535.8125 335.535156 535.496094 C 336.097656 535.175781 336.6875 534.914062 337.300781 534.714844 C 337.914062 534.511719 338.539062 534.371094 339.183594 534.292969 C 339.824219 534.214844 340.464844 534.199219 341.109375 534.246094 C 341.753906 534.292969 342.386719 534.40625 343.011719 534.578125 L 409.429688 552.929688 L 447.328125 563.414062 C 459.335938 566.734375 471.8125 561.632812 477.6875 551.015625 L 478.171875 550.101562 L 478.214844 550.023438 C 478.410156 549.652344 478.585938 549.28125 478.769531 548.910156 C 479.445312 547.464844 479.957031 545.96875 480.308594 544.414062 C 480.664062 542.863281 480.847656 541.289062 480.863281 539.695312 C 480.882812 538.105469 480.730469 536.527344 480.40625 534.96875 C 480.085938 533.410156 479.601562 531.898438 478.957031 530.445312 C 478.238281 528.800781 477.351562 527.25 476.300781 525.796875 C 475.253906 524.339844 474.0625 523.011719 472.734375 521.804688 C 471.402344 520.601562 469.960938 519.550781 468.40625 518.652344 C 466.855469 517.753906 465.226562 517.023438 463.519531 516.472656 L 351.699219 479.386719 C 347.863281 478.121094 343.953125 477.171875 339.964844 476.53125 C 335.976562 475.894531 331.960938 475.578125 327.925781 475.582031 C 323.886719 475.585938 319.875 475.910156 315.886719 476.558594 C 311.898438 477.203125 307.992188 478.164062 304.15625 479.4375 C 274.417969 489.386719 244.683594 499.332031 214.949219 509.261719 L 213.882812 509.621094 C 213.273438 509.824219 212.644531 509.964844 212.007812 510.046875 C 211.367188 510.125 210.726562 510.144531 210.082031 510.097656 C 209.441406 510.050781 208.808594 509.941406 208.1875 509.773438 C 207.5625 509.601562 206.964844 509.371094 206.390625 509.082031 C 205.8125 508.796875 205.269531 508.453125 204.761719 508.058594 C 204.25 507.664062 203.785156 507.222656 203.363281 506.734375 C 202.941406 506.25 202.570312 505.726562 202.25 505.164062 C 201.929688 504.605469 201.667969 504.019531 201.464844 503.410156 C 201.261719 502.796875 201.117188 502.171875 201.035156 501.53125 C 200.957031 500.894531 200.9375 500.25 200.984375 499.609375 C 201.027344 498.964844 201.136719 498.332031 201.304688 497.710938 C 201.472656 497.089844 201.703125 496.492188 201.992188 495.914062 C 202.277344 495.335938 202.617188 494.792969 203.011719 494.285156 C 203.40625 493.773438 203.847656 493.308594 204.335938 492.882812 C 204.820312 492.460938 205.34375 492.089844 205.902344 491.769531 C 206.460938 491.449219 207.046875 491.1875 207.65625 490.980469 L 208.71875 490.628906 L 297.925781 460.804688 C 302.761719 459.199219 307.691406 457.988281 312.722656 457.171875 C 317.75 456.355469 322.8125 455.945312 327.90625 455.9375 C 333 455.933594 338.0625 456.332031 343.09375 457.136719 C 348.121094 457.941406 353.058594 459.140625 357.894531 460.734375 L 469.695312 497.851562 C 472.71875 498.84375 475.605469 500.136719 478.355469 501.738281 C 481.105469 503.339844 483.65625 505.210938 486.011719 507.355469 C 488.367188 509.496094 490.46875 511.859375 492.324219 514.445312 C 494.175781 517.035156 495.738281 519.785156 497.007812 522.703125 C 498.210938 525.4375 499.105469 528.269531 499.699219 531.195312 C 500.292969 534.121094 500.570312 537.078125 500.53125 540.0625 C 500.488281 543.050781 500.132812 546 499.460938 548.90625 C 498.789062 551.816406 497.8125 554.621094 496.539062 557.324219 C 496.222656 557.984375 495.9375 558.574219 495.621094 559.167969 C 495.382812 559.632812 495.136719 560.09375 494.917969 560.574219 C 493.929688 562.355469 492.824219 564.0625 491.605469 565.699219 C 490.386719 567.332031 489.066406 568.878906 487.640625 570.335938 C 486.214844 571.792969 484.699219 573.152344 483.089844 574.40625 C 481.484375 575.660156 479.800781 576.804688 478.039062 577.832031 C 476.28125 578.863281 474.460938 579.769531 472.578125 580.554688 C 470.699219 581.34375 468.773438 582 466.804688 582.527344 C 464.835938 583.058594 462.839844 583.453125 460.816406 583.714844 C 458.792969 583.976562 456.765625 584.101562 454.726562 584.089844 Z M 454.726562 584.089844 " fill-opacity="1" fill-rule="nonzero"/><g clip-path="url(#41c9c41676)"><path fill="#10069f" d="M 437.074219 654.140625 C 425.535156 654.136719 414.152344 652.808594 402.925781 650.160156 L 336.660156 634.488281 C 329.019531 632.683594 321.277344 631.78125 313.429688 631.777344 C 292.902344 631.777344 277.390625 638.488281 268.125 642.496094 C 266.019531 643.402344 264.054688 644.320312 262.210938 645.226562 C 261.628906 645.507812 261.027344 645.730469 260.40625 645.894531 C 259.78125 646.058594 259.148438 646.160156 258.503906 646.199219 C 257.863281 646.238281 257.21875 646.214844 256.582031 646.128906 C 255.941406 646.042969 255.320312 645.894531 254.710938 645.683594 C 254.101562 645.472656 253.515625 645.207031 252.960938 644.882812 C 252.402344 644.558594 251.882812 644.179688 251.398438 643.753906 C 250.917969 643.328125 250.480469 642.859375 250.089844 642.34375 C 249.699219 641.832031 249.359375 641.285156 249.078125 640.707031 C 248.796875 640.128906 248.570312 639.527344 248.40625 638.902344 C 248.242188 638.28125 248.140625 637.648438 248.097656 637.003906 C 248.058594 636.359375 248.082031 635.71875 248.167969 635.078125 C 248.253906 634.441406 248.402344 633.816406 248.609375 633.207031 C 248.820312 632.597656 249.085938 632.011719 249.410156 631.457031 C 249.730469 630.898438 250.105469 630.378906 250.535156 629.894531 C 250.960938 629.410156 251.429688 628.972656 251.941406 628.582031 C 252.453125 628.191406 253 627.851562 253.578125 627.566406 C 255.683594 626.542969 257.941406 625.460938 260.292969 624.472656 C 270.289062 620.148438 288.835938 612.128906 313.429688 612.128906 C 322.800781 612.128906 332.050781 613.207031 341.171875 615.363281 L 407.4375 630.980469 C 413.792969 632.480469 420.230469 633.496094 426.742188 634.023438 C 433.253906 634.550781 439.765625 634.582031 446.28125 634.121094 C 452.800781 633.660156 459.242188 632.710938 465.617188 631.273438 C 471.988281 629.832031 478.21875 627.921875 484.300781 625.539062 L 665.429688 554.382812 C 677.558594 549.625 684.957031 537.539062 683.410156 525.003906 C 683.027344 521.828125 682.136719 518.800781 680.738281 515.921875 C 674.007812 502.132812 656.804688 494.972656 640.734375 499.25 L 492.230469 540.710938 C 491.609375 540.882812 490.976562 540.996094 490.332031 541.042969 C 489.6875 541.09375 489.042969 541.078125 488.402344 541 C 487.761719 540.921875 487.136719 540.78125 486.523438 540.582031 C 485.90625 540.378906 485.320312 540.121094 484.757812 539.800781 C 484.195312 539.484375 483.667969 539.117188 483.179688 538.695312 C 482.691406 538.273438 482.246094 537.808594 481.847656 537.300781 C 481.449219 536.792969 481.105469 536.25 480.8125 535.671875 C 480.523438 535.097656 480.289062 534.496094 480.117188 533.875 C 479.945312 533.253906 479.832031 532.621094 479.785156 531.976562 C 479.734375 531.332031 479.75 530.691406 479.828125 530.050781 C 479.90625 529.40625 480.046875 528.78125 480.246094 528.167969 C 480.449219 527.554688 480.707031 526.964844 481.027344 526.402344 C 481.34375 525.839844 481.710938 525.316406 482.132812 524.824219 C 482.554688 524.335938 483.019531 523.890625 483.527344 523.492188 C 484.035156 523.09375 484.578125 522.75 485.15625 522.460938 C 485.730469 522.167969 486.332031 521.9375 486.953125 521.761719 L 488.832031 521.234375 L 635.476562 480.285156 L 635.582031 480.285156 C 638.609375 479.476562 641.683594 478.921875 644.804688 478.625 C 647.921875 478.328125 651.046875 478.292969 654.171875 478.511719 C 657.296875 478.734375 660.382812 479.214844 663.429688 479.949219 C 666.476562 480.683594 669.441406 481.667969 672.324219 482.894531 C 675.132812 484.074219 677.820312 485.496094 680.378906 487.152344 C 682.9375 488.808594 685.328125 490.679688 687.554688 492.765625 C 689.777344 494.851562 691.800781 497.113281 693.621094 499.558594 C 695.445312 502.003906 697.035156 504.589844 698.394531 507.320312 C 700.757812 512.167969 702.265625 517.265625 702.914062 522.617188 C 705.554688 544.050781 693.089844 564.644531 672.617188 572.679688 L 491.449219 643.828125 C 480.734375 648.035156 469.679688 650.957031 458.285156 652.585938 C 451.25 653.609375 444.179688 654.125 437.074219 654.140625 Z M 437.074219 654.140625 " fill-opacity="1" fill-rule="nonzero"/></g><g clip-path="url(#97ce21689e)"><path fill="#10069f" d="M 194.984375 713.089844 C 183.894531 713.089844 173.5 706.226562 169.761719 695.417969 L 108.125 517.382812 C 107.566406 515.777344 107.171875 514.132812 106.945312 512.449219 C 106.714844 510.765625 106.65625 509.074219 106.765625 507.378906 C 106.878906 505.679688 107.15625 504.011719 107.601562 502.371094 C 108.050781 500.730469 108.652344 499.152344 109.417969 497.632812 C 110.199219 496.058594 111.128906 494.574219 112.210938 493.183594 C 113.292969 491.796875 114.5 490.527344 115.835938 489.382812 C 117.171875 488.238281 118.609375 487.238281 120.148438 486.382812 C 121.683594 485.523438 123.292969 484.832031 124.96875 484.300781 L 181.445312 466.050781 C 195.257812 461.574219 210.296875 468.910156 214.964844 482.40625 L 276.5625 660.398438 C 277.125 662.007812 277.519531 663.652344 277.75 665.339844 C 277.980469 667.027344 278.039062 668.71875 277.929688 670.417969 C 277.820312 672.117188 277.542969 673.789062 277.09375 675.429688 C 276.648438 677.074219 276.042969 678.65625 275.277344 680.175781 C 274.496094 681.75 273.5625 683.226562 272.480469 684.613281 C 271.402344 685.996094 270.195312 687.261719 268.859375 688.402344 C 267.523438 689.546875 266.089844 690.542969 264.554688 691.398438 C 263.019531 692.25 261.414062 692.945312 259.738281 693.476562 L 203.25 711.773438 C 200.5625 712.644531 197.808594 713.082031 194.984375 713.089844 Z M 189.824219 484.347656 C 189.03125 484.351562 188.257812 484.472656 187.503906 484.714844 L 131.011719 503.011719 C 130.144531 503.277344 129.363281 503.703125 128.667969 504.289062 C 127.972656 504.871094 127.417969 505.570312 127.003906 506.378906 C 126.644531 507.089844 126.4375 507.84375 126.382812 508.644531 C 126.332031 509.441406 126.4375 510.214844 126.703125 510.96875 L 188.332031 688.992188 C 189.523438 692.449219 193.515625 694.28125 197.222656 693.082031 L 253.710938 674.785156 C 254.578125 674.519531 255.359375 674.09375 256.054688 673.507812 C 256.75 672.921875 257.304688 672.226562 257.71875 671.417969 C 258.082031 670.707031 258.289062 669.953125 258.34375 669.15625 C 258.394531 668.359375 258.289062 667.585938 258.019531 666.835938 L 196.394531 488.796875 C 196.144531 488.132812 195.800781 487.519531 195.363281 486.960938 C 194.921875 486.402344 194.410156 485.921875 193.820312 485.523438 C 193.230469 485.125 192.597656 484.824219 191.914062 484.621094 C 191.230469 484.417969 190.535156 484.328125 189.824219 484.339844 Z M 256.734375 684.132812 Z M 256.734375 684.132812 " fill-opacity="1" fill-rule="nonzero"/></g><path fill="#10069f" d="M 584.609375 514.535156 C 584.019531 514.53125 583.433594 514.480469 582.855469 514.375 C 582.277344 514.269531 581.710938 514.109375 581.15625 513.902344 C 580.605469 513.695312 580.078125 513.441406 579.570312 513.136719 C 579.066406 512.832031 578.589844 512.488281 578.148438 512.097656 C 577.703125 511.710938 577.296875 511.285156 576.929688 510.824219 C 576.5625 510.363281 576.242188 509.871094 575.960938 509.351562 C 575.683594 508.832031 575.453125 508.292969 575.273438 507.730469 C 575.089844 507.171875 574.960938 506.597656 574.882812 506.015625 C 569.21875 463.847656 530.914062 414.820312 487.667969 394.363281 C 473.785156 387.800781 460.296875 384.535156 447.503906 384.632812 C 435.574219 384.738281 423.207031 387.8125 410.636719 393.757812 C 381.316406 407.648438 352.925781 436.878906 336.554688 470.050781 C 336.277344 470.648438 335.945312 471.207031 335.558594 471.738281 C 335.171875 472.265625 334.734375 472.75 334.25 473.191406 C 333.765625 473.632812 333.242188 474.019531 332.679688 474.355469 C 332.117188 474.691406 331.527344 474.96875 330.90625 475.1875 C 330.289062 475.40625 329.65625 475.558594 329.007812 475.652344 C 328.359375 475.742188 327.707031 475.769531 327.050781 475.730469 C 326.398438 475.691406 325.753906 475.585938 325.121094 475.417969 C 324.488281 475.25 323.878906 475.023438 323.289062 474.734375 C 322.703125 474.441406 322.148438 474.097656 321.628906 473.695312 C 321.113281 473.296875 320.636719 472.847656 320.210938 472.351562 C 319.78125 471.855469 319.40625 471.324219 319.082031 470.753906 C 318.761719 470.183594 318.496094 469.585938 318.296875 468.960938 C 318.09375 468.339844 317.953125 467.703125 317.878906 467.050781 C 317.804688 466.398438 317.792969 465.746094 317.847656 465.09375 C 317.902344 464.441406 318.023438 463.800781 318.207031 463.171875 C 318.390625 462.542969 318.632812 461.9375 318.9375 461.355469 C 337.453125 423.839844 368.585938 391.925781 402.222656 375.996094 C 417.386719 368.816406 432.5625 365.101562 447.335938 364.976562 L 448.140625 364.976562 C 463.660156 364.976562 479.773438 368.878906 496.070312 376.59375 C 545.539062 399.96875 587.796875 454.492188 594.359375 503.394531 C 594.445312 504.035156 594.46875 504.675781 594.425781 505.320312 C 594.386719 505.964844 594.285156 506.597656 594.117188 507.21875 C 593.953125 507.84375 593.730469 508.445312 593.445312 509.023438 C 593.164062 509.605469 592.824219 510.148438 592.433594 510.664062 C 592.042969 511.175781 591.605469 511.644531 591.121094 512.070312 C 590.640625 512.5 590.117188 512.875 589.5625 513.199219 C 589.003906 513.523438 588.421875 513.789062 587.808594 514 C 587.199219 514.207031 586.574219 514.355469 585.9375 514.441406 C 585.496094 514.5 585.054688 514.53125 584.609375 514.535156 Z M 584.609375 514.535156 " fill-opacity="1" fill-rule="nonzero"/><path fill="#10069f" d="M 491.859375 395.308594 C 490.984375 395.308594 490.125 395.195312 489.28125 394.964844 C 488.4375 394.734375 487.636719 394.398438 486.882812 393.953125 C 486.128906 393.511719 485.449219 392.976562 484.835938 392.351562 C 484.226562 391.726562 483.707031 391.03125 483.28125 390.265625 C 482.855469 389.5 482.539062 388.695312 482.328125 387.847656 C 482.117188 386.996094 482.023438 386.136719 482.042969 385.261719 C 482.0625 384.386719 482.195312 383.53125 482.445312 382.691406 C 482.691406 381.855469 483.046875 381.0625 483.507812 380.320312 L 512.757812 332.910156 C 513.132812 332.300781 513.425781 331.65625 513.628906 330.96875 C 513.832031 330.28125 513.941406 329.582031 513.957031 328.863281 C 513.972656 328.148438 513.894531 327.445312 513.722656 326.75 C 513.550781 326.054688 513.289062 325.394531 512.941406 324.769531 C 512.589844 324.144531 512.167969 323.578125 511.664062 323.066406 C 511.164062 322.554688 510.605469 322.117188 509.988281 321.753906 C 509.371094 321.390625 508.714844 321.117188 508.027344 320.929688 C 507.335938 320.742188 506.632812 320.648438 505.914062 320.648438 L 392.742188 320.648438 C 392.027344 320.652344 391.324219 320.746094 390.632812 320.933594 C 389.941406 321.121094 389.289062 321.398438 388.671875 321.761719 C 388.054688 322.121094 387.496094 322.558594 386.996094 323.070312 C 386.496094 323.582031 386.074219 324.148438 385.722656 324.773438 C 385.375 325.398438 385.113281 326.058594 384.941406 326.75 C 384.769531 327.445312 384.6875 328.148438 384.703125 328.863281 C 384.71875 329.582031 384.828125 330.28125 385.027344 330.96875 C 385.230469 331.652344 385.515625 332.300781 385.890625 332.910156 L 414.820312 379.730469 C 415.160156 380.277344 415.441406 380.855469 415.667969 381.460938 C 415.894531 382.066406 416.058594 382.6875 416.164062 383.324219 C 416.269531 383.960938 416.308594 384.601562 416.285156 385.246094 C 416.261719 385.894531 416.175781 386.53125 416.027344 387.160156 C 415.878906 387.789062 415.671875 388.394531 415.40625 388.984375 C 415.136719 389.570312 414.8125 390.125 414.4375 390.648438 C 414.058594 391.171875 413.632812 391.65625 413.160156 392.09375 C 412.6875 392.535156 412.175781 392.925781 411.625 393.265625 C 411.078125 393.601562 410.5 393.886719 409.894531 394.109375 C 409.289062 394.335938 408.667969 394.5 408.03125 394.605469 C 407.394531 394.707031 406.75 394.746094 406.105469 394.722656 C 405.460938 394.699219 404.824219 394.613281 404.195312 394.464844 C 403.566406 394.3125 402.960938 394.105469 402.371094 393.835938 C 401.785156 393.566406 401.230469 393.242188 400.707031 392.867188 C 400.183594 392.488281 399.703125 392.0625 399.261719 391.585938 C 398.824219 391.113281 398.433594 390.601562 398.09375 390.054688 L 369.203125 343.234375 C 368.558594 342.191406 367.984375 341.109375 367.488281 339.988281 C 366.988281 338.867188 366.5625 337.71875 366.214844 336.542969 C 365.867188 335.363281 365.601562 334.171875 365.410156 332.957031 C 365.222656 331.746094 365.117188 330.527344 365.089844 329.300781 C 365.0625 328.074219 365.117188 326.851562 365.253906 325.628906 C 365.390625 324.410156 365.605469 323.207031 365.902344 322.015625 C 366.195312 320.824219 366.570312 319.660156 367.023438 318.519531 C 367.472656 317.375 367.996094 316.269531 368.59375 315.199219 C 369.191406 314.128906 369.859375 313.101562 370.59375 312.117188 C 371.328125 311.136719 372.125 310.207031 372.984375 309.328125 C 373.839844 308.453125 374.753906 307.636719 375.71875 306.878906 C 376.6875 306.125 377.699219 305.433594 378.757812 304.8125 C 379.8125 304.191406 380.910156 303.644531 382.039062 303.167969 C 383.171875 302.691406 384.328125 302.292969 385.511719 301.972656 C 386.695312 301.648438 387.894531 301.40625 389.113281 301.242188 C 390.328125 301.082031 391.550781 301 392.777344 301 L 505.914062 301 C 507.140625 301 508.363281 301.082031 509.582031 301.242188 C 510.796875 301.40625 511.996094 301.648438 513.179688 301.96875 C 514.363281 302.292969 515.523438 302.691406 516.652344 303.167969 C 517.785156 303.640625 518.878906 304.191406 519.9375 304.8125 C 520.996094 305.433594 522.007812 306.121094 522.972656 306.878906 C 523.941406 307.632812 524.851562 308.449219 525.710938 309.328125 C 526.566406 310.203125 527.363281 311.132812 528.097656 312.117188 C 528.832031 313.101562 529.5 314.128906 530.097656 315.199219 C 530.695312 316.269531 531.21875 317.375 531.671875 318.519531 C 532.121094 319.660156 532.496094 320.824219 532.789062 322.015625 C 533.085938 323.207031 533.300781 324.410156 533.4375 325.632812 C 533.574219 326.851562 533.628906 328.074219 533.601562 329.300781 C 533.574219 330.527344 533.464844 331.746094 533.277344 332.957031 C 533.085938 334.171875 532.820312 335.367188 532.472656 336.542969 C 532.125 337.71875 531.699219 338.867188 531.199219 339.988281 C 530.699219 341.109375 530.125 342.191406 529.484375 343.234375 L 500.222656 390.640625 C 499.785156 391.355469 499.261719 392.003906 498.65625 392.582031 C 498.050781 393.160156 497.378906 393.65625 496.648438 394.0625 C 495.917969 394.472656 495.144531 394.78125 494.332031 394.992188 C 493.519531 395.203125 492.695312 395.308594 491.859375 395.308594 Z M 491.859375 395.308594 " fill-opacity="1" fill-rule="nonzero"/></svg>