<svg xmlns="http://www.w3.org/2000/svg" xmlns:xlink="http://www.w3.org/1999/xlink" width="1080" zoomAndPan="magnify" viewBox="0 0 810 809.999993" height="1080" preserveAspectRatio="xMidYMid meet" version="1.0"><defs><clipPath id="c2b352e852"><path d="M 74.78125 119.085938 L 735.53125 119.085938 L 735.53125 690.585938 L 74.78125 690.585938 Z M 74.78125 119.085938 " clip-rule="nonzero"/></clipPath></defs><g clip-path="url(#c2b352e852)"><path fill="#10069f" d="M 735.214844 467.671875 C 735.214844 436.09375 720.257812 407.992188 696.707031 394.535156 C 709.207031 359.980469 693.210938 310.953125 664.660156 295.59375 C 663.035156 255.660156 636.464844 210.898438 602.738281 210.898438 C 569.007812 210.898438 542.433594 255.660156 540.863281 295.59375 C 535.898438 298.394531 531.207031 302.226562 526.929688 306.882812 C 525.878906 270.597656 507.128906 236.054688 481.058594 222.339844 C 479.335938 173.714844 446.246094 118.90625 404.15625 118.90625 C 362.070312 118.90625 328.980469 173.714844 327.257812 222.339844 C 302.535156 235.347656 284.382812 267.082031 281.675781 301.285156 C 278.125 297.84375 274.332031 294.972656 270.363281 292.761719 C 268.726562 252.5 241.96875 207.363281 207.992188 207.363281 C 174.015625 207.363281 147.308594 252.5 145.675781 292.773438 C 116.910156 308.066406 100.761719 357.703125 113.394531 392.464844 C 89.640625 406.023438 74.558594 434.335938 74.558594 466.152344 C 74.558594 516.164062 114.695312 546.738281 185.433594 551.996094 L 185.433594 627.703125 C 170.734375 616.648438 155.324219 631.03125 158.609375 648.214844 C 142.238281 651.03125 109.695312 662.367188 110.246094 685.054688 C 110.328125 688.089844 112.816406 690.511719 115.855469 690.511719 L 689.160156 690.511719 C 700.769531 689.007812 692.378906 670.667969 686.488281 665.324219 C 666.242188 647.015625 645.851562 646.53125 625.179688 647.648438 L 625.179688 552.832031 C 695.386719 547.601562 735.214844 517.269531 735.214844 467.65625 Z M 548.773438 304.140625 C 550.742188 303.21875 552.007812 301.246094 552.011719 299.074219 C 552.117188 264.433594 575.539062 222.128906 602.738281 222.128906 C 629.933594 222.128906 653.359375 264.441406 653.519531 299.078125 C 653.527344 301.25 654.792969 303.21875 656.753906 304.140625 C 683.378906 316.082031 698.234375 364.515625 684.542969 395.199219 C 683.457031 397.953125 684.699219 401.074219 687.382812 402.328125 C 709.28125 412.621094 723.992188 438.878906 723.992188 467.671875 C 723.734375 561.613281 552.8125 552.882812 510.050781 518.722656 C 549.183594 501.300781 570.367188 471.980469 570.367188 432.769531 C 570.367188 394.058594 551.292969 359.671875 521.359375 343.585938 C 523.035156 338.804688 524.289062 333.914062 525.21875 328.941406 C 531.308594 317.203125 539.640625 308.394531 548.769531 304.140625 Z M 558.875 651.863281 C 557.5625 633.59375 563.980469 621.898438 580.292969 630.671875 L 580.292969 650.355469 C 573.148438 650.898438 566.113281 651.421875 558.875 651.859375 Z M 580.292969 618.382812 C 560.738281 611.828125 545.953125 623.128906 547.65625 652.453125 C 528.855469 653.441406 504.96875 653.097656 487.15625 650.457031 C 490.960938 642.039062 490.972656 634.472656 481.203125 627.773438 C 477.019531 625.070312 470.609375 622.550781 469.875 618.644531 C 465.488281 604.902344 457.144531 599.652344 450.886719 597.660156 C 449.714844 597.296875 448.03125 594.558594 446.800781 592.554688 C 443.925781 586.929688 437.476562 580.152344 429.738281 582.6875 L 429.738281 536.324219 C 455.8125 534.644531 478.613281 530.332031 497.824219 523.5625 C 517.300781 539.371094 546.441406 549.589844 580.285156 552.714844 L 580.285156 618.394531 Z M 273.878906 652.96875 C 255.007812 652.96875 243.140625 651.796875 230.605469 650.550781 L 230.605469 603.398438 C 234.621094 600.96875 234.859375 603.308594 237.636719 607.363281 C 239.914062 611.066406 242.746094 615.671875 247.949219 617.339844 C 253.320312 619.015625 257.128906 623.503906 259.613281 631.085938 C 262.039062 638.417969 267.140625 641.308594 272.070312 644.101562 C 275.265625 646.203125 280.132812 647.3125 278.164062 652.839844 C 276.71875 652.863281 275.335938 652.964844 273.871094 652.964844 Z M 281.585938 636.675781 C 277.351562 633.996094 271.003906 631.457031 270.277344 627.578125 C 266.632812 616.480469 260.25 609.425781 251.335938 606.644531 C 250.132812 606.257812 248.503906 603.609375 247.195312 601.488281 C 244.359375 596.039062 238.195312 589.292969 230.605469 591.542969 L 230.605469 551.855469 C 264.6875 548.714844 294.054688 538.441406 313.6875 522.554688 C 333.484375 529.742188 355.714844 534.191406 378.578125 536.070312 L 378.578125 587.058594 C 359.105469 579.363281 344.804688 594.539062 348.386719 613.179688 C 334.296875 615.054688 321.296875 631.578125 325.398438 649.242188 C 313.886719 650.679688 302.039062 651.898438 289.703125 652.515625 C 290.527344 646.203125 287.820312 640.578125 281.597656 636.667969 Z M 336.59375 647.789062 C 332.746094 630.429688 347.253906 622.9375 354.886719 623.820312 C 358.71875 624.1875 361.882812 620.007812 360.535156 616.40625 C 360.507812 616.316406 357.601562 607.53125 360.414062 600.839844 C 363.503906 595.335938 371.804688 594.238281 378.570312 600.246094 L 378.570312 642.925781 C 364.609375 644.0625 350.695312 645.925781 336.59375 647.789062 Z M 389.792969 598.019531 L 389.792969 536.800781 C 399.289062 537.261719 409.117188 537.210938 418.523438 536.867188 L 418.523438 642.117188 C 409.382812 641.652344 399.078125 641.628906 389.792969 642.15625 Z M 429.746094 594.679688 C 434.265625 591.824219 434.464844 594.410156 437.242188 598.421875 C 439.519531 602.132812 442.351562 606.746094 447.507812 608.359375 C 452.980469 610.105469 456.800781 614.582031 459.199219 622.101562 C 462.324219 631.277344 468.738281 633.15625 475.238281 637.285156 C 477.949219 638.984375 478.152344 640.449219 478.21875 640.933594 C 478.488281 642.863281 477.253906 645.730469 475.011719 648.75 C 459.960938 646.492188 446.414062 644.175781 429.738281 642.8125 L 429.738281 594.6875 Z M 335.09375 231.003906 C 337.105469 230.101562 338.402344 228.109375 338.40625 225.910156 C 338.574219 182.796875 368.949219 130.136719 404.152344 130.136719 C 439.355469 130.136719 469.730469 182.796875 469.898438 225.910156 C 469.902344 228.109375 471.199219 230.105469 473.207031 231.003906 C 507.371094 245.738281 526.777344 305.796875 509.101562 344.21875 C 507.957031 347.007812 509.226562 350.207031 511.964844 351.457031 C 540.179688 364.324219 559.132812 397.011719 559.132812 432.777344 C 559.132812 516.84375 450.746094 525.921875 404.144531 525.921875 C 333.660156 526.886719 247.625 498.003906 249.160156 432.777344 C 249.160156 397.011719 268.113281 364.324219 296.328125 351.457031 C 299.070312 350.207031 300.335938 347.015625 299.191406 344.21875 C 281.527344 305.800781 300.917969 245.726562 335.085938 231.003906 Z M 85.78125 466.15625 C 85.78125 437.128906 100.628906 410.644531 122.730469 400.253906 C 125.417969 398.992188 126.652344 395.859375 125.558594 393.105469 C 111.730469 362.289062 126.746094 313.175781 153.558594 301.34375 C 155.53125 300.429688 156.800781 298.457031 156.8125 296.277344 C 156.96875 261.308594 180.613281 218.597656 207.984375 218.597656 C 235.355469 218.597656 259.0625 261.308594 259.214844 296.277344 C 259.226562 298.46875 260.5 300.449219 262.488281 301.355469 C 269.546875 304.589844 276.128906 310.65625 281.648438 318.8125 C 282.367188 327.304688 284.140625 335.589844 286.945312 343.585938 C 257.011719 359.671875 237.9375 394.058594 237.9375 432.769531 C 237.9375 473.082031 264.046875 500.929688 301.519531 517.660156 C 256.875 552.675781 85.863281 560.253906 85.769531 466.15625 Z M 207.992188 552.90625 C 211.835938 552.90625 215.621094 552.789062 219.382812 552.617188 C 219.59375 577.292969 218.691406 624.714844 218.933594 649.445312 C 212.507812 648.878906 205.328125 648.351562 196.65625 647.96875 L 196.65625 552.636719 C 200.386719 552.765625 204.109375 552.90625 207.992188 552.90625 Z M 170.886719 637.421875 C 175.085938 632.089844 180.195312 636.894531 185.433594 643.816406 L 185.433594 647.59375 C 180.648438 647.476562 175.445312 647.398438 169.757812 647.375 C 169.089844 641.398438 170.097656 638.597656 170.886719 637.421875 Z M 678.425781 673.152344 C 680.371094 675.160156 681.757812 677.203125 682.59375 679.308594 L 122.71875 679.308594 C 130.152344 665.503906 158.328125 658.703125 166.355469 658.585938 C 197.863281 658.585938 214.625 660.246094 229.410156 661.714844 C 242.898438 663.140625 263.417969 664.824219 282.542969 663.957031 C 325.328125 663.007812 362.019531 653.109375 403.882812 652.972656 C 451.554688 652.882812 477.171875 664.011719 523.882812 664.195312 C 570.894531 664.128906 596.613281 658.5625 644.277344 658.585938 C 649.796875 658.585938 668.664062 663.0625 678.429688 673.152344 Z M 613.960938 648.121094 C 606.09375 648.503906 598.683594 648.996094 591.515625 649.523438 L 591.515625 553.472656 C 598.871094 553.851562 606.636719 553.804688 613.960938 553.484375 Z M 613.960938 648.121094 " fill-opacity="1" fill-rule="nonzero"/></g></svg>