<svg xmlns="http://www.w3.org/2000/svg" xmlns:xlink="http://www.w3.org/1999/xlink" width="1080" zoomAndPan="magnify" viewBox="0 0 810 809.999993" height="1080" preserveAspectRatio="xMidYMid meet" version="1.0"><defs><clipPath id="353cf744d5"><path d="M 60.34375 133.152344 L 749.59375 133.152344 L 749.59375 676.902344 L 60.34375 676.902344 Z M 60.34375 133.152344 " clip-rule="nonzero"/></clipPath></defs><g clip-path="url(#353cf744d5)"><path fill="#10069f" d="M 243 309.527344 C 278.148438 309.527344 306.738281 280.9375 306.738281 245.785156 C 306.738281 210.632812 278.148438 182.046875 243 182.046875 C 207.847656 182.046875 179.257812 210.632812 179.257812 245.785156 C 179.257812 280.9375 207.847656 309.527344 243 309.527344 Z M 243 199.222656 C 268.683594 199.222656 289.578125 220.117188 289.578125 245.800781 C 289.578125 271.484375 268.683594 292.378906 243 292.378906 C 217.3125 292.378906 196.417969 271.484375 196.417969 245.800781 C 196.417969 220.117188 217.3125 199.222656 243 199.222656 Z M 137.585938 272.386719 L 151.285156 274.773438 C 152.960938 280.066406 155.089844 285.199219 157.648438 290.132812 L 149.65625 301.515625 C 147.253906 304.921875 147.652344 309.570312 150.613281 312.515625 L 176.285156 338.183594 C 179.230469 341.132812 183.878906 341.53125 187.28125 339.144531 L 198.664062 331.148438 C 203.597656 333.710938 208.734375 335.839844 214.023438 337.511719 L 216.414062 351.214844 C 217.128906 355.316406 220.703125 358.320312 224.863281 358.320312 L 261.160156 358.320312 C 265.335938 358.320312 268.898438 355.316406 269.613281 351.214844 L 272 337.511719 C 277.292969 335.839844 282.425781 333.710938 287.359375 331.148438 L 298.742188 339.144531 C 302.148438 341.546875 306.796875 341.144531 309.742188 338.183594 L 335.410156 312.515625 C 338.355469 309.570312 338.757812 304.921875 336.371094 301.515625 L 328.375 290.132812 C 330.933594 285.199219 333.066406 280.066406 334.738281 274.773438 L 348.441406 272.386719 C 352.542969 271.671875 355.546875 268.097656 355.546875 263.933594 L 355.546875 227.636719 C 355.546875 223.460938 352.542969 219.902344 348.441406 219.1875 L 334.738281 216.796875 C 333.066406 211.507812 330.933594 206.371094 328.375 201.4375 L 336.382812 190.054688 C 338.785156 186.636719 338.386719 182.003906 335.425781 179.058594 L 309.753906 153.386719 C 306.808594 150.441406 302.160156 150.042969 298.757812 152.429688 L 287.375 160.421875 C 282.441406 157.863281 277.304688 155.734375 272.015625 154.058594 L 269.625 140.359375 C 268.910156 136.253906 265.351562 133.25 261.175781 133.25 L 224.878906 133.25 C 220.703125 133.25 217.140625 136.253906 216.425781 140.359375 L 214.039062 154.058594 C 208.746094 155.734375 203.613281 157.863281 198.679688 160.421875 L 187.296875 152.429688 C 183.890625 150.027344 179.246094 150.441406 176.296875 153.386719 L 150.628906 179.058594 C 147.683594 182.003906 147.28125 186.652344 149.667969 190.054688 L 157.664062 201.4375 C 155.105469 206.371094 152.972656 211.507812 151.300781 216.796875 L 137.601562 219.1875 C 133.496094 219.902344 130.492188 223.476562 130.492188 227.636719 L 130.492188 263.933594 C 130.492188 268.109375 133.496094 271.671875 137.601562 272.386719 Z M 147.640625 234.859375 L 159.539062 232.785156 C 162.871094 232.199219 165.558594 229.710938 166.386719 226.4375 C 168.261719 219.015625 171.207031 211.921875 175.140625 205.328125 C 176.882812 202.425781 176.742188 198.765625 174.796875 195.992188 L 167.847656 186.09375 L 183.304688 170.632812 L 193.203125 177.585938 C 195.976562 179.53125 199.636719 179.660156 202.539062 177.929688 C 209.117188 173.996094 216.226562 171.050781 223.648438 169.175781 C 226.9375 168.347656 229.425781 165.671875 230 162.324219 L 232.070312 150.425781 L 253.9375 150.425781 L 256.011719 162.324219 C 256.597656 165.65625 259.085938 168.347656 262.363281 169.175781 C 269.785156 171.050781 276.878906 173.996094 283.46875 177.929688 C 286.375 179.660156 290.035156 179.53125 292.808594 177.585938 L 302.703125 170.632812 L 318.164062 186.09375 L 311.214844 195.992188 C 309.269531 198.765625 309.125 202.425781 310.871094 205.328125 C 314.804688 211.921875 317.75 219.015625 319.621094 226.4375 C 320.453125 229.726562 323.125 232.214844 326.472656 232.785156 L 338.371094 234.859375 L 338.371094 256.726562 L 326.472656 258.800781 C 323.140625 259.386719 320.453125 261.875 319.621094 265.148438 C 317.75 272.574219 314.804688 279.664062 310.871094 286.257812 C 309.140625 289.160156 309.269531 292.824219 311.214844 295.597656 L 318.164062 305.492188 L 302.703125 320.953125 L 292.808594 314.003906 C 290.035156 312.058594 286.375 311.929688 283.46875 313.660156 C 276.878906 317.59375 269.785156 320.539062 262.363281 322.410156 C 259.074219 323.242188 256.585938 325.914062 256.011719 329.261719 L 253.9375 341.160156 L 232.070312 341.160156 L 230 329.261719 C 229.414062 325.929688 226.925781 323.242188 223.648438 322.410156 C 216.226562 320.539062 209.132812 317.605469 202.539062 313.660156 C 199.636719 311.929688 195.976562 312.058594 193.203125 314.003906 L 183.304688 320.953125 L 167.847656 305.492188 L 174.796875 295.597656 C 176.742188 292.824219 176.882812 289.175781 175.140625 286.257812 C 171.207031 279.664062 168.261719 272.570312 166.386719 265.148438 C 165.558594 261.859375 162.882812 259.371094 159.539062 258.800781 L 147.640625 256.726562 Z M 741.074219 659.714844 L 571.605469 659.714844 L 571.605469 481.125 C 587.421875 494.722656 607.714844 502.460938 629.097656 502.460938 C 677.75 502.460938 717.320312 462.890625 717.320312 414.238281 C 717.320312 385.722656 703.847656 359.480469 680.996094 342.890625 C 682.554688 335.109375 683.339844 327.171875 683.339844 319.207031 C 683.339844 252.867188 629.367188 198.894531 563.027344 198.894531 C 496.683594 198.894531 442.710938 252.867188 442.710938 319.207031 C 442.710938 327.1875 443.5 335.125 445.042969 342.890625 C 422.191406 359.492188 408.71875 385.734375 408.71875 414.238281 C 408.71875 462.890625 448.289062 502.460938 496.941406 502.460938 C 518.320312 502.460938 538.613281 494.722656 554.429688 481.125 L 554.429688 659.730469 L 363.285156 659.730469 L 363.285156 623.492188 L 384.734375 623.492188 C 389.46875 623.492188 393.316406 619.644531 393.316406 614.910156 L 393.316406 578.371094 C 393.316406 573.636719 389.46875 569.789062 384.734375 569.789062 L 353.714844 569.789062 L 353.714844 548.726562 L 373.679688 548.726562 C 378.414062 548.726562 382.261719 544.878906 382.261719 540.144531 L 382.261719 456.125 C 382.261719 451.390625 378.414062 447.546875 373.679688 447.546875 L 112.300781 447.546875 C 107.566406 447.546875 103.71875 451.390625 103.71875 456.125 L 103.71875 540.144531 C 103.71875 544.878906 107.566406 548.726562 112.300781 548.726562 L 132.265625 548.726562 L 132.265625 569.789062 L 101.261719 569.789062 C 96.527344 569.789062 92.679688 573.636719 92.679688 578.371094 L 92.679688 614.910156 C 92.679688 619.644531 96.527344 623.492188 101.261719 623.492188 L 122.710938 623.492188 L 122.710938 659.730469 L 68.925781 659.730469 C 64.191406 659.730469 60.34375 663.574219 60.34375 668.308594 C 60.34375 673.042969 64.191406 676.890625 68.925781 676.890625 L 741.074219 676.890625 C 745.808594 676.890625 749.652344 673.042969 749.652344 668.308594 C 749.652344 663.574219 745.808594 659.730469 741.074219 659.730469 Z M 496.941406 485.300781 C 457.757812 485.300781 425.878906 453.421875 425.878906 414.238281 C 425.878906 389.613281 438.363281 367.085938 459.257812 353.988281 C 462.417969 352.015625 463.933594 348.226562 463.019531 344.605469 C 460.929688 336.339844 459.859375 327.804688 459.859375 319.207031 C 459.859375 262.332031 506.136719 216.054688 563.011719 216.054688 C 619.886719 216.054688 666.164062 262.332031 666.164062 319.207031 C 666.164062 327.789062 665.105469 336.339844 663.003906 344.605469 C 662.089844 348.210938 663.605469 352 666.765625 353.988281 C 687.671875 367.085938 700.144531 389.613281 700.144531 414.253906 C 700.144531 453.4375 668.265625 485.3125 629.082031 485.3125 C 606.257812 485.3125 584.964844 474.375 571.59375 455.96875 L 571.59375 408.859375 L 624.777344 378.15625 C 628.882812 375.78125 630.285156 370.535156 627.925781 366.429688 C 625.550781 362.324219 620.316406 360.925781 616.199219 363.285156 L 571.59375 389.039062 L 571.59375 343.476562 C 571.59375 338.742188 567.746094 334.894531 563.011719 334.894531 C 558.277344 334.894531 554.429688 338.742188 554.429688 343.476562 L 554.429688 423.175781 L 509.828125 397.421875 C 505.722656 395.046875 500.472656 396.460938 498.097656 400.566406 C 495.726562 404.671875 497.140625 409.917969 501.246094 412.292969 L 554.429688 442.996094 L 554.429688 455.96875 C 541.058594 474.375 519.765625 485.3125 496.941406 485.3125 Z M 346.136719 659.714844 L 326.757812 659.714844 L 326.757812 623.476562 L 346.136719 623.476562 Z M 309.597656 623.476562 L 309.597656 659.714844 L 176.414062 659.714844 L 176.414062 623.476562 Z M 336.582031 569.777344 L 317.207031 569.777344 L 317.207031 548.710938 L 336.582031 548.710938 Z M 185.980469 569.777344 L 185.980469 548.710938 L 300.042969 548.710938 L 300.042969 569.777344 Z M 120.882812 464.691406 L 365.128906 464.691406 L 365.128906 531.550781 L 120.882812 531.550781 Z M 149.425781 548.710938 L 168.804688 548.710938 L 168.804688 569.777344 L 149.425781 569.777344 Z M 109.839844 586.9375 L 376.183594 586.9375 L 376.183594 606.316406 L 109.839844 606.316406 Z M 139.875 623.476562 L 159.25 623.476562 L 159.25 659.714844 L 139.875 659.714844 Z M 139.875 623.476562 " fill-opacity="1" fill-rule="nonzero"/></g></svg>