<svg xmlns="http://www.w3.org/2000/svg" xmlns:xlink="http://www.w3.org/1999/xlink" width="1080" zoomAndPan="magnify" viewBox="0 0 810 809.999993" height="1080" preserveAspectRatio="xMidYMid meet" version="1.0"><defs><clipPath id="505918d683"><path d="M 264.136719 92 L 546 92 L 546 718 L 264.136719 718 Z M 264.136719 92 " clip-rule="nonzero"/></clipPath></defs><g clip-path="url(#505918d683)"><path fill="#10069f" d="M 528.199219 632.265625 C 528.199219 669.972656 497.523438 700.648438 459.808594 700.648438 L 350.183594 700.648438 C 312.46875 700.648438 281.792969 669.972656 281.792969 632.265625 L 281.792969 516.464844 L 528.199219 516.464844 Z M 389.136719 337.097656 C 363.140625 334.253906 338.148438 322.019531 318.789062 302.65625 C 299.558594 283.433594 290.085938 253.945312 287.125 229.632812 C 311.429688 232.578125 340.894531 242.0625 360.148438 261.289062 C 379.515625 280.660156 391.730469 305.640625 394.558594 331.65625 L 395.234375 337.765625 Z M 404.996094 114.773438 C 420.089844 134.015625 434.234375 161.554688 434.234375 188.769531 C 434.234375 216.164062 425.21875 242.476562 408.863281 262.878906 L 404.996094 267.667969 L 401.152344 262.878906 C 384.773438 242.492188 375.761719 216.164062 375.761719 188.769531 C 375.761719 161.574219 389.902344 134.039062 404.996094 114.773438 Z M 449.890625 261.289062 C 469.097656 242.0625 498.5625 232.578125 522.871094 229.632812 C 519.929688 253.925781 510.457031 283.398438 491.226562 302.65625 C 471.867188 322.019531 446.875 334.253906 420.855469 337.097656 L 414.757812 337.765625 L 415.433594 331.640625 C 418.25 305.65625 430.476562 280.667969 449.890625 261.289062 Z M 389.136719 466.144531 C 363.140625 463.300781 338.148438 451.058594 318.789062 431.695312 C 299.558594 412.472656 290.085938 383.007812 287.125 358.695312 C 311.429688 361.632812 340.917969 371.113281 360.125 390.335938 C 379.515625 409.710938 391.746094 434.703125 394.558594 460.707031 L 395.234375 466.804688 Z M 415.433594 460.703125 C 418.25 434.710938 430.476562 409.71875 449.890625 390.335938 C 469.074219 371.113281 498.5625 361.632812 522.871094 358.695312 C 519.929688 382.984375 510.457031 412.445312 491.226562 431.695312 C 471.867188 451.058594 446.875 463.300781 420.855469 466.144531 L 414.757812 466.804688 Z M 536.839844 499.195312 L 413.628906 499.195312 L 413.628906 484.304688 L 422.738281 483.300781 C 452.652344 480.042969 481.308594 466.054688 503.460938 443.90625 C 528.851562 418.472656 539.492188 378.539062 540.976562 349.636719 C 541.109375 347.203125 540.191406 344.824219 538.460938 343.097656 C 536.730469 341.359375 534.324219 340.335938 531.910156 340.570312 C 502.996094 342.070312 463.046875 352.730469 437.632812 378.121094 C 427.871094 387.902344 420 399.089844 413.628906 410.945312 L 413.628906 355.257812 L 422.738281 354.261719 C 452.652344 351.003906 481.308594 337.007812 503.460938 314.871094 C 528.851562 289.425781 539.492188 249.492188 540.976562 220.582031 C 541.109375 218.140625 540.191406 215.773438 538.460938 214.035156 C 536.730469 212.304688 534.324219 211.289062 531.910156 211.519531 C 502.996094 213.015625 463.046875 223.679688 437.632812 249.082031 C 437.460938 249.253906 437.335938 249.460938 437.164062 249.632812 C 446.304688 231.027344 451.507812 210.25 451.507812 188.769531 C 451.507812 152.816406 430.796875 117.046875 411.402344 95.566406 C 408.121094 91.921875 401.871094 91.921875 398.589844 95.566406 C 379.199219 117.082031 358.484375 152.851562 358.484375 188.769531 C 358.484375 210.261719 363.695312 231.035156 372.84375 249.640625 C 372.664062 249.46875 372.539062 249.253906 372.359375 249.082031 C 346.945312 223.679688 306.996094 213.015625 278.082031 211.519531 C 275.644531 211.234375 273.261719 212.304688 271.511719 214.035156 C 269.804688 215.773438 268.882812 218.15625 269.015625 220.589844 C 270.523438 249.515625 281.183594 289.472656 306.550781 314.871094 C 328.707031 337.007812 357.363281 351.003906 387.253906 354.261719 L 396.363281 355.257812 L 396.363281 410.921875 C 389.992188 399.074219 382.121094 387.894531 372.359375 378.121094 C 346.945312 352.730469 306.996094 342.070312 278.082031 340.570312 C 275.644531 340.296875 273.261719 341.359375 271.511719 343.097656 C 269.804688 344.824219 268.882812 347.207031 269.015625 349.652344 C 270.523438 378.566406 281.183594 418.519531 306.550781 443.90625 C 328.707031 466.054688 357.363281 480.042969 387.253906 483.300781 L 396.363281 484.304688 L 396.363281 499.195312 L 273.152344 499.195312 C 268.386719 499.195312 264.515625 503.0625 264.515625 507.828125 L 264.515625 632.265625 C 264.515625 679.503906 302.953125 717.917969 350.183594 717.917969 L 459.808594 717.917969 C 507.042969 717.917969 545.476562 679.503906 545.476562 632.265625 L 545.476562 507.828125 C 545.476562 503.0625 541.609375 499.195312 536.839844 499.195312 " fill-opacity="1" fill-rule="nonzero"/></g></svg>