<svg xmlns="http://www.w3.org/2000/svg" xmlns:xlink="http://www.w3.org/1999/xlink" width="1080" zoomAndPan="magnify" viewBox="0 0 810 809.999993" height="1080" preserveAspectRatio="xMidYMid meet" version="1.0"><defs><clipPath id="03b1594311"><path d="M 43 162.152344 L 767 162.152344 L 767 635 L 43 635 Z M 43 162.152344 " clip-rule="nonzero"/></clipPath></defs><g clip-path="url(#03b1594311)"><path fill="#10069f" d="M 765.8125 399.023438 L 681.449219 170.035156 C 680.195312 166.671875 677.53125 164.03125 674.144531 162.828125 C 670.808594 161.632812 667.023438 162.007812 663.9375 163.863281 L 603.675781 200.019531 C 592.082031 206.914062 601.472656 220.761719 604.21875 229.847656 L 572.605469 245.648438 L 494.027344 222.074219 C 464.054688 213.011719 438.070312 218.6875 420.691406 237.910156 C 420.546875 237.933594 390.886719 267.714844 390.765625 267.789062 C 371.578125 254.363281 348.125 248.78125 324.832031 252.433594 L 232.945312 266.535156 C 225.292969 267.726562 217.484375 266.894531 209.914062 264.195312 L 220.605469 239.5 C 223.4375 233.332031 219.988281 225.4375 213.519531 223.328125 C 213.519531 223.328125 143.832031 198.972656 143.832031 198.972656 C 137.757812 196.847656 131.140625 199.828125 128.707031 205.757812 L 44.34375 410.652344 C 42.078125 416.160156 44.175781 422.5 49.285156 425.574219 L 109.546875 461.726562 C 116.042969 465.8125 125.066406 462.222656 127.335938 454.980469 L 134.820312 460.582031 L 137.277344 462.148438 C 130.902344 476.394531 134.398438 493.714844 146.675781 504.285156 C 146.675781 504.285156 146.703125 504.285156 146.714844 504.308594 C 151.171875 508.476562 156.5 511.25 162.199219 512.757812 C 153.910156 538.632812 181.21875 567.0625 207.660156 559.433594 C 213.796875 578.054688 236.078125 591.347656 255.074219 584.863281 C 266.402344 614.027344 305.304688 621.285156 323.382812 593.792969 L 346.355469 621.382812 C 367.46875 646.738281 404.902344 631.410156 415.074219 604.085938 C 429.210938 611.425781 446.300781 610.316406 459.320312 600.589844 C 459.511719 600.472656 460.402344 599.855469 460.570312 599.734375 C 467.574219 594.457031 472.71875 587.140625 475.445312 578.921875 C 504.394531 596.226562 543.5625 568.519531 537.125 535.378906 C 560.90625 533.089844 578.65625 507.789062 572.605469 484.554688 L 676.738281 426.679688 L 682.929688 443.503906 C 685.316406 450.433594 694.222656 453.605469 700.441406 449.675781 C 700.441406 449.675781 760.703125 413.519531 760.703125 413.519531 C 765.667969 410.542969 767.8125 404.457031 765.8125 399.023438 Z M 110.160156 433.984375 L 70.582031 410.230469 L 146.652344 225.496094 L 193.332031 241.816406 Z M 161.933594 485.53125 C 157.296875 481.179688 156.847656 473.925781 160.933594 469.03125 L 186.90625 437.851562 C 197.453125 425.175781 217.265625 442.976562 206.839844 455.148438 C 206.839844 455.148438 180.578125 485.785156 180.578125 485.785156 C 178.421875 488.304688 175.410156 489.785156 172.105469 489.964844 C 167.949219 490.375 164.609375 488.363281 161.921875 485.542969 Z M 199.222656 536.449219 C 188.835938 536.882812 180.097656 522.976562 187.738281 514.625 C 187.738281 514.625 228.933594 467.007812 228.933594 467.007812 C 231.160156 464.429688 234.246094 462.945312 237.65625 462.835938 C 248.011719 462.511719 256.433594 476.179688 248.890625 484.445312 C 248.890625 484.445312 207.902344 532.257812 207.902344 532.257812 C 205.695312 534.835938 202.621094 536.316406 199.222656 536.449219 Z M 261.28125 549.574219 C 261.292969 549.636719 254.144531 558.097656 254.132812 558.15625 C 249.964844 563.144531 242.453125 563.929688 237.382812 559.890625 C 233.789062 557.324219 230.160156 553.960938 229.945312 549.25 C 229.632812 545.960938 230.644531 542.765625 232.789062 540.257812 L 264.640625 503.101562 C 266.847656 500.523438 269.921875 499.042969 273.320312 498.910156 C 283.023438 498.355469 293.050781 511.839844 285.226562 520.84375 C 284.5625 521.613281 262.785156 547.78125 261.28125 549.574219 Z M 321.839844 557.121094 L 301.535156 582.5 C 293.421875 592.671875 278.164062 583.539062 277.09375 574.183594 C 276.695312 570.847656 277.648438 567.605469 279.792969 565.039062 L 295.871094 545.742188 C 299.339844 541.65625 303.5 535.089844 309.644531 535.328125 C 319.914062 534.96875 329.167969 548.492188 321.839844 557.132812 Z M 542.511719 508.164062 C 536.609375 512.574219 528.519531 512.9375 522.011719 508.753906 C 521.3125 510.417969 477.191406 455.824219 475.984375 454.796875 C 473.082031 451.277344 468.597656 450.015625 464.402344 450.832031 C 455.582031 452.085938 451.582031 463.523438 457.4375 470.199219 C 457.4375 470.199219 466.285156 480.820312 466.285156 480.820312 C 471.78125 486.617188 500.910156 524.554688 507.417969 527.871094 C 526.050781 546.1875 498.714844 572.390625 481.519531 553.722656 C 481.519531 553.722656 433.214844 497.425781 433.214844 497.425781 L 431.261719 495.148438 L 429.296875 492.773438 L 429.1875 492.871094 C 420.066406 477.890625 398.515625 492.738281 409.300781 506.441406 C 409.519531 506.71875 409.738281 507.007812 409.976562 507.261719 C 410.328125 507.671875 410.785156 508.210938 410.832031 508.273438 C 410.941406 508.394531 411.207031 508.695312 411.484375 508.996094 L 412.832031 510.695312 C 421.921875 521.640625 435.445312 537.753906 449.039062 553.433594 C 455.980469 560.820312 454.507812 574.402344 446.617188 580.140625 C 438.445312 586.875 426.476562 586.09375 419.859375 577.691406 C 419.859375 577.691406 409.21875 564.339844 409.21875 564.339844 C 408.988281 564 408.75 563.664062 408.496094 563.351562 C 405.421875 559.519531 383.320312 531.824219 379.691406 527.304688 C 375.546875 522.109375 367.929688 521.242188 362.757812 525.410156 C 357.453125 529.640625 356.707031 537.4375 361.082031 542.621094 L 389.378906 578.054688 C 389.5625 578.320312 389.742188 578.597656 389.933594 578.847656 C 396.035156 586.925781 394.464844 598.046875 386.402344 604.148438 C 380.003906 609.96875 371.605469 613.644531 364.878906 606.003906 C 364.878906 606.003906 338.75 574.621094 338.75 574.621094 C 360.589844 551.625 342.980469 513.035156 312.140625 511.492188 C 311.550781 493.113281 294.617188 475.9375 275.886719 475.117188 C 275.476562 454.484375 253.722656 435.117188 232.824219 439.347656 C 229.160156 422.546875 213.023438 409.121094 195.511719 409.457031 C 175.601562 408.445312 162.753906 429.621094 151.5 442.710938 L 148.523438 440.816406 L 137.15625 432.285156 L 200.238281 286.566406 C 211.820312 290.976562 224.390625 292.347656 236.632812 290.398438 L 314.117188 278.5 C 333.953125 274.234375 355.886719 273.765625 373.339844 285.25 L 315.105469 343.484375 C 308.886719 349.691406 306.027344 358.574219 307.425781 367.253906 C 315.648438 400.636719 365.964844 400.394531 390.71875 386.101562 C 390.71875 386.101562 440.300781 358.550781 440.300781 358.550781 C 443.722656 362.878906 542.285156 478.023438 547.25 484.855469 C 551.683594 492.546875 549.613281 502.957031 542.488281 508.199219 Z M 561.035156 463.425781 L 461.800781 346.582031 L 471.117188 341.414062 C 476.9375 338.171875 479.035156 330.84375 475.804688 325.035156 C 472.574219 319.226562 465.234375 317.105469 459.425781 320.347656 L 379.050781 365 C 364.9375 372.820312 347.886719 373.21875 333.039062 365.769531 C 331.722656 365.109375 331.351562 363.972656 331.265625 363.359375 C 331.15625 362.734375 331.144531 361.539062 332.183594 360.503906 C 332.867188 359.890625 437.671875 255 438.191406 254.46875 C 451.992188 238.753906 472.394531 240.707031 487.132812 245.152344 L 570.292969 270.101562 C 573.222656 270.980469 576.390625 270.714844 579.140625 269.34375 L 612.621094 252.601562 L 668.324219 403.792969 L 561.050781 463.414062 Z M 700.527344 421.535156 L 624.648438 215.566406 L 663.875 192.027344 L 739.757812 397.996094 Z M 700.527344 421.535156 " fill-opacity="1" fill-rule="nonzero"/></g></svg>