<svg xmlns="http://www.w3.org/2000/svg" xmlns:xlink="http://www.w3.org/1999/xlink" width="1080" zoomAndPan="magnify" viewBox="0 0 810 809.999993" height="1080" preserveAspectRatio="xMidYMid meet" version="1.0"><defs><clipPath id="5cd79e3c3a"><path d="M 68 379 L 369 379 L 369 755.269531 L 68 755.269531 Z M 68 379 " clip-rule="nonzero"/></clipPath><clipPath id="5310530ef5"><path d="M 241 259 L 755 259 L 755 755.269531 L 241 755.269531 Z M 241 259 " clip-rule="nonzero"/></clipPath></defs><path fill="#10069f" d="M 122.738281 300.957031 C 125.636719 300.957031 128.417969 299.804688 130.464844 297.757812 L 148.25 279.96875 L 200.082031 331.796875 L 205.421875 365.371094 C 206.273438 370.742188 210.921875 374.582031 216.199219 374.582031 C 216.769531 374.582031 217.347656 374.539062 217.929688 374.441406 C 223.886719 373.496094 227.953125 367.894531 227.003906 361.933594 L 221.109375 324.867188 C 220.746094 322.589844 219.671875 320.488281 218.046875 318.855469 L 163.707031 264.515625 L 255.769531 172.453125 L 308.382812 225.0625 C 310.289062 226.96875 312.835938 228.105469 315.523438 228.25 L 358.828125 230.570312 C 359.027344 230.582031 359.222656 230.585938 359.421875 230.585938 C 365.1875 230.585938 370.011719 226.066406 370.320312 220.238281 C 370.648438 214.214844 366.019531 209.066406 359.996094 208.746094 L 320.875 206.648438 L 271.222656 156.996094 L 297.210938 131.011719 C 301.480469 126.742188 301.480469 119.820312 297.210938 115.558594 L 240.71875 59.066406 C 236.449219 54.796875 229.527344 54.796875 225.257812 59.066406 C 220.996094 63.332031 220.996094 70.25 225.257812 74.515625 L 274.027344 123.285156 L 122.738281 274.574219 L 73.972656 225.808594 C 69.703125 221.542969 62.789062 221.542969 58.519531 225.808594 C 54.25 230.074219 54.25 236.992188 58.519531 241.261719 L 115.011719 297.757812 C 117.0625 299.804688 119.835938 300.957031 122.738281 300.957031 " fill-opacity="1" fill-rule="nonzero"/><path fill="#10069f" d="M 368.484375 258.871094 C 370.578125 260.742188 373.179688 261.667969 375.78125 261.667969 C 378.777344 261.667969 381.761719 260.4375 383.917969 258.039062 L 407.179688 232.101562 L 472.867188 221.652344 C 475.140625 221.289062 477.25 220.21875 478.875 218.589844 L 533.214844 164.253906 L 625.28125 256.316406 L 572.667969 308.929688 C 570.703125 310.894531 569.554688 313.539062 569.472656 316.320312 L 568.03125 363.316406 C 567.84375 369.351562 572.585938 374.386719 578.617188 374.574219 C 578.734375 374.574219 578.84375 374.582031 578.957031 374.582031 C 584.835938 374.582031 589.691406 369.90625 589.875 363.984375 L 591.1875 321.320312 L 640.734375 271.765625 L 666.71875 297.757812 C 668.769531 299.804688 671.546875 300.957031 674.445312 300.957031 C 677.347656 300.957031 680.121094 299.804688 682.175781 297.757812 L 738.664062 241.261719 C 742.933594 236.992188 742.933594 230.074219 738.664062 225.808594 C 734.398438 221.542969 727.480469 221.542969 723.214844 225.808594 L 674.445312 274.574219 L 523.15625 123.285156 L 571.921875 74.515625 C 576.1875 70.25 576.1875 63.332031 571.921875 59.066406 C 567.652344 54.796875 560.734375 54.796875 556.46875 59.066406 L 499.972656 115.558594 C 495.703125 119.820312 495.703125 126.742188 499.972656 131.011719 L 517.761719 148.792969 L 465.925781 200.625 L 399.917969 211.125 C 397.441406 211.519531 395.175781 212.753906 393.503906 214.621094 L 367.648438 243.441406 C 363.621094 247.933594 363.992188 254.84375 368.484375 258.871094 " fill-opacity="1" fill-rule="nonzero"/><g clip-path="url(#5cd79e3c3a)"><path fill="#10069f" d="M 355.695312 586.476562 L 337.128906 589.433594 C 334.855469 589.796875 332.746094 590.867188 331.121094 592.496094 L 276.78125 646.835938 L 184.714844 554.773438 L 237.328125 502.15625 C 239.292969 500.191406 240.441406 497.546875 240.523438 494.765625 L 243.246094 406.054688 C 243.367188 402.183594 244.292969 398.460938 246.003906 394.988281 C 248.671875 389.574219 246.441406 383.027344 241.027344 380.359375 C 235.617188 377.691406 229.0625 379.914062 226.394531 385.332031 C 223.300781 391.621094 221.617188 398.367188 221.402344 405.382812 L 218.808594 489.765625 L 169.261719 539.320312 L 143.277344 513.328125 C 141.226562 511.28125 138.449219 510.128906 135.550781 510.128906 C 132.648438 510.128906 129.875 511.28125 127.824219 513.328125 L 71.332031 569.824219 C 67.0625 574.09375 67.0625 581.011719 71.332031 585.277344 C 75.597656 589.542969 82.515625 589.542969 86.78125 585.277344 L 135.550781 536.511719 L 286.839844 687.800781 L 238.074219 736.570312 C 233.808594 740.839844 233.808594 747.753906 238.074219 752.023438 C 240.203125 754.15625 243 755.222656 245.800781 755.222656 C 248.597656 755.222656 251.394531 754.15625 253.527344 752.023438 L 310.023438 695.527344 C 314.292969 691.257812 314.292969 684.34375 310.023438 680.074219 L 292.234375 662.292969 L 344.070312 610.460938 L 359.132812 608.066406 C 365.09375 607.113281 369.152344 601.511719 368.203125 595.554688 C 367.257812 589.59375 361.65625 585.53125 355.695312 586.476562 " fill-opacity="1" fill-rule="nonzero"/></g><g clip-path="url(#5310530ef5)"><path fill="#10069f" d="M 501.613281 586.023438 C 499.648438 584.054688 497 582.914062 494.222656 582.828125 L 405.503906 580.105469 C 398.636719 579.890625 392.171875 577.101562 387.308594 572.242188 L 304.117188 489.042969 L 323.429688 482.335938 C 337.128906 477.582031 352.597656 481.128906 362.851562 491.378906 L 391.769531 520.296875 C 393.90625 522.433594 396.699219 523.5 399.496094 523.5 C 402.292969 523.5 405.089844 522.433594 407.222656 520.296875 C 411.492188 516.03125 411.492188 509.109375 407.222656 504.839844 L 267.570312 365.1875 C 261.949219 359.570312 261.949219 350.421875 267.570312 344.800781 C 273.195312 339.179688 282.042969 339.496094 287.648438 345.105469 L 369.503906 426.960938 C 371.640625 429.09375 374.433594 430.164062 377.230469 430.164062 C 380.03125 430.164062 382.828125 429.09375 384.957031 426.960938 C 389.226562 422.691406 389.226562 415.773438 384.957031 411.503906 L 303.109375 329.652344 C 297.484375 324.03125 297.484375 314.882812 303.101562 309.265625 C 308.726562 303.648438 317.875 303.640625 323.484375 309.253906 L 344.453125 330.265625 L 405.039062 391.425781 C 407.175781 393.558594 409.972656 394.625 412.765625 394.625 C 415.5625 394.625 418.359375 393.558594 420.5 391.425781 C 424.761719 387.15625 424.761719 380.234375 420.5 375.972656 L 359.601562 315.078125 C 353.976562 309.453125 353.976562 300.308594 359.601562 294.6875 C 362.324219 291.960938 365.941406 290.464844 369.792969 290.464844 C 373.644531 290.464844 377.261719 291.960938 379.988281 294.683594 L 440.878906 355.578125 C 445.148438 359.847656 452.070312 359.847656 456.339844 355.578125 C 460.605469 351.3125 460.605469 344.394531 456.339844 340.128906 L 423.257812 307.046875 C 417.339844 301.128906 417.660156 290.691406 423.089844 285.261719 C 428.523438 279.835938 438.472656 280.253906 444.390625 286.171875 L 578.386719 420.210938 L 588.886719 486.21875 C 589.25 488.496094 590.324219 490.597656 591.949219 492.230469 L 646.289062 546.570312 L 554.226562 638.632812 Z M 751.476562 569.824219 L 694.988281 513.328125 C 692.933594 511.28125 690.160156 510.128906 687.257812 510.128906 C 684.359375 510.128906 681.578125 511.28125 679.53125 513.328125 L 661.746094 531.117188 L 609.914062 479.289062 L 599.414062 413.273438 C 599.050781 411 597.980469 408.894531 596.351562 407.265625 L 459.84375 270.722656 C 445.441406 256.320312 421.539062 255.902344 407.632812 269.808594 C 403.796875 273.644531 401.058594 278.238281 399.402344 283.191406 L 395.441406 279.230469 C 388.589844 272.378906 379.484375 268.609375 369.792969 268.609375 C 360.101562 268.609375 350.996094 272.378906 344.144531 279.230469 C 340.574219 282.804688 337.929688 286.925781 336.1875 291.316406 C 321.953125 279.722656 300.910156 280.554688 287.648438 293.8125 C 280.722656 300.738281 277.199219 309.800781 277.058594 318.902344 C 268.03125 318.964844 259.046875 322.417969 252.113281 329.347656 C 237.976562 343.488281 237.976562 366.503906 252.113281 380.640625 L 330.179688 458.707031 C 325.484375 459.144531 320.8125 460.113281 316.261719 461.691406 L 295.222656 468.996094 C 288.441406 471.347656 283.433594 476.929688 281.824219 483.929688 C 280.222656 490.925781 282.292969 498.128906 287.367188 503.203125 L 371.859375 587.691406 C 380.667969 596.507812 392.382812 601.566406 404.839844 601.949219 L 489.222656 604.539062 L 538.773438 654.089844 L 512.785156 680.074219 C 508.515625 684.34375 508.515625 691.257812 512.785156 695.527344 L 569.277344 752.023438 C 571.414062 754.15625 574.207031 755.222656 577.003906 755.222656 C 579.804688 755.222656 582.597656 754.15625 584.734375 752.023438 C 589 747.753906 589 740.839844 584.734375 736.570312 L 535.96875 687.800781 L 687.257812 536.511719 L 736.023438 585.277344 C 740.292969 589.542969 747.207031 589.542969 751.476562 585.277344 C 755.746094 581.011719 755.746094 574.09375 751.476562 569.824219 " fill-opacity="1" fill-rule="nonzero"/></g></svg>