<svg xmlns="http://www.w3.org/2000/svg" xmlns:xlink="http://www.w3.org/1999/xlink" width="1080" zoomAndPan="magnify" viewBox="0 0 810 809.999993" height="1080" preserveAspectRatio="xMidYMid meet" version="1.0"><defs><clipPath id="12b9c288ed"><path d="M 33.789062 33.789062 L 776.289062 33.789062 L 776.289062 776.289062 L 33.789062 776.289062 Z M 33.789062 33.789062 " clip-rule="nonzero"/></clipPath><clipPath id="e72d634d06"><path d="M 0.789062 0.789062 L 743.207031 0.789062 L 743.207031 743.207031 L 0.789062 743.207031 Z M 0.789062 0.789062 " clip-rule="nonzero"/></clipPath><clipPath id="09bd1d706e"><rect x="0" width="744" y="0" height="744"/></clipPath></defs><g clip-path="url(#12b9c288ed)"><g transform="matrix(1, 0, 0, 1, 33, 33)"><g clip-path="url(#09bd1d706e)"><g clip-path="url(#e72d634d06)"><path fill="#10069f" d="M 371.996094 718.535156 C 180.890625 718.535156 25.457031 563.105469 25.457031 371.996094 C 25.457031 365.179688 31.019531 359.621094 37.835938 359.621094 C 44.652344 359.621094 50.210938 365.179688 50.210938 371.996094 C 50.210938 549.425781 194.570312 693.78125 371.996094 693.78125 C 549.425781 693.78125 693.78125 549.425781 693.78125 371.996094 C 693.78125 194.570312 549.425781 50.210938 371.996094 50.210938 C 290.34375 50.210938 212.457031 81.007812 152.75 136.992188 C 150.335938 139.261719 148.882812 142.453125 148.835938 145.789062 C 148.789062 149.175781 150.09375 152.414062 152.460938 154.78125 L 162.855469 165.128906 C 166.238281 168.511719 165.371094 172.378906 164.839844 173.878906 C 164.304688 175.378906 162.613281 178.859375 157.925781 179.339844 L 94.351562 186.304688 C 90.820312 186.738281 88.644531 184.949219 87.582031 183.886719 C 85.695312 182.050781 84.777344 179.535156 85.019531 177.070312 L 92.125 113.445312 C 92.5625 108.804688 96.042969 107.113281 97.492188 106.582031 C 99.039062 106.050781 102.90625 105.179688 106.292969 108.613281 L 117.21875 119.492188 C 121.90625 124.226562 129.546875 124.324219 134.429688 119.730469 C 198.96875 58.960938 283.332031 25.457031 371.996094 25.457031 C 563.105469 25.457031 718.535156 180.890625 718.535156 371.996094 C 718.535156 563.105469 563.105469 718.535156 371.996094 718.535156 Z M 371.996094 0.707031 C 281.011719 0.707031 194.28125 33.628906 126.355469 93.625 L 123.839844 91.0625 C 114.65625 81.878906 101.410156 78.929688 89.179688 83.28125 C 77.042969 87.582031 68.777344 98.21875 67.472656 110.835938 L 60.414062 174.410156 C 59.398438 184.464844 62.925781 194.328125 70.179688 201.484375 C 77.382812 208.589844 87.242188 212.070312 97.105469 210.910156 L 160.535156 203.949219 C 173.296875 202.644531 183.886719 194.230469 188.1875 182.144531 C 192.441406 169.960938 189.492188 156.765625 180.355469 147.628906 L 179.195312 146.515625 C 232.957031 100.25 300.882812 74.964844 371.996094 74.964844 C 535.789062 74.964844 669.03125 208.203125 669.03125 371.996094 C 669.03125 535.789062 535.789062 669.03125 371.996094 669.03125 C 208.203125 669.03125 74.964844 535.789062 74.964844 371.996094 C 74.964844 351.5 58.332031 334.867188 37.835938 334.867188 C 17.335938 334.867188 0.707031 351.5 0.707031 371.996094 C 0.707031 576.738281 167.253906 743.289062 371.996094 743.289062 C 576.738281 743.289062 743.289062 576.738281 743.289062 371.996094 C 743.289062 167.253906 576.738281 0.707031 371.996094 0.707031 " fill-opacity="1" fill-rule="nonzero"/></g><path fill="#10069f" d="M 294.839844 340.816406 C 272.746094 319.640625 260.609375 291.117188 260.609375 260.609375 L 260.609375 235.855469 L 483.382812 235.855469 L 483.382812 260.609375 C 483.382812 291.117188 471.25 319.640625 449.15625 340.816406 C 440.503906 349.128906 435.765625 360.199219 435.765625 371.996094 C 435.765625 383.792969 440.503906 394.863281 449.15625 403.179688 C 471.25 424.355469 483.382812 452.878906 483.382812 483.382812 L 483.382812 508.136719 L 475.9375 508.136719 L 392.929688 429.722656 C 381.183594 418.699219 362.8125 418.648438 351.015625 429.769531 L 268.054688 508.136719 L 260.609375 508.136719 L 260.609375 483.382812 C 260.609375 452.878906 272.746094 424.355469 294.839844 403.179688 C 303.492188 394.863281 308.230469 383.792969 308.230469 371.996094 C 308.230469 360.199219 303.492188 349.128906 294.839844 340.816406 Z M 248.234375 186.351562 L 495.761719 186.351562 C 502.578125 186.351562 508.136719 191.910156 508.136719 198.726562 C 508.136719 205.542969 502.578125 211.105469 495.761719 211.105469 L 248.234375 211.105469 C 241.417969 211.105469 235.855469 205.542969 235.855469 198.726562 C 235.855469 191.910156 241.417969 186.351562 248.234375 186.351562 Z M 304.121094 508.136719 L 368.03125 447.753906 C 370.160156 445.773438 373.882812 445.773438 375.960938 447.753906 L 439.875 508.136719 Z M 495.761719 557.644531 L 248.234375 557.644531 C 241.417969 557.644531 235.855469 552.082031 235.855469 545.265625 C 235.855469 538.449219 241.417969 532.890625 248.234375 532.890625 L 495.761719 532.890625 C 502.578125 532.890625 508.136719 538.449219 508.136719 545.265625 C 508.136719 552.082031 502.578125 557.644531 495.761719 557.644531 Z M 235.855469 483.382812 L 235.855469 510.410156 C 221.5 515.535156 211.105469 529.167969 211.105469 545.265625 C 211.105469 565.765625 227.734375 582.394531 248.234375 582.394531 L 495.761719 582.394531 C 516.257812 582.394531 532.890625 565.765625 532.890625 545.265625 C 532.890625 529.167969 522.496094 515.535156 508.136719 510.410156 L 508.136719 483.382812 C 508.136719 446.0625 493.296875 411.253906 466.320312 385.339844 C 462.597656 381.714844 460.515625 376.976562 460.515625 371.996094 C 460.515625 367.019531 462.597656 362.28125 466.320312 358.652344 C 493.296875 332.742188 508.136719 297.933594 508.136719 260.609375 L 508.136719 233.585938 C 522.496094 228.460938 532.890625 214.828125 532.890625 198.726562 C 532.890625 178.230469 516.257812 161.597656 495.761719 161.597656 L 248.234375 161.597656 C 227.734375 161.597656 211.105469 178.230469 211.105469 198.726562 C 211.105469 214.828125 221.5 228.460938 235.855469 233.585938 L 235.855469 260.609375 C 235.855469 297.933594 250.699219 332.742188 277.675781 358.652344 C 281.398438 362.28125 283.476562 367.019531 283.476562 371.996094 C 283.476562 376.976562 281.398438 381.714844 277.675781 385.339844 C 250.699219 411.253906 235.855469 446.0625 235.855469 483.382812 " fill-opacity="1" fill-rule="nonzero"/><path fill="#10069f" d="M 317.269531 286.667969 C 317.609375 286.085938 318.335938 285.363281 319.589844 285.363281 L 424.402344 285.363281 C 425.660156 285.363281 426.386719 286.085938 426.722656 286.667969 C 427.109375 287.296875 427.402344 288.214844 426.820312 289.375 C 423.773438 295.175781 419.761719 300.496094 414.976562 305.085938 C 403.90625 315.578125 386.695312 335.785156 374.609375 358.171875 C 373.253906 360.683594 370.738281 360.636719 369.386719 358.21875 C 357.300781 335.785156 340.089844 315.578125 329.066406 305.136719 C 324.230469 300.496094 320.21875 295.175781 317.171875 289.375 C 316.59375 288.214844 316.882812 287.296875 317.269531 286.667969 Z M 347.632812 370.015625 C 352.515625 378.910156 361.84375 384.421875 371.996094 384.421875 C 382.148438 384.421875 391.480469 378.910156 396.363281 369.964844 C 407.820312 348.695312 424.160156 330.515625 432.042969 323.023438 C 438.859375 316.496094 444.464844 309.050781 448.769531 300.882812 C 453.265625 292.277344 452.925781 282.171875 447.949219 273.90625 C 442.871094 265.589844 434.121094 260.609375 424.402344 260.609375 L 319.589844 260.609375 C 309.875 260.609375 301.125 265.589844 296.046875 273.90625 C 291.066406 282.171875 290.730469 292.277344 295.226562 300.832031 C 299.527344 309.050781 305.136719 316.496094 312 323.070312 C 319.832031 330.515625 336.171875 348.695312 347.632812 370.015625 " fill-opacity="1" fill-rule="nonzero"/></g></g></g></svg>