<svg xmlns="http://www.w3.org/2000/svg" xmlns:xlink="http://www.w3.org/1999/xlink" width="1080" zoomAndPan="magnify" viewBox="0 0 810 809.999993" height="1080" preserveAspectRatio="xMidYMid meet" version="1.0"><defs><clipPath id="c17789e042"><path d="M 90 80.953125 L 728.996094 80.953125 L 728.996094 719.953125 L 90 719.953125 Z M 90 80.953125 " clip-rule="nonzero"/></clipPath><clipPath id="936f28436c"><path d="M 0 1 L 638.996094 1 L 638.996094 639.953125 L 0 639.953125 Z M 0 1 " clip-rule="nonzero"/></clipPath><clipPath id="2252a55014"><rect x="0" width="639" y="0" height="640"/></clipPath></defs><g clip-path="url(#c17789e042)"><g transform="matrix(1, 0, 0, 1, 90, 80)"><g clip-path="url(#2252a55014)"><g clip-path="url(#936f28436c)"><path fill="#10069f" d="M 319.519531 618.65625 C 483.960938 618.65625 617.699219 484.914062 617.699219 320.476562 C 617.699219 314.609375 612.914062 309.828125 607.050781 309.828125 C 601.183594 309.828125 596.402344 314.609375 596.402344 320.476562 C 596.402344 473.144531 472.1875 597.355469 319.519531 597.355469 C 166.855469 597.355469 42.640625 473.144531 42.640625 320.476562 C 42.640625 167.808594 166.855469 43.597656 319.519531 43.597656 C 389.78125 43.597656 456.796875 70.09375 508.171875 118.265625 C 510.25 120.222656 511.5 122.96875 511.539062 125.835938 C 511.582031 128.75 510.457031 131.535156 508.421875 133.574219 L 499.476562 142.476562 C 496.5625 145.386719 497.3125 148.714844 497.769531 150.007812 C 498.226562 151.296875 499.683594 154.289062 503.71875 154.707031 L 558.421875 160.695312 C 561.457031 161.070312 563.328125 159.53125 564.246094 158.617188 C 565.867188 157.035156 566.65625 154.871094 566.449219 152.75 L 560.335938 98.007812 C 559.960938 94.015625 556.964844 92.558594 555.71875 92.101562 C 554.386719 91.644531 551.058594 90.894531 548.148438 93.847656 L 538.746094 103.207031 C 534.710938 107.285156 528.136719 107.367188 523.9375 103.414062 C 468.402344 51.125 395.8125 22.296875 319.519531 22.296875 C 155.082031 22.296875 21.34375 156.039062 21.34375 320.476562 C 21.34375 484.914062 155.082031 618.65625 319.519531 618.65625 Z M 319.519531 1 C 397.808594 1 472.4375 29.328125 530.882812 80.953125 L 533.046875 78.746094 C 540.949219 70.84375 552.347656 68.304688 562.871094 72.050781 C 573.3125 75.753906 580.425781 84.902344 581.550781 95.761719 L 587.625 150.464844 C 588.496094 159.117188 585.460938 167.601562 579.21875 173.757812 C 573.023438 179.875 564.535156 182.867188 556.050781 181.871094 L 501.472656 175.878906 C 490.492188 174.757812 481.382812 167.519531 477.679688 157.121094 C 474.019531 146.636719 476.554688 135.28125 484.417969 127.417969 L 485.417969 126.460938 C 439.160156 86.652344 380.710938 64.894531 319.519531 64.894531 C 178.585938 64.894531 63.941406 179.539062 63.941406 320.476562 C 63.941406 461.414062 178.585938 576.058594 319.519531 576.058594 C 460.457031 576.058594 575.101562 461.414062 575.101562 320.476562 C 575.101562 302.839844 589.414062 288.527344 607.050781 288.527344 C 624.6875 288.527344 638.996094 302.839844 638.996094 320.476562 C 638.996094 496.644531 495.691406 639.953125 319.519531 639.953125 C 143.351562 639.953125 0.0429688 496.644531 0.0429688 320.476562 C 0.0429688 144.308594 143.351562 1 319.519531 1 " fill-opacity="1" fill-rule="nonzero"/></g><path fill="#10069f" d="M 385.914062 293.644531 C 404.921875 275.425781 415.363281 250.882812 415.363281 224.632812 L 415.363281 203.335938 L 223.679688 203.335938 L 223.679688 224.632812 C 223.679688 250.882812 234.121094 275.425781 253.128906 293.644531 C 260.574219 300.800781 264.652344 310.328125 264.652344 320.476562 C 264.652344 330.625 260.574219 340.152344 253.128906 347.308594 C 234.121094 365.527344 223.679688 390.070312 223.679688 416.320312 L 223.679688 437.617188 L 230.085938 437.617188 L 301.507812 370.144531 C 311.617188 360.660156 327.425781 360.617188 337.574219 370.1875 L 408.957031 437.617188 L 415.363281 437.617188 L 415.363281 416.320312 C 415.363281 390.070312 404.921875 365.527344 385.914062 347.308594 C 378.464844 340.152344 374.390625 330.625 374.390625 320.476562 C 374.390625 310.328125 378.464844 300.800781 385.914062 293.644531 Z M 426.011719 160.738281 L 213.027344 160.738281 C 207.164062 160.738281 202.378906 165.523438 202.378906 171.386719 C 202.378906 177.253906 207.164062 182.035156 213.027344 182.035156 L 426.011719 182.035156 C 431.878906 182.035156 436.664062 177.253906 436.664062 171.386719 C 436.664062 165.523438 431.878906 160.738281 426.011719 160.738281 Z M 377.925781 437.617188 L 322.933594 385.660156 C 321.101562 383.957031 317.898438 383.957031 316.109375 385.660156 L 261.117188 437.617188 Z M 213.027344 480.214844 L 426.011719 480.214844 C 431.878906 480.214844 436.664062 475.429688 436.664062 469.566406 C 436.664062 463.699219 431.878906 458.917969 426.011719 458.917969 L 213.027344 458.917969 C 207.164062 458.917969 202.378906 463.699219 202.378906 469.566406 C 202.378906 475.429688 207.164062 480.214844 213.027344 480.214844 Z M 436.664062 416.320312 L 436.664062 439.574219 C 449.015625 443.984375 457.960938 455.714844 457.960938 469.566406 C 457.960938 487.203125 443.652344 501.511719 426.011719 501.511719 L 213.027344 501.511719 C 195.390625 501.511719 181.082031 487.203125 181.082031 469.566406 C 181.082031 455.714844 190.023438 443.984375 202.378906 439.574219 L 202.378906 416.320312 C 202.378906 384.207031 215.152344 354.253906 238.363281 331.957031 C 241.566406 328.835938 243.355469 324.761719 243.355469 320.476562 C 243.355469 316.191406 241.566406 312.117188 238.363281 308.996094 C 215.152344 286.699219 202.378906 256.746094 202.378906 224.632812 L 202.378906 201.378906 C 190.023438 196.96875 181.082031 185.238281 181.082031 171.386719 C 181.082031 153.75 195.390625 139.441406 213.027344 139.441406 L 426.011719 139.441406 C 443.652344 139.441406 457.960938 153.75 457.960938 171.386719 C 457.960938 185.238281 449.015625 196.96875 436.664062 201.378906 L 436.664062 224.632812 C 436.664062 256.746094 423.890625 286.699219 400.679688 308.996094 C 397.476562 312.117188 395.6875 316.191406 395.6875 320.476562 C 395.6875 324.761719 397.476562 328.835938 400.679688 331.957031 C 423.890625 354.253906 436.664062 384.207031 436.664062 416.320312 " fill-opacity="1" fill-rule="nonzero"/><path fill="#10069f" d="M 366.609375 247.054688 C 366.320312 246.554688 365.695312 245.933594 364.613281 245.933594 L 274.429688 245.933594 C 273.347656 245.933594 272.722656 246.554688 272.433594 247.054688 C 272.097656 247.597656 271.847656 248.386719 272.347656 249.382812 C 274.96875 254.375 278.421875 258.953125 282.539062 262.902344 C 292.066406 271.929688 306.875 289.320312 317.273438 308.578125 C 318.441406 310.742188 320.601562 310.699219 321.765625 308.621094 C 332.167969 289.320312 346.976562 271.929688 356.460938 262.945312 C 360.621094 258.953125 364.074219 254.375 366.695312 249.382812 C 367.191406 248.386719 366.945312 247.597656 366.609375 247.054688 Z M 340.488281 318.769531 C 336.285156 326.425781 328.257812 331.167969 319.519531 331.167969 C 310.785156 331.167969 302.757812 326.425781 298.554688 318.730469 C 288.695312 300.425781 274.636719 284.785156 267.855469 278.335938 C 261.992188 272.722656 257.164062 266.316406 253.460938 259.285156 C 249.59375 251.878906 249.886719 243.1875 254.167969 236.074219 C 258.539062 228.917969 266.066406 224.632812 274.429688 224.632812 L 364.613281 224.632812 C 372.976562 224.632812 380.503906 228.917969 384.871094 236.074219 C 389.15625 243.1875 389.449219 251.878906 385.578125 259.242188 C 381.878906 266.316406 377.050781 272.722656 371.144531 278.378906 C 364.40625 284.785156 350.34375 300.425781 340.488281 318.769531 " fill-opacity="1" fill-rule="nonzero"/></g></g></g></svg>