<svg xmlns="http://www.w3.org/2000/svg" xmlns:xlink="http://www.w3.org/1999/xlink" width="1080" zoomAndPan="magnify" viewBox="0 0 810 809.999993" height="1080" preserveAspectRatio="xMidYMid meet" version="1.0"><defs><clipPath id="148e181ce0"><path d="M 62 43 L 747.621094 43 L 747.621094 729 L 62 729 Z M 62 43 " clip-rule="nonzero"/></clipPath><clipPath id="71c5d4b09d"><path d="M 81.128906 43.757812 L 728.871094 43.757812 C 733.84375 43.757812 738.613281 45.734375 742.128906 49.25 C 745.644531 52.765625 747.621094 57.535156 747.621094 62.507812 L 747.621094 710.25 C 747.621094 715.222656 745.644531 719.992188 742.128906 723.507812 C 738.613281 727.023438 733.84375 729 728.871094 729 L 81.128906 729 C 76.15625 729 71.386719 727.023438 67.871094 723.507812 C 64.355469 719.992188 62.378906 715.222656 62.378906 710.25 L 62.378906 62.507812 C 62.378906 57.535156 64.355469 52.765625 67.871094 49.25 C 71.386719 45.734375 76.15625 43.757812 81.128906 43.757812 Z M 81.128906 43.757812 " clip-rule="nonzero"/></clipPath><clipPath id="b8ce99cb25"><path d="M 0.160156 0.679688 L 685.621094 0.679688 L 685.621094 686 L 0.160156 686 Z M 0.160156 0.679688 " clip-rule="nonzero"/></clipPath><clipPath id="fee96982c1"><path d="M 19.128906 0.757812 L 666.871094 0.757812 C 671.84375 0.757812 676.613281 2.734375 680.128906 6.25 C 683.644531 9.765625 685.621094 14.535156 685.621094 19.507812 L 685.621094 667.25 C 685.621094 672.222656 683.644531 676.992188 680.128906 680.507812 C 676.613281 684.023438 671.84375 686 666.871094 686 L 19.128906 686 C 14.15625 686 9.386719 684.023438 5.871094 680.507812 C 2.355469 676.992188 0.378906 672.222656 0.378906 667.25 L 0.378906 19.507812 C 0.378906 14.535156 2.355469 9.765625 5.871094 6.25 C 9.386719 2.734375 14.15625 0.757812 19.128906 0.757812 Z M 19.128906 0.757812 " clip-rule="nonzero"/></clipPath><clipPath id="e791db749d"><rect x="0" width="686" y="0" height="686"/></clipPath><clipPath id="011bec7b45"><path d="M 334.429688 660.910156 L 475.394531 660.910156 L 475.394531 786.449219 L 334.429688 786.449219 Z M 334.429688 660.910156 " clip-rule="nonzero"/></clipPath><clipPath id="de6d46bb61"><path d="M 395.679688 780.820312 L 336.304688 677.179688 C 334.375 673.816406 334.386719 669.683594 336.328125 666.328125 C 338.273438 662.976562 341.855469 660.910156 345.730469 660.910156 L 464.269531 660.910156 C 468.144531 660.910156 471.726562 662.976562 473.671875 666.328125 C 475.613281 669.683594 475.625 673.816406 473.695312 677.179688 L 414.320312 780.820312 C 412.40625 784.160156 408.851562 786.222656 405 786.222656 C 401.148438 786.222656 397.59375 784.160156 395.679688 780.820312 Z M 395.679688 780.820312 " clip-rule="nonzero"/></clipPath><clipPath id="1f24893ab2"><path d="M 0.429688 0.910156 L 141.394531 0.910156 L 141.394531 126.238281 L 0.429688 126.238281 Z M 0.429688 0.910156 " clip-rule="nonzero"/></clipPath><clipPath id="27427fef97"><path d="M 61.679688 120.820312 L 2.304688 17.179688 C 0.375 13.816406 0.386719 9.683594 2.328125 6.328125 C 4.273438 2.976562 7.855469 0.910156 11.730469 0.910156 L 130.269531 0.910156 C 134.144531 0.910156 137.726562 2.976562 139.671875 6.328125 C 141.613281 9.683594 141.625 13.816406 139.695312 17.179688 L 80.320312 120.820312 C 78.40625 124.160156 74.851562 126.222656 71 126.222656 C 67.148438 126.222656 63.59375 124.160156 61.679688 120.820312 Z M 61.679688 120.820312 " clip-rule="nonzero"/></clipPath><clipPath id="114702a83c"><rect x="0" width="142" y="0" height="127"/></clipPath></defs><g clip-path="url(#148e181ce0)"><g clip-path="url(#71c5d4b09d)"><g transform="matrix(1, 0, 0, 1, 62, 43)"><g clip-path="url(#e791db749d)"><g clip-path="url(#b8ce99cb25)"><g clip-path="url(#fee96982c1)"><path fill="#10069f" d="M 0.378906 0.757812 L 685.621094 0.757812 L 685.621094 686 L 0.378906 686 Z M 0.378906 0.757812 " fill-opacity="1" fill-rule="nonzero"/></g></g></g></g></g></g><g clip-path="url(#011bec7b45)"><g clip-path="url(#de6d46bb61)"><g transform="matrix(1, 0, 0, 1, 334, 660)"><g clip-path="url(#114702a83c)"><g clip-path="url(#1f24893ab2)"><g clip-path="url(#27427fef97)"><path fill="#10069f" d="M -7.019531 0.910156 L 148.839844 0.910156 L 148.839844 137.089844 L -7.019531 137.089844 Z M -7.019531 0.910156 " fill-opacity="1" fill-rule="nonzero"/></g></g></g></g></g></g><path fill="#ffffff" d="M 223.4375 613.324219 C 210.957031 613.324219 200.269531 608.878906 191.382812 599.992188 C 182.492188 591.101562 178.050781 580.417969 178.050781 567.933594 L 178.050781 295.597656 C 178.050781 283.113281 182.492188 272.429688 191.382812 263.539062 C 200.269531 254.652344 210.957031 250.207031 223.4375 250.207031 L 314.21875 250.207031 L 314.21875 204.816406 C 314.21875 192.335938 318.664062 181.648438 327.550781 172.761719 C 336.441406 163.871094 347.125 159.429688 359.609375 159.429688 L 450.386719 159.429688 C 462.867188 159.429688 473.554688 163.871094 482.445312 172.761719 C 491.332031 181.648438 495.777344 192.335938 495.777344 204.816406 L 495.777344 250.207031 L 586.554688 250.207031 C 599.039062 250.207031 609.722656 254.652344 618.613281 263.539062 C 627.5 272.429688 631.945312 283.113281 631.945312 295.597656 L 631.945312 567.933594 C 631.945312 580.417969 627.5 591.101562 618.613281 599.992188 C 609.722656 608.878906 599.039062 613.324219 586.554688 613.324219 Z M 223.4375 567.933594 L 586.554688 567.933594 L 586.554688 295.597656 L 223.4375 295.597656 Z M 359.609375 250.207031 L 450.386719 250.207031 L 450.386719 204.816406 L 359.609375 204.816406 Z M 223.4375 567.933594 L 223.4375 295.597656 Z M 382.300781 454.460938 L 382.300781 522.546875 L 427.691406 522.546875 L 427.691406 454.460938 L 495.777344 454.460938 L 495.777344 409.070312 L 427.691406 409.070312 L 427.691406 340.988281 L 382.300781 340.988281 L 382.300781 409.070312 L 314.21875 409.070312 L 314.21875 454.460938 Z M 382.300781 454.460938 " fill-opacity="1" fill-rule="nonzero"/></svg>