<svg xmlns="http://www.w3.org/2000/svg" xmlns:xlink="http://www.w3.org/1999/xlink" width="1080" zoomAndPan="magnify" viewBox="0 0 810 809.999993" height="1080" preserveAspectRatio="xMidYMid meet" version="1.0"><defs><clipPath id="190bd39cab"><path d="M 62 43 L 747.621094 43 L 747.621094 729 L 62 729 Z M 62 43 " clip-rule="nonzero"/></clipPath><clipPath id="8d4a339e02"><path d="M 81.128906 43.757812 L 728.871094 43.757812 C 733.84375 43.757812 738.613281 45.734375 742.128906 49.25 C 745.644531 52.765625 747.621094 57.535156 747.621094 62.507812 L 747.621094 710.25 C 747.621094 715.222656 745.644531 719.992188 742.128906 723.507812 C 738.613281 727.023438 733.84375 729 728.871094 729 L 81.128906 729 C 76.15625 729 71.386719 727.023438 67.871094 723.507812 C 64.355469 719.992188 62.378906 715.222656 62.378906 710.25 L 62.378906 62.507812 C 62.378906 57.535156 64.355469 52.765625 67.871094 49.25 C 71.386719 45.734375 76.15625 43.757812 81.128906 43.757812 Z M 81.128906 43.757812 " clip-rule="nonzero"/></clipPath><clipPath id="3c7de67c64"><path d="M 0.160156 0.679688 L 685.621094 0.679688 L 685.621094 686 L 0.160156 686 Z M 0.160156 0.679688 " clip-rule="nonzero"/></clipPath><clipPath id="d48e0fe1bb"><path d="M 19.128906 0.757812 L 666.871094 0.757812 C 671.84375 0.757812 676.613281 2.734375 680.128906 6.25 C 683.644531 9.765625 685.621094 14.535156 685.621094 19.507812 L 685.621094 667.25 C 685.621094 672.222656 683.644531 676.992188 680.128906 680.507812 C 676.613281 684.023438 671.84375 686 666.871094 686 L 19.128906 686 C 14.15625 686 9.386719 684.023438 5.871094 680.507812 C 2.355469 676.992188 0.378906 672.222656 0.378906 667.25 L 0.378906 19.507812 C 0.378906 14.535156 2.355469 9.765625 5.871094 6.25 C 9.386719 2.734375 14.15625 0.757812 19.128906 0.757812 Z M 19.128906 0.757812 " clip-rule="nonzero"/></clipPath><clipPath id="e3b15a5ae0"><rect x="0" width="686" y="0" height="686"/></clipPath><clipPath id="745b308b64"><path d="M 334.429688 660.910156 L 475.394531 660.910156 L 475.394531 786.449219 L 334.429688 786.449219 Z M 334.429688 660.910156 " clip-rule="nonzero"/></clipPath><clipPath id="eba4cbe0d7"><path d="M 395.679688 780.820312 L 336.304688 677.179688 C 334.375 673.816406 334.386719 669.683594 336.328125 666.328125 C 338.273438 662.976562 341.855469 660.910156 345.730469 660.910156 L 464.269531 660.910156 C 468.144531 660.910156 471.726562 662.976562 473.671875 666.328125 C 475.613281 669.683594 475.625 673.816406 473.695312 677.179688 L 414.320312 780.820312 C 412.40625 784.160156 408.851562 786.222656 405 786.222656 C 401.148438 786.222656 397.59375 784.160156 395.679688 780.820312 Z M 395.679688 780.820312 " clip-rule="nonzero"/></clipPath><clipPath id="8f70541e7c"><path d="M 0.429688 0.910156 L 141.394531 0.910156 L 141.394531 126.238281 L 0.429688 126.238281 Z M 0.429688 0.910156 " clip-rule="nonzero"/></clipPath><clipPath id="2bb112fc28"><path d="M 61.679688 120.820312 L 2.304688 17.179688 C 0.375 13.816406 0.386719 9.683594 2.328125 6.328125 C 4.273438 2.976562 7.855469 0.910156 11.730469 0.910156 L 130.269531 0.910156 C 134.144531 0.910156 137.726562 2.976562 139.671875 6.328125 C 141.613281 9.683594 141.625 13.816406 139.695312 17.179688 L 80.320312 120.820312 C 78.40625 124.160156 74.851562 126.222656 71 126.222656 C 67.148438 126.222656 63.59375 124.160156 61.679688 120.820312 Z M 61.679688 120.820312 " clip-rule="nonzero"/></clipPath><clipPath id="675b955add"><rect x="0" width="142" y="0" height="127"/></clipPath></defs><g clip-path="url(#190bd39cab)"><g clip-path="url(#8d4a339e02)"><g transform="matrix(1, 0, 0, 1, 62, 43)"><g clip-path="url(#e3b15a5ae0)"><g clip-path="url(#3c7de67c64)"><g clip-path="url(#d48e0fe1bb)"><path fill="#10069f" d="M 0.378906 0.757812 L 685.621094 0.757812 L 685.621094 686 L 0.378906 686 Z M 0.378906 0.757812 " fill-opacity="1" fill-rule="nonzero"/></g></g></g></g></g></g><path fill="#ffffff" d="M 662.679688 359.253906 L 662.679688 586.242188 C 662.679688 601.945312 657.089844 615.386719 645.90625 626.570312 C 634.722656 637.753906 621.28125 643.34375 605.574219 643.34375 L 205.851562 643.34375 C 190.148438 643.34375 176.703125 637.753906 165.523438 626.570312 C 154.339844 615.386719 148.746094 601.945312 148.746094 586.242188 L 148.746094 359.253906 C 137.804688 349.261719 129.355469 336.414062 123.410156 320.710938 C 117.460938 305.007812 117.339844 287.875 123.050781 269.316406 L 153.03125 172.242188 C 156.835938 159.867188 163.617188 149.636719 173.375 141.546875 C 183.128906 133.457031 194.429688 129.414062 207.277344 129.414062 L 604.148438 129.414062 C 616.996094 129.414062 628.179688 133.339844 637.695312 141.191406 C 647.214844 149.042969 654.113281 159.390625 658.398438 172.242188 L 688.375 269.316406 C 694.085938 287.875 693.96875 304.769531 688.019531 319.996094 C 682.070312 335.222656 673.625 348.308594 662.679688 359.253906 Z M 468.527344 329.273438 C 481.375 329.273438 491.132812 324.875 497.792969 316.070312 C 504.457031 307.265625 507.074219 297.390625 505.644531 286.449219 L 489.941406 186.515625 L 434.265625 186.515625 L 434.265625 292.15625 C 434.265625 302.152344 437.597656 310.835938 444.257812 318.210938 C 450.921875 325.585938 459.011719 329.273438 468.527344 329.273438 Z M 340.042969 329.273438 C 350.988281 329.273438 359.910156 325.585938 366.8125 318.210938 C 373.710938 310.835938 377.160156 302.152344 377.160156 292.15625 L 377.160156 186.515625 L 321.484375 186.515625 L 305.78125 286.449219 C 303.878906 297.867188 306.378906 307.863281 313.277344 316.425781 C 320.175781 324.992188 329.101562 329.273438 340.042969 329.273438 Z M 212.988281 329.273438 C 221.554688 329.273438 229.050781 326.183594 235.472656 319.996094 C 241.898438 313.808594 245.824219 305.957031 247.25 296.441406 L 262.953125 186.515625 L 207.277344 186.515625 L 178.726562 282.164062 C 175.871094 291.683594 177.417969 301.914062 183.367188 312.859375 C 189.316406 323.804688 199.1875 329.273438 212.988281 329.273438 Z M 598.4375 329.273438 C 612.238281 329.273438 622.230469 323.804688 628.417969 312.859375 C 634.605469 301.914062 636.03125 291.683594 632.699219 282.164062 L 602.722656 186.515625 L 548.472656 186.515625 L 564.175781 296.441406 C 565.605469 305.957031 569.53125 313.808594 575.953125 319.996094 C 582.378906 326.183594 589.871094 329.273438 598.4375 329.273438 Z M 205.851562 586.242188 L 605.574219 586.242188 L 605.574219 384.953125 C 603.195312 385.902344 601.648438 386.378906 600.9375 386.378906 L 598.4375 386.378906 C 585.589844 386.378906 574.289062 384.238281 564.53125 379.953125 C 554.777344 375.671875 545.140625 368.773438 535.625 359.253906 C 527.058594 367.820312 517.304688 374.480469 506.359375 379.242188 C 495.414062 384 483.753906 386.378906 471.382812 386.378906 C 458.535156 386.378906 446.519531 384 435.335938 379.242188 C 424.152344 374.480469 414.277344 367.820312 405.714844 359.253906 C 397.625 367.820312 388.226562 374.480469 377.519531 379.242188 C 366.8125 384 355.273438 386.378906 342.898438 386.378906 C 329.101562 386.378906 316.609375 384 305.425781 379.242188 C 294.242188 374.480469 284.367188 367.820312 275.804688 359.253906 C 265.808594 369.246094 255.9375 376.265625 246.179688 380.3125 C 236.425781 384.355469 225.363281 386.378906 212.988281 386.378906 L 209.777344 386.378906 C 208.585938 386.378906 207.277344 385.902344 205.851562 384.953125 Z M 605.574219 586.242188 L 205.851562 586.242188 Z M 605.574219 586.242188 " fill-opacity="1" fill-rule="nonzero"/><g clip-path="url(#745b308b64)"><g clip-path="url(#eba4cbe0d7)"><g transform="matrix(1, 0, 0, 1, 334, 660)"><g clip-path="url(#675b955add)"><g clip-path="url(#8f70541e7c)"><g clip-path="url(#2bb112fc28)"><path fill="#10069f" d="M -7.019531 0.910156 L 148.839844 0.910156 L 148.839844 137.089844 L -7.019531 137.089844 Z M -7.019531 0.910156 " fill-opacity="1" fill-rule="nonzero"/></g></g></g></g></g></g></svg>