<svg xmlns="http://www.w3.org/2000/svg" xmlns:xlink="http://www.w3.org/1999/xlink" width="1080" zoomAndPan="magnify" viewBox="0 0 810 809.999993" height="1080" preserveAspectRatio="xMidYMid meet" version="1.0"><defs><clipPath id="0f3a87caab"><path d="M 62 43 L 747.621094 43 L 747.621094 729 L 62 729 Z M 62 43 " clip-rule="nonzero"/></clipPath><clipPath id="6456fd6a9a"><path d="M 81.128906 43.757812 L 728.871094 43.757812 C 733.84375 43.757812 738.613281 45.734375 742.128906 49.25 C 745.644531 52.765625 747.621094 57.535156 747.621094 62.507812 L 747.621094 710.25 C 747.621094 715.222656 745.644531 719.992188 742.128906 723.507812 C 738.613281 727.023438 733.84375 729 728.871094 729 L 81.128906 729 C 76.15625 729 71.386719 727.023438 67.871094 723.507812 C 64.355469 719.992188 62.378906 715.222656 62.378906 710.25 L 62.378906 62.507812 C 62.378906 57.535156 64.355469 52.765625 67.871094 49.25 C 71.386719 45.734375 76.15625 43.757812 81.128906 43.757812 Z M 81.128906 43.757812 " clip-rule="nonzero"/></clipPath><clipPath id="92259e1367"><path d="M 0.160156 0.679688 L 685.621094 0.679688 L 685.621094 686 L 0.160156 686 Z M 0.160156 0.679688 " clip-rule="nonzero"/></clipPath><clipPath id="b51d3023a2"><path d="M 19.128906 0.757812 L 666.871094 0.757812 C 671.84375 0.757812 676.613281 2.734375 680.128906 6.25 C 683.644531 9.765625 685.621094 14.535156 685.621094 19.507812 L 685.621094 667.25 C 685.621094 672.222656 683.644531 676.992188 680.128906 680.507812 C 676.613281 684.023438 671.84375 686 666.871094 686 L 19.128906 686 C 14.15625 686 9.386719 684.023438 5.871094 680.507812 C 2.355469 676.992188 0.378906 672.222656 0.378906 667.25 L 0.378906 19.507812 C 0.378906 14.535156 2.355469 9.765625 5.871094 6.25 C 9.386719 2.734375 14.15625 0.757812 19.128906 0.757812 Z M 19.128906 0.757812 " clip-rule="nonzero"/></clipPath><clipPath id="83eb66c035"><rect x="0" width="686" y="0" height="686"/></clipPath><clipPath id="383f8d941d"><path d="M 334.429688 660.910156 L 475.394531 660.910156 L 475.394531 786.449219 L 334.429688 786.449219 Z M 334.429688 660.910156 " clip-rule="nonzero"/></clipPath><clipPath id="63c752d200"><path d="M 395.679688 780.820312 L 336.304688 677.179688 C 334.375 673.816406 334.386719 669.683594 336.328125 666.328125 C 338.273438 662.976562 341.855469 660.910156 345.730469 660.910156 L 464.269531 660.910156 C 468.144531 660.910156 471.726562 662.976562 473.671875 666.328125 C 475.613281 669.683594 475.625 673.816406 473.695312 677.179688 L 414.320312 780.820312 C 412.40625 784.160156 408.851562 786.222656 405 786.222656 C 401.148438 786.222656 397.59375 784.160156 395.679688 780.820312 Z M 395.679688 780.820312 " clip-rule="nonzero"/></clipPath><clipPath id="8ae7df96ab"><path d="M 0.429688 0.910156 L 141.394531 0.910156 L 141.394531 126.238281 L 0.429688 126.238281 Z M 0.429688 0.910156 " clip-rule="nonzero"/></clipPath><clipPath id="1461110b5c"><path d="M 61.679688 120.820312 L 2.304688 17.179688 C 0.375 13.816406 0.386719 9.683594 2.328125 6.328125 C 4.273438 2.976562 7.855469 0.910156 11.730469 0.910156 L 130.269531 0.910156 C 134.144531 0.910156 137.726562 2.976562 139.671875 6.328125 C 141.613281 9.683594 141.625 13.816406 139.695312 17.179688 L 80.320312 120.820312 C 78.40625 124.160156 74.851562 126.222656 71 126.222656 C 67.148438 126.222656 63.59375 124.160156 61.679688 120.820312 Z M 61.679688 120.820312 " clip-rule="nonzero"/></clipPath><clipPath id="6d8c4d1c8d"><rect x="0" width="142" y="0" height="127"/></clipPath></defs><g clip-path="url(#0f3a87caab)"><g clip-path="url(#6456fd6a9a)"><g transform="matrix(1, 0, 0, 1, 62, 43)"><g clip-path="url(#83eb66c035)"><g clip-path="url(#92259e1367)"><g clip-path="url(#b51d3023a2)"><path fill="#10069f" d="M 0.378906 0.757812 L 685.621094 0.757812 L 685.621094 686 L 0.378906 686 Z M 0.378906 0.757812 " fill-opacity="1" fill-rule="nonzero"/></g></g></g></g></g></g><g clip-path="url(#383f8d941d)"><g clip-path="url(#63c752d200)"><g transform="matrix(1, 0, 0, 1, 334, 660)"><g clip-path="url(#6d8c4d1c8d)"><g clip-path="url(#8ae7df96ab)"><g clip-path="url(#1461110b5c)"><path fill="#10069f" d="M -7.019531 0.910156 L 148.839844 0.910156 L 148.839844 137.089844 L -7.019531 137.089844 Z M -7.019531 0.910156 " fill-opacity="1" fill-rule="nonzero"/></g></g></g></g></g></g><path fill="#ffffff" d="M 154.492188 545.785156 L 154.492188 204.191406 L 200.039062 204.191406 L 200.039062 431.917969 L 382.222656 431.917969 L 382.222656 249.734375 L 564.40625 249.734375 C 589.457031 249.734375 610.898438 258.65625 628.738281 276.492188 C 646.578125 294.332031 655.496094 315.777344 655.496094 340.828125 L 655.496094 545.785156 L 609.949219 545.785156 L 609.949219 477.464844 L 200.039062 477.464844 L 200.039062 545.785156 Z M 291.128906 409.144531 C 272.152344 409.144531 256.019531 402.503906 242.738281 389.21875 C 229.453125 375.9375 222.8125 359.804688 222.8125 340.828125 C 222.8125 321.851562 229.453125 305.71875 242.738281 292.433594 C 256.019531 279.152344 272.152344 272.507812 291.128906 272.507812 C 310.105469 272.507812 326.238281 279.152344 339.523438 292.433594 C 352.804688 305.71875 359.449219 321.851562 359.449219 340.828125 C 359.449219 359.804688 352.804688 375.9375 339.523438 389.21875 C 326.238281 402.503906 310.105469 409.144531 291.128906 409.144531 Z M 427.765625 431.917969 L 609.949219 431.917969 L 609.949219 340.828125 C 609.949219 328.300781 605.492188 317.578125 596.570312 308.660156 C 587.652344 299.742188 576.929688 295.28125 564.40625 295.28125 L 427.765625 295.28125 Z M 291.128906 363.601562 C 297.582031 363.601562 302.992188 361.417969 307.355469 357.054688 C 311.71875 352.6875 313.902344 347.28125 313.902344 340.828125 C 313.902344 334.375 311.71875 328.964844 307.355469 324.601562 C 302.992188 320.238281 297.582031 318.054688 291.128906 318.054688 C 284.675781 318.054688 279.269531 320.238281 274.902344 324.601562 C 270.539062 328.964844 268.355469 334.375 268.355469 340.828125 C 268.355469 347.28125 270.539062 352.6875 274.902344 357.054688 C 279.269531 361.417969 284.675781 363.601562 291.128906 363.601562 Z M 291.128906 340.828125 Z M 427.765625 295.28125 L 427.765625 431.917969 Z M 427.765625 295.28125 " fill-opacity="1" fill-rule="nonzero"/></svg>