<svg xmlns="http://www.w3.org/2000/svg" xmlns:xlink="http://www.w3.org/1999/xlink" width="1080" zoomAndPan="magnify" viewBox="0 0 810 809.999993" height="1080" preserveAspectRatio="xMidYMid meet" version="1.0"><defs><clipPath id="927273ab17"><path d="M 62 43 L 747.621094 43 L 747.621094 729 L 62 729 Z M 62 43 " clip-rule="nonzero"/></clipPath><clipPath id="b7a2cc9ff3"><path d="M 81.128906 43.757812 L 728.871094 43.757812 C 733.84375 43.757812 738.613281 45.734375 742.128906 49.25 C 745.644531 52.765625 747.621094 57.535156 747.621094 62.507812 L 747.621094 710.25 C 747.621094 715.222656 745.644531 719.992188 742.128906 723.507812 C 738.613281 727.023438 733.84375 729 728.871094 729 L 81.128906 729 C 76.15625 729 71.386719 727.023438 67.871094 723.507812 C 64.355469 719.992188 62.378906 715.222656 62.378906 710.25 L 62.378906 62.507812 C 62.378906 57.535156 64.355469 52.765625 67.871094 49.25 C 71.386719 45.734375 76.15625 43.757812 81.128906 43.757812 Z M 81.128906 43.757812 " clip-rule="nonzero"/></clipPath><clipPath id="d62c40d7a9"><path d="M 0.160156 0.679688 L 685.621094 0.679688 L 685.621094 686 L 0.160156 686 Z M 0.160156 0.679688 " clip-rule="nonzero"/></clipPath><clipPath id="51e25aa227"><path d="M 19.128906 0.757812 L 666.871094 0.757812 C 671.84375 0.757812 676.613281 2.734375 680.128906 6.25 C 683.644531 9.765625 685.621094 14.535156 685.621094 19.507812 L 685.621094 667.25 C 685.621094 672.222656 683.644531 676.992188 680.128906 680.507812 C 676.613281 684.023438 671.84375 686 666.871094 686 L 19.128906 686 C 14.15625 686 9.386719 684.023438 5.871094 680.507812 C 2.355469 676.992188 0.378906 672.222656 0.378906 667.25 L 0.378906 19.507812 C 0.378906 14.535156 2.355469 9.765625 5.871094 6.25 C 9.386719 2.734375 14.15625 0.757812 19.128906 0.757812 Z M 19.128906 0.757812 " clip-rule="nonzero"/></clipPath><clipPath id="392e14430e"><rect x="0" width="686" y="0" height="686"/></clipPath><clipPath id="5e78899516"><path d="M 334.429688 660.910156 L 475.394531 660.910156 L 475.394531 786.449219 L 334.429688 786.449219 Z M 334.429688 660.910156 " clip-rule="nonzero"/></clipPath><clipPath id="2ebbce0d73"><path d="M 395.679688 780.820312 L 336.304688 677.179688 C 334.375 673.816406 334.386719 669.683594 336.328125 666.328125 C 338.273438 662.976562 341.855469 660.910156 345.730469 660.910156 L 464.269531 660.910156 C 468.144531 660.910156 471.726562 662.976562 473.671875 666.328125 C 475.613281 669.683594 475.625 673.816406 473.695312 677.179688 L 414.320312 780.820312 C 412.40625 784.160156 408.851562 786.222656 405 786.222656 C 401.148438 786.222656 397.59375 784.160156 395.679688 780.820312 Z M 395.679688 780.820312 " clip-rule="nonzero"/></clipPath><clipPath id="fce3365dc8"><path d="M 0.429688 0.910156 L 141.394531 0.910156 L 141.394531 126.238281 L 0.429688 126.238281 Z M 0.429688 0.910156 " clip-rule="nonzero"/></clipPath><clipPath id="eb842d91ba"><path d="M 61.679688 120.820312 L 2.304688 17.179688 C 0.375 13.816406 0.386719 9.683594 2.328125 6.328125 C 4.273438 2.976562 7.855469 0.910156 11.730469 0.910156 L 130.269531 0.910156 C 134.144531 0.910156 137.726562 2.976562 139.671875 6.328125 C 141.613281 9.683594 141.625 13.816406 139.695312 17.179688 L 80.320312 120.820312 C 78.40625 124.160156 74.851562 126.222656 71 126.222656 C 67.148438 126.222656 63.59375 124.160156 61.679688 120.820312 Z M 61.679688 120.820312 " clip-rule="nonzero"/></clipPath><clipPath id="38d32198e1"><rect x="0" width="142" y="0" height="127"/></clipPath></defs><g clip-path="url(#927273ab17)"><g clip-path="url(#b7a2cc9ff3)"><g transform="matrix(1, 0, 0, 1, 62, 43)"><g clip-path="url(#392e14430e)"><g clip-path="url(#d62c40d7a9)"><g clip-path="url(#51e25aa227)"><path fill="#10069f" d="M 0.378906 0.757812 L 685.621094 0.757812 L 685.621094 686 L 0.378906 686 Z M 0.378906 0.757812 " fill-opacity="1" fill-rule="nonzero"/></g></g></g></g></g></g><g clip-path="url(#5e78899516)"><g clip-path="url(#2ebbce0d73)"><g transform="matrix(1, 0, 0, 1, 334, 660)"><g clip-path="url(#38d32198e1)"><g clip-path="url(#fce3365dc8)"><g clip-path="url(#eb842d91ba)"><path fill="#10069f" d="M -7.019531 0.910156 L 148.839844 0.910156 L 148.839844 137.089844 L -7.019531 137.089844 Z M -7.019531 0.910156 " fill-opacity="1" fill-rule="nonzero"/></g></g></g></g></g></g><path fill="#ffffff" d="M 250.554688 622.441406 L 250.554688 159.117188 L 430.738281 159.117188 C 473.636719 159.117188 510.101562 174.132812 540.132812 204.164062 C 570.164062 234.191406 585.179688 270.65625 585.179688 313.558594 C 585.179688 356.457031 570.164062 392.925781 540.132812 422.953125 C 510.101562 452.984375 473.636719 468 430.738281 468 L 353.515625 468 L 353.515625 622.441406 Z M 353.515625 365.039062 L 435.882812 365.039062 C 450.042969 365.039062 462.160156 359.996094 472.242188 349.917969 C 482.324219 339.835938 487.363281 327.714844 487.363281 313.558594 C 487.363281 299.402344 482.324219 287.28125 472.242188 277.199219 C 462.160156 267.117188 450.042969 262.078125 435.882812 262.078125 L 353.515625 262.078125 Z M 353.515625 365.039062 " fill-opacity="1" fill-rule="nonzero"/></svg>