<svg xmlns="http://www.w3.org/2000/svg" xmlns:xlink="http://www.w3.org/1999/xlink" width="1080" zoomAndPan="magnify" viewBox="0 0 810 809.999993" height="1080" preserveAspectRatio="xMidYMid meet" version="1.0"><defs><clipPath id="57de82df38"><path d="M 62 43 L 747.621094 43 L 747.621094 729 L 62 729 Z M 62 43 " clip-rule="nonzero"/></clipPath><clipPath id="b9a9b514e7"><path d="M 81.128906 43.757812 L 728.871094 43.757812 C 733.84375 43.757812 738.613281 45.734375 742.128906 49.25 C 745.644531 52.765625 747.621094 57.535156 747.621094 62.507812 L 747.621094 710.25 C 747.621094 715.222656 745.644531 719.992188 742.128906 723.507812 C 738.613281 727.023438 733.84375 729 728.871094 729 L 81.128906 729 C 76.15625 729 71.386719 727.023438 67.871094 723.507812 C 64.355469 719.992188 62.378906 715.222656 62.378906 710.25 L 62.378906 62.507812 C 62.378906 57.535156 64.355469 52.765625 67.871094 49.25 C 71.386719 45.734375 76.15625 43.757812 81.128906 43.757812 Z M 81.128906 43.757812 " clip-rule="nonzero"/></clipPath><clipPath id="d4e3ee91d9"><path d="M 0.160156 0.679688 L 685.621094 0.679688 L 685.621094 686 L 0.160156 686 Z M 0.160156 0.679688 " clip-rule="nonzero"/></clipPath><clipPath id="13167b9753"><path d="M 19.128906 0.757812 L 666.871094 0.757812 C 671.84375 0.757812 676.613281 2.734375 680.128906 6.25 C 683.644531 9.765625 685.621094 14.535156 685.621094 19.507812 L 685.621094 667.25 C 685.621094 672.222656 683.644531 676.992188 680.128906 680.507812 C 676.613281 684.023438 671.84375 686 666.871094 686 L 19.128906 686 C 14.15625 686 9.386719 684.023438 5.871094 680.507812 C 2.355469 676.992188 0.378906 672.222656 0.378906 667.25 L 0.378906 19.507812 C 0.378906 14.535156 2.355469 9.765625 5.871094 6.25 C 9.386719 2.734375 14.15625 0.757812 19.128906 0.757812 Z M 19.128906 0.757812 " clip-rule="nonzero"/></clipPath><clipPath id="f07da09191"><rect x="0" width="686" y="0" height="686"/></clipPath><clipPath id="b992a2cc0c"><path d="M 334.429688 660.910156 L 475.394531 660.910156 L 475.394531 786.449219 L 334.429688 786.449219 Z M 334.429688 660.910156 " clip-rule="nonzero"/></clipPath><clipPath id="7ea72918f3"><path d="M 395.679688 780.820312 L 336.304688 677.179688 C 334.375 673.816406 334.386719 669.683594 336.328125 666.328125 C 338.273438 662.976562 341.855469 660.910156 345.730469 660.910156 L 464.269531 660.910156 C 468.144531 660.910156 471.726562 662.976562 473.671875 666.328125 C 475.613281 669.683594 475.625 673.816406 473.695312 677.179688 L 414.320312 780.820312 C 412.40625 784.160156 408.851562 786.222656 405 786.222656 C 401.148438 786.222656 397.59375 784.160156 395.679688 780.820312 Z M 395.679688 780.820312 " clip-rule="nonzero"/></clipPath><clipPath id="2112aee8aa"><path d="M 0.429688 0.910156 L 141.394531 0.910156 L 141.394531 126.238281 L 0.429688 126.238281 Z M 0.429688 0.910156 " clip-rule="nonzero"/></clipPath><clipPath id="c1e5acd849"><path d="M 61.679688 120.820312 L 2.304688 17.179688 C 0.375 13.816406 0.386719 9.683594 2.328125 6.328125 C 4.273438 2.976562 7.855469 0.910156 11.730469 0.910156 L 130.269531 0.910156 C 134.144531 0.910156 137.726562 2.976562 139.671875 6.328125 C 141.613281 9.683594 141.625 13.816406 139.695312 17.179688 L 80.320312 120.820312 C 78.40625 124.160156 74.851562 126.222656 71 126.222656 C 67.148438 126.222656 63.59375 124.160156 61.679688 120.820312 Z M 61.679688 120.820312 " clip-rule="nonzero"/></clipPath><clipPath id="8ba3ec4d42"><rect x="0" width="142" y="0" height="127"/></clipPath></defs><g clip-path="url(#57de82df38)"><g clip-path="url(#b9a9b514e7)"><g transform="matrix(1, 0, 0, 1, 62, 43)"><g clip-path="url(#f07da09191)"><g clip-path="url(#d4e3ee91d9)"><g clip-path="url(#13167b9753)"><path fill="#10069f" d="M 0.378906 0.757812 L 685.621094 0.757812 L 685.621094 686 L 0.378906 686 Z M 0.378906 0.757812 " fill-opacity="1" fill-rule="nonzero"/></g></g></g></g></g></g><g clip-path="url(#b992a2cc0c)"><g clip-path="url(#7ea72918f3)"><g transform="matrix(1, 0, 0, 1, 334, 660)"><g clip-path="url(#8ba3ec4d42)"><g clip-path="url(#2112aee8aa)"><g clip-path="url(#c1e5acd849)"><path fill="#10069f" d="M -7.019531 0.910156 L 148.839844 0.910156 L 148.839844 137.089844 L -7.019531 137.089844 Z M -7.019531 0.910156 " fill-opacity="1" fill-rule="nonzero"/></g></g></g></g></g></g><path fill="#ffffff" d="M 291.523438 631.945312 L 291.523438 424.289062 C 272.234375 418.992188 256.0625 408.402344 243.011719 392.515625 C 229.964844 376.628906 223.4375 358.09375 223.4375 336.914062 L 223.4375 178.050781 L 268.828125 178.050781 L 268.828125 336.914062 L 291.523438 336.914062 L 291.523438 178.050781 L 336.914062 178.050781 L 336.914062 336.914062 L 359.609375 336.914062 L 359.609375 178.050781 L 404.996094 178.050781 L 404.996094 336.914062 C 404.996094 358.09375 398.472656 376.628906 385.421875 392.515625 C 372.375 408.402344 356.203125 418.992188 336.914062 424.289062 L 336.914062 631.945312 Z M 518.472656 631.945312 L 518.472656 450.386719 L 450.386719 450.386719 L 450.386719 291.523438 C 450.386719 260.128906 461.449219 233.367188 483.578125 211.242188 C 505.707031 189.113281 532.464844 178.050781 563.859375 178.050781 L 563.859375 631.945312 Z M 518.472656 631.945312 " fill-opacity="1" fill-rule="nonzero"/></svg>